<svg fill="none" stroke-linecap="square" stroke-miterlimit="10" version="1.1" viewBox="0 0 960 540" xml:space="preserve" xmlns="http://www.w3.org/2000/svg"><clipPath id="gcb9a0b074_1_0.0"><path d="m0 0h960v540h-960v-540z"/></clipPath><g clip-path="url(#gcb9a0b074_1_0.0)"><g fill-rule="evenodd"><path d="m0 0h960v540h-960z" fill="#fff"/><path d="m260.13 43.638h655.56" fill="#000" fill-opacity="0"/><path d="m260.13 43.638h655.56" stroke="#fff" stroke-linecap="butt" stroke-linejoin="round" stroke-width="4"/><path d="m260.13 497.64h655.56" fill="#000" fill-opacity="0"/><path d="m260.13 497.64h655.56" stroke="#fff" stroke-linecap="butt" stroke-linejoin="round" stroke-width="2"/><path d="m13.454 13.913h933.1v512.16h-933.1z" fill="#000" fill-opacity="0"/><path d="m13.454 13.913h933.1v512.16h-933.1z" stroke="#ccc" stroke-linecap="butt" stroke-linejoin="round"/></g><g fill="#000" fill-opacity="0" fill-rule="evenodd"><path d="m190.86 110.27h328.22v192.72h-328.22z"/><path d="m297.08 317.54h391.09v59.055h-391.09z"/><path d="m600.39 193.04h176.76v82.394h-176.76z"/><path d="m133.65 105.83h83.685v193.95h-83.685z"/><path d="m511.94 105.83h83.685v193.95h-83.685z"/></g><g fill="#fff" fill-rule="evenodd"><path d="m-8.315e-4 6.6614e-4h22.142v22.142h-22.142z"/><path d="m937.86-7.0131e-4h22.142v22.142h-22.142z"/><path d="m937.86 517.86h22.142v22.142h-22.142z"/><path d="m-8.315e-4 517.86h22.142v22.142h-22.142z"/><path d="m468.93 517.51h22.142v22.142h-22.142z"/><path d="m468.93-1.2448h22.142v22.142h-22.142z"/><path d="m-8.315e-4 223.16h22.142v22.142h-22.142z"/><path d="m937.86 223.16h22.142v22.142h-22.142z"/></g><text x="300.9715" y="369.8334" fill="#69b7cf" font-family="Abel" font-size="37.333px" letter-spacing="0px" word-spacing="0px" style="line-height:1.25" xml:space="preserve"><tspan x="300.9715" y="369.8334" font-size="37.333px">simplest precise address</tspan></text><g transform="matrix(1.7766 0 0 1.7766 241.04 85.228)"><g transform="matrix(.78972 0 0 .70018 -9.8275 49.74)"><path d="m-20.8 73.9-31.2-89.8h8.5l31.1 89.8z" fill="#d9d9d9"/><g transform="matrix(.99982 0 0 .99982 1.3825 .010709)" fill="#69b7cf"><path d="m-3.6 66.1-25.2-72.8h13.5l25.1 72.8z"/><path d="m26.3 12.6-15.2 46.9-5.7-18.6 15.2-47.6h12.6l17.1 51 18.1-51h13.4l-25.3 72.8h-12.6z"/></g><g transform="translate(148.1)"><path d="m94.4-15.9h8.5l-30.7 89.8h-8.5z" fill="#d9d9d9"/></g></g><g transform="matrix(.84861 0 0 .84861 -1.494 15.828)"><g transform="matrix(.93774 0 0 .93774 8.3188 5.5414)"><path d="m145.28 94.696h-28.462v-45.948h6.082v40.484h22.38z" fill="#69b7cf" stroke-width="4.8656"/></g><g transform="matrix(.92112 0 0 .92112 8.1634 5.4759)"><path d="m90.863 49.307q4.7516 0 8.7902 1.7106 4.0387 1.7106 6.9374 4.8466 2.946 3.0886 4.5615 7.5077 1.6631 4.3715 1.6631 9.6933 0 5.2743-1.6155 9.6456-1.6155 4.3715-4.5615 7.5549-2.8984 3.136-6.9374 4.8943-3.9913 1.7106-8.8379 1.7106t-8.8856-1.7106q-4.0389-1.7106-6.9846-4.8466-2.8984-3.136-4.514-7.5077-1.6155-4.419-1.6155-9.741 0-5.3692 1.6155-9.741 1.6631-4.419 4.6091-7.5077 2.946-3.136 6.9374-4.7991 4.0389-1.7106 8.8379-1.7106zm-0.04768 42.337q3.4211 0 6.3195-1.2354 2.8984-1.2829 4.9892-3.6587 2.0907-2.4233 3.2311-5.8446 1.1879-3.4687 1.1879-7.84 0-4.419-1.1879-7.84-1.1879-3.4211-3.2786-5.7969-2.0432-2.3758-4.9415-3.6112-2.851-1.2354-6.1769-1.2354-3.4211 0-6.3672 1.2829-2.8984 1.2354-4.9892 3.6112-2.0907 2.3758-3.2786 5.7969t-1.1879 7.7928 1.1404 7.84q1.1879 3.4211 3.2786 5.8446 2.0907 2.3758 4.9415 3.6587 2.8984 1.2354 6.3195 1.2354z" fill="#69b7cf" stroke-width="4.8656"/></g><g transform="translate(77.204 -.28956)"><path d="m87.864 51.183q4.3768 0 8.0968 1.5756t6.3902 4.4643q2.7136 2.8449 4.2017 6.9154 1.5319 4.0266 1.5319 8.9287 0 4.8583-1.4881 8.8847-1.4881 4.0266-4.2017 6.9589-2.6698 2.8887-6.3902 4.5082-3.6765 1.5756-8.1408 1.5756t-8.1847-1.5756q-3.7203-1.5756-6.4336-4.4643-2.6698-2.8887-4.1579-6.9154-1.4881-4.0704-1.4881-8.9726 0-4.9457 1.4881-8.9726 1.5319-4.0704 4.2455-6.9154 2.7136-2.8887 6.3902-4.4205 3.7203-1.5756 8.1408-1.5756zm-0.04392 38.997q3.1512 0 5.821-1.138 2.6698-1.1817 4.5956-3.3701 1.9258-2.2322 2.9762-5.3836 1.0942-3.195 1.0942-7.2215 0-4.0704-1.0942-7.2215-1.0942-3.1512-3.02-5.3396-1.882-2.1884-4.5517-3.3264-2.6261-1.138-5.6897-1.138-3.1512 0-5.8649 1.1817-2.6698 1.138-4.5956 3.3264t-3.02 5.3396-1.0942 7.1781 1.0504 7.2215q1.0942 3.1512 3.02 5.3836 1.9258 2.1884 4.5517 3.3701 2.6698 1.138 5.821 1.138z" fill="#69b7cf" stroke-width="4.4818"/></g></g></g><g transform="matrix(3.4245 0 0 3.4245 433.36 218.53)" fill="#69b7cf" stroke-width=".47133" aria-label="CODE"><path d="m61.31 3.1343h-1.2864q-0.02946-0.45169-0.23567-0.81501t-0.54989-0.61862q-0.33386-0.2553-0.79537-0.39278-0.45169-0.13747-0.97212-0.13747-0.71682 0-1.2962 0.2553-0.57935 0.24549-0.99176 0.73646-0.4026 0.48115-0.62844 1.198-0.21603 0.71682-0.21603 1.6398t0.21603 1.6398q0.22585 0.707 0.62844 1.198t0.97212 0.74628q0.57935 0.2553 1.2864 0.2553 1.1194 0 1.8068-0.54007t0.77574-1.5613h1.2864q-0.06874 0.7561-0.38296 1.3453-0.3044 0.58917-0.81501 1.0016-0.50079 0.4026-1.1783 0.61862-0.67754 0.21603-1.4729 0.21603-1.0212 0-1.8362-0.34368-0.81501-0.3535-1.3944-0.99176-0.56953-0.63826-0.88375-1.5515-0.3044-0.91321-0.3044-2.0326t0.31422-2.0326 0.88375-1.5515q0.57935-0.63826 1.3944-0.98194 0.81501-0.3535 1.8264-0.3535 0.7561 0 1.4238 0.21603 0.67754 0.21603 1.1882 0.61862 0.52043 0.4026 0.84447 0.97212 0.32404 0.55971 0.39278 1.2471z"/><path d="m67.172 0.090283q0.98194 0 1.8166 0.3535 0.83465 0.3535 1.4336 1.0016 0.6088 0.63826 0.94266 1.5515 0.34368 0.90339 0.34368 2.0032 0 1.09-0.33386 1.9934-0.33386 0.90339-0.94267 1.5613-0.59898 0.64808-1.4336 1.0114-0.82483 0.3535-1.8264 0.3535t-1.8362-0.3535q-0.83465-0.3535-1.4435-1.0016-0.59898-0.64808-0.93285-1.5515-0.33386-0.91321-0.33386-2.013 0-1.1096 0.33386-2.013 0.34368-0.91321 0.95248-1.5515 0.6088-0.64808 1.4336-0.99176 0.83465-0.3535 1.8264-0.3535zm-0.0098 8.7491q0.707 0 1.306-0.2553 0.59899-0.26512 1.031-0.7561 0.43206-0.50079 0.66772-1.2078 0.24549-0.71682 0.24549-1.6202 0-0.91321-0.24549-1.6202-0.24548-0.707-0.67754-1.198-0.42224-0.49097-1.0212-0.74628-0.58917-0.2553-1.2765-0.2553-0.707 0-1.3158 0.26512-0.59899 0.2553-1.031 0.74628t-0.67754 1.198q-0.24549 0.707-0.24549 1.6104 0 0.90339 0.23567 1.6202 0.24549 0.707 0.67754 1.2078 0.43206 0.49097 1.0212 0.7561 0.59898 0.2553 1.306 0.2553z"/><path d="m81.244 4.9509q0 4.8017-4.841 4.8017h-3.0146v-9.4954h3.0146q4.841 0 4.841 4.6937zm-1.2962 0q0-0.83465-0.16693-1.4926-0.16693-0.6579-0.56953-1.1194-0.4026-0.46151-1.0998-0.707-0.68736-0.24549-1.7282-0.24549h-1.738v7.2369h1.738q1.0409 0 1.7282-0.24549 0.68736-0.2553 1.09-0.72664 0.41242-0.47133 0.57935-1.1489 0.16693-0.68736 0.16693-1.5515z"/><path d="m90.061 9.7526h-7.0896v-9.4954h6.8736v1.1292h-5.6167v2.8869h5.2534v1.1292h-5.2534v3.2208h5.8327z"/></g></g></svg>
