<svg version="1.1" viewBox="0.0 0.0 960.0 540.0" fill="none" stroke="none" stroke-linecap="square" stroke-miterlimit="10" xmlns:xlink="http://www.w3.org/1999/xlink" xmlns="http://www.w3.org/2000/svg"><clipPath id="g86126ec79d_0_0.0"><path d="m0 0l960.0 0l0 540.0l-960.0 0l0 -540.0z" clip-rule="nonzero"/></clipPath><g clip-path="url(#g86126ec79d_0_0.0)"><path fill="#ffffff" d="m0 0l960.0 0l0 540.0l-960.0 0z" fill-rule="evenodd"/><path fill="#000000" fill-opacity="0.0" d="m124.031494 228.27296l711.937 0l0 203.40157l-711.937 0z" fill-rule="evenodd"/><path fill="#b7b7b7" d="m443.21942 276.07922q-3.046875 0 -4.984375 -1.203125q-1.9375 -1.203125 -2.859375 -3.21875q-0.921875 -2.03125 -0.921875 -4.46875q0 -2.5625 0.9375 -4.875q0.953125 -2.328125 2.671875 -4.125q1.71875 -1.796875 4.046875 -2.8125153q2.34375 -1.015625 5.15625 -1.015625q3.03125 0 4.96875 1.203125q1.9375 1.1875153 2.859375 3.1875153q0.921875 2.0 0.921875 4.484375q0 2.5625 -0.9375 4.890625q-0.9375 2.3125 -2.65625 4.109375q-1.71875 1.796875 -4.0625 2.828125q-2.34375 1.015625 -5.140625 1.015625zm0.796875 -4.5625q1.25 0 2.40625 -0.5625q1.15625 -0.5625 2.046875 -1.59375q0.90625 -1.046875 1.4375 -2.4375q0.546875 -1.40625 0.546875 -3.046875q0 -1.484375 -0.453125 -2.59375q-0.453125 -1.125 -1.359375 -1.75q-0.90625 -0.625 -2.1875 -0.625q-1.234375 0 -2.375 0.5625q-1.140625 0.5625 -2.0625 1.609375q-0.921875 1.03125 -1.46875 2.453125q-0.53125 1.421875 -0.53125 3.0625q0 1.4375 0.453125 2.5625q0.46875 1.109375 1.359375 1.734375q0.90625 0.625 2.1875 0.625zm17.564972 -16.79689l4.84375 0l-0.84375 3.8750153q1.03125 -1.359375 2.40625 -2.296875q1.390625 -0.93751526 3.0 -1.4375153q1.625 -0.5 3.359375 -0.5q1.828125 0 2.828125 0.640625q1.0 0.625 1.421875 1.7343903q0.421875 1.09375 0.421875 2.453125q0 0.84375 -0.125 1.6875q-0.109375 0.84375 -0.28125 1.71875l-2.75 13.078125l-5.359375 0l2.484375 -11.765625q0.15625 -0.59375 0.203125 -1.109375q0.0625 -0.53125 0.0625 -1.0q0 -1.40625 -0.625 -2.0625q-0.609375 -0.65625 -1.640625 -0.65625q-0.96875 0 -2.09375 0.5625q-1.109375 0.546875 -2.109375 1.53125q-1.0 0.984375 -1.6875 2.265625l-2.59375 12.234375l-5.359375 0l4.4375 -20.95314zm23.842499 21.26564q-2.0 0 -3.109375 -0.9375q-1.09375 -0.9375 -1.09375 -2.6875q0 -0.375 0.0625 -0.75q0.0625 -0.375 0.09375 -0.78125l5.203125 -24.35939l5.3125 0l-4.75 22.48439q-0.046875 0.203125 -0.0625 0.40625q-0.015625 0.1875 -0.015625 0.390625q0 1.640625 1.640625 1.640625q0.4375 0 1.015625 -0.15625q0.578125 -0.15625 1.09375 -0.40625l-0.15625 4.078125q-1.125 0.53125 -2.609375 0.796875q-1.46875 0.28125 -2.625 0.28125zm4.6705933 4.734375q1.609375 -0.125 2.625 -0.40625q1.015625 -0.28125 1.78125 -0.90625q0.765625 -0.609375 1.5625 -1.734375l1.15625 -1.5625l-3.484375 -21.39064l5.484375 0l1.796875 16.312515l1.359375 -2.234375q1.25 -2.046875 2.1875 -3.828125q0.9375 -1.78125 1.640625 -3.4375q0.703125 -1.65625 1.21875 -3.328125q0.515625 -1.6875 0.953125 -3.4843903l5.203125 0q-0.515625 1.9062653 -1.15625 3.6093903q-0.640625 1.703125 -1.53125 3.546875q-0.875 1.84375 -2.21875 4.171875q-1.328125 2.3125 -3.328125 5.5l-3.203125 5.171875q-1.40625 2.234375 -2.703125 3.765625q-1.296875 1.546875 -2.640625 2.5q-1.34375 0.96875 -2.828125 1.390625q-1.46875 0.421875 -3.234375 0.453125l-0.640625 -4.109375zm27.362488 -25.843765l2.359375 -2.84375l-2.46875 -0.875l1.1875 -2.328125l2.484375 1.25l0.484375 -3.09375l2.84375 0l-0.84375 3.09375l3.0 -1.25l0.203125 2.328125l-2.84375 0.875l1.203125 2.84375l-2.359375 1.3593903l-1.09375 -3.0000153l-2.390625 3.0000153l-1.765625 -1.3593903z" fill-rule="nonzero"/><path fill="#69b7cf" d="m190.24475 356.19797q3.359375 0.5625 5.828125 2.515625q2.484375 1.953125 3.875 5.0q1.40625 3.046875 1.40625 6.71875q0 4.953125 -2.5625 8.640625q-2.546875 3.6875 -7.234375 5.71875q-4.671875 2.046875 -11.0 2.046875q-6.078125 0 -10.765625 -1.96875q-4.671875 -1.953125 -7.796875 -5.71875l6.078125 -7.59375q2.09375 2.5625 5.0 4.03125q2.921875 1.484375 7.171875 1.484375q4.875 0 7.4375 -1.96875q2.5625 -1.953125 2.5625 -5.875q0 -4.15625 -2.96875 -6.390625q-2.953125 -2.25 -8.953125 -2.25l-2.25 0l0 -8.0l2.484375 0q4.890625 0 7.640625 -2.234375q2.765625 -2.234375 2.765625 -5.59375q0 -2.171875 -1.046875 -3.609375q-1.03125 -1.4375 -2.84375 -2.15625q-1.796875 -0.71875 -4.1875 -0.71875q-3.609375 0 -6.578125 1.6875q-2.953125 1.671875 -4.78125 4.703125l-6.71875 -7.515625q1.671875 -2.484375 4.59375 -4.28125q2.921875 -1.796875 6.71875 -2.828125q3.796875 -1.046875 7.953125 -1.046875q5.453125 0 9.5625 1.765625q4.125 1.75 6.4375 4.953125q2.328125 3.203125 2.328125 7.4375q0 3.125 -1.28125 5.921875q-1.28125 2.796875 -3.5625 4.6875q-2.28125 1.875 -5.3125 2.4375zm53.66806 19.671875q-5.359375 0 -10.234375 -1.75q-4.875 -1.765625 -8.390625 -5.203125l3.828125 -6.96875q3.765625 3.046875 7.40625 4.484375q3.640625 1.4375 7.0 1.4375q3.125 0 5.0 -1.109375q1.875 -1.125 1.875 -3.375q0 -1.515625 -1.046875 -2.34375q-1.03125 -0.84375 -3.0 -1.484375q-1.953125 -0.640625 -4.75 -1.4375q-4.640625 -1.53125 -7.765625 -2.96875q-3.109375 -1.4375 -4.671875 -3.640625q-1.5625 -2.203125 -1.5625 -5.640625q0 -4.15625 2.109375 -7.15625q2.125 -3.0 5.921875 -4.671875q3.8125 -1.6875 8.921875 -1.6875q4.484375 0 8.484375 1.40625q4.0 1.390625 7.28125 4.515625l-4.3125 6.796875q-3.203125 -2.484375 -6.09375 -3.640625q-2.875 -1.15625 -5.828125 -1.15625q-1.6875 0 -3.171875 0.40625q-1.46875 0.390625 -2.390625 1.3125q-0.921875 0.921875 -0.921875 2.59375q0 1.53125 0.84375 2.375q0.84375 0.828125 2.5625 1.46875q1.71875 0.640625 4.1875 1.4375q5.046875 1.4375 8.515625 2.96875q3.484375 1.515625 5.25 3.71875q1.765625 2.203125 1.765625 6.03125q0 6.25 -4.5625 9.765625q-4.5625 3.515625 -12.25 3.515625zm24.082458 -0.796875l0 -41.921875l10.71875 0l0 41.921875l-10.71875 0zm0 -47.765625l0 -10.640625l10.71875 0l0 10.640625l-10.71875 0zm85.524994 47.765625l-10.71875 0l0 -23.515625q0 -4.96875 -1.71875 -7.328125q-1.71875 -2.359375 -4.765625 -2.359375q-3.109375 0 -5.953125 2.453125q-2.84375 2.4375 -4.046875 6.34375l0 24.40625l-10.71875 0l0 -23.515625q0 -5.046875 -1.71875 -7.359375q-1.71875 -2.328125 -4.765625 -2.328125q-3.109375 0 -5.953125 2.40625q-2.84375 2.390625 -4.046875 6.3125l0 24.484375l-10.71875 0l0 -41.921875l9.6875 0l0 7.765625q2.390625 -4.078125 6.390625 -6.28125q4.0 -2.203125 9.203125 -2.203125q5.203125 0 8.125 2.5625q2.921875 2.5625 3.71875 6.3125q2.5625 -4.3125 6.515625 -6.59375q3.96875 -2.28125 8.921875 -2.28125q3.921875 0 6.359375 1.40625q2.4375 1.390625 3.796875 3.75q1.359375 2.359375 1.875 5.328125q0.53125 2.953125 0.53125 6.0l0 26.15625zm34.47992 0.796875q-4.875 0 -8.59375 -2.1875q-3.71875 -2.203125 -5.8125 -5.96875l0 24.40625l-10.71875 0l0 -58.96875l9.359375 0l0 7.203125q2.40625 -3.6875 6.078125 -5.796875q3.6875 -2.125 8.40625 -2.125q4.234375 0 7.796875 1.6875q3.5625 1.671875 6.203125 4.671875q2.640625 3.0 4.109375 6.890625q1.484375 3.875 1.484375 8.34375q0 6.09375 -2.359375 11.046875q-2.359375 4.953125 -6.484375 7.875q-4.109375 2.921875 -9.46875 2.921875zm-3.59375 -9.109375q2.46875 0 4.46875 -1.046875q2.0 -1.046875 3.484375 -2.84375q1.484375 -1.796875 2.234375 -4.078125q0.765625 -2.28125 0.765625 -4.765625q0 -2.640625 -0.84375 -4.875q-0.828125 -2.234375 -2.4375 -3.953125q-1.59375 -1.71875 -3.71875 -2.671875q-2.125 -0.96875 -4.59375 -0.96875q-1.53125 0 -3.09375 0.515625q-1.546875 0.515625 -3.0 1.484375q-1.4375 0.953125 -2.515625 2.234375q-1.078125 1.28125 -1.5625 2.796875l0 9.84375q0.96875 2.328125 2.609375 4.25q1.640625 1.90625 3.796875 3.0q2.15625 1.078125 4.40625 1.078125zm29.110596 -50.09375l10.71875 0l0 44.96875q0 2.875 0.953125 3.875q0.96875 1.0 2.65625 1.0q1.28125 0 2.640625 -0.3125q1.359375 -0.328125 2.390625 -0.8125l1.4375 8.171875q-2.15625 1.03125 -5.03125 1.59375q-2.875 0.5625 -5.203125 0.5625q-5.046875 0 -7.8125 -2.671875q-2.75 -2.6875 -2.75 -7.65625l0 -48.71875zm44.87558 59.203125q-5.03125 0 -9.109375 -1.71875q-4.078125 -1.71875 -6.96875 -4.71875q-2.875 -3.0 -4.4375 -6.875q-1.5625 -3.890625 -1.5625 -8.203125q0 -6.0 2.671875 -10.953125q2.6875 -4.96875 7.6875 -7.96875q5.0 -3.0 11.8125 -3.0q6.875 0 11.75 3.0q4.890625 3.0 7.484375 7.921875q2.59375 4.921875 2.59375 10.59375q0 0.96875 -0.078125 1.96875q-0.078125 1.0 -0.15625 1.640625l-32.40625 0q0.328125 3.203125 1.890625 5.609375q1.5625 2.390625 4.0 3.625q2.4375 1.234375 5.234375 1.234375q3.203125 0 6.03125 -1.546875q2.84375 -1.5625 3.890625 -4.125l9.203125 2.5625q-1.53125 3.203125 -4.375 5.6875q-2.828125 2.46875 -6.671875 3.875q-3.84375 1.390625 -8.484375 1.390625zm-10.953125 -25.109375l21.921875 0q-0.328125 -3.203125 -1.8125 -5.5625q-1.46875 -2.359375 -3.875 -3.671875q-2.390625 -1.328125 -5.359375 -1.328125q-2.875 0 -5.234375 1.328125q-2.359375 1.3125 -3.84375 3.671875q-1.46875 2.359375 -1.796875 5.5625zm76.319916 -32.328125l10.234375 0l6.484375 18.796875l6.5625 -18.796875l10.15625 0l-9.75 25.84375l7.1875 18.078125l16.078125 -44.078125l12.0 0l-22.71875 56.796875l-9.515625 0l-10.0 -23.84375l-9.921875 23.84375l-9.515625 0l-22.640625 -56.796875l11.84375 0l16.15625 44.078125l7.046875 -18.078125l-9.6875 -25.84375zm86.87677 57.046875q-6.234375 0 -11.3125 -2.40625q-5.078125 -2.40625 -8.71875 -6.515625q-3.640625 -4.125 -5.640625 -9.28125q-2.0 -5.15625 -2.0 -10.609375q0 -5.671875 2.109375 -10.828125q2.125 -5.171875 5.84375 -9.203125q3.71875 -4.046875 8.796875 -6.40625q5.078125 -2.359375 11.171875 -2.359375q6.15625 0 11.234375 2.484375q5.078125 2.484375 8.671875 6.640625q3.609375 4.15625 5.609375 9.28125q2.0 5.109375 2.0 10.5625q0 5.59375 -2.078125 10.765625q-2.078125 5.15625 -5.8125 9.203125q-3.71875 4.03125 -8.796875 6.359375q-5.078125 2.3125 -11.078125 2.3125zm-16.46875 -28.8125q0 3.6875 1.109375 7.125q1.125 3.4375 3.234375 6.125q2.125 2.671875 5.203125 4.234375q3.078125 1.5625 7.0 1.5625q4.0 0 7.125 -1.640625q3.125 -1.640625 5.203125 -4.390625q2.078125 -2.765625 3.15625 -6.15625q1.078125 -3.40625 1.078125 -6.859375q0 -3.671875 -1.15625 -7.0625q-1.15625 -3.40625 -3.28125 -6.078125q-2.125 -2.6875 -5.203125 -4.25q-3.078125 -1.5625 -6.921875 -1.5625q-4.078125 0 -7.15625 1.640625q-3.078125 1.640625 -5.15625 4.359375q-2.078125 2.71875 -3.15625 6.078125q-1.078125 3.359375 -1.078125 6.875zm52.714294 28.40625l0 -56.796875l25.125 0q3.90625 0 7.21875 1.609375q3.328125 1.59375 5.765625 4.3125q2.453125 2.71875 3.765625 6.078125q1.328125 3.359375 1.328125 6.875q0 3.609375 -1.25 6.921875q-1.234375 3.3125 -3.5625 5.796875q-2.3125 2.484375 -5.4375 3.84375l12.96875 21.359375l-12.15625 0l-11.6875 -19.046875l-11.046875 0l0 19.046875l-11.03125 0zm11.03125 -28.71875l13.84375 0q2.078125 0 3.671875 -1.234375q1.609375 -1.25 2.5625 -3.328125q0.96875 -2.078125 0.96875 -4.640625q0 -2.71875 -1.125 -4.75q-1.109375 -2.046875 -2.84375 -3.25q-1.71875 -1.203125 -3.71875 -1.203125l-13.359375 0l0 18.40625zm42.1687 28.71875l0 -56.796875l20.640625 0q9.28125 0 15.515625 3.796875q6.234375 3.796875 9.359375 10.25q3.125 6.4375 3.125 14.265625q0 8.640625 -3.4375 15.046875q-3.4375 6.390625 -9.71875 9.921875q-6.28125 3.515625 -14.84375 3.515625l-20.640625 0zm37.515625 -28.484375q0 -5.515625 -2.0 -9.71875q-2.0 -4.203125 -5.765625 -6.5625q-3.75 -2.359375 -9.109375 -2.359375l-9.609375 0l0 37.4375l9.609375 0q5.4375 0 9.1875 -2.4375q3.765625 -2.4375 5.71875 -6.71875q1.96875 -4.28125 1.96875 -9.640625zm53.368042 -13.4375q-0.5625 -0.5625 -2.046875 -1.515625q-1.484375 -0.96875 -3.609375 -1.84375q-2.109375 -0.875 -4.59375 -1.546875q-2.46875 -0.6875 -5.03125 -0.6875q-4.484375 0 -6.765625 1.6875q-2.28125 1.671875 -2.28125 4.703125q0 2.328125 1.4375 3.6875q1.4375 1.359375 4.3125 2.328125q2.890625 0.953125 7.21875 2.0625q5.59375 1.359375 9.703125 3.328125q4.125 1.953125 6.328125 5.125q2.203125 3.15625 2.203125 8.359375q0 4.546875 -1.6875 7.796875q-1.671875 3.234375 -4.640625 5.234375q-2.953125 2.0 -6.71875 2.921875q-3.75 0.921875 -8.0 0.921875q-4.234375 0 -8.484375 -0.875q-4.234375 -0.890625 -8.15625 -2.53125q-3.90625 -1.640625 -7.1875 -3.953125l4.875 -9.515625q0.71875 0.71875 2.5625 1.875q1.84375 1.15625 4.46875 2.328125q2.640625 1.15625 5.765625 1.953125q3.125 0.796875 6.328125 0.796875q4.46875 0 6.78125 -1.515625q2.328125 -1.515625 2.328125 -4.328125q0 -2.5625 -1.84375 -4.0q-1.828125 -1.4375 -5.109375 -2.515625q-3.28125 -1.078125 -7.765625 -2.359375q-5.359375 -1.515625 -8.96875 -3.390625q-3.59375 -1.890625 -5.359375 -4.765625q-1.75 -2.890625 -1.75 -7.203125q0 -5.84375 2.75 -9.796875q2.765625 -3.96875 7.484375 -6.0q4.734375 -2.046875 10.484375 -2.046875q4.0 0 7.5625 0.890625q3.5625 0.875 6.671875 2.3125q3.125 1.4375 5.609375 3.125l-4.875 8.953125z" fill-rule="nonzero"/><path fill="#000000" fill-opacity="0.0" d="m273.24933 112.92126l431.0866 0l0 96.94488l-431.0866 0z" fill-rule="evenodd"/><path fill="#b7b7b7" d="m294.24933 151.78189q-0.546875 0.21875 -1.3125 0.515625q-0.765625 0.28125 -1.65625 0.453125q-0.875 0.171875 -1.765625 0.171875q-1.1875 0 -2.1875 -0.40625q-0.984375 -0.421875 -1.578125 -1.328125q-0.59375 -0.921875 -0.59375 -2.390625l0 -9.625l-2.203125 0l0 -3.296875l2.203125 0l0 -5.4375l4.296875 0l0 5.4375l3.515625 0l0 3.296875l-3.515625 0l0 8.1875q0.03125 0.859375 0.46875 1.25q0.453125 0.390625 1.125 0.390625q0.671875 0 1.3125 -0.21875q0.640625 -0.234375 1.03125 -0.390625l0.859375 3.390625zm17.819275 0.859375l-4.28125 0l0 -9.40625q0 -1.953125 -0.75 -2.90625q-0.75 -0.96875 -2.0625 -0.96875q-0.78125 0 -1.640625 0.453125q-0.859375 0.4375 -1.546875 1.234375q-0.6875 0.78125 -1.015625 1.796875l0 9.796875l-4.28125 0l0 -23.359375l4.28125 0l0 9.703125q0.9375 -1.609375 2.53125 -2.5q1.609375 -0.90625 3.484375 -0.90625q1.640625 0 2.65625 0.5625q1.03125 0.5625 1.609375 1.515625q0.578125 0.9375 0.796875 2.109375q0.21875 1.15625 0.21875 2.40625l0 10.46875zm11.531158 0.3125q-2.015625 0 -3.65625 -0.6875q-1.625 -0.6875 -2.78125 -1.875q-1.15625 -1.203125 -1.78125 -2.75q-0.625 -1.5625 -0.625 -3.28125q0 -2.40625 1.078125 -4.390625q1.078125 -1.984375 3.078125 -3.1875q2.0 -1.203125 4.71875 -1.203125q2.75 0 4.703125 1.203125q1.953125 1.203125 2.984375 3.171875q1.046875 1.96875 1.046875 4.234375q0 0.390625 -0.03125 0.796875q-0.03125 0.390625 -0.0625 0.640625l-12.96875 0q0.125 1.28125 0.75 2.25q0.625 0.953125 1.59375 1.453125q0.984375 0.5 2.109375 0.5q1.28125 0 2.40625 -0.625q1.140625 -0.625 1.5625 -1.65625l3.671875 1.03125q-0.609375 1.28125 -1.75 2.28125q-1.125 0.984375 -2.671875 1.546875q-1.53125 0.546875 -3.375 0.546875zm-4.390625 -10.046875l8.765625 0q-0.125 -1.28125 -0.71875 -2.21875q-0.59375 -0.9375 -1.5625 -1.46875q-0.953125 -0.53125 -2.125 -0.53125q-1.15625 0 -2.109375 0.53125q-0.9375 0.53125 -1.53125 1.46875q-0.59375 0.9375 -0.71875 2.21875z" fill-rule="nonzero"/><path fill="#61aac1" d="m341.93222 152.64127q0 -1.4375 0.21875 -2.59375q0.21875 -1.15625 0.78125 -2.140625q0.5625 -1.0 1.53125 -1.875q0.984375 -0.875 2.484375 -1.703125q1.3125 -0.71875 2.296875 -1.234375q1.0 -0.53125 1.6875 -0.96875q0.6875 -0.453125 1.03125 -0.921875q0.359375 -0.46875 0.359375 -1.078125q0 -0.640625 -0.359375 -1.15625q-0.34375 -0.53125 -0.984375 -0.84375q-0.640625 -0.328125 -1.59375 -0.328125q-0.765625 0 -1.421875 0.1875q-0.65625 0.1875 -1.21875 0.546875q-0.5625 0.34375 -1.046875 0.78125q-0.46875 0.4375 -0.859375 0.90625l-2.71875 -3.125q0.453125 -0.453125 1.203125 -0.984375q0.75 -0.53125 1.78125 -0.984375q1.046875 -0.46875 2.3125 -0.765625q1.265625 -0.3125 2.703125 -0.3125q2.171875 0 3.703125 0.6875q1.546875 0.6875 2.359375 1.90625q0.8125 1.21875 0.8125 2.84375q0 1.125 -0.421875 2.0q-0.40625 0.859375 -1.046875 1.515625q-0.640625 0.65625 -1.390625 1.171875q-0.75 0.5 -1.453125 0.890625q-1.0 0.5 -1.796875 0.9375q-0.796875 0.4375 -1.40625 0.875q-0.609375 0.421875 -1.078125 0.875q-0.453125 0.4375 -0.8125 1.015625l9.765625 0l0 3.875l-15.421875 0zm26.884308 0l0 -22.71875l4.40625 0l0 18.84375l11.59375 0l0 3.875l-16.0 0zm18.688019 0l0 -22.71875l4.40625 0l0 22.71875l-4.40625 0zm13.558289 -14.59375l0 14.59375l-4.40625 0l0 -22.71875l3.515625 0l11.734375 14.96875l0 -14.9375l4.421875 0l0 22.6875l-3.671875 0l-11.59375 -14.59375zm35.77542 10.71875l0 3.875l-15.765625 0l0 -22.71875l15.484375 0l0 3.875l-11.078125 0l0 5.46875l9.578125 0l0 3.578125l-9.578125 0l0 5.921875l11.359375 0zm16.99765 -12.890625q-0.21875 -0.21875 -0.8125 -0.609375q-0.59375 -0.390625 -1.453125 -0.734375q-0.84375 -0.359375 -1.84375 -0.625q-0.984375 -0.28125 -2.0 -0.28125q-1.796875 0 -2.71875 0.6875q-0.90625 0.671875 -0.90625 1.875q0 0.9375 0.578125 1.484375q0.578125 0.53125 1.71875 0.921875q1.15625 0.390625 2.890625 0.828125q2.234375 0.546875 3.875 1.328125q1.65625 0.78125 2.53125 2.046875q0.890625 1.265625 0.890625 3.34375q0 1.828125 -0.671875 3.125q-0.671875 1.296875 -1.859375 2.09375q-1.1875 0.796875 -2.6875 1.171875q-1.5 0.359375 -3.203125 0.359375q-1.6875 0 -3.390625 -0.34375q-1.6875 -0.359375 -3.265625 -1.015625q-1.5625 -0.65625 -2.875 -1.578125l1.953125 -3.8125q0.28125 0.296875 1.015625 0.765625q0.75 0.453125 1.796875 0.921875q1.0625 0.453125 2.3125 0.78125q1.25 0.3125 2.515625 0.3125q1.796875 0 2.71875 -0.59375q0.9375 -0.609375 0.9375 -1.734375q0 -1.03125 -0.734375 -1.59375q-0.734375 -0.578125 -2.046875 -1.015625q-1.3125 -0.4375 -3.109375 -0.9375q-2.140625 -0.609375 -3.578125 -1.359375q-1.4375 -0.765625 -2.15625 -1.90625q-0.703125 -1.15625 -0.703125 -2.890625q0 -2.328125 1.109375 -3.90625q1.109375 -1.59375 2.984375 -2.40625q1.890625 -0.8125 4.203125 -0.8125q1.59375 0 3.015625 0.359375q1.4375 0.34375 2.671875 0.921875q1.25 0.5625 2.25 1.234375l-1.953125 3.59375z" fill-rule="nonzero"/><path fill="#b7b7b7" d="m474.92886 152.95377q-2.0625 0 -3.6875 -0.6875q-1.625 -0.6875 -2.765625 -1.890625q-1.140625 -1.21875 -1.75 -2.78125q-0.609375 -1.578125 -0.609375 -3.3125q0 -1.75 0.609375 -3.3125q0.609375 -1.578125 1.75 -2.796875q1.140625 -1.21875 2.765625 -1.90625q1.625 -0.6875 3.6875 -0.6875q2.046875 0 3.65625 0.6875q1.609375 0.6875 2.765625 1.90625q1.15625 1.21875 1.75 2.796875q0.59375 1.5625 0.59375 3.3125q0 1.734375 -0.59375 3.3125q-0.59375 1.5625 -1.734375 2.78125q-1.125 1.203125 -2.765625 1.890625q-1.625 0.6875 -3.671875 0.6875zm-4.390625 -8.671875q0 1.484375 0.578125 2.625q0.578125 1.125 1.5625 1.765625q1.0 0.640625 2.25 0.640625q1.203125 0 2.1875 -0.65625q1.0 -0.65625 1.59375 -1.78125q0.59375 -1.140625 0.59375 -2.625q0 -1.4375 -0.59375 -2.578125q-0.59375 -1.15625 -1.59375 -1.796875q-0.984375 -0.640625 -2.1875 -0.640625q-1.25 0 -2.25 0.65625q-0.984375 0.65625 -1.5625 1.796875q-0.578125 1.125 -0.578125 2.59375zm16.888275 8.359375l0 -12.609375l-2.203125 0l0 -3.265625l2.203125 0l0 -1.015625q0 -2.078125 0.6875 -3.59375q0.703125 -1.53125 1.953125 -2.359375q1.265625 -0.84375 2.96875 -0.84375q1.015625 0 2.0625 0.265625q1.046875 0.25 2.0625 0.734375l-0.859375 3.234375q-0.484375 -0.265625 -1.125 -0.4375q-0.640625 -0.171875 -1.21875 -0.171875q-1.078125 0 -1.65625 0.765625q-0.578125 0.765625 -0.578125 2.234375l0 1.1875l4.09375 0l0 3.265625l-4.09375 0l0 12.609375l-4.296875 0zm16.676178 -4.953125q0 -1.640625 0.90625 -2.875q0.921875 -1.234375 2.546875 -1.90625q1.640625 -0.671875 3.75 -0.671875q1.0625305 0 2.1406555 0.171875q1.09375 0.15625 1.890625 0.5l0 -0.890625q0 -1.59375 -0.953125 -2.453125q-0.9375 -0.875 -2.7969055 -0.875q-1.375 0 -2.625 0.484375q-1.234375 0.484375 -2.609375 1.40625l-1.390625 -2.8125q1.671875 -1.09375 3.40625 -1.640625q1.75 -0.546875 3.6719055 -0.546875q3.578125 0 5.578125 1.796875q2.0 1.796875 2.0 5.125l0 5.34375q0 0.671875 0.234375 0.96875q0.25 0.28125 0.796875 0.34375l0 3.484375q-0.578125 0.09375 -1.046875 0.15625q-0.453125 0.0625 -0.78125 0.0625q-1.28125 0 -1.9375 -0.5625q-0.65625 -0.578125 -0.8125 -1.421875l-0.09375 -0.859375q-1.09375 1.40625 -2.734375 2.171875q-1.6250305 0.765625 -3.3125305 0.765625q-1.671875 0 -3.0 -0.6875q-1.328125 -0.6875 -2.078125 -1.875q-0.75 -1.203125 -0.75 -2.703125zm10.4375305 0.859375q0.34375 -0.390625 0.5625 -0.765625q0.234375 -0.390625 0.234375 -0.703125l0 -1.703125q-0.765625 -0.3125 -1.671875 -0.484375q-0.890625 -0.1875 -1.6875305 -0.1875q-1.65625 0 -2.734375 0.71875q-1.078125 0.71875 -1.078125 1.90625q0 0.640625 0.34375 1.21875q0.359375 0.578125 1.03125 0.9375q0.671875 0.34375 1.609375 0.34375q0.9531555 0 1.8750305 -0.359375q0.9375 -0.375 1.515625 -0.921875zm24.664917 4.09375l-4.28125 0l0 -9.40625q0 -2.015625 -0.703125 -2.9375q-0.703125 -0.9375 -1.953125 -0.9375q-0.859375 0 -1.75 0.453125q-0.875 0.4375 -1.578125 1.234375q-0.703125 0.78125 -1.03125 1.796875l0 9.796875l-4.28125 0l0 -16.765625l3.875 0l0 3.109375q0.640625 -1.09375 1.625 -1.84375q1.0 -0.75 2.296875 -1.15625q1.296875 -0.40625 2.734375 -0.40625q1.5625 0 2.5625 0.5625q1.015625 0.5625 1.546875 1.515625q0.53125 0.9375 0.734375 2.125q0.203125 1.171875 0.203125 2.390625l0 10.46875z" fill-rule="nonzero"/><path fill="#61aac1" d="m549.4788 147.68814q0 -1.640625 0.90625 -2.875q0.921875 -1.234375 2.546875 -1.90625q1.640625 -0.671875 3.75 -0.671875q1.0625 0 2.140625 0.171875q1.09375 0.15625 1.890625 0.5l0 -0.890625q0 -1.59375 -0.953125 -2.453125q-0.9375 -0.875 -2.796875 -0.875q-1.375 0 -2.625 0.484375q-1.234375 0.484375 -2.609375 1.40625l-1.390625 -2.8125q1.671875 -1.09375 3.40625 -1.640625q1.75 -0.546875 3.671875 -0.546875q3.578125 0 5.578125 1.796875q2.0 1.796875 2.0 5.125l0 5.34375q0 0.671875 0.234375 0.96875q0.25 0.28125 0.796875 0.34375l0 3.484375q-0.578125 0.09375 -1.046875 0.15625q-0.453125 0.0625 -0.78125 0.0625q-1.28125 0 -1.9375 -0.5625q-0.65625 -0.578125 -0.8125 -1.421875l-0.09375 -0.859375q-1.09375 1.40625 -2.734375 2.171875q-1.625 0.765625 -3.3125 0.765625q-1.671875 0 -3.0 -0.6875q-1.328125 -0.6875 -2.078125 -1.875q-0.75 -1.203125 -0.75 -2.703125zm10.4375 0.859375q0.34375 -0.390625 0.5625 -0.765625q0.234375 -0.390625 0.234375 -0.703125l0 -1.703125q-0.765625 -0.3125 -1.671875 -0.484375q-0.890625 -0.1875 -1.6875 -0.1875q-1.65625 0 -2.734375 0.71875q-1.078125 0.71875 -1.078125 1.90625q0 0.640625 0.34375 1.21875q0.359375 0.578125 1.03125 0.9375q0.671875 0.34375 1.609375 0.34375q0.953125 0 1.875 -0.359375q0.9375 -0.375 1.515625 -0.921875zm8.055542 -4.296875q0 -2.421875 0.953125 -4.390625q0.96875 -1.96875 2.65625 -3.125q1.703125 -1.15625 3.890625 -1.15625q1.84375 0 3.328125 0.921875q1.5 0.90625 2.328125 2.3125l0 -9.53125l4.296875 0l0 18.5625q0 0.671875 0.21875 0.96875q0.21875 0.28125 0.765625 0.34375l0 3.484375q-1.125 0.21875 -1.828125 0.21875q-1.140625 0 -1.90625 -0.5625q-0.75 -0.578125 -0.84375 -1.515625l-0.0625 -1.046875q-0.921875 1.5625 -2.515625 2.390625q-1.578125 0.828125 -3.3125 0.828125q-1.71875 0 -3.1875 -0.671875q-1.453125 -0.671875 -2.53125 -1.84375q-1.0625 -1.1875 -1.65625 -2.765625q-0.59375 -1.59375 -0.59375 -3.421875zm13.15625 2.25l0 -4.0q-0.3125 -0.9375 -1.015625 -1.671875q-0.703125 -0.734375 -1.578125 -1.15625q-0.859375 -0.4375 -1.71875 -0.4375q-1.0 0 -1.796875 0.421875q-0.796875 0.40625 -1.390625 1.109375q-0.59375 0.703125 -0.90625 1.640625q-0.296875 0.921875 -0.296875 1.953125q0 1.015625 0.328125 1.9375q0.34375 0.90625 0.984375 1.578125q0.640625 0.671875 1.484375 1.0625q0.859375 0.375 1.84375 0.375q0.609375 0 1.234375 -0.203125q0.625 -0.21875 1.171875 -0.578125q0.5625 -0.375 1.0 -0.890625q0.4375 -0.53125 0.65625 -1.140625zm7.4837646 -2.25q0 -2.421875 0.953125 -4.390625q0.96875 -1.96875 2.65625 -3.125q1.703125 -1.15625 3.890625 -1.15625q1.84375 0 3.328125 0.921875q1.5 0.90625 2.328125 2.3125l0 -9.53125l4.296875 0l0 18.5625q0 0.671875 0.21875 0.96875q0.21875 0.28125 0.765625 0.34375l0 3.484375q-1.125 0.21875 -1.828125 0.21875q-1.140625 0 -1.90625 -0.5625q-0.75 -0.578125 -0.84375 -1.515625l-0.0625 -1.046875q-0.921875 1.5625 -2.515625 2.390625q-1.578125 0.828125 -3.3125 0.828125q-1.71875 0 -3.1875 -0.671875q-1.453125 -0.671875 -2.53125 -1.84375q-1.0625 -1.1875 -1.65625 -2.765625q-0.59375 -1.59375 -0.59375 -3.421875zm13.15625 2.25l0 -4.0q-0.3125 -0.9375 -1.015625 -1.671875q-0.703125 -0.734375 -1.578125 -1.15625q-0.859375 -0.4375 -1.71875 -0.4375q-1.0 0 -1.796875 0.421875q-0.796875 0.40625 -1.390625 1.109375q-0.59375 0.703125 -0.90625 1.640625q-0.296875 0.921875 -0.296875 1.953125q0 1.015625 0.328125 1.9375q0.34375 0.90625 0.984375 1.578125q0.640625 0.671875 1.484375 1.0625q0.859375 0.375 1.84375 0.375q0.609375 0 1.234375 -0.203125q0.625 -0.21875 1.171875 -0.578125q0.5625 -0.375 1.0 -0.890625q0.4375 -0.53125 0.65625 -1.140625zm18.49945 -6.921875q-1.953125 0 -3.5 0.765625q-1.53125 0.75 -2.203125 2.15625l0 10.140625l-4.28125 0l0 -16.765625l3.9375 0l0 3.578125q0.890625 -1.71875 2.265625 -2.703125q1.375 -1.0 2.921875 -1.09375q0.34375 0 0.53125 0q0.203125 0 0.328125 0.03125l0 3.890625zm9.956848 13.375q-2.015625 0 -3.65625 -0.6875q-1.625 -0.6875 -2.78125 -1.875q-1.15625 -1.203125 -1.78125 -2.75q-0.625 -1.5625 -0.625 -3.28125q0 -2.40625 1.078125 -4.390625q1.078125 -1.984375 3.078125 -3.1875q2.0 -1.203125 4.71875 -1.203125q2.75 0 4.703125 1.203125q1.953125 1.203125 2.984375 3.171875q1.046875 1.96875 1.046875 4.234375q0 0.390625 -0.03125 0.796875q-0.03125 0.390625 -0.0625 0.640625l-12.96875 0q0.125 1.28125 0.75 2.25q0.625 0.953125 1.59375 1.453125q0.984375 0.5 2.109375 0.5q1.28125 0 2.40625 -0.625q1.140625 -0.625 1.5625 -1.65625l3.671875 1.03125q-0.609375 1.28125 -1.75 2.28125q-1.125 0.984375 -2.671875 1.546875q-1.53125 0.546875 -3.375 0.546875zm-4.390625 -10.046875l8.765625 0q-0.125 -1.28125 -0.71875 -2.21875q-0.59375 -0.9375 -1.5625 -1.46875q-0.953125 -0.53125 -2.125 -0.53125q-1.15625 0 -2.109375 0.53125q-0.9375 0.53125 -1.53125 1.46875q-0.59375 0.9375 -0.71875 2.21875zm21.94934 10.046875q-2.140625 0 -4.09375 -0.703125q-1.953125 -0.703125 -3.359375 -2.078125l1.53125 -2.78125q1.515625 1.21875 2.96875 1.796875q1.453125 0.578125 2.796875 0.578125q1.25 0 2.0 -0.453125q0.75 -0.453125 0.75 -1.34375q0 -0.609375 -0.421875 -0.9375q-0.40625 -0.34375 -1.203125 -0.59375q-0.78125 -0.265625 -1.890625 -0.578125q-1.859375 -0.609375 -3.109375 -1.1875q-1.25 -0.578125 -1.875 -1.453125q-0.625 -0.875 -0.625 -2.265625q0 -1.65625 0.84375 -2.859375q0.859375 -1.203125 2.375 -1.875q1.53125 -0.671875 3.578125 -0.671875q1.78125 0 3.375 0.5625q1.609375 0.5625 2.921875 1.8125l-1.734375 2.71875q-1.265625 -0.984375 -2.421875 -1.453125q-1.15625 -0.46875 -2.34375 -0.46875q-0.671875 0 -1.265625 0.171875q-0.578125 0.15625 -0.953125 0.53125q-0.375 0.359375 -0.375 1.03125q0 0.609375 0.328125 0.953125q0.34375 0.328125 1.03125 0.578125q0.6875 0.25 1.6875 0.578125q2.015625 0.578125 3.40625 1.1875q1.390625 0.609375 2.09375 1.484375q0.703125 0.875 0.703125 2.421875q0 2.484375 -1.828125 3.890625q-1.8125 1.40625 -4.890625 1.40625zm15.807983 0q-2.140625 0 -4.09375 -0.703125q-1.953125 -0.703125 -3.359375 -2.078125l1.53125 -2.78125q1.515625 1.21875 2.96875 1.796875q1.453125 0.578125 2.796875 0.578125q1.25 0 2.0 -0.453125q0.75 -0.453125 0.75 -1.34375q0 -0.609375 -0.421875 -0.9375q-0.40625 -0.34375 -1.203125 -0.59375q-0.78125 -0.265625 -1.890625 -0.578125q-1.859375 -0.609375 -3.109375 -1.1875q-1.25 -0.578125 -1.875 -1.453125q-0.625 -0.875 -0.625 -2.265625q0 -1.65625 0.84375 -2.859375q0.859375 -1.203125 2.375 -1.875q1.53125 -0.671875 3.578125 -0.671875q1.78125 0 3.375 0.5625q1.609375 0.5625 2.921875 1.8125l-1.734375 2.71875q-1.265625 -0.984375 -2.421875 -1.453125q-1.15625 -0.46875 -2.34375 -0.46875q-0.671875 0 -1.265625 0.171875q-0.578125 0.15625 -0.953125 0.53125q-0.375 0.359375 -0.375 1.03125q0 0.609375 0.328125 0.953125q0.34375 0.328125 1.03125 0.578125q0.6875 0.25 1.6875 0.578125q2.015625 0.578125 3.40625 1.1875q1.390625 0.609375 2.09375 1.484375q0.703125 0.875 0.703125 2.421875q0 2.484375 -1.828125 3.890625q-1.8125 1.40625 -4.890625 1.40625z" fill-rule="nonzero"/><path fill="#b7b7b7" d="m290.76495 191.13501q-1.671875 0 -3.0625 -0.65625q-1.390625 -0.65625 -2.40625 -1.828125q-1.0 -1.1875 -1.546875 -2.71875q-0.546875 -1.546875 -0.546875 -3.28125q0 -1.8125 0.578125 -3.375q0.578125 -1.578125 1.609375 -2.78125q1.046875 -1.203125 2.46875 -1.859375q1.4375 -0.65625 3.15625 -0.65625q1.953125 0 3.421875 0.890625q1.46875 0.875 2.4375 2.34375l0 -2.9375l3.75 0l0 15.96875q0 2.5 -1.203125 4.265625q-1.203125 1.78125 -3.3125 2.71875q-2.109375 0.953125 -4.796875 0.953125q-2.71875 0 -4.609375 -0.921875q-1.890625 -0.90625 -3.234375 -2.578125l2.328125 -2.265625q0.96875 1.1875 2.421875 1.859375q1.453125 0.671875 3.09375 0.671875q1.375 0 2.5 -0.5q1.140625 -0.5 1.828125 -1.546875q0.6875 -1.03125 0.6875 -2.65625l0 -2.109375q-0.828125 1.4375 -2.359375 2.21875q-1.515625 0.78125 -3.203125 0.78125zm1.4375 -3.421875q0.703125 0 1.34375 -0.21875q0.640625 -0.234375 1.1875 -0.609375q0.546875 -0.390625 0.953125 -0.90625q0.421875 -0.53125 0.640625 -1.078125l0 -4.0q-0.375 -1.0 -1.078125 -1.734375q-0.6875 -0.734375 -1.53125 -1.125q-0.84375 -0.40625 -1.765625 -0.40625q-1.0 0 -1.796875 0.421875q-0.796875 0.40625 -1.375 1.15625q-0.578125 0.75 -0.890625 1.671875q-0.296875 0.90625 -0.296875 1.90625q0 1.015625 0.34375 1.921875q0.359375 0.890625 0.984375 1.5625q0.625 0.671875 1.46875 1.0625q0.84375 0.375 1.8125 0.375zm20.069305 3.640625q-2.015625 0 -3.65625 -0.6875q-1.625 -0.6875 -2.78125 -1.875q-1.15625 -1.203125 -1.78125 -2.75q-0.625 -1.5625 -0.625 -3.28125q0 -2.40625 1.078125 -4.390625q1.078125 -1.984375 3.078125 -3.1875q2.0 -1.203125 4.71875 -1.203125q2.75 0 4.703125 1.203125q1.953125 1.203125 2.984375 3.171875q1.046875 1.96875 1.046875 4.234375q0 0.390625 -0.03125 0.796875q-0.03125 0.390625 -0.0625 0.640625l-12.96875 0q0.125 1.28125 0.75 2.25q0.625 0.953125 1.59375 1.453125q0.984375 0.5 2.109375 0.5q1.28125 0 2.40625 -0.625q1.140625 -0.625 1.5625 -1.65625l3.671875 1.03125q-0.609375 1.28125 -1.75 2.28125q-1.125 0.984375 -2.671875 1.546875q-1.53125 0.546875 -3.375 0.546875zm-4.390625 -10.046875l8.765625 0q-0.125 -1.28125 -0.71875 -2.21875q-0.59375 -0.9375 -1.5625 -1.46875q-0.953125 -0.53125 -2.125 -0.53125q-1.15625 0 -2.109375 0.53125q-0.9375 0.53125 -1.53125 1.46875q-0.59375 0.9375 -0.71875 2.21875zm25.664276 8.875q-0.546875 0.21875 -1.3125 0.515625q-0.765625 0.28125 -1.65625 0.453125q-0.875 0.171875 -1.765625 0.171875q-1.1875 0 -2.1875 -0.40625q-0.984375 -0.421875 -1.578125 -1.328125q-0.59375 -0.921875 -0.59375 -2.390625l0 -9.625l-2.203125 0l0 -3.296875l2.203125 0l0 -5.4375l4.296875 0l0 5.4375l3.515625 0l0 3.296875l-3.515625 0l0 8.1875q0.03125 0.859375 0.46875 1.25q0.453125 0.390625 1.125 0.390625q0.671875 0 1.3125 -0.21875q0.640625 -0.234375 1.03125 -0.390625l0.859375 3.390625z" fill-rule="nonzero"/><path fill="#61aac1" d="m353.45096 177.97876q-1.953125 0 -3.5 0.765625q-1.53125 0.75 -2.203125 2.15625l0 10.140625l-4.28125 0l0 -16.765625l3.9375 0l0 3.578125q0.890625 -1.71875 2.265625 -2.703125q1.375 -1.0 2.921875 -1.09375q0.34375 0 0.53125 0q0.203125 0 0.328125 0.03125l0 3.890625zm9.956909 13.375q-2.015625 0 -3.65625 -0.6875q-1.625 -0.6875 -2.78125 -1.875q-1.15625 -1.203125 -1.78125 -2.75q-0.625 -1.5625 -0.625 -3.28125q0 -2.40625 1.078125 -4.390625q1.078125 -1.984375 3.078125 -3.1875q2.0 -1.203125 4.71875 -1.203125q2.75 0 4.703125 1.203125q1.953125 1.203125 2.984375 3.171875q1.046875 1.96875 1.046875 4.234375q0 0.390625 -0.03125 0.796875q-0.03125 0.390625 -0.0625 0.640625l-12.96875 0q0.125 1.28125 0.75 2.25q0.625 0.953125 1.59375 1.453125q0.984375 0.5 2.109375 0.5q1.28125 0 2.40625 -0.625q1.140625 -0.625 1.5625 -1.65625l3.671875 1.03125q-0.609375 1.28125 -1.75 2.28125q-1.125 0.984375 -2.671875 1.546875q-1.53125 0.546875 -3.375 0.546875zm-4.390625 -10.046875l8.765625 0q-0.125 -1.28125 -0.71875 -2.21875q-0.59375 -0.9375 -1.5625 -1.46875q-0.953125 -0.53125 -2.125 -0.53125q-1.15625 0 -2.109375 0.53125q-0.9375 0.53125 -1.53125 1.46875q-0.59375 0.9375 -0.71875 2.21875zm14.746155 1.34375q0 -2.421875 0.953125 -4.390625q0.96875 -1.96875 2.65625 -3.125q1.703125 -1.15625 3.890625 -1.15625q1.84375 0 3.328125 0.921875q1.5 0.90625 2.328125 2.3125l0 -9.53125l4.296875 0l0 18.5625q0 0.671875 0.21875 0.96875q0.21875 0.28125 0.765625 0.34375l0 3.484375q-1.125 0.21875 -1.828125 0.21875q-1.140625 0 -1.90625 -0.5625q-0.75 -0.578125 -0.84375 -1.515625l-0.0625 -1.046875q-0.921875 1.5625 -2.515625 2.390625q-1.578125 0.828125 -3.3125 0.828125q-1.71875 0 -3.1875 -0.671875q-1.453125 -0.671875 -2.53125 -1.84375q-1.0625 -1.1875 -1.65625 -2.765625q-0.59375 -1.59375 -0.59375 -3.421875zm13.15625 2.25l0 -4.0q-0.3125 -0.9375 -1.015625 -1.671875q-0.703125 -0.734375 -1.578125 -1.15625q-0.859375 -0.4375 -1.71875 -0.4375q-1.0 0 -1.796875 0.421875q-0.796875 0.40625 -1.390625 1.109375q-0.59375 0.703125 -0.90625 1.640625q-0.296875 0.921875 -0.296875 1.953125q0 1.015625 0.328125 1.9375q0.34375 0.90625 0.984375 1.578125q0.640625 0.671875 1.484375 1.0625q0.859375 0.375 1.84375 0.375q0.609375 0 1.234375 -0.203125q0.625 -0.21875 1.171875 -0.578125q0.5625 -0.375 1.0 -0.890625q0.4375 -0.53125 0.65625 -1.140625zm8.358795 -0.125l0 -10.5l4.28125 0l0 9.5625q0 1.921875 0.703125 2.90625q0.703125 0.96875 2.078125 0.96875q0.84375 0 1.65625 -0.328125q0.8125 -0.34375 1.5 -1.015625q0.6875 -0.671875 1.171875 -1.703125l0 -10.390625l4.28125 0l0 11.96875q0 0.671875 0.234375 0.96875q0.25 0.28125 0.796875 0.34375l0 3.484375q-0.640625 0.09375 -1.078125 0.140625q-0.4375 0.046875 -0.78125 0.046875q-1.15625 0 -1.875 -0.515625q-0.71875 -0.53125 -0.84375 -1.46875l-0.09375 -1.34375q-1.125 1.703125 -2.890625 2.578125q-1.75 0.875 -3.859375 0.875q-2.59375 0 -3.9375 -1.671875q-1.34375 -1.6875 -1.34375 -4.90625zm27.744812 6.578125q-2.046875 0 -3.6875 -0.6875q-1.625 -0.6875 -2.78125 -1.90625q-1.15625 -1.234375 -1.78125 -2.796875q-0.625 -1.578125 -0.625 -3.3125q0 -2.359375 1.078125 -4.328125q1.078125 -1.96875 3.0625 -3.15625q1.984375 -1.1875 4.703125 -1.1875q2.71875 0 4.671875 1.1875q1.953125 1.1875 2.90625 3.109375l-4.1875 1.28125q-0.546875 -0.9375 -1.453125 -1.421875q-0.890625 -0.5 -1.96875 -0.5q-1.21875 0 -2.234375 0.625q-1.0 0.625 -1.578125 1.765625q-0.578125 1.125 -0.578125 2.625q0 1.484375 0.59375 2.625q0.59375 1.125 1.578125 1.78125q1.0 0.65625 2.21875 0.65625q0.765625 0 1.453125 -0.25q0.6875 -0.265625 1.21875 -0.703125q0.546875 -0.453125 0.8125 -1.03125l4.1875 1.28125q-0.578125 1.25 -1.6875 2.25q-1.09375 0.984375 -2.59375 1.546875q-1.484375 0.546875 -3.328125 0.546875zm17.856781 0q-2.015625 0 -3.65625 -0.6875q-1.625 -0.6875 -2.78125 -1.875q-1.15625 -1.203125 -1.78125 -2.75q-0.625 -1.5625 -0.625 -3.28125q0 -2.40625 1.078125 -4.390625q1.078125 -1.984375 3.078125 -3.1875q2.0 -1.203125 4.71875 -1.203125q2.75 0 4.703125 1.203125q1.953125 1.203125 2.984375 3.171875q1.046875 1.96875 1.046875 4.234375q0 0.390625 -0.03125 0.796875q-0.03125 0.390625 -0.0625 0.640625l-12.96875 0q0.125 1.28125 0.75 2.25q0.625 0.953125 1.59375 1.453125q0.984375 0.5 2.109375 0.5q1.28125 0 2.40625 -0.625q1.140625 -0.625 1.5625 -1.65625l3.671875 1.03125q-0.609375 1.28125 -1.75 2.28125q-1.125 0.984375 -2.671875 1.546875q-1.53125 0.546875 -3.375 0.546875zm-4.390625 -10.046875l8.765625 0q-0.125 -1.28125 -0.71875 -2.21875q-0.59375 -0.9375 -1.5625 -1.46875q-0.953125 -0.53125 -2.125 -0.53125q-1.15625 0 -2.109375 0.53125q-0.9375 0.53125 -1.53125 1.46875q-0.59375 0.9375 -0.71875 2.21875zm14.746155 1.34375q0 -2.421875 0.953125 -4.390625q0.96875 -1.96875 2.65625 -3.125q1.703125 -1.15625 3.890625 -1.15625q1.84375 0 3.328125 0.921875q1.5 0.90625 2.328125 2.3125l0 -9.53125l4.296875 0l0 18.5625q0 0.671875 0.21875 0.96875q0.21875 0.28125 0.765625 0.34375l0 3.484375q-1.125 0.21875 -1.828125 0.21875q-1.140625 0 -1.90625 -0.5625q-0.75 -0.578125 -0.84375 -1.515625l-0.0625 -1.046875q-0.921875 1.5625 -2.515625 2.390625q-1.578125 0.828125 -3.3125 0.828125q-1.71875 0 -3.1875 -0.671875q-1.453125 -0.671875 -2.53125 -1.84375q-1.0625 -1.1875 -1.65625 -2.765625q-0.59375 -1.59375 -0.59375 -3.421875zm13.15625 2.25l0 -4.0q-0.3125 -0.9375 -1.015625 -1.671875q-0.703125 -0.734375 -1.578125 -1.15625q-0.859375 -0.4375 -1.71875 -0.4375q-1.0 0 -1.796875 0.421875q-0.796875 0.40625 -1.390625 1.109375q-0.59375 0.703125 -0.90625 1.640625q-0.296875 0.921875 -0.296875 1.953125q0 1.015625 0.328125 1.9375q0.34375 0.90625 0.984375 1.578125q0.640625 0.671875 1.484375 1.0625q0.859375 0.375 1.84375 0.375q0.609375 0 1.234375 -0.203125q0.625 -0.21875 1.171875 -0.578125q0.5625 -0.375 1.0 -0.890625q0.4375 -0.53125 0.65625 -1.140625z" fill-rule="nonzero"/><path fill="#b7b7b7" d="m490.63376 190.18188q-0.546875 0.21875 -1.3125 0.515625q-0.765625 0.28125 -1.65625 0.453125q-0.875 0.171875 -1.765625 0.171875q-1.1875 0 -2.1875 -0.40625q-0.984375 -0.421875 -1.578125 -1.328125q-0.59375 -0.921875 -0.59375 -2.390625l0 -9.625l-2.203125 0l0 -3.296875l2.203125 0l0 -5.4375l4.296875 0l0 5.4375l3.515625 0l0 3.296875l-3.515625 0l0 8.1875q0.03125 0.859375 0.46875 1.25q0.453125 0.390625 1.125 0.390625q0.671875 0 1.3125 -0.21875q0.640625 -0.234375 1.03125 -0.390625l0.859375 3.390625zm9.767151 1.171875q-2.0625 0 -3.6875 -0.6875q-1.625 -0.6875 -2.765625 -1.890625q-1.140625 -1.21875 -1.75 -2.78125q-0.609375 -1.578125 -0.609375 -3.3125q0 -1.75 0.609375 -3.3125q0.609375 -1.578125 1.75 -2.796875q1.140625 -1.21875 2.765625 -1.90625q1.625 -0.6875 3.6875 -0.6875q2.046875 0 3.65625 0.6875q1.609375 0.6875 2.765625 1.90625q1.15625 1.21875 1.75 2.796875q0.59375 1.5625 0.59375 3.3125q0 1.734375 -0.59375 3.3125q-0.59375 1.5625 -1.734375 2.78125q-1.125 1.203125 -2.765625 1.890625q-1.625 0.6875 -3.671875 0.6875zm-4.390625 -8.671875q0 1.484375 0.578125 2.625q0.578125 1.125 1.5625 1.765625q1.0 0.640625 2.25 0.640625q1.203125 0 2.1875 -0.65625q1.0 -0.65625 1.59375 -1.78125q0.59375 -1.140625 0.59375 -2.625q0 -1.4375 -0.59375 -2.578125q-0.59375 -1.15625 -1.59375 -1.796875q-0.984375 -0.640625 -2.1875 -0.640625q-1.25 0 -2.25 0.65625q-0.984375 0.65625 -1.5625 1.796875q-0.578125 1.125 -0.578125 2.59375zm15.938934 1.515625l0 -3.875l9.6875 0l0 3.875l-9.6875 0z" fill-rule="nonzero"/><path fill="#000000" fill-opacity="0.0" d="m180.80315 456.43832l598.3937 0l0 42.015747l-598.3937 0z" fill-rule="evenodd"/><path fill="#cccccc" d="m249.87923 475.31143l0 -1.84375q0 -0.171875 0.015625 -0.328125q0.03125 -0.15625 0.109375 -0.3125q-0.1875 0.234375 -0.5 0.421875l-1.609375 0.921875l-0.40625 -0.703125l1.609375 -0.9375q0.328125 -0.1875 0.671875 -0.21875q-0.1875 -0.015625 -0.359375 -0.0625q-0.15625 -0.0625 -0.3125 -0.171875l-1.625 -0.9375l0.421875 -0.703125l1.609375 0.9375q0.328125 0.1875 0.53125 0.484375q-0.078125 -0.171875 -0.125 -0.34375q-0.03125 -0.171875 -0.03125 -0.359375l0 -1.84375l0.828125 0l0 1.84375q0 0.375 -0.125 0.671875q0.09375 -0.140625 0.21875 -0.25q0.125 -0.109375 0.28125 -0.203125l1.609375 -0.921875l0.40625 0.703125l-1.59375 0.921875q-0.171875 0.109375 -0.328125 0.171875q-0.140625 0.046875 -0.3125 0.0625q0.171875 0.015625 0.3125 0.078125q0.15625 0.046875 0.328125 0.140625l1.609375 0.953125l-0.40625 0.703125l-1.625 -0.9375q-0.15625 -0.109375 -0.296875 -0.203125q-0.125 -0.109375 -0.234375 -0.25q0.15625 0.296875 0.15625 0.671875l0 1.84375l-0.828125 0zm11.985062 8.203125q-1.109375 0 -1.71875 -0.625q-0.59375 -0.625 -0.59375 -1.8125l0 -5.78125l-1.140625 0q-0.15625 0 -0.265625 -0.078125q-0.09375 -0.09375 -0.09375 -0.28125l0 -0.65625l1.546875 -0.203125l0.390625 -2.921875q0.015625 -0.140625 0.109375 -0.21875q0.109375 -0.09375 0.265625 -0.09375l0.84375 0l0 3.25l2.703125 0l0 1.203125l-2.703125 0l0 5.671875q0 0.59375 0.28125 0.890625q0.296875 0.28125 0.75 0.28125q0.265625 0 0.453125 -0.0625q0.203125 -0.078125 0.328125 -0.15625q0.140625 -0.078125 0.234375 -0.140625q0.109375 -0.078125 0.1875 -0.078125q0.125 0 0.234375 0.15625l0.484375 0.796875q-0.4375 0.390625 -1.046875 0.625q-0.59375 0.234375 -1.25 0.234375zm4.0993958 -0.15625l0 -13.734375l1.65625 0l0 5.546875q0.609375 -0.640625 1.34375 -1.015625q0.75 -0.390625 1.703125 -0.390625q0.78125 0 1.359375 0.265625q0.59375 0.25 0.984375 0.71875q0.40625 0.46875 0.609375 1.140625q0.203125 0.65625 0.203125 1.453125l0 6.015625l-1.65625 0l0 -6.015625q0 -1.078125 -0.5 -1.671875q-0.484375 -0.59375 -1.484375 -0.59375q-0.734375 0 -1.375 0.359375q-0.640625 0.359375 -1.1875 0.96875l0 6.953125l-1.65625 0zm14.122894 -9.59375q0.84375 0 1.5625 0.28125q0.71875 0.28125 1.234375 0.828125q0.53125 0.53125 0.8125 1.328125q0.296875 0.78125 0.296875 1.78125q0 0.390625 -0.078125 0.53125q-0.078125 0.125 -0.3125 0.125l-6.296875 0q0.015625 0.890625 0.234375 1.5625q0.234375 0.65625 0.625 1.109375q0.390625 0.4375 0.9375 0.65625q0.546875 0.21875 1.203125 0.21875q0.625 0 1.078125 -0.140625q0.453125 -0.15625 0.78125 -0.3125q0.328125 -0.171875 0.546875 -0.3125q0.21875 -0.15625 0.375 -0.15625q0.21875 0 0.328125 0.15625l0.46875 0.609375q-0.3125 0.375 -0.75 0.65625q-0.421875 0.265625 -0.921875 0.453125q-0.484375 0.171875 -1.015625 0.25q-0.515625 0.09375 -1.015625 0.09375q-0.984375 0 -1.8125 -0.328125q-0.828125 -0.328125 -1.4375 -0.96875q-0.59375 -0.640625 -0.9375 -1.578125q-0.328125 -0.9375 -0.328125 -2.171875q0 -0.984375 0.296875 -1.84375q0.3125 -0.859375 0.875 -1.484375q0.578125 -0.625 1.390625 -0.984375q0.828125 -0.359375 1.859375 -0.359375zm0.03125 1.21875q-1.203125 0 -1.890625 0.703125q-0.6875 0.6875 -0.859375 1.921875l5.140625 0q0 -0.578125 -0.171875 -1.0625q-0.15625 -0.484375 -0.46875 -0.828125q-0.296875 -0.359375 -0.75 -0.546875q-0.4375 -0.1875 -1.0 -0.1875zm16.0484 0.609375q-0.078125 0.09375 -0.15625 0.15625q-0.078125 0.046875 -0.21875 0.046875q-0.140625 0 -0.296875 -0.109375q-0.15625 -0.109375 -0.421875 -0.25q-0.25 -0.140625 -0.609375 -0.25q-0.359375 -0.125 -0.875 -0.125q-0.6875 0 -1.21875 0.25q-0.53125 0.234375 -0.890625 0.703125q-0.359375 0.46875 -0.546875 1.140625q-0.1875 0.65625 -0.1875 1.46875q0 0.859375 0.203125 1.53125q0.203125 0.671875 0.546875 1.125q0.359375 0.453125 0.859375 0.6875q0.515625 0.234375 1.15625 0.234375q0.59375 0 0.984375 -0.140625q0.390625 -0.15625 0.65625 -0.328125q0.265625 -0.171875 0.421875 -0.3125q0.171875 -0.15625 0.34375 -0.15625q0.21875 0 0.3125 0.15625l0.46875 0.609375q-0.609375 0.765625 -1.53125 1.109375q-0.921875 0.34375 -1.953125 0.34375q-0.890625 0 -1.65625 -0.3125q-0.75 -0.328125 -1.3125 -0.953125q-0.5625 -0.625 -0.890625 -1.53125q-0.3125 -0.90625 -0.3125 -2.0625q0 -1.046875 0.296875 -1.9375q0.296875 -0.90625 0.859375 -1.546875q0.5625 -0.65625 1.390625 -1.015625q0.828125 -0.359375 1.90625 -0.359375q0.984375 0 1.75 0.328125q0.765625 0.3125 1.359375 0.890625l-0.4375 0.609375zm4.1030884 -1.6875l0 9.453125l-1.65625 0l0 -9.453125l1.65625 0zm0.375 -2.96875q0 0.25 -0.09375 0.46875q-0.09375 0.203125 -0.265625 0.375q-0.15625 0.15625 -0.375 0.25q-0.21875 0.09375 -0.453125 0.09375q-0.25 0 -0.46875 -0.09375q-0.203125 -0.09375 -0.359375 -0.25q-0.15625 -0.171875 -0.25 -0.375q-0.09375 -0.21875 -0.09375 -0.46875q0 -0.234375 0.09375 -0.453125q0.09375 -0.21875 0.25 -0.375q0.15625 -0.171875 0.359375 -0.265625q0.21875 -0.09375 0.46875 -0.09375q0.234375 0 0.453125 0.09375q0.21875 0.09375 0.375 0.265625q0.171875 0.15625 0.265625 0.375q0.09375 0.21875 0.09375 0.453125zm5.416626 12.578125q-1.109375 0 -1.71875 -0.625q-0.59375 -0.625 -0.59375 -1.8125l0 -5.78125l-1.140625 0q-0.15625 0 -0.265625 -0.078125q-0.09375 -0.09375 -0.09375 -0.28125l0 -0.65625l1.546875 -0.203125l0.390625 -2.921875q0.015625 -0.140625 0.109375 -0.21875q0.109375 -0.09375 0.265625 -0.09375l0.84375 0l0 3.25l2.703125 0l0 1.203125l-2.703125 0l0 5.671875q0 0.59375 0.28125 0.890625q0.296875 0.28125 0.75 0.28125q0.265625 0 0.453125 -0.0625q0.203125 -0.078125 0.328125 -0.15625q0.140625 -0.078125 0.234375 -0.140625q0.109375 -0.078125 0.1875 -0.078125q0.125 0 0.234375 0.15625l0.484375 0.796875q-0.4375 0.390625 -1.046875 0.625q-0.59375 0.234375 -1.25 0.234375zm6.8650513 2.640625q-0.078125 0.171875 -0.203125 0.28125q-0.125 0.125 -0.390625 0.125l-1.234375 0l1.734375 -3.75l-3.90625 -8.90625l1.4375 0q0.21875 0 0.34375 0.109375q0.125 0.109375 0.171875 0.234375l2.53125 5.953125q0.078125 0.203125 0.140625 0.421875q0.0625 0.203125 0.109375 0.40625q0.0625 -0.203125 0.125 -0.40625q0.078125 -0.21875 0.15625 -0.421875l2.453125 -5.953125q0.0625 -0.140625 0.1875 -0.234375q0.140625 -0.109375 0.296875 -0.109375l1.328125 0l-5.28125 12.25zm9.152649 -12.25l1.3125 0q0.203125 0 0.328125 0.109375q0.140625 0.09375 0.1875 0.234375l1.8125 6.09375q0.0625 0.328125 0.125 0.640625q0.078125 0.3125 0.125 0.625q0.0625 -0.3125 0.15625 -0.625q0.09375 -0.3125 0.203125 -0.640625l2.0 -6.125q0.046875 -0.140625 0.15625 -0.234375q0.125 -0.09375 0.296875 -0.09375l0.71875 0q0.1875 0 0.296875 0.09375q0.125 0.09375 0.171875 0.234375l1.953125 6.125q0.109375 0.3125 0.1875 0.640625q0.078125 0.3125 0.15625 0.625q0.046875 -0.3125 0.109375 -0.640625q0.078125 -0.34375 0.171875 -0.625l1.84375 -6.09375q0.046875 -0.140625 0.171875 -0.234375q0.140625 -0.109375 0.3125 -0.109375l1.25 0l-3.0625 9.453125l-1.3125 0q-0.25 0 -0.34375 -0.3125l-2.078125 -6.40625q-0.078125 -0.21875 -0.125 -0.4375q-0.046875 -0.21875 -0.09375 -0.4375q-0.046875 0.21875 -0.09375 0.4375q-0.046875 0.21875 -0.125 0.4375l-2.109375 6.40625q-0.109375 0.3125 -0.390625 0.3125l-1.25 0l-3.0625 -9.453125zm15.525085 9.453125l0 -13.734375l1.65625 0l0 5.546875q0.609375 -0.640625 1.34375 -1.015625q0.75 -0.390625 1.703125 -0.390625q0.78125 0 1.359375 0.265625q0.59375 0.25 0.984375 0.71875q0.40625 0.46875 0.609375 1.140625q0.203125 0.65625 0.203125 1.453125l0 6.015625l-1.65625 0l0 -6.015625q0 -1.078125 -0.5 -1.671875q-0.484375 -0.59375 -1.484375 -0.59375q-0.734375 0 -1.375 0.359375q-0.640625 0.359375 -1.1875 0.96875l0 6.953125l-1.65625 0zm14.122864 -9.59375q0.84375 0 1.5625 0.28125q0.71875 0.28125 1.234375 0.828125q0.53125 0.53125 0.8125 1.328125q0.296875 0.78125 0.296875 1.78125q0 0.390625 -0.078125 0.53125q-0.078125 0.125 -0.3125 0.125l-6.296875 0q0.015625 0.890625 0.234375 1.5625q0.234375 0.65625 0.625 1.109375q0.390625 0.4375 0.9375 0.65625q0.546875 0.21875 1.203125 0.21875q0.625 0 1.078125 -0.140625q0.453125 -0.15625 0.78125 -0.3125q0.328125 -0.171875 0.546875 -0.3125q0.21875 -0.15625 0.375 -0.15625q0.21875 0 0.328125 0.15625l0.46875 0.609375q-0.3125 0.375 -0.75 0.65625q-0.421875 0.265625 -0.921875 0.453125q-0.484375 0.171875 -1.015625 0.25q-0.515625 0.09375 -1.015625 0.09375q-0.984375 0 -1.8125 -0.328125q-0.828125 -0.328125 -1.4375 -0.96875q-0.59375 -0.640625 -0.9375 -1.578125q-0.328125 -0.9375 -0.328125 -2.171875q0 -0.984375 0.296875 -1.84375q0.3125 -0.859375 0.875 -1.484375q0.578125 -0.625 1.390625 -0.984375q0.828125 -0.359375 1.859375 -0.359375zm0.03125 1.21875q-1.203125 0 -1.890625 0.703125q-0.6875 0.6875 -0.859375 1.921875l5.140625 0q0 -0.578125 -0.171875 -1.0625q-0.15625 -0.484375 -0.46875 -0.828125q-0.296875 -0.359375 -0.75 -0.546875q-0.4375 -0.1875 -1.0 -0.1875zm5.994629 8.375l0 -9.453125l0.984375 0q0.359375 0 0.453125 0.34375l0.125 1.03125q0.625 -0.6875 1.375 -1.09375q0.765625 -0.421875 1.765625 -0.421875q0.78125 0 1.359375 0.265625q0.59375 0.25 0.984375 0.71875q0.40625 0.46875 0.609375 1.140625q0.203125 0.65625 0.203125 1.453125l0 6.015625l-1.65625 0l0 -6.015625q0 -1.078125 -0.5 -1.671875q-0.484375 -0.59375 -1.484375 -0.59375q-0.734375 0 -1.375 0.359375q-0.640625 0.359375 -1.1875 0.96875l0 6.953125l-1.65625 0zm13.973541 0l0 -9.453125l0.984375 0q0.359375 0 0.453125 0.34375l0.125 1.03125q0.625 -0.6875 1.375 -1.09375q0.765625 -0.421875 1.765625 -0.421875q0.78125 0 1.359375 0.265625q0.59375 0.25 0.984375 0.71875q0.40625 0.46875 0.609375 1.140625q0.203125 0.65625 0.203125 1.453125l0 6.015625l-1.65625 0l0 -6.015625q0 -1.078125 -0.5 -1.671875q-0.484375 -0.59375 -1.484375 -0.59375q-0.734375 0 -1.375 0.359375q-0.640625 0.359375 -1.1875 0.96875l0 6.953125l-1.65625 0zm14.201019 -9.59375q1.03125 0 1.859375 0.34375q0.84375 0.34375 1.421875 0.984375q0.59375 0.625 0.90625 1.53125q0.3125 0.890625 0.3125 2.0q0 1.125 -0.3125 2.03125q-0.3125 0.890625 -0.90625 1.53125q-0.578125 0.625 -1.421875 0.96875q-0.828125 0.328125 -1.859375 0.328125q-1.03125 0 -1.875 -0.328125q-0.828125 -0.34375 -1.421875 -0.96875q-0.578125 -0.640625 -0.90625 -1.53125q-0.3125 -0.90625 -0.3125 -2.03125q0 -1.109375 0.3125 -2.0q0.328125 -0.90625 0.90625 -1.53125q0.59375 -0.640625 1.421875 -0.984375q0.84375 -0.34375 1.875 -0.34375zm0 8.421875q1.390625 0 2.078125 -0.9375q0.703125 -0.9375 0.703125 -2.609375q0 -1.6875 -0.703125 -2.625q-0.6875 -0.953125 -2.078125 -0.953125q-0.703125 0 -1.234375 0.25q-0.515625 0.234375 -0.875 0.703125q-0.34375 0.453125 -0.515625 1.125q-0.171875 0.65625 -0.171875 1.5q0 0.84375 0.171875 1.5q0.171875 0.65625 0.515625 1.109375q0.359375 0.453125 0.875 0.703125q0.53125 0.234375 1.234375 0.234375zm9.404114 1.328125q-1.109375 0 -1.71875 -0.625q-0.59375 -0.625 -0.59375 -1.8125l0 -5.78125l-1.140625 0q-0.15625 0 -0.265625 -0.078125q-0.09375 -0.09375 -0.09375 -0.28125l0 -0.65625l1.546875 -0.203125l0.390625 -2.921875q0.015625 -0.140625 0.109375 -0.21875q0.109375 -0.09375 0.265625 -0.09375l0.84375 0l0 3.25l2.703125 0l0 1.203125l-2.703125 0l0 5.671875q0 0.59375 0.28125 0.890625q0.296875 0.28125 0.75 0.28125q0.265625 0 0.453125 -0.0625q0.203125 -0.078125 0.328125 -0.15625q0.140625 -0.078125 0.234375 -0.140625q0.109375 -0.078125 0.1875 -0.078125q0.125 0 0.234375 0.15625l0.484375 0.796875q-0.4375 0.390625 -1.046875 0.625q-0.59375 0.234375 -1.25 0.234375zm9.543823 -9.609375l0 9.453125l-1.65625 0l0 -9.453125l1.65625 0zm0.375 -2.96875q0 0.25 -0.09375 0.46875q-0.09375 0.203125 -0.265625 0.375q-0.15625 0.15625 -0.375 0.25q-0.21875 0.09375 -0.453125 0.09375q-0.25 0 -0.46875 -0.09375q-0.203125 -0.09375 -0.359375 -0.25q-0.15625 -0.171875 -0.25 -0.375q-0.09375 -0.21875 -0.09375 -0.46875q0 -0.234375 0.09375 -0.453125q0.09375 -0.21875 0.25 -0.375q0.15625 -0.171875 0.359375 -0.265625q0.21875 -0.09375 0.46875 -0.09375q0.234375 0 0.453125 0.09375q0.21875 0.09375 0.375 0.265625q0.171875 0.15625 0.265625 0.375q0.09375 0.21875 0.09375 0.453125zm2.557251 12.421875l0 -9.453125l0.984375 0q0.359375 0 0.453125 0.34375l0.125 0.96875q0.515625 -0.640625 1.15625 -1.046875q0.65625 -0.40625 1.515625 -0.40625q0.96875 0 1.5625 0.53125q0.59375 0.53125 0.84375 1.4375q0.203125 -0.515625 0.515625 -0.890625q0.328125 -0.375 0.71875 -0.609375q0.40625 -0.25 0.859375 -0.359375q0.453125 -0.109375 0.921875 -0.109375q0.75 0 1.328125 0.234375q0.578125 0.234375 0.984375 0.703125q0.40625 0.453125 0.625 1.125q0.21875 0.65625 0.21875 1.515625l0 6.015625l-1.65625 0l0 -6.015625q0 -1.109375 -0.5 -1.6875q-0.484375 -0.578125 -1.40625 -0.578125q-0.40625 0 -0.78125 0.15625q-0.359375 0.140625 -0.640625 0.421875q-0.28125 0.28125 -0.453125 0.703125q-0.15625 0.421875 -0.15625 0.984375l0 6.015625l-1.65625 0l0 -6.015625q0 -1.140625 -0.46875 -1.703125q-0.453125 -0.5625 -1.328125 -0.5625q-0.609375 0 -1.140625 0.34375q-0.53125 0.328125 -0.96875 0.890625l0 7.046875l-1.65625 0zm15.316803 3.203125l0 -12.65625l0.984375 0q0.359375 0 0.453125 0.34375l0.140625 1.125q0.609375 -0.734375 1.390625 -1.1875q0.78125 -0.453125 1.796875 -0.453125q0.8125 0 1.46875 0.3125q0.65625 0.3125 1.125 0.9375q0.46875 0.609375 0.71875 1.515625q0.25 0.90625 0.25 2.078125q0 1.046875 -0.28125 1.953125q-0.28125 0.890625 -0.796875 1.546875q-0.515625 0.65625 -1.28125 1.03125q-0.765625 0.375 -1.71875 0.375q-0.875 0 -1.5 -0.28125q-0.609375 -0.296875 -1.09375 -0.828125l0 4.1875l-1.65625 0zm4.203125 -11.484375q-0.8125 0 -1.421875 0.375q-0.609375 0.375 -1.125 1.0625l0 4.5625q0.46875 0.625 1.015625 0.875q0.546875 0.25 1.21875 0.25q1.3125 0 2.015625 -0.9375q0.703125 -0.953125 0.703125 -2.6875q0 -0.921875 -0.15625 -1.578125q-0.15625 -0.671875 -0.46875 -1.09375q-0.3125 -0.421875 -0.765625 -0.625q-0.4375 -0.203125 -1.015625 -0.203125zm7.9388733 -5.453125l0 13.734375l-1.65625 0l0 -13.734375l1.65625 0zm4.776001 4.28125l0 9.453125l-1.65625 0l0 -9.453125l1.65625 0zm0.375 -2.96875q0 0.25 -0.09375 0.46875q-0.09375 0.203125 -0.265625 0.375q-0.15625 0.15625 -0.375 0.25q-0.21875 0.09375 -0.453125 0.09375q-0.25 0 -0.46875 -0.09375q-0.203125 -0.09375 -0.359375 -0.25q-0.15625 -0.171875 -0.25 -0.375q-0.09375 -0.21875 -0.09375 -0.46875q0 -0.234375 0.09375 -0.453125q0.09375 -0.21875 0.25 -0.375q0.15625 -0.171875 0.359375 -0.265625q0.21875 -0.09375 0.46875 -0.09375q0.234375 0 0.453125 0.09375q0.21875 0.09375 0.375 0.265625q0.171875 0.15625 0.265625 0.375q0.09375 0.21875 0.09375 0.453125zm9.010376 4.65625q-0.078125 0.09375 -0.15625 0.15625q-0.078125 0.046875 -0.21875 0.046875q-0.140625 0 -0.296875 -0.109375q-0.15625 -0.109375 -0.421875 -0.25q-0.25 -0.140625 -0.609375 -0.25q-0.359375 -0.125 -0.875 -0.125q-0.6875 0 -1.21875 0.25q-0.53125 0.234375 -0.890625 0.703125q-0.359375 0.46875 -0.546875 1.140625q-0.1875 0.65625 -0.1875 1.46875q0 0.859375 0.203125 1.53125q0.203125 0.671875 0.546875 1.125q0.359375 0.453125 0.859375 0.6875q0.515625 0.234375 1.15625 0.234375q0.59375 0 0.984375 -0.140625q0.390625 -0.15625 0.65625 -0.328125q0.265625 -0.171875 0.421875 -0.3125q0.171875 -0.15625 0.34375 -0.15625q0.21875 0 0.3125 0.15625l0.46875 0.609375q-0.609375 0.765625 -1.53125 1.109375q-0.921875 0.34375 -1.953125 0.34375q-0.890625 0 -1.65625 -0.3125q-0.75 -0.328125 -1.3125 -0.953125q-0.5625 -0.625 -0.890625 -1.53125q-0.3125 -0.90625 -0.3125 -2.0625q0 -1.046875 0.296875 -1.9375q0.296875 -0.90625 0.859375 -1.546875q0.5625 -0.65625 1.390625 -1.015625q0.828125 -0.359375 1.90625 -0.359375q0.984375 0 1.75 0.328125q0.765625 0.3125 1.359375 0.890625l-0.4375 0.609375zm4.1030884 -1.6875l0 9.453125l-1.65625 0l0 -9.453125l1.65625 0zm0.375 -2.96875q0 0.25 -0.09375 0.46875q-0.09375 0.203125 -0.265625 0.375q-0.15625 0.15625 -0.375 0.25q-0.21875 0.09375 -0.453125 0.09375q-0.25 0 -0.46875 -0.09375q-0.203125 -0.09375 -0.359375 -0.25q-0.15625 -0.171875 -0.25 -0.375q-0.09375 -0.21875 -0.09375 -0.46875q0 -0.234375 0.09375 -0.453125q0.09375 -0.21875 0.25 -0.375q0.15625 -0.171875 0.359375 -0.265625q0.21875 -0.09375 0.46875 -0.09375q0.234375 0 0.453125 0.09375q0.21875 0.09375 0.375 0.265625q0.171875 0.15625 0.265625 0.375q0.09375 0.21875 0.09375 0.453125zm5.416626 12.578125q-1.109375 0 -1.71875 -0.625q-0.59375 -0.625 -0.59375 -1.8125l0 -5.78125l-1.140625 0q-0.15625 0 -0.265625 -0.078125q-0.09375 -0.09375 -0.09375 -0.28125l0 -0.65625l1.546875 -0.203125l0.390625 -2.921875q0.015625 -0.140625 0.109375 -0.21875q0.109375 -0.09375 0.265625 -0.09375l0.84375 0l0 3.25l2.703125 0l0 1.203125l-2.703125 0l0 5.671875q0 0.59375 0.28125 0.890625q0.296875 0.28125 0.75 0.28125q0.265625 0 0.453125 -0.0625q0.203125 -0.078125 0.328125 -0.15625q0.140625 -0.078125 0.234375 -0.140625q0.109375 -0.078125 0.1875 -0.078125q0.125 0 0.234375 0.15625l0.484375 0.796875q-0.4375 0.390625 -1.046875 0.625q-0.59375 0.234375 -1.25 0.234375zm7.2781982 -6.453125l4.609375 0l0 1.40625l-4.609375 0l0 -1.40625zm10.496246 6.296875l0 -13.734375l1.65625 0l0 5.546875q0.609375 -0.640625 1.34375 -1.015625q0.75 -0.390625 1.703125 -0.390625q0.78125 0 1.359375 0.265625q0.59375 0.25 0.984375 0.71875q0.40625 0.46875 0.609375 1.140625q0.203125 0.65625 0.203125 1.453125l0 6.015625l-1.65625 0l0 -6.015625q0 -1.078125 -0.5 -1.671875q-0.484375 -0.59375 -1.484375 -0.59375q-0.734375 0 -1.375 0.359375q-0.640625 0.359375 -1.1875 0.96875l0 6.953125l-1.65625 0zm17.310394 0l-0.734375 0q-0.234375 0 -0.390625 -0.078125q-0.140625 -0.078125 -0.1875 -0.3125l-0.1875 -0.875q-0.375 0.328125 -0.734375 0.59375q-0.359375 0.265625 -0.75 0.453125q-0.390625 0.1875 -0.828125 0.28125q-0.4375 0.09375 -0.984375 0.09375q-0.546875 0 -1.03125 -0.15625q-0.484375 -0.15625 -0.84375 -0.46875q-0.34375 -0.3125 -0.5625 -0.78125q-0.203125 -0.46875 -0.203125 -1.109375q0 -0.5625 0.296875 -1.078125q0.3125 -0.515625 1.0 -0.90625q0.6875 -0.40625 1.796875 -0.65625q1.109375 -0.265625 2.71875 -0.3125l0 -0.734375q0 -1.09375 -0.46875 -1.65625q-0.46875 -0.578125 -1.40625 -0.578125q-0.59375 0 -1.015625 0.15625q-0.40625 0.15625 -0.71875 0.359375q-0.296875 0.1875 -0.515625 0.34375q-0.21875 0.140625 -0.4375 0.140625q-0.171875 0 -0.296875 -0.078125q-0.125 -0.09375 -0.203125 -0.21875l-0.296875 -0.53125q0.78125 -0.765625 1.6875 -1.140625q0.90625 -0.375 2.015625 -0.375q0.78125 0 1.390625 0.265625q0.625 0.265625 1.046875 0.734375q0.421875 0.46875 0.625 1.125q0.21875 0.65625 0.21875 1.453125l0 6.046875zm-4.296875 -1.015625q0.4375 0 0.796875 -0.078125q0.359375 -0.09375 0.671875 -0.25q0.328125 -0.171875 0.625 -0.40625q0.296875 -0.234375 0.578125 -0.53125l0 -1.96875q-1.15625 0.03125 -1.953125 0.1875q-0.796875 0.140625 -1.3125 0.375q-0.5 0.234375 -0.734375 0.546875q-0.21875 0.3125 -0.21875 0.703125q0 0.375 0.125 0.65625q0.125 0.265625 0.328125 0.4375q0.203125 0.171875 0.484375 0.25q0.28125 0.078125 0.609375 0.078125zm12.224335 -6.875q-0.109375 0.203125 -0.34375 0.203125q-0.140625 0 -0.3125 -0.09375q-0.171875 -0.109375 -0.4375 -0.234375q-0.25 -0.125 -0.609375 -0.234375q-0.359375 -0.109375 -0.84375 -0.109375q-0.40625 0 -0.75 0.109375q-0.328125 0.109375 -0.578125 0.296875q-0.234375 0.1875 -0.359375 0.4375q-0.125 0.234375 -0.125 0.53125q0 0.359375 0.203125 0.609375q0.21875 0.234375 0.5625 0.421875q0.34375 0.171875 0.78125 0.3125q0.4375 0.125 0.890625 0.28125q0.46875 0.15625 0.90625 0.34375q0.4375 0.1875 0.78125 0.46875q0.359375 0.28125 0.5625 0.6875q0.203125 0.40625 0.203125 0.96875q0 0.65625 -0.234375 1.21875q-0.21875 0.546875 -0.6875 0.953125q-0.453125 0.40625 -1.125 0.640625q-0.65625 0.234375 -1.515625 0.234375q-0.984375 0 -1.796875 -0.328125q-0.796875 -0.328125 -1.359375 -0.828125l0.390625 -0.625q0.078125 -0.125 0.171875 -0.1875q0.109375 -0.078125 0.28125 -0.078125q0.15625 0 0.34375 0.140625q0.1875 0.125 0.453125 0.28125q0.265625 0.15625 0.640625 0.296875q0.390625 0.125 0.953125 0.125q0.484375 0 0.84375 -0.125q0.375 -0.125 0.609375 -0.328125q0.25 -0.21875 0.359375 -0.5q0.125 -0.28125 0.125 -0.609375q0 -0.390625 -0.21875 -0.640625q-0.203125 -0.25 -0.546875 -0.4375q-0.34375 -0.1875 -0.796875 -0.3125q-0.4375 -0.140625 -0.90625 -0.28125q-0.453125 -0.15625 -0.90625 -0.34375q-0.4375 -0.203125 -0.78125 -0.484375q-0.34375 -0.296875 -0.5625 -0.71875q-0.203125 -0.421875 -0.203125 -1.03125q0 -0.53125 0.21875 -1.03125q0.234375 -0.5 0.65625 -0.875q0.4375 -0.390625 1.0625 -0.609375q0.625 -0.21875 1.421875 -0.21875q0.9375 0 1.671875 0.296875q0.75 0.28125 1.28125 0.796875l-0.375 0.609375zm9.150604 8.046875q-1.109375 0 -1.71875 -0.625q-0.59375 -0.625 -0.59375 -1.8125l0 -5.78125l-1.140625 0q-0.15625 0 -0.265625 -0.078125q-0.09375 -0.09375 -0.09375 -0.28125l0 -0.65625l1.546875 -0.203125l0.390625 -2.921875q0.015625 -0.140625 0.109375 -0.21875q0.109375 -0.09375 0.265625 -0.09375l0.84375 0l0 3.25l2.7030945 0l0 1.203125l-2.7030945 0l0 5.671875q0 0.59375 0.28125 0.890625q0.296875 0.28125 0.75 0.28125q0.26559448 0 0.45309448 -0.0625q0.203125 -0.078125 0.328125 -0.15625q0.140625 -0.078125 0.234375 -0.140625q0.109375 -0.078125 0.1875 -0.078125q0.125 0 0.234375 0.15625l0.484375 0.796875q-0.4375 0.390625 -1.046875 0.625q-0.59375 0.234375 -1.2499695 0.234375zm7.9275208 -9.75q1.03125 0 1.859375 0.34375q0.84375 0.34375 1.421875 0.984375q0.59375 0.625 0.90625 1.53125q0.3125 0.890625 0.3125 2.0q0 1.125 -0.3125 2.03125q-0.3125 0.890625 -0.90625 1.53125q-0.578125 0.625 -1.421875 0.96875q-0.828125 0.328125 -1.859375 0.328125q-1.03125 0 -1.875 -0.328125q-0.828125 -0.34375 -1.421875 -0.96875q-0.578125 -0.640625 -0.90625 -1.53125q-0.3125 -0.90625 -0.3125 -2.03125q0 -1.109375 0.3125 -2.0q0.328125 -0.90625 0.90625 -1.53125q0.59375 -0.640625 1.421875 -0.984375q0.84375 -0.34375 1.875 -0.34375zm0 8.421875q1.390625 0 2.078125 -0.9375q0.703125 -0.9375 0.703125 -2.609375q0 -1.6875 -0.703125 -2.625q-0.6875 -0.953125 -2.078125 -0.953125q-0.703125 0 -1.234375 0.25q-0.515625 0.234375 -0.875 0.703125q-0.34375 0.453125 -0.515625 1.125q-0.171875 0.65625 -0.171875 1.5q0 0.84375 0.171875 1.5q0.171875 0.65625 0.515625 1.109375q0.359375 0.453125 0.875 0.703125q0.53125 0.234375 1.234375 0.234375zm10.207886 1.171875l0 -13.734375l1.671875 0l0 5.640625q0.578125 -0.671875 1.34375 -1.078125q0.765625 -0.421875 1.734375 -0.421875q0.828125 0 1.484375 0.3125q0.671875 0.296875 1.125 0.90625q0.46875 0.609375 0.71875 1.515625q0.25 0.90625 0.25 2.078125q0 1.046875 -0.28125 1.953125q-0.265625 0.890625 -0.796875 1.546875q-0.53125 0.65625 -1.296875 1.03125q-0.75 0.375 -1.703125 0.375q-0.921875 0 -1.5625 -0.34375q-0.625 -0.359375 -1.109375 -1.0l-0.078125 0.859375q-0.078125 0.359375 -0.4375 0.359375l-1.0625 0zm4.21875 -8.28125q-0.8125 0 -1.4375 0.375q-0.609375 0.375 -1.109375 1.0625l0 4.5625q0.4375 0.625 0.984375 0.875q0.546875 0.25 1.21875 0.25q1.328125 0 2.03125 -0.9375q0.71875 -0.953125 0.71875 -2.6875q0 -0.921875 -0.171875 -1.578125q-0.15625 -0.671875 -0.46875 -1.09375q-0.3125 -0.421875 -0.765625 -0.625q-0.4375 -0.203125 -1.0 -0.203125zm9.897583 -1.3125q0.84375 0 1.5625 0.28125q0.71875 0.28125 1.234375 0.828125q0.53125 0.53125 0.8125 1.328125q0.296875 0.78125 0.296875 1.78125q0 0.390625 -0.078125 0.53125q-0.078125 0.125 -0.3125 0.125l-6.296875 0q0.015625 0.890625 0.234375 1.5625q0.234375 0.65625 0.625 1.109375q0.390625 0.4375 0.9375 0.65625q0.546875 0.21875 1.203125 0.21875q0.625 0 1.078125 -0.140625q0.453125 -0.15625 0.78125 -0.3125q0.328125 -0.171875 0.546875 -0.3125q0.21875 -0.15625 0.375 -0.15625q0.21875 0 0.328125 0.15625l0.46875 0.609375q-0.3125 0.375 -0.75 0.65625q-0.421875 0.265625 -0.921875 0.453125q-0.484375 0.171875 -1.015625 0.25q-0.515625 0.09375 -1.015625 0.09375q-0.984375 0 -1.8125 -0.328125q-0.828125 -0.328125 -1.4375 -0.96875q-0.59375 -0.640625 -0.9375 -1.578125q-0.328125 -0.9375 -0.328125 -2.171875q0 -0.984375 0.296875 -1.84375q0.3125 -0.859375 0.875 -1.484375q0.578125 -0.625 1.390625 -0.984375q0.828125 -0.359375 1.859375 -0.359375zm0.03125 1.21875q-1.203125 0 -1.890625 0.703125q-0.6875 0.6875 -0.859375 1.921875l5.140625 0q0 -0.578125 -0.171875 -1.0625q-0.15625 -0.484375 -0.46875 -0.828125q-0.296875 -0.359375 -0.75 -0.546875q-0.4375 -0.1875 -1.0 -0.1875zm15.001526 0.484375q-0.109375 0.203125 -0.34375 0.203125q-0.140625 0 -0.3125 -0.09375q-0.171875 -0.109375 -0.4375 -0.234375q-0.25 -0.125 -0.609375 -0.234375q-0.359375 -0.109375 -0.84375 -0.109375q-0.40625 0 -0.75 0.109375q-0.328125 0.109375 -0.578125 0.296875q-0.234375 0.1875 -0.359375 0.4375q-0.125 0.234375 -0.125 0.53125q0 0.359375 0.203125 0.609375q0.21875 0.234375 0.5625 0.421875q0.34375 0.171875 0.78125 0.3125q0.4375 0.125 0.890625 0.28125q0.46875 0.15625 0.90625 0.34375q0.4375 0.1875 0.78125 0.46875q0.359375 0.28125 0.5625 0.6875q0.203125 0.40625 0.203125 0.96875q0 0.65625 -0.234375 1.21875q-0.21875 0.546875 -0.6875 0.953125q-0.453125 0.40625 -1.125 0.640625q-0.65625 0.234375 -1.515625 0.234375q-0.984375 0 -1.796875 -0.328125q-0.796875 -0.328125 -1.359375 -0.828125l0.390625 -0.625q0.078125 -0.125 0.171875 -0.1875q0.109375 -0.078125 0.28125 -0.078125q0.15625 0 0.34375 0.140625q0.1875 0.125 0.453125 0.28125q0.265625 0.15625 0.640625 0.296875q0.390625 0.125 0.953125 0.125q0.484375 0 0.84375 -0.125q0.375 -0.125 0.609375 -0.328125q0.25 -0.21875 0.359375 -0.5q0.125 -0.28125 0.125 -0.609375q0 -0.390625 -0.21875 -0.640625q-0.203125 -0.25 -0.546875 -0.4375q-0.34375 -0.1875 -0.796875 -0.3125q-0.4375 -0.140625 -0.90625 -0.28125q-0.453125 -0.15625 -0.90625 -0.34375q-0.4375 -0.203125 -0.78125 -0.484375q-0.34375 -0.296875 -0.5625 -0.71875q-0.203125 -0.421875 -0.203125 -1.03125q0 -0.53125 0.21875 -1.03125q0.234375 -0.5 0.65625 -0.875q0.4375 -0.390625 1.0625 -0.609375q0.625 -0.21875 1.421875 -0.21875q0.9375 0 1.671875 0.296875q0.75 0.28125 1.28125 0.796875l-0.375 0.609375zm2.6905518 11.09375l0 -12.65625l0.984375 0q0.359375 0 0.453125 0.34375l0.140625 1.125q0.609375 -0.734375 1.390625 -1.1875q0.78125 -0.453125 1.796875 -0.453125q0.8125 0 1.46875 0.3125q0.65625 0.3125 1.125 0.9375q0.46875 0.609375 0.71875 1.515625q0.25 0.90625 0.25 2.078125q0 1.046875 -0.28125 1.953125q-0.28125 0.890625 -0.796875 1.546875q-0.515625 0.65625 -1.28125 1.03125q-0.765625 0.375 -1.71875 0.375q-0.875 0 -1.5 -0.28125q-0.609375 -0.296875 -1.09375 -0.828125l0 4.1875l-1.65625 0zm4.203125 -11.484375q-0.8125 0 -1.421875 0.375q-0.609375 0.375 -1.125 1.0625l0 4.5625q0.46875 0.625 1.015625 0.875q0.546875 0.25 1.21875 0.25q1.3125 0 2.015625 -0.9375q0.703125 -0.953125 0.703125 -2.6875q0 -0.921875 -0.15625 -1.578125q-0.15625 -0.671875 -0.46875 -1.09375q-0.3125 -0.421875 -0.765625 -0.625q-0.4375 -0.203125 -1.015625 -0.203125zm9.845154 -1.3125q0.84375 0 1.5625 0.28125q0.71875 0.28125 1.234375 0.828125q0.53125 0.53125 0.8125 1.328125q0.296875 0.78125 0.296875 1.78125q0 0.390625 -0.078125 0.53125q-0.078125 0.125 -0.3125 0.125l-6.296875 0q0.015625 0.890625 0.234375 1.5625q0.234375 0.65625 0.625 1.109375q0.390625 0.4375 0.9375 0.65625q0.546875 0.21875 1.203125 0.21875q0.625 0 1.078125 -0.140625q0.453125 -0.15625 0.78125 -0.3125q0.328125 -0.171875 0.546875 -0.3125q0.21875 -0.15625 0.375 -0.15625q0.21875 0 0.328125 0.15625l0.46875 0.609375q-0.3125 0.375 -0.75 0.65625q-0.421875 0.265625 -0.921875 0.453125q-0.484375 0.171875 -1.015625 0.25q-0.515625 0.09375 -1.015625 0.09375q-0.984375 0 -1.8125 -0.328125q-0.828125 -0.328125 -1.4375 -0.96875q-0.59375 -0.640625 -0.9375 -1.578125q-0.328125 -0.9375 -0.328125 -2.171875q0 -0.984375 0.296875 -1.84375q0.3125 -0.859375 0.875 -1.484375q0.578125 -0.625 1.390625 -0.984375q0.828125 -0.359375 1.859375 -0.359375zm0.03125 1.21875q-1.203125 0 -1.890625 0.703125q-0.6875 0.6875 -0.859375 1.921875l5.140625 0q0 -0.578125 -0.171875 -1.0625q-0.15625 -0.484375 -0.46875 -0.828125q-0.296875 -0.359375 -0.75 -0.546875q-0.4375 -0.1875 -1.0 -0.1875zm12.447754 0.609375q-0.078125 0.09375 -0.15625 0.15625q-0.078125 0.046875 -0.21875 0.046875q-0.140625 0 -0.296875 -0.109375q-0.15625 -0.109375 -0.421875 -0.25q-0.25 -0.140625 -0.609375 -0.25q-0.359375 -0.125 -0.875 -0.125q-0.6875 0 -1.21875 0.25q-0.53125 0.234375 -0.890625 0.703125q-0.359375 0.46875 -0.546875 1.140625q-0.1875 0.65625 -0.1875 1.46875q0 0.859375 0.203125 1.53125q0.203125 0.671875 0.546875 1.125q0.359375 0.453125 0.859375 0.6875q0.515625 0.234375 1.15625 0.234375q0.59375 0 0.984375 -0.140625q0.390625 -0.15625 0.65625 -0.328125q0.265625 -0.171875 0.421875 -0.3125q0.171875 -0.15625 0.34375 -0.15625q0.21875 0 0.3125 0.15625l0.46875 0.609375q-0.609375 0.765625 -1.53125 1.109375q-0.921875 0.34375 -1.953125 0.34375q-0.890625 0 -1.65625 -0.3125q-0.75 -0.328125 -1.3125 -0.953125q-0.5625 -0.625 -0.890625 -1.53125q-0.3125 -0.90625 -0.3125 -2.0625q0 -1.046875 0.296875 -1.9375q0.296875 -0.90625 0.859375 -1.546875q0.5625 -0.65625 1.390625 -1.015625q0.828125 -0.359375 1.90625 -0.359375q0.984375 0 1.75 0.328125q0.765625 0.3125 1.359375 0.890625l-0.4375 0.609375zm4.1030884 -1.6875l0 9.453125l-1.65625 0l0 -9.453125l1.65625 0zm0.375 -2.96875q0 0.25 -0.09375 0.46875q-0.09375 0.203125 -0.265625 0.375q-0.15625 0.15625 -0.375 0.25q-0.21875 0.09375 -0.453125 0.09375q-0.25 0 -0.46875 -0.09375q-0.203125 -0.09375 -0.359375 -0.25q-0.15625 -0.171875 -0.25 -0.375q-0.09375 -0.21875 -0.09375 -0.46875q0 -0.234375 0.09375 -0.453125q0.09375 -0.21875 0.25 -0.375q0.15625 -0.171875 0.359375 -0.265625q0.21875 -0.09375 0.46875 -0.09375q0.234375 0 0.453125 0.09375q0.21875 0.09375 0.375 0.265625q0.171875 0.15625 0.265625 0.375q0.09375 0.21875 0.09375 0.453125zm2.932251 12.421875l0 -8.03125l-1.046875 -0.125q-0.1875 -0.046875 -0.3125 -0.140625q-0.125 -0.09375 -0.125 -0.28125l0 -0.6875l1.484375 0l0 -0.515625q0 -0.875 0.265625 -1.59375q0.28125 -0.71875 0.8125 -1.234375q0.546875 -0.53125 1.34375 -0.8125q0.8125 -0.296875 1.890625 -0.296875q0.359375 0 0.71875 0.046875q0.375 0.046875 0.640625 0.140625l-0.0625 0.859375q-0.015625 0.125 -0.109375 0.15625q-0.09375 0.03125 -0.265625 0.03125q-0.109375 0 -0.21875 0q-0.109375 0 -0.25 0q-1.65625 0 -2.40625 0.6875q-0.75 0.671875 -0.75 2.0625l0 0.46875l5.71875 0l0 9.265625l-1.671875 0l0 -8.0625l-3.984375 0l0 8.0625l-1.671875 0zm14.009033 -9.59375q0.84375 0 1.5625 0.28125q0.71875 0.28125 1.234375 0.828125q0.53125 0.53125 0.8125 1.328125q0.296875 0.78125 0.296875 1.78125q0 0.390625 -0.078125 0.53125q-0.078125 0.125 -0.3125 0.125l-6.296875 0q0.015625 0.890625 0.234375 1.5625q0.234375 0.65625 0.625 1.109375q0.390625 0.4375 0.9375 0.65625q0.546875 0.21875 1.203125 0.21875q0.625 0 1.078125 -0.140625q0.453125 -0.15625 0.78125 -0.3125q0.328125 -0.171875 0.546875 -0.3125q0.21875 -0.15625 0.375 -0.15625q0.21875 0 0.328125 0.15625l0.46875 0.609375q-0.3125 0.375 -0.75 0.65625q-0.421875 0.265625 -0.921875 0.453125q-0.484375 0.171875 -1.015625 0.25q-0.515625 0.09375 -1.015625 0.09375q-0.984375 0 -1.8125 -0.328125q-0.828125 -0.328125 -1.4375 -0.96875q-0.59375 -0.640625 -0.9375 -1.578125q-0.328125 -0.9375 -0.328125 -2.171875q0 -0.984375 0.296875 -1.84375q0.3125 -0.859375 0.875 -1.484375q0.578125 -0.625 1.390625 -0.984375q0.828125 -0.359375 1.859375 -0.359375zm0.03125 1.21875q-1.203125 0 -1.890625 0.703125q-0.6875 0.6875 -0.859375 1.921875l5.140625 0q0 -0.578125 -0.171875 -1.0625q-0.15625 -0.484375 -0.46875 -0.828125q-0.296875 -0.359375 -0.75 -0.546875q-0.4375 -0.1875 -1.0 -0.1875zm12.650879 8.375q-0.359375 0 -0.453125 -0.34375l-0.140625 -1.15625q-0.609375 0.75 -1.390625 1.1875q-0.78125 0.4375 -1.78125 0.4375q-0.8125 0 -1.484375 -0.3125q-0.65625 -0.3125 -1.125 -0.90625q-0.46875 -0.609375 -0.71875 -1.515625q-0.25 -0.90625 -0.25 -2.078125q0 -1.046875 0.28125 -1.9375q0.28125 -0.90625 0.796875 -1.5625q0.53125 -0.671875 1.28125 -1.046875q0.765625 -0.390625 1.71875 -0.390625q0.875 0 1.484375 0.296875q0.625 0.296875 1.109375 0.828125l0 -5.234375l1.65625 0l0 13.734375l-0.984375 0zm-3.21875 -1.21875q0.8125 0 1.421875 -0.359375q0.609375 -0.375 1.125 -1.0625l0 -4.5625q-0.453125 -0.625 -1.0 -0.875q-0.546875 -0.25 -1.21875 -0.25q-1.3125 0 -2.03125 0.953125q-0.703125 0.9375 -0.703125 2.6875q0 0.921875 0.15625 1.578125q0.15625 0.65625 0.46875 1.078125q0.3125 0.421875 0.75 0.625q0.453125 0.1875 1.03125 0.1875zm15.99823 -6.671875q-0.109375 0.203125 -0.34375 0.203125q-0.140625 0 -0.3125 -0.09375q-0.171875 -0.109375 -0.4375 -0.234375q-0.25 -0.125 -0.609375 -0.234375q-0.359375 -0.109375 -0.84375 -0.109375q-0.40625 0 -0.75 0.109375q-0.328125 0.109375 -0.578125 0.296875q-0.234375 0.1875 -0.359375 0.4375q-0.125 0.234375 -0.125 0.53125q0 0.359375 0.203125 0.609375q0.21875 0.234375 0.5625 0.421875q0.34375 0.171875 0.78125 0.3125q0.4375 0.125 0.890625 0.28125q0.46875 0.15625 0.90625 0.34375q0.4375 0.1875 0.78125 0.46875q0.359375 0.28125 0.5625 0.6875q0.203125 0.40625 0.203125 0.96875q0 0.65625 -0.234375 1.21875q-0.21875 0.546875 -0.6875 0.953125q-0.453125 0.40625 -1.125 0.640625q-0.65625 0.234375 -1.515625 0.234375q-0.984375 0 -1.796875 -0.328125q-0.796875 -0.328125 -1.359375 -0.828125l0.390625 -0.625q0.078125 -0.125 0.171875 -0.1875q0.109375 -0.078125 0.28125 -0.078125q0.15625 0 0.34375 0.140625q0.1875 0.125 0.453125 0.28125q0.265625 0.15625 0.640625 0.296875q0.390625 0.125 0.953125 0.125q0.484375 0 0.84375 -0.125q0.375 -0.125 0.609375 -0.328125q0.25 -0.21875 0.359375 -0.5q0.125 -0.28125 0.125 -0.609375q0 -0.390625 -0.21875 -0.640625q-0.203125 -0.25 -0.546875 -0.4375q-0.34375 -0.1875 -0.796875 -0.3125q-0.4375 -0.140625 -0.90625 -0.28125q-0.453125 -0.15625 -0.90625 -0.34375q-0.4375 -0.203125 -0.78125 -0.484375q-0.34375 -0.296875 -0.5625 -0.71875q-0.203125 -0.421875 -0.203125 -1.03125q0 -0.53125 0.21875 -1.03125q0.234375 -0.5 0.65625 -0.875q0.4375 -0.390625 1.0625 -0.609375q0.625 -0.21875 1.421875 -0.21875q0.9375 0 1.671875 0.296875q0.75 0.28125 1.28125 0.796875l-0.375 0.609375zm6.4405518 -1.703125q0.84375 0 1.5625 0.28125q0.71875 0.28125 1.234375 0.828125q0.53125 0.53125 0.8125 1.328125q0.296875 0.78125 0.296875 1.78125q0 0.390625 -0.078125 0.53125q-0.078125 0.125 -0.3125 0.125l-6.296875 0q0.015625 0.890625 0.234375 1.5625q0.234375 0.65625 0.625 1.109375q0.390625 0.4375 0.9375 0.65625q0.546875 0.21875 1.203125 0.21875q0.625 0 1.078125 -0.140625q0.453125 -0.15625 0.78125 -0.3125q0.328125 -0.171875 0.546875 -0.3125q0.21875 -0.15625 0.375 -0.15625q0.21875 0 0.328125 0.15625l0.46875 0.609375q-0.3125 0.375 -0.75 0.65625q-0.421875 0.265625 -0.921875 0.453125q-0.484375 0.171875 -1.015625 0.25q-0.515625 0.09375 -1.015625 0.09375q-0.984375 0 -1.8125 -0.328125q-0.828125 -0.328125 -1.4375 -0.96875q-0.59375 -0.640625 -0.9375 -1.578125q-0.328125 -0.9375 -0.328125 -2.171875q0 -0.984375 0.296875 -1.84375q0.3125 -0.859375 0.875 -1.484375q0.578125 -0.625 1.390625 -0.984375q0.828125 -0.359375 1.859375 -0.359375zm0.03125 1.21875q-1.203125 0 -1.890625 0.703125q-0.6875 0.6875 -0.859375 1.921875l5.140625 0q0 -0.578125 -0.171875 -1.0625q-0.15625 -0.484375 -0.46875 -0.828125q-0.296875 -0.359375 -0.75 -0.546875q-0.4375 -0.1875 -1.0 -0.1875zm5.994629 11.578125l0 -12.65625l0.984375 0q0.359375 0 0.453125 0.34375l0.140625 1.125q0.609375 -0.734375 1.390625 -1.1875q0.78125 -0.453125 1.796875 -0.453125q0.8125 0 1.46875 0.3125q0.65625 0.3125 1.125 0.9375q0.46875 0.609375 0.71875 1.515625q0.25 0.90625 0.25 2.078125q0 1.046875 -0.28125 1.953125q-0.28125 0.890625 -0.796875 1.546875q-0.515625 0.65625 -1.28125 1.03125q-0.765625 0.375 -1.71875 0.375q-0.875 0 -1.5 -0.28125q-0.609375 -0.296875 -1.09375 -0.828125l0 4.1875l-1.65625 0zm4.203125 -11.484375q-0.8125 0 -1.421875 0.375q-0.609375 0.375 -1.125 1.0625l0 4.5625q0.46875 0.625 1.015625 0.875q0.546875 0.25 1.21875 0.25q1.3125 0 2.015625 -0.9375q0.703125 -0.953125 0.703125 -2.6875q0 -0.921875 -0.15625 -1.578125q-0.15625 -0.671875 -0.46875 -1.09375q-0.3125 -0.421875 -0.765625 -0.625q-0.4375 -0.203125 -1.015625 -0.203125zm13.032654 8.28125l-0.734375 0q-0.234375 0 -0.390625 -0.078125q-0.140625 -0.078125 -0.1875 -0.3125l-0.1875 -0.875q-0.375 0.328125 -0.734375 0.59375q-0.359375 0.265625 -0.75 0.453125q-0.390625 0.1875 -0.828125 0.28125q-0.4375 0.09375 -0.984375 0.09375q-0.546875 0 -1.03125 -0.15625q-0.484375 -0.15625 -0.84375 -0.46875q-0.34375 -0.3125 -0.5625 -0.78125q-0.203125 -0.46875 -0.203125 -1.109375q0 -0.5625 0.296875 -1.078125q0.3125 -0.515625 1.0 -0.90625q0.6875 -0.40625 1.796875 -0.65625q1.109375 -0.265625 2.71875 -0.3125l0 -0.734375q0 -1.09375 -0.46875 -1.65625q-0.46875 -0.578125 -1.40625 -0.578125q-0.59375 0 -1.015625 0.15625q-0.40625 0.15625 -0.71875 0.359375q-0.296875 0.1875 -0.515625 0.34375q-0.21875 0.140625 -0.4375 0.140625q-0.171875 0 -0.296875 -0.078125q-0.125 -0.09375 -0.203125 -0.21875l-0.296875 -0.53125q0.78125 -0.765625 1.6875 -1.140625q0.90625 -0.375 2.015625 -0.375q0.78125 0 1.390625 0.265625q0.625 0.265625 1.046875 0.734375q0.421875 0.46875 0.625 1.125q0.21875 0.65625 0.21875 1.453125l0 6.046875zm-4.296875 -1.015625q0.4375 0 0.796875 -0.078125q0.359375 -0.09375 0.671875 -0.25q0.328125 -0.171875 0.625 -0.40625q0.296875 -0.234375 0.578125 -0.53125l0 -1.96875q-1.15625 0.03125 -1.953125 0.1875q-0.796875 0.140625 -1.3125 0.375q-0.5 0.234375 -0.734375 0.546875q-0.21875 0.3125 -0.21875 0.703125q0 0.375 0.125 0.65625q0.125 0.265625 0.328125 0.4375q0.203125 0.171875 0.484375 0.25q0.28125 0.078125 0.609375 0.078125zm6.818054 1.015625l0 -9.453125l0.953125 0q0.265625 0 0.375 0.109375q0.109375 0.09375 0.140625 0.34375l0.109375 1.484375q0.484375 -0.984375 1.1875 -1.546875q0.71875 -0.5625 1.6875 -0.5625q0.390625 0 0.703125 0.09375q0.328125 0.09375 0.59375 0.25l-0.21875 1.234375q-0.0625 0.234375 -0.28125 0.234375q-0.140625 0 -0.40625 -0.078125q-0.265625 -0.09375 -0.75 -0.09375q-0.875 0 -1.453125 0.5q-0.578125 0.5 -0.984375 1.46875l0 6.015625l-1.65625 0zm14.101318 0l-0.734375 0q-0.234375 0 -0.390625 -0.078125q-0.140625 -0.078125 -0.1875 -0.3125l-0.1875 -0.875q-0.375 0.328125 -0.734375 0.59375q-0.359375 0.265625 -0.75 0.453125q-0.390625 0.1875 -0.828125 0.28125q-0.4375 0.09375 -0.984375 0.09375q-0.546875 0 -1.03125 -0.15625q-0.484375 -0.15625 -0.84375 -0.46875q-0.34375 -0.3125 -0.5625 -0.78125q-0.203125 -0.46875 -0.203125 -1.109375q0 -0.5625 0.296875 -1.078125q0.3125 -0.515625 1.0 -0.90625q0.6875 -0.40625 1.796875 -0.65625q1.109375 -0.265625 2.71875 -0.3125l0 -0.734375q0 -1.09375 -0.46875 -1.65625q-0.46875 -0.578125 -1.40625 -0.578125q-0.59375 0 -1.015625 0.15625q-0.40625 0.15625 -0.71875 0.359375q-0.296875 0.1875 -0.515625 0.34375q-0.21875 0.140625 -0.4375 0.140625q-0.171875 0 -0.296875 -0.078125q-0.125 -0.09375 -0.203125 -0.21875l-0.296875 -0.53125q0.78125 -0.765625 1.6875 -1.140625q0.90625 -0.375 2.015625 -0.375q0.78125 0 1.390625 0.265625q0.625 0.265625 1.046875 0.734375q0.421875 0.46875 0.625 1.125q0.21875 0.65625 0.21875 1.453125l0 6.046875zm-4.296875 -1.015625q0.4375 0 0.796875 -0.078125q0.359375 -0.09375 0.671875 -0.25q0.328125 -0.171875 0.625 -0.40625q0.296875 -0.234375 0.578125 -0.53125l0 -1.96875q-1.15625 0.03125 -1.953125 0.1875q-0.796875 0.140625 -1.3125 0.375q-0.5 0.234375 -0.734375 0.546875q-0.21875 0.3125 -0.21875 0.703125q0 0.375 0.125 0.65625q0.125 0.265625 0.328125 0.4375q0.203125 0.171875 0.484375 0.25q0.28125 0.078125 0.609375 0.078125zm9.67749 1.171875q-1.109375 0 -1.71875 -0.625q-0.59375 -0.625 -0.59375 -1.8125l0 -5.78125l-1.140625 0q-0.15625 0 -0.265625 -0.078125q-0.09375 -0.09375 -0.09375 -0.28125l0 -0.65625l1.546875 -0.203125l0.390625 -2.921875q0.015625 -0.140625 0.109375 -0.21875q0.109375 -0.09375 0.265625 -0.09375l0.84375 0l0 3.25l2.703125 0l0 1.203125l-2.703125 0l0 5.671875q0 0.59375 0.28125 0.890625q0.296875 0.28125 0.75 0.28125q0.265625 0 0.453125 -0.0625q0.203125 -0.078125 0.328125 -0.15625q0.140625 -0.078125 0.234375 -0.140625q0.109375 -0.078125 0.1875 -0.078125q0.125 0 0.234375 0.15625l0.484375 0.796875q-0.4375 0.390625 -1.046875 0.625q-0.59375 0.234375 -1.25 0.234375zm7.8494873 -9.75q0.84375 0 1.5625 0.28125q0.71875 0.28125 1.234375 0.828125q0.53125 0.53125 0.8125 1.328125q0.296875 0.78125 0.296875 1.78125q0 0.390625 -0.078125 0.53125q-0.078125 0.125 -0.3125 0.125l-6.296936 0q0.015625 0.890625 0.234375 1.5625q0.234375 0.65625 0.625 1.109375q0.39068604 0.4375 0.93756104 0.65625q0.546875 0.21875 1.203125 0.21875q0.625 0 1.078125 -0.140625q0.453125 -0.15625 0.78125 -0.3125q0.328125 -0.171875 0.546875 -0.3125q0.21875 -0.15625 0.375 -0.15625q0.21875 0 0.328125 0.15625l0.46875 0.609375q-0.3125 0.375 -0.75 0.65625q-0.421875 0.265625 -0.921875 0.453125q-0.484375 0.171875 -1.015625 0.25q-0.515625 0.09375 -1.015625 0.09375q-0.984375 0 -1.812561 -0.328125q-0.828125 -0.328125 -1.4375 -0.96875q-0.59375 -0.640625 -0.9375 -1.578125q-0.328125 -0.9375 -0.328125 -2.171875q0 -0.984375 0.296875 -1.84375q0.3125 -0.859375 0.875 -1.484375q0.578125 -0.625 1.390625 -0.984375q0.82818604 -0.359375 1.859436 -0.359375zm0.03125 1.21875q-1.203125 0 -1.890686 0.703125q-0.6875 0.6875 -0.859375 1.921875l5.140686 0q0 -0.578125 -0.171875 -1.0625q-0.15625 -0.484375 -0.46875 -0.828125q-0.296875 -0.359375 -0.75 -0.546875q-0.4375 -0.1875 -1.0 -0.1875zm7.838379 -5.359375l0 13.734375l-1.65625 0l0 -13.734375l1.65625 0zm5.697876 16.53125q-0.078125 0.171875 -0.203125 0.28125q-0.125 0.125 -0.390625 0.125l-1.234375 0l1.734375 -3.75l-3.90625 -8.90625l1.4375 0q0.21875 0 0.34375 0.109375q0.125 0.109375 0.171875 0.234375l2.53125 5.953125q0.078125 0.203125 0.140625 0.421875q0.0625 0.203125 0.109375 0.40625q0.0625 -0.203125 0.125 -0.40625q0.078125 -0.21875 0.15625 -0.421875l2.453125 -5.953125q0.0625 -0.140625 0.1875 -0.234375q0.140625 -0.109375 0.296875 -0.109375l1.328125 0l-5.28125 12.25z" fill-rule="nonzero"/><path fill="#000000" fill-opacity="0.0" d="m116.30708 41.27559l222.42519 0l0 58.173233l-222.42519 0z" fill-rule="evenodd"/><path fill="#d9d9d9" d="m130.46333 58.27684l14.71875 0l-0.796875 3.875l-10.375 0l-1.15625 5.46875l8.9375 0l-0.765625 3.578125l-8.9375 0l-1.25 5.921875l10.625 0l-0.828125 3.875l-15.015625 0l4.84375 -22.71875zm14.072662 22.71875l2.65625 -12.609375l-2.046875 0l0.703125 -3.265625l2.046875 0l0.09375 -0.40625q0.421875 -1.765625 1.359375 -3.171875q0.953125 -1.40625 2.34375 -2.234375q1.390625 -0.84375 3.09375 -0.84375q1.046875 0 1.984375 0.265625q0.953125 0.25 1.8125 0.671875q0.9375 -0.96875 2.09375 -1.53125q1.171875 -0.5625 2.609375 -0.5625q0.765625 0 1.390625 0.171875q0.625 0.15625 1.203125 0.390625q0.578125 0.21875 1.09375 0.4375l-1.53125 3.234375q-0.390625 -0.234375 -0.890625 -0.40625q-0.5 -0.171875 -1.125 -0.171875q-0.8125 0 -1.40625 0.421875q-0.578125 0.40625 -0.953125 1.078125q-0.375 0.671875 -0.5625 1.46875l-0.25 1.1875l4.09375 0l-0.671875 3.265625l-4.09375 0l-2.6875 12.609375l-4.296875 0l2.6875 -12.609375l-3.796875 0l-2.65625 12.609375l-4.296875 0zm7.65625 -15.875l3.765625 0q0.140625 -0.609375 0.34375 -1.3125q0.203125 -0.703125 0.46875 -1.25q-0.421875 -0.25 -0.9375 -0.34375q-0.515625 -0.09375 -0.953125 -0.09375q-0.546875 0 -0.984375 0.1875q-0.421875 0.1875 -0.75 0.515625q-0.3125 0.3125 -0.53125 0.78125q-0.203125 0.46875 -0.328125 0.96875l-0.09375 0.546875zm18.618286 16.1875q-2.109375 0 -3.671875 -0.90625q-1.546875 -0.90625 -2.359375 -2.515625q-0.8125 -1.625 -0.8125 -3.671875q0 -2.078125 0.796875 -3.9375q0.796875 -1.859375 2.234375 -3.28125q1.4375 -1.421875 3.359375 -2.234375q1.921875 -0.828125 4.171875 -0.828125q1.8125 0 3.15625 0.546875q1.34375 0.546875 2.078125 1.59375q0.75 1.03125 0.75 2.53125q0 2.65625 -2.421875 4.046875q-2.421875 1.375 -7.25 1.375q-0.953125 0 -2.078125 -0.046875q-1.125 -0.0625 -2.4375 -0.1875l0.546875 -2.6875q1.15625 0.09375 2.109375 0.140625q0.96875 0.046875 1.890625 0.046875q2.078125 0 3.28125 -0.28125q1.203125 -0.28125 1.734375 -0.828125q0.546875 -0.546875 0.546875 -1.28125q0 -0.640625 -0.3125 -1.03125q-0.3125 -0.40625 -0.875 -0.609375q-0.5625 -0.21875 -1.328125 -0.21875q-1.25 0 -2.296875 0.59375q-1.03125 0.59375 -1.8125 1.625q-0.765625 1.015625 -1.1875 2.328125q-0.40625 1.3125 -0.40625 2.78125q0 1.09375 0.359375 1.96875q0.375 0.875 1.109375 1.359375q0.734375 0.484375 1.890625 0.484375q1.28125 0 2.421875 -0.609375q1.140625 -0.609375 1.8125 -1.703125l3.390625 1.0625q-0.84375 1.28125 -2.1875 2.28125q-1.34375 0.984375 -2.9375 1.546875q-1.59375 0.546875 -3.265625 0.546875zm17.600784 0q-2.234375 0 -3.78125 -0.953125q-1.53125 -0.953125 -2.296875 -2.5625q-0.765625 -1.625 -0.765625 -3.546875q0 -1.984375 0.765625 -3.84375q0.765625 -1.859375 2.15625 -3.3125q1.390625 -1.453125 3.3125 -2.296875q1.921875 -0.859375 4.21875 -0.859375q2.6875 0 4.265625 1.1875q1.59375 1.1875 2.109375 3.109375l-4.421875 1.28125q-0.3125 -0.9375 -1.015625 -1.421875q-0.703125 -0.5 -1.703125 -0.5q-0.984375 0 -1.9375 0.46875q-0.9375 0.453125 -1.6875 1.3125q-0.75 0.84375 -1.1875 1.96875q-0.4375 1.109375 -0.4375 2.390625q0 1.15625 0.390625 2.0625q0.390625 0.890625 1.09375 1.390625q0.703125 0.484375 1.625 0.484375q0.703125 0 1.390625 -0.25q0.6875 -0.265625 1.265625 -0.703125q0.578125 -0.453125 0.921875 -1.03125l3.90625 1.28125q-0.828125 1.25 -2.078125 2.25q-1.25 0.984375 -2.796875 1.546875q-1.546875 0.546875 -3.3125 0.546875zm11.515915 -2.96875q0 -0.28125 0.03125 -0.5625q0.03125 -0.296875 0.09375 -0.625l2.0625 -9.625l-2.09375 0l0.703125 -3.296875l2.0625 0l1.140625 -5.4375l4.296875 0l-1.15625 5.4375l3.359375 0l-0.703125 3.296875l-3.328125 0l-1.765625 8.1875q-0.03125 0.125 -0.046875 0.265625q-0.015625 0.125 -0.015625 0.25q0 0.609375 0.34375 0.875q0.359375 0.25 0.875 0.25q0.421875 0 0.84375 -0.09375q0.4375 -0.109375 0.8125 -0.265625q0.390625 -0.15625 0.6875 -0.25l0.125 3.390625q-0.640625 0.28125 -1.453125 0.5625q-0.796875 0.265625 -1.65625 0.421875q-0.859375 0.15625 -1.734375 0.15625q-1.5 0 -2.5 -0.6875q-0.984375 -0.6875 -0.984375 -2.25zm13.857895 -14.109375l4.296875 0l-3.5625 16.765625l-4.28125 0l3.546875 -16.765625zm1.40625 -6.59375l4.296875 0l-0.90625 4.25l-4.28125 0l0.890625 -4.25zm4.8616486 6.59375l4.453125 0l1.03125 13.28125q1.140625 -1.796875 2.078125 -3.421875q0.953125 -1.640625 1.71875 -3.21875q0.765625 -1.59375 1.40625 -3.234375q0.640625 -1.65625 1.15625 -3.40625l3.9375 0q-1.15625 4.15625 -3.5 8.375q-2.328125 4.203125 -5.5625 8.390625l-4.46875 0l-2.25 -16.765625zm22.245651 17.078125q-2.109375 0 -3.671875 -0.90625q-1.546875 -0.90625 -2.359375 -2.515625q-0.8125 -1.625 -0.8125 -3.671875q0 -2.078125 0.796875 -3.9375q0.796875 -1.859375 2.234375 -3.28125q1.4375 -1.421875 3.359375 -2.234375q1.921875 -0.828125 4.171875 -0.828125q1.8125 0 3.15625 0.546875q1.34375 0.546875 2.078125 1.59375q0.75 1.03125 0.75 2.53125q0 2.65625 -2.421875 4.046875q-2.421875 1.375 -7.25 1.375q-0.953125 0 -2.078125 -0.046875q-1.125 -0.0625 -2.4375 -0.1875l0.546875 -2.6875q1.15625 0.09375 2.109375 0.140625q0.96875 0.046875 1.890625 0.046875q2.078125 0 3.28125 -0.28125q1.203125 -0.28125 1.734375 -0.828125q0.546875 -0.546875 0.546875 -1.28125q0 -0.640625 -0.3125 -1.03125q-0.3125 -0.40625 -0.875 -0.609375q-0.5625 -0.21875 -1.328125 -0.21875q-1.25 0 -2.296875 0.59375q-1.03125 0.59375 -1.8125 1.625q-0.765625 1.015625 -1.1875 2.328125q-0.40625 1.3125 -0.40625 2.78125q0 1.09375 0.359375 1.96875q0.375 0.875 1.109375 1.359375q0.734375 0.484375 1.890625 0.484375q1.28125 0 2.421875 -0.609375q1.140625 -0.609375 1.8125 -1.703125l3.390625 1.0625q-0.84375 1.28125 -2.1875 2.28125q-1.34375 0.984375 -2.9375 1.546875q-1.59375 0.546875 -3.265625 0.546875zm14.147675 -0.0625q-1.6093903 0 -2.4843903 -0.75q-0.875 -0.75 -0.875 -2.15625q0 -0.28125 0.046875 -0.578125q0.046875 -0.3125 0.078125 -0.640625l4.1562653 -19.484375l4.265625 0l-3.8125 17.984375q-0.03125 0.15625 -0.046875 0.328125q-0.015625 0.15625 -0.015625 0.3125q0 1.3125 1.3125 1.3125q0.34375 0 0.8125 -0.125q0.46875 -0.140625 0.875 -0.328125l-0.125 3.265625q-0.890625 0.421875 -2.078125 0.640625q-1.1875 0.21875 -2.109375 0.21875zm3.7427673 3.78125q1.28125 -0.09375 2.09375 -0.328125q0.8125 -0.21875 1.421875 -0.71875q0.609375 -0.484375 1.25 -1.390625l0.921875 -1.234375l-2.78125 -17.125l4.390625 0l1.4375 13.046875l1.09375 -1.78125q0.984375 -1.640625 1.734375 -3.0625q0.75 -1.421875 1.3125 -2.75q0.5625 -1.328125 0.96875 -2.671875q0.421875 -1.34375 0.78125 -2.78125l4.15625 0q-0.421875 1.53125 -0.9375 2.890625q-0.5 1.359375 -1.203125 2.84375q-0.703125 1.46875 -1.78125 3.328125q-1.0625 1.84375 -2.671875 4.40625l-2.5625 4.125q-1.109375 1.796875 -2.15625 3.03125q-1.03125 1.234375 -2.109375 2.0q-1.078125 0.765625 -2.265625 1.09375q-1.171875 0.34375 -2.578125 0.375l-0.515625 -3.296875zm20.671265 -16.0l0.984375 -4.609375l3.5 0l-0.96875 4.609375l-3.515625 0zm-2.53125 11.96875l1.0 -4.609375l3.484375 0l-1.0 4.609375l-3.484375 0z" fill-rule="nonzero"/></g></svg>