<svg version="1.1" viewBox="0.0 0.0 960.0 540.0" fill="none" stroke="none" stroke-linecap="square" stroke-miterlimit="10" xmlns:xlink="http://www.w3.org/1999/xlink" xmlns="http://www.w3.org/2000/svg"><clipPath id="gd251bb473_0_681.0"><path d="m0 0l960.0 0l0 540.0l-960.0 0l0 -540.0z" clip-rule="nonzero"/></clipPath><g clip-path="url(#gd251bb473_0_681.0)"><path fill="#ffffff" d="m0 0l960.0 0l0 540.0l-960.0 0z" fill-rule="evenodd"/><path fill="#000000" fill-opacity="0.0" d="m77.72179 74.7664l711.937 0l0 402.6772l-711.937 0z" fill-rule="evenodd"/><path fill="#b7b7b7" d="m100.28429 116.018906l0 29.1875l-8.828125 0l0 -45.4375l7.046875 0l23.484375 29.953125l0 -29.890625l8.828125 0l0 45.375l-7.359375 0l-23.171875 -29.1875zm54.084045 29.828125q-4.09375 0 -7.359375 -1.375q-3.265625 -1.375 -5.546875 -3.796875q-2.265625 -2.4375 -3.484375 -5.578125q-1.203125 -3.140625 -1.203125 -6.59375q0 -3.515625 1.203125 -6.65625q1.21875 -3.140625 3.484375 -5.5625q2.28125 -2.4375 5.546875 -3.8125q3.265625 -1.375 7.359375 -1.375q4.09375 0 7.328125 1.375q3.234375 1.375 5.53125 3.8125q2.3125 2.421875 3.484375 5.5625q1.1875 3.140625 1.1875 6.65625q0 3.453125 -1.1875 6.59375q-1.171875 3.140625 -3.453125 5.578125q-2.265625 2.421875 -5.53125 3.796875q-3.265625 1.375 -7.359375 1.375zm-8.765625 -17.34375q0 2.9375 1.140625 5.21875q1.15625 2.265625 3.140625 3.546875q1.984375 1.28125 4.484375 1.28125q2.4375 0 4.421875 -1.3125q1.984375 -1.3125 3.15625 -3.578125q1.1875 -2.28125 1.1875 -5.21875q0 -2.875 -1.1875 -5.171875q-1.171875 -2.3125 -3.15625 -3.59375q-1.984375 -1.28125 -4.421875 -1.28125q-2.5 0 -4.484375 1.3125q-1.984375 1.3125 -3.140625 3.59375q-1.140625 2.265625 -1.140625 5.203125zm51.646942 14.96875q-1.09375 0.453125 -2.625 1.03125q-1.53125 0.578125 -3.296875 0.921875q-1.765625 0.359375 -3.546875 0.359375q-2.375 0 -4.359375 -0.828125q-1.984375 -0.84375 -3.171875 -2.65625q-1.171875 -1.828125 -1.171875 -4.78125l0 -19.25l-4.421875 0l0 -6.59375l4.421875 0l0 -10.890625l8.578125 0l0 10.890625l7.03125 0l0 6.59375l-7.03125 0l0 16.375q0.0625 1.734375 0.953125 2.5q0.890625 0.765625 2.234375 0.765625q1.34375 0 2.625 -0.4375q1.28125 -0.453125 2.046875 -0.78125l1.734375 6.78125zm17.529678 -8.1875q0 -3.265625 1.828125 -5.71875q1.828125 -2.46875 5.09375 -3.8125q3.265625 -1.34375 7.484375 -1.34375q2.109375 0 4.28125 0.328125q2.1875 0.3125 3.78125 1.015625l0 -1.796875q0 -3.203125 -1.890625 -4.921875q-1.890625 -1.734375 -5.59375 -1.734375q-2.75 0 -5.25 0.96875q-2.5 0.953125 -5.25 2.8125l-2.75 -5.640625q3.328125 -2.171875 6.8125 -3.25q3.484375 -1.09375 7.328125 -1.09375q7.171875 0 11.171875 3.59375q4.0 3.578125 4.0 10.234375l0 10.6875q0 1.34375 0.46875 1.921875q0.484375 0.5625 1.578125 0.703125l0 6.96875q-1.15625 0.1875 -2.078125 0.3125q-0.921875 0.140625 -1.5625 0.140625q-2.5625 0 -3.875 -1.15625q-1.3125 -1.15625 -1.640625 -2.8125l-0.1875 -1.734375q-2.171875 2.8125 -5.4375 4.359375q-3.265625 1.53125 -6.65625 1.53125q-3.328125 0 -5.984375 -1.375q-2.65625 -1.375 -4.171875 -3.765625q-1.5 -2.40625 -1.5 -5.421875zm20.875 1.734375q0.703125 -0.765625 1.140625 -1.53125q0.453125 -0.78125 0.453125 -1.421875l0 -3.390625q-1.53125 -0.640625 -3.328125 -0.984375q-1.796875 -0.359375 -3.390625 -0.359375q-3.328125 0 -5.46875 1.453125q-2.140625 1.4375 -2.140625 3.796875q0 1.28125 0.703125 2.4375q0.703125 1.140625 2.046875 1.859375q1.34375 0.703125 3.203125 0.703125q1.90625 0 3.765625 -0.734375q1.859375 -0.75 3.015625 -1.828125zm49.345306 8.1875l-8.578125 0l0 -18.8125q0 -4.03125 -1.40625 -5.890625q-1.40625 -1.859375 -3.90625 -1.859375q-1.734375 0 -3.5 0.90625q-1.75 0.890625 -3.15625 2.46875q-1.40625 1.5625 -2.046875 3.609375l0 19.578125l-8.578125 0l0 -33.53125l7.734375 0l0 6.203125q1.28125 -2.171875 3.265625 -3.671875q1.984375 -1.515625 4.578125 -2.3125q2.59375 -0.796875 5.46875 -0.796875q3.140625 0 5.15625 1.125q2.015625 1.109375 3.0625 3.0q1.0625 1.890625 1.484375 4.265625q0.421875 2.359375 0.421875 4.796875l0 20.921875zm7.6111755 6.53125q1.15625 0.25 2.140625 0.4375q1.0 0.203125 1.703125 0.203125q1.203125 0 2.0 -0.609375q0.8125 -0.609375 1.578125 -2.1875q0.765625 -1.5625 1.59375 -4.375l-13.234375 -33.53125l8.890625 0l9.015625 24.765625l7.9375 -24.765625l8.203125 0l-14.078125 40.1875q-0.78125 2.234375 -2.34375 4.0625q-1.5625 1.828125 -3.90625 2.875q-2.328125 1.0625 -5.21875 1.0625q-1.015625 0 -2.046875 -0.15625q-1.015625 -0.15625 -2.234375 -0.546875l0 -7.421875zm100.350525 -6.53125l-8.578125 0l0 -18.8125q0 -3.96875 -1.375 -5.859375q-1.375 -1.890625 -3.8125 -1.890625q-2.484375 0 -4.765625 1.953125q-2.265625 1.953125 -3.234375 5.09375l0 19.515625l-8.578125 0l0 -18.8125q0 -4.03125 -1.375 -5.890625q-1.375 -1.859375 -3.796875 -1.859375q-2.5 0 -4.78125 1.921875q-2.265625 1.921875 -3.21875 5.0625l0 19.578125l-8.578125 0l0 -33.53125l7.734375 0l0 6.203125q1.921875 -3.265625 5.125 -5.015625q3.203125 -1.765625 7.359375 -1.765625q4.15625 0 6.484375 2.046875q2.34375 2.046875 2.984375 5.046875q2.046875 -3.453125 5.21875 -5.265625q3.171875 -1.828125 7.140625 -1.828125q3.140625 0 5.078125 1.125q1.953125 1.109375 3.046875 3.0q1.09375 1.890625 1.5 4.265625q0.421875 2.359375 0.421875 4.796875l0 20.921875zm22.974487 0.640625q-4.09375 0 -7.359375 -1.375q-3.265625 -1.375 -5.546875 -3.796875q-2.265625 -2.4375 -3.484375 -5.578125q-1.203125 -3.140625 -1.203125 -6.59375q0 -3.515625 1.203125 -6.65625q1.21875 -3.140625 3.484375 -5.5625q2.28125 -2.4375 5.546875 -3.8125q3.265625 -1.375 7.359375 -1.375q4.09375 0 7.328125 1.375q3.234375 1.375 5.53125 3.8125q2.3125 2.421875 3.484375 5.5625q1.1875 3.140625 1.1875 6.65625q0 3.453125 -1.1875 6.59375q-1.171875 3.140625 -3.453125 5.578125q-2.265625 2.421875 -5.53125 3.796875q-3.265625 1.375 -7.359375 1.375zm-8.765625 -17.34375q0 2.9375 1.140625 5.21875q1.15625 2.265625 3.140625 3.546875q1.984375 1.28125 4.484375 1.28125q2.4375 0 4.421875 -1.3125q1.984375 -1.3125 3.15625 -3.578125q1.1875 -2.28125 1.1875 -5.21875q0 -2.875 -1.1875 -5.171875q-1.171875 -2.3125 -3.15625 -3.59375q-1.984375 -1.28125 -4.421875 -1.28125q-2.5 0 -4.484375 1.3125q-1.984375 1.3125 -3.140625 3.59375q-1.140625 2.265625 -1.140625 5.203125zm52.033936 -9.40625q-3.90625 0 -6.984375 1.5q-3.0625 1.5 -4.40625 4.328125l0 20.28125l-8.578125 0l0 -33.53125l7.875 0l0 7.15625q1.78125 -3.453125 4.53125 -5.4375q2.765625 -1.984375 5.828125 -2.171875q0.703125 0 1.078125 0q0.390625 0 0.65625 0.0625l0 7.8125zm19.898071 26.75q-4.03125 0 -7.296875 -1.375q-3.265625 -1.375 -5.578125 -3.765625q-2.296875 -2.40625 -3.546875 -5.515625q-1.234375 -3.109375 -1.234375 -6.5625q0 -4.796875 2.140625 -8.765625q2.140625 -3.96875 6.140625 -6.359375q4.0 -2.40625 9.4375 -2.40625q5.515625 0 9.40625 2.40625q3.90625 2.390625 5.984375 6.328125q2.078125 3.9375 2.078125 8.484375q0 0.765625 -0.0625 1.5625q-0.0625 0.796875 -0.125 1.3125l-25.921875 0q0.265625 2.5625 1.5 4.484375q1.25 1.921875 3.203125 2.921875q1.953125 0.984375 4.203125 0.984375q2.5625 0 4.828125 -1.25q2.265625 -1.25 3.109375 -3.296875l7.359375 2.046875q-1.21875 2.5625 -3.5 4.546875q-2.265625 1.984375 -5.34375 3.109375q-3.0625 1.109375 -6.78125 1.109375zm-8.765625 -20.09375l17.53125 0q-0.25 -2.5625 -1.4375 -4.453125q-1.1875 -1.890625 -3.109375 -2.9375q-1.90625 -1.0625 -4.28125 -1.0625q-2.296875 0 -4.1875 1.0625q-1.890625 1.046875 -3.078125 2.9375q-1.1875 1.890625 -1.4375 4.453125zm33.210938 2.359375l0 -28.796875l8.5781555 0l0 28.796875l-8.5781555 0zm0 17.09375l0 -9.65625l8.5781555 0l0 9.65625l-8.5781555 0z" fill-rule="nonzero"/><path fill="#b7b7b7" d="m100.28429 206.0189l0 29.1875l-8.828125 0l0 -45.4375l7.046875 0l23.484375 29.953125l0 -29.890625l8.828125 0l0 45.375l-7.359375 0l-23.171875 -29.1875zm54.084045 29.828125q-4.09375 0 -7.359375 -1.375q-3.265625 -1.375 -5.546875 -3.796875q-2.265625 -2.4375 -3.484375 -5.578125q-1.203125 -3.140625 -1.203125 -6.59375q0 -3.515625 1.203125 -6.65625q1.21875 -3.140625 3.484375 -5.5625q2.28125 -2.4375 5.546875 -3.8125q3.265625 -1.375 7.359375 -1.375q4.09375 0 7.328125 1.375q3.234375 1.375 5.53125 3.8125q2.3125 2.421875 3.484375 5.5625q1.1875 3.140625 1.1875 6.65625q0 3.453125 -1.1875 6.59375q-1.171875 3.140625 -3.453125 5.578125q-2.265625 2.421875 -5.53125 3.796875q-3.265625 1.375 -7.359375 1.375zm-8.765625 -17.34375q0 2.9375 1.140625 5.21875q1.15625 2.265625 3.140625 3.546875q1.984375 1.28125 4.484375 1.28125q2.4375 0 4.421875 -1.3125q1.984375 -1.3125 3.15625 -3.578125q1.1875 -2.28125 1.1875 -5.21875q0 -2.875 -1.1875 -5.171875q-1.171875 -2.3125 -3.15625 -3.59375q-1.984375 -1.28125 -4.421875 -1.28125q-2.5 0 -4.484375 1.3125q-1.984375 1.3125 -3.140625 3.59375q-1.140625 2.265625 -1.140625 5.203125zm72.50694 -16.828125l8.125 0l-14.015625 33.53125l-7.15625 0l-5.640625 -14.40625l-5.5 14.40625l-7.234375 0l-13.953125 -33.53125l8.0625 0l9.984375 25.34375l3.90625 -10.953125l-5.828125 -14.328125l7.109375 0l3.453125 10.234375l3.53125 -10.234375l7.09375 0l-5.828125 14.328125l3.96875 10.953125l9.921875 -25.34375zm23.35762 23.609375q0 -3.265625 1.828125 -5.71875q1.828125 -2.46875 5.09375 -3.8125q3.265625 -1.34375 7.484375 -1.34375q2.1093597 0 4.2812347 0.328125q2.1875 0.3125 3.78125 1.015625l0 -1.796875q0 -3.203125 -1.890625 -4.921875q-1.890625 -1.734375 -5.59375 -1.734375q-2.7499847 0 -5.2499847 0.96875q-2.5 0.953125 -5.25 2.8125l-2.75 -5.640625q3.328125 -2.171875 6.8125 -3.25q3.484375 -1.09375 7.3281097 -1.09375q7.171875 0 11.171875 3.59375q4.0 3.578125 4.0 10.234375l0 10.6875q0 1.34375 0.46875 1.921875q0.484375 0.5625 1.578125 0.703125l0 6.96875q-1.15625 0.1875 -2.078125 0.3125q-0.921875 0.140625 -1.5625 0.140625q-2.5625 0 -3.875 -1.15625q-1.3125 -1.15625 -1.640625 -2.8125l-0.1875 -1.734375q-2.171875 2.8125 -5.4375 4.359375q-3.265625 1.53125 -6.6562347 1.53125q-3.328125 0 -5.984375 -1.375q-2.65625 -1.375 -4.171875 -3.765625q-1.5 -2.40625 -1.5 -5.421875zm20.874985 1.734375q0.703125 -0.765625 1.140625 -1.53125q0.453125 -0.78125 0.453125 -1.421875l0 -3.390625q-1.53125 -0.640625 -3.328125 -0.984375q-1.796875 -0.359375 -3.390625 -0.359375q-3.3281097 0 -5.4687347 1.453125q-2.140625 1.4375 -2.140625 3.796875q0 1.28125 0.703125 2.4375q0.703125 1.140625 2.046875 1.859375q1.34375 0.703125 3.203125 0.703125q1.9062347 0 3.7656097 -0.734375q1.859375 -0.75 3.015625 -1.828125zm16.126556 -8.578125q0 -4.859375 1.921875 -8.796875q1.921875 -3.9375 5.3125 -6.234375q3.390625 -2.3125 7.734375 -2.3125q3.71875 0 6.6875 1.828125q2.984375 1.8125 4.640625 4.640625l0 -19.078125l8.578125 0l0 37.125q0 1.34375 0.4375 1.921875q0.453125 0.5625 1.546875 0.703125l0 6.96875q-2.234375 0.453125 -3.640625 0.453125q-2.3125 0 -3.8125 -1.15625q-1.5 -1.15625 -1.703125 -3.015625l-0.125 -2.109375q-1.859375 3.140625 -5.03125 4.8125q-3.15625 1.65625 -6.609375 1.65625q-3.453125 0 -6.375 -1.34375q-2.90625 -1.34375 -5.0625 -3.703125q-2.140625 -2.375 -3.328125 -5.546875q-1.171875 -3.171875 -1.171875 -6.8125zm26.296875 4.484375l0 -8.0q-0.640625 -1.859375 -2.046875 -3.328125q-1.40625 -1.484375 -3.140625 -2.34375q-1.71875 -0.859375 -3.453125 -0.859375q-1.984375 0 -3.578125 0.828125q-1.59375 0.828125 -2.78125 2.234375q-1.1875 1.40625 -1.796875 3.265625q-0.609375 1.859375 -0.609375 3.90625q0 2.046875 0.671875 3.875q0.671875 1.828125 1.953125 3.171875q1.28125 1.34375 2.96875 2.109375q1.703125 0.765625 3.6875 0.765625q1.21875 0 2.46875 -0.40625q1.25 -0.421875 2.359375 -1.15625q1.125 -0.734375 1.984375 -1.796875q0.875 -1.0625 1.3125 -2.265625zm14.983063 -4.484375q0 -4.859375 1.921875 -8.796875q1.921875 -3.9375 5.3125 -6.234375q3.390625 -2.3125 7.734375 -2.3125q3.71875 0 6.6875 1.828125q2.984375 1.8125 4.640625 4.640625l0 -19.078125l8.578125 0l0 37.125q0 1.34375 0.4375 1.921875q0.453125 0.5625 1.546875 0.703125l0 6.96875q-2.234375 0.453125 -3.640625 0.453125q-2.3125 0 -3.8125 -1.15625q-1.5 -1.15625 -1.703125 -3.015625l-0.125 -2.109375q-1.859375 3.140625 -5.03125 4.8125q-3.15625 1.65625 -6.609375 1.65625q-3.453125 0 -6.375 -1.34375q-2.90625 -1.34375 -5.0625 -3.703125q-2.140625 -2.375 -3.328125 -5.546875q-1.171875 -3.171875 -1.171875 -6.8125zm26.296875 4.484375l0 -8.0q-0.640625 -1.859375 -2.046875 -3.328125q-1.40625 -1.484375 -3.140625 -2.34375q-1.71875 -0.859375 -3.453125 -0.859375q-1.984375 0 -3.578125 0.828125q-1.59375 0.828125 -2.78125 2.234375q-1.1875 1.40625 -1.796875 3.265625q-0.609375 1.859375 -0.609375 3.90625q0 2.046875 0.671875 3.875q0.671875 1.828125 1.953125 3.171875q1.28125 1.34375 2.96875 2.109375q1.703125 0.765625 3.6875 0.765625q1.21875 0 2.46875 -0.40625q1.25 -0.421875 2.359375 -1.15625q1.125 -0.734375 1.984375 -1.796875q0.875 -1.0625 1.3125 -2.265625zm36.998657 -13.828125q-3.90625 0 -6.984375 1.5q-3.0625 1.5 -4.40625 4.328125l0 20.28125l-8.578125 0l0 -33.53125l7.875 0l0 7.15625q1.78125 -3.453125 4.53125 -5.4375q2.765625 -1.984375 5.828125 -2.171875q0.703125 0 1.078125 0q0.390625 0 0.65625 0.0625l0 7.8125zm19.898071 26.75q-4.03125 0 -7.296875 -1.375q-3.265625 -1.375 -5.578125 -3.765625q-2.296875 -2.40625 -3.546875 -5.515625q-1.234375 -3.109375 -1.234375 -6.5625q0 -4.796875 2.140625 -8.765625q2.140625 -3.96875 6.140625 -6.359375q4.0 -2.40625 9.4375 -2.40625q5.515625 0 9.40625 2.40625q3.90625 2.390625 5.984375 6.328125q2.078125 3.9375 2.078125 8.484375q0 0.765625 -0.0625 1.5625q-0.0625 0.796875 -0.125 1.3125l-25.921875 0q0.265625 2.5625 1.5 4.484375q1.25 1.921875 3.203125 2.921875q1.953125 0.984375 4.203125 0.984375q2.5625 0 4.828125 -1.25q2.265625 -1.25 3.109375 -3.296875l7.359375 2.046875q-1.21875 2.5625 -3.5 4.546875q-2.265625 1.984375 -5.34375 3.109375q-3.0625 1.109375 -6.78125 1.109375zm-8.765625 -20.09375l17.53125 0q-0.25 -2.5625 -1.4375 -4.453125q-1.1875 -1.890625 -3.109375 -2.9375q-1.90625 -1.0625 -4.28125 -1.0625q-2.296875 0 -4.1875 1.0625q-1.890625 1.046875 -3.078125 2.9375q-1.1875 1.890625 -1.4375 4.453125zm43.898438 20.09375q-4.28125 0 -8.1875 -1.40625q-3.90625 -1.40625 -6.71875 -4.15625l3.078125 -5.578125q3.0 2.4375 5.90625 3.59375q2.921875 1.140625 5.609375 1.140625q2.5 0 4.0 -0.890625q1.5 -0.890625 1.5 -2.6875q0 -1.21875 -0.828125 -1.890625q-0.828125 -0.671875 -2.40625 -1.171875q-1.5625 -0.515625 -3.796875 -1.15625q-3.71875 -1.21875 -6.21875 -2.375q-2.484375 -1.15625 -3.734375 -2.90625q-1.25 -1.765625 -1.25 -4.515625q0 -3.328125 1.6875 -5.71875q1.703125 -2.40625 4.734375 -3.75q3.046875 -1.34375 7.140625 -1.34375q3.59375 0 6.78125 1.125q3.203125 1.109375 5.828125 3.609375l-3.453125 5.4375q-2.5625 -1.984375 -4.875 -2.90625q-2.296875 -0.9375 -4.65625 -0.9375q-1.34375 0 -2.53125 0.328125q-1.1875 0.3125 -1.921875 1.046875q-0.734375 0.734375 -0.734375 2.078125q0 1.21875 0.671875 1.890625q0.671875 0.671875 2.046875 1.1875q1.375 0.515625 3.359375 1.15625q4.03125 1.140625 6.8125 2.359375q2.78125 1.21875 4.1875 2.984375q1.421875 1.75 1.421875 4.828125q0 5.0 -3.65625 7.8125q-3.640625 2.8125 -9.796875 2.8125zm31.615967 0q-4.28125 0 -8.1875 -1.40625q-3.90625 -1.40625 -6.71875 -4.15625l3.078125 -5.578125q3.0 2.4375 5.90625 3.59375q2.921875 1.140625 5.609375 1.140625q2.5 0 4.0 -0.890625q1.5 -0.890625 1.5 -2.6875q0 -1.21875 -0.828125 -1.890625q-0.828125 -0.671875 -2.40625 -1.171875q-1.5625 -0.515625 -3.796875 -1.15625q-3.71875 -1.21875 -6.21875 -2.375q-2.484375 -1.15625 -3.734375 -2.90625q-1.25 -1.765625 -1.25 -4.515625q0 -3.328125 1.6875 -5.71875q1.703125 -2.40625 4.734375 -3.75q3.046875 -1.34375 7.140625 -1.34375q3.59375 0 6.78125 1.125q3.203125 1.109375 5.828125 3.609375l-3.453125 5.4375q-2.5625 -1.984375 -4.875 -2.90625q-2.296875 -0.9375 -4.65625 -0.9375q-1.34375 0 -2.53125 0.328125q-1.1875 0.3125 -1.921875 1.046875q-0.734375 0.734375 -0.734375 2.078125q0 1.21875 0.671875 1.890625q0.671875 0.671875 2.046875 1.1875q1.375 0.515625 3.359375 1.15625q4.03125 1.140625 6.8125 2.359375q2.78125 1.21875 4.1875 2.984375q1.421875 1.75 1.421875 4.828125q0 5.0 -3.65625 7.8125q-3.640625 2.8125 -9.796875 2.8125zm34.81909 0q-4.03125 0 -7.296875 -1.375q-3.265625 -1.375 -5.578125 -3.765625q-2.296875 -2.40625 -3.546875 -5.515625q-1.234375 -3.109375 -1.234375 -6.5625q0 -4.796875 2.140625 -8.765625q2.140625 -3.96875 6.140625 -6.359375q4.0 -2.40625 9.4375 -2.40625q5.515625 0 9.4062805 2.40625q3.90625 2.390625 5.984375 6.328125q2.078125 3.9375 2.078125 8.484375q0 0.765625 -0.0625 1.5625q-0.0625 0.796875 -0.125 1.3125l-25.921906 0q0.265625 2.5625 1.5 4.484375q1.25 1.921875 3.203125 2.921875q1.953125 0.984375 4.203125 0.984375q2.5625 0 4.828125 -1.25q2.265625 -1.25 3.1094055 -3.296875l7.359375 2.046875q-1.21875 2.5625 -3.5 4.546875q-2.265625 1.984375 -5.3437805 3.109375q-3.0625 1.109375 -6.78125 1.109375zm-8.765625 -20.09375l17.53128 0q-0.25 -2.5625 -1.4375305 -4.453125q-1.1875 -1.890625 -3.109375 -2.9375q-1.90625 -1.0625 -4.28125 -1.0625q-2.296875 0 -4.1875 1.0625q-1.890625 1.046875 -3.078125 2.9375q-1.1875 1.890625 -1.4375 4.453125zm43.898468 20.09375q-4.28125 0 -8.1875 -1.40625q-3.90625 -1.40625 -6.71875 -4.15625l3.078125 -5.578125q3.0 2.4375 5.90625 3.59375q2.921875 1.140625 5.609375 1.140625q2.5 0 4.0 -0.890625q1.5 -0.890625 1.5 -2.6875q0 -1.21875 -0.828125 -1.890625q-0.828125 -0.671875 -2.40625 -1.171875q-1.5625 -0.515625 -3.796875 -1.15625q-3.71875 -1.21875 -6.21875 -2.375q-2.484375 -1.15625 -3.734375 -2.90625q-1.25 -1.765625 -1.25 -4.515625q0 -3.328125 1.6875 -5.71875q1.703125 -2.40625 4.734375 -3.75q3.046875 -1.34375 7.140625 -1.34375q3.59375 0 6.78125 1.125q3.203125 1.109375 5.828125 3.609375l-3.453125 5.4375q-2.5625 -1.984375 -4.875 -2.90625q-2.296875 -0.9375 -4.65625 -0.9375q-1.34375 0 -2.53125 0.328125q-1.1875 0.3125 -1.921875 1.046875q-0.734375 0.734375 -0.734375 2.078125q0 1.21875 0.671875 1.890625q0.671875 0.671875 2.046875 1.1875q1.375 0.515625 3.359375 1.15625q4.03125 1.140625 6.8125 2.359375q2.78125 1.21875 4.1875 2.984375q1.421875 1.75 1.421875 4.828125q0 5.0 -3.65625 7.8125q-3.640625 2.8125 -9.796875 2.8125zm50.241577 0q-4.09375 0 -7.359375 -1.375q-3.265625 -1.375 -5.578125 -3.84375q-2.296875 -2.46875 -3.546875 -5.59375q-1.234375 -3.140625 -1.234375 -6.59375q0 -4.734375 2.140625 -8.671875q2.140625 -3.9375 6.109375 -6.296875q3.96875 -2.375 9.40625 -2.375q5.4375 0 9.34375 2.375q3.90625 2.359375 5.828125 6.203125l-8.390625 2.5625q-1.078125 -1.859375 -2.875 -2.84375q-1.796875 -1.0 -3.96875 -1.0q-2.4375 0 -4.453125 1.25q-2.015625 1.25 -3.171875 3.515625q-1.140625 2.265625 -1.140625 5.28125q0 2.9375 1.171875 5.21875q1.1875 2.265625 3.171875 3.578125q1.984375 1.3125 4.421875 1.3125q1.53125 0 2.90625 -0.515625q1.390625 -0.515625 2.46875 -1.40625q1.09375 -0.890625 1.609375 -2.046875l8.375 2.5625q-1.15625 2.5 -3.359375 4.484375q-2.203125 1.984375 -5.1875 3.109375q-2.96875 1.109375 -6.6875 1.109375zm18.174072 -10.5625q0 -3.265625 1.828125 -5.71875q1.828125 -2.46875 5.09375 -3.8125q3.265625 -1.34375 7.484375 -1.34375q2.109375 0 4.28125 0.328125q2.1875 0.3125 3.78125 1.015625l0 -1.796875q0 -3.203125 -1.890625 -4.921875q-1.890625 -1.734375 -5.59375 -1.734375q-2.75 0 -5.25 0.96875q-2.5 0.953125 -5.25 2.8125l-2.75 -5.640625q3.328125 -2.171875 6.8125 -3.25q3.484375 -1.09375 7.328125 -1.09375q7.171875 0 11.171875 3.59375q4.0 3.578125 4.0 10.234375l0 10.6875q0 1.34375 0.46875 1.921875q0.484375 0.5625 1.578125 0.703125l0 6.96875q-1.15625 0.1875 -2.078125 0.3125q-0.921875 0.140625 -1.5625 0.140625q-2.5625 0 -3.875 -1.15625q-1.3125 -1.15625 -1.640625 -2.8125l-0.1875 -1.734375q-2.171875 2.8125 -5.4375 4.359375q-3.265625 1.53125 -6.65625 1.53125q-3.328125 0 -5.984375 -1.375q-2.65625 -1.375 -4.171875 -3.765625q-1.5 -2.40625 -1.5 -5.421875zm20.875 1.734375q0.703125 -0.765625 1.140625 -1.53125q0.453125 -0.78125 0.453125 -1.421875l0 -3.390625q-1.53125 -0.640625 -3.328125 -0.984375q-1.796875 -0.359375 -3.390625 -0.359375q-3.328125 0 -5.46875 1.453125q-2.140625 1.4375 -2.140625 3.796875q0 1.28125 0.703125 2.4375q0.703125 1.140625 2.046875 1.859375q1.34375 0.703125 3.203125 0.703125q1.90625 0 3.765625 -0.734375q1.859375 -0.75 3.015625 -1.828125zm49.345337 8.1875l-8.578125 0l0 -18.8125q0 -4.03125 -1.40625 -5.890625q-1.40625 -1.859375 -3.90625 -1.859375q-1.734375 0 -3.5 0.90625q-1.75 0.890625 -3.15625 2.46875q-1.40625 1.5625 -2.046875 3.609375l0 19.578125l-8.578125 0l0 -33.53125l7.734375 0l0 6.203125q1.28125 -2.171875 3.265625 -3.671875q1.984375 -1.515625 4.578125 -2.3125q2.59375 -0.796875 5.46875 -0.796875q3.140625 0 5.15625 1.125q2.015625 1.109375 3.0625 3.0q1.0625 1.890625 1.484375 4.265625q0.421875 2.359375 0.421875 4.796875l0 20.921875zm41.906555 0.640625q-3.828125 0 -6.84375 -1.71875q-3.0 -1.734375 -4.734375 -4.75l0 5.828125l-7.484375 0l0 -46.71875l8.578125 0l0 19.078125q1.78125 -3.015625 4.6875 -4.734375q2.921875 -1.734375 6.828125 -1.734375q3.265625 0 5.953125 1.375q2.6875 1.375 4.640625 3.8125q1.953125 2.421875 3.0 5.5625q1.0625 3.140625 1.0625 6.71875q0 3.578125 -1.1875 6.71875q-1.1875 3.140625 -3.296875 5.546875q-2.109375 2.390625 -4.953125 3.703125q-2.84375 1.3125 -6.25 1.3125zm-2.359375 -7.296875q2.046875 0 3.734375 -0.796875q1.703125 -0.796875 2.953125 -2.140625q1.25 -1.34375 1.921875 -3.171875q0.671875 -1.828125 0.671875 -3.8125q0 -2.75 -1.125 -5.078125q-1.125 -2.34375 -3.078125 -3.75q-1.9375 -1.40625 -4.5625 -1.40625q-1.859375 0 -3.5625 0.859375q-1.6875 0.859375 -3.0 2.34375q-1.3125 1.46875 -2.078125 3.328125l0 8.0q0.375 1.265625 1.234375 2.296875q0.875 1.03125 2.015625 1.765625q1.15625 0.734375 2.40625 1.15625q1.25 0.40625 2.46875 0.40625zm39.419678 7.296875q-4.03125 0 -7.296875 -1.375q-3.265625 -1.375 -5.578125 -3.765625q-2.296875 -2.40625 -3.546875 -5.515625q-1.234375 -3.109375 -1.234375 -6.5625q0 -4.796875 2.140625 -8.765625q2.140625 -3.96875 6.140625 -6.359375q4.0 -2.40625 9.4375 -2.40625q5.515625 0 9.40625 2.40625q3.90625 2.390625 5.984375 6.328125q2.078125 3.9375 2.078125 8.484375q0 0.765625 -0.0625 1.5625q-0.0625 0.796875 -0.125 1.3125l-25.921875 0q0.265625 2.5625 1.5 4.484375q1.25 1.921875 3.203125 2.921875q1.953125 0.984375 4.203125 0.984375q2.5625 0 4.828125 -1.25q2.265625 -1.25 3.109375 -3.296875l7.359375 2.046875q-1.21875 2.5625 -3.5 4.546875q-2.265625 1.984375 -5.34375 3.109375q-3.0625 1.109375 -6.78125 1.109375zm-8.765625 -20.09375l17.53125 0q-0.25 -2.5625 -1.4375 -4.453125q-1.1875 -1.890625 -3.109375 -2.9375q-1.90625 -1.0625 -4.28125 -1.0625q-2.296875 0 -4.1875 1.0625q-1.890625 1.046875 -3.078125 2.9375q-1.1875 1.890625 -1.4375 4.453125z" fill-rule="nonzero"/><path fill="#69b7cf" d="m107.03429 328.36328q-5.359375 0 -10.234375 -1.75q-4.875 -1.765625 -8.390625 -5.203125l3.828125 -6.96875q3.765625 3.046875 7.40625 4.484375q3.640625 1.4375 7.0 1.4375q3.125 0 5.0 -1.109375q1.875 -1.125 1.875 -3.375q0 -1.515625 -1.046875 -2.34375q-1.03125 -0.84375 -3.0 -1.484375q-1.953125 -0.640625 -4.75 -1.4375q-4.640625 -1.53125 -7.765625 -2.96875q-3.109375 -1.4375 -4.671875 -3.640625q-1.5625 -2.203125 -1.5625 -5.640625q0 -4.15625 2.109375 -7.15625q2.125 -3.0 5.921875 -4.671875q3.8125 -1.6875 8.921875 -1.6875q4.484375 0 8.484375 1.40625q4.0 1.390625 7.28125 4.515625l-4.3125 6.796875q-3.203125 -2.484375 -6.09375 -3.640625q-2.875 -1.15625 -5.828125 -1.15625q-1.6875 0 -3.171875 0.40625q-1.46875 0.390625 -2.390625 1.3125q-0.921875 0.921875 -0.921875 2.59375q0 1.53125 0.84375 2.375q0.84375 0.828125 2.5625 1.46875q1.71875 0.640625 4.1875 1.4375q5.046875 1.4375 8.515625 2.96875q3.484375 1.515625 5.25 3.71875q1.765625 2.203125 1.765625 6.03125q0 6.25 -4.5625 9.765625q-4.5625 3.515625 -12.25 3.515625zm23.691833 -16.484375l0 -26.234375l10.71875 0l0 23.921875q0 4.796875 1.75 7.25q1.765625 2.4375 5.203125 2.4375q2.078125 0 4.109375 -0.84375q2.046875 -0.84375 3.765625 -2.515625q1.734375 -1.6875 2.921875 -4.25l0 -26.0l10.734375 0l0 29.921875q0 1.6875 0.59375 2.40625q0.59375 0.71875 1.953125 0.875l0 8.71875q-1.59375 0.234375 -2.671875 0.359375q-1.078125 0.125 -1.96875 0.125q-2.875 0 -4.671875 -1.3125q-1.796875 -1.328125 -2.125 -3.65625l-0.234375 -3.359375q-2.796875 4.25 -7.203125 6.453125q-4.40625 2.1875 -9.671875 2.1875q-6.484375 0 -9.84375 -4.1875q-3.359375 -4.203125 -3.359375 -12.296875zm74.95558 16.484375q-4.875 0 -8.59375 -2.1875q-3.71875 -2.203125 -5.8125 -5.96875l0 24.40625l-10.71875 0l0 -58.96875l9.359375 0l0 7.203125q2.40625 -3.6875 6.078125 -5.796875q3.6875 -2.125 8.40625 -2.125q4.234375 0 7.796875 1.6875q3.5625 1.671875 6.203125 4.671875q2.640625 3.0 4.109375 6.890625q1.484375 3.875 1.484375 8.34375q0 6.09375 -2.359375 11.046875q-2.359375 4.953125 -6.484375 7.875q-4.109375 2.921875 -9.46875 2.921875zm-3.59375 -9.109375q2.46875 0 4.46875 -1.046875q2.0 -1.046875 3.484375 -2.84375q1.484375 -1.796875 2.234375 -4.078125q0.765625 -2.28125 0.765625 -4.765625q0 -2.640625 -0.84375 -4.875q-0.828125 -2.234375 -2.4375 -3.953125q-1.59375 -1.71875 -3.71875 -2.671875q-2.125 -0.96875 -4.59375 -0.96875q-1.53125 0 -3.09375 0.515625q-1.546875 0.515625 -3.0 1.484375q-1.4375 0.953125 -2.515625 2.234375q-1.078125 1.28125 -1.5625 2.796875l0 9.84375q0.96875 2.328125 2.609375 4.25q1.640625 1.90625 3.796875 3.0q2.15625 1.078125 4.40625 1.078125zm48.626205 9.109375q-5.03125 0 -9.109375 -1.71875q-4.078125 -1.71875 -6.96875 -4.71875q-2.875 -3.0 -4.4375 -6.875q-1.5625 -3.890625 -1.5625 -8.203125q0 -6.0 2.671875 -10.953125q2.6875 -4.96875 7.6875 -7.96875q5.0 -3.0 11.8125 -3.0q6.8749847 0 11.749985 3.0q4.890625 3.0 7.484375 7.921875q2.59375 4.921875 2.59375 10.59375q0 0.96875 -0.078125 1.96875q-0.078125 1.0 -0.15625 1.640625l-32.406235 0q0.328125 3.203125 1.890625 5.609375q1.5625 2.390625 4.0 3.625q2.4375 1.234375 5.234375 1.234375q3.203125 0 6.0312347 -1.546875q2.84375 -1.5625 3.890625 -4.125l9.203125 2.5625q-1.53125 3.203125 -4.375 5.6875q-2.828125 2.46875 -6.671875 3.875q-3.8437347 1.390625 -8.48436 1.390625zm-10.953125 -25.109375l21.92186 0q-0.328125 -3.203125 -1.8125 -5.5625q-1.46875 -2.359375 -3.8749847 -3.671875q-2.390625 -1.328125 -5.359375 -1.328125q-2.875 0 -5.234375 1.328125q-2.359375 1.3125 -3.84375 3.671875q-1.46875 2.359375 -1.796875 5.5625zm64.40431 -8.328125q-4.890625 0 -8.734375 1.890625q-3.828125 1.875 -5.515625 5.390625l0 25.359375l-10.71875 0l0 -41.921875l9.84375 0l0 8.96875q2.234375 -4.328125 5.671875 -6.796875q3.453125 -2.484375 7.296875 -2.734375q0.875 0 1.34375 0q0.484375 0 0.8125 0.078125l0 9.765625zm4.236847 15.515625l0 -9.671875l24.234375 0l0 9.671875l-24.234375 0zm49.111847 17.921875q-5.359375 0 -10.234375 -1.75q-4.875 -1.765625 -8.390625 -5.203125l3.828125 -6.96875q3.765625 3.046875 7.40625 4.484375q3.640625 1.4375 7.0 1.4375q3.125 0 5.0 -1.109375q1.875 -1.125 1.875 -3.375q0 -1.515625 -1.046875 -2.34375q-1.03125 -0.84375 -3.0 -1.484375q-1.953125 -0.640625 -4.75 -1.4375q-4.640625 -1.53125 -7.765625 -2.96875q-3.109375 -1.4375 -4.671875 -3.640625q-1.5625 -2.203125 -1.5625 -5.640625q0 -4.15625 2.109375 -7.15625q2.125 -3.0 5.921875 -4.671875q3.8125 -1.6875 8.921875 -1.6875q4.484375 0 8.484375 1.40625q4.0 1.390625 7.28125 4.515625l-4.3125 6.796875q-3.203125 -2.484375 -6.09375 -3.640625q-2.875 -1.15625 -5.828125 -1.15625q-1.6875 0 -3.171875 0.40625q-1.46875 0.390625 -2.390625 1.3125q-0.921875 0.921875 -0.921875 2.59375q0 1.53125 0.84375 2.375q0.84375 0.828125 2.5625 1.46875q1.71875 0.640625 4.1875 1.4375q5.046875 1.4375 8.515625 2.96875q3.484375 1.515625 5.25 3.71875q1.765625 2.203125 1.765625 6.03125q0 6.25 -4.5625 9.765625q-4.5625 3.515625 -12.25 3.515625zm63.05121 -0.796875l-10.71875 0l0 -23.515625q0 -4.890625 -1.890625 -7.28125q-1.875 -2.40625 -5.15625 -2.40625q-1.921875 0 -4.078125 1.125q-2.15625 1.125 -3.875 3.078125q-1.71875 1.953125 -2.53125 4.515625l0 24.484375l-10.71875 0l0 -58.40625l10.71875 0l0 24.25q2.328125 -4.0 6.328125 -6.234375q4.0 -2.25 8.71875 -2.25q4.078125 0 6.640625 1.40625q2.5625 1.390625 4.0 3.75q1.4375 2.359375 2.0 5.28125q0.5625 2.921875 0.5625 6.046875l0 26.15625zm28.710602 0.796875q-5.109375 0 -9.203125 -1.71875q-4.078125 -1.71875 -6.921875 -4.75q-2.828125 -3.046875 -4.359375 -6.96875q-1.515625 -3.921875 -1.515625 -8.234375q0 -4.40625 1.515625 -8.328125q1.53125 -3.921875 4.359375 -6.953125q2.84375 -3.046875 6.921875 -4.765625q4.09375 -1.71875 9.203125 -1.71875q5.125 0 9.15625 1.71875q4.046875 1.71875 6.921875 4.765625q2.890625 3.03125 4.359375 6.953125q1.484375 3.921875 1.484375 8.328125q0 4.3125 -1.484375 8.234375q-1.46875 3.921875 -4.3125 6.96875q-2.84375 3.03125 -6.921875 4.75q-4.078125 1.71875 -9.203125 1.71875zm-10.953125 -21.671875q0 3.671875 1.4375 6.515625q1.4375 2.84375 3.921875 4.453125q2.484375 1.59375 5.59375 1.59375q3.046875 0 5.515625 -1.640625q2.484375 -1.640625 3.96875 -4.484375q1.484375 -2.84375 1.484375 -6.515625q0 -3.609375 -1.484375 -6.484375q-1.484375 -2.875 -3.96875 -4.46875q-2.46875 -1.609375 -5.515625 -1.609375q-3.109375 0 -5.59375 1.640625q-2.484375 1.640625 -3.921875 4.484375q-1.4375 2.828125 -1.4375 6.515625zm65.04245 -11.765625q-4.890625 0 -8.734375 1.890625q-3.828125 1.875 -5.515625 5.390625l0 25.359375l-10.71875 0l0 -41.921875l9.84375 0l0 8.96875q2.234375 -4.328125 5.671875 -6.796875q3.453125 -2.484375 7.296875 -2.734375q0.875 0 1.34375 0q0.484375 0 0.8125 0.078125l0 9.765625zm31.116272 30.484375q-1.359375 0.5625 -3.28125 1.28125q-1.921875 0.71875 -4.125 1.15625q-2.1875 0.4375 -4.4375 0.4375q-2.953125 0 -5.4375 -1.03125q-2.484375 -1.046875 -3.96875 -3.328125q-1.4687805 -2.28125 -1.4687805 -5.953125l0 -24.09375l-5.515625 0l0 -8.234375l5.515625 0l0 -13.59375l10.7187805 0l0 13.59375l8.796875 0l0 8.234375l-8.796875 0l0 20.484375q0.078125 2.15625 1.1875 3.125q1.125 0.953125 2.8125 0.953125q1.6875 0 3.28125 -0.546875q1.59375 -0.5625 2.5625 -0.96875l2.15625 8.484375z" fill-rule="nonzero"/><path fill="#b7b7b7" d="m121.01866 423.5664l-21.375 -22.65625q-2.6875 -2.875 -4.328125 -4.953125q-1.625 -2.09375 -2.328125 -3.8125q-0.703125 -1.734375 -0.703125 -3.71875q0 -3.265625 1.625 -5.71875q1.640625 -2.46875 4.484375 -3.8125q2.859375 -1.34375 6.375 -1.34375q3.203125 0 5.921875 1.125q2.71875 1.109375 4.4375 3.359375q1.734375 2.234375 1.734375 5.5625q0 3.015625 -1.5 5.453125q-1.5 2.421875 -4.0 4.46875q-2.5 2.046875 -5.625 3.96875q-2.3125 1.46875 -4.203125 2.875q-1.890625 1.40625 -2.953125 2.984375q-1.046875 1.5625 -1.046875 3.421875q0 1.78125 1.015625 3.328125q1.03125 1.53125 2.859375 2.46875q1.828125 0.921875 4.0625 0.921875q2.75 0 5.34375 -1.34375q2.59375 -1.34375 4.640625 -3.8125q2.046875 -2.46875 3.234375 -5.921875q1.1875 -3.453125 1.1875 -7.734375l6.96875 0q0 6.078125 -1.859375 10.78125q-1.84375 4.703125 -4.984375 8.0q-3.140625 3.296875 -7.109375 5.03125q-3.96875 1.71875 -8.25 1.71875q-4.671875 0 -8.125 -1.890625q-3.453125 -1.890625 -5.34375 -4.953125q-1.890625 -3.078125 -1.890625 -6.65625q0 -3.59375 1.65625 -6.28125q1.671875 -2.6875 4.234375 -4.765625q2.5625 -2.078125 5.109375 -3.671875q2.828125 -1.796875 4.734375 -3.046875q1.921875 -1.25 2.9375 -2.5q1.03125 -1.25 1.03125 -2.71875q0 -1.71875 -1.1875 -2.78125q-1.171875 -1.0625 -3.03125 -1.0625q-1.40625 0 -2.46875 0.578125q-1.046875 0.578125 -1.625 1.546875q-0.578125 0.953125 -0.578125 2.171875q0 0.890625 0.546875 1.796875q0.546875 0.890625 1.921875 2.328125q1.375 1.4375 3.796875 4.0625l25.921875 27.203125l-11.265625 0z" fill-rule="nonzero"/><path fill="#69b7cf" d="m167.96217 424.36328q-5.359375 0 -10.234375 -1.75q-4.875 -1.765625 -8.390625 -5.203125l3.828125 -6.96875q3.765625 3.046875 7.40625 4.484375q3.640625 1.4375 7.0 1.4375q3.125 0 5.0 -1.109375q1.875 -1.125 1.875 -3.375q0 -1.515625 -1.046875 -2.34375q-1.03125 -0.84375 -3.0 -1.484375q-1.953125 -0.640625 -4.75 -1.4375q-4.640625 -1.53125 -7.765625 -2.96875q-3.109375 -1.4375 -4.671875 -3.640625q-1.5625 -2.203125 -1.5625 -5.640625q0 -4.15625 2.109375 -7.15625q2.125 -3.0 5.921875 -4.671875q3.8125 -1.6875 8.921875 -1.6875q4.484375 0 8.484375 1.40625q4.0 1.390625 7.28125 4.515625l-4.3125 6.796875q-3.203125 -2.484375 -6.09375 -3.640625q-2.875 -1.15625 -5.828125 -1.15625q-1.6875 0 -3.171875 0.40625q-1.46875 0.390625 -2.390625 1.3125q-0.921875 0.921875 -0.921875 2.59375q0 1.53125 0.84375 2.375q0.84375 0.828125 2.5625 1.46875q1.71875 0.640625 4.1875 1.4375q5.046875 1.4375 8.515625 2.96875q3.484375 1.515625 5.25 3.71875q1.765625 2.203125 1.765625 6.03125q0 6.25 -4.5625 9.765625q-4.5625 3.515625 -12.25 3.515625zm24.082458 -0.796875l0 -41.921875l10.71875 0l0 41.921875l-10.71875 0zm0 -47.765625l0 -10.640625l10.71875 0l0 10.640625l-10.71875 0zm85.52498 47.765625l-10.71875 0l0 -23.515625q0 -4.96875 -1.71875 -7.328125q-1.71875 -2.359375 -4.765625 -2.359375q-3.109375 0 -5.953125 2.453125q-2.84375 2.4375 -4.046875 6.34375l0 24.40625l-10.71875 0l0 -23.515625q0 -5.046875 -1.71875 -7.359375q-1.71875 -2.328125 -4.765625 -2.328125q-3.109375 0 -5.953125 2.40625q-2.84375 2.390625 -4.046875 6.3125l0 24.484375l-10.71875 0l0 -41.921875l9.6875 0l0 7.765625q2.390625 -4.078125 6.390625 -6.28125q4.0 -2.203125 9.203125 -2.203125q5.203125 0 8.125 2.5625q2.921875 2.5625 3.71875 6.3125q2.5625 -4.3125 6.515625 -6.59375q3.96875 -2.28125 8.921875 -2.28125q3.921875 0 6.359375 1.40625q2.4375 1.390625 3.796875 3.75q1.359375 2.359375 1.875 5.328125q0.53125 2.953125 0.53125 6.0l0 26.15625zm34.47992 0.796875q-4.875 0 -8.59375 -2.1875q-3.71875 -2.203125 -5.8125 -5.96875l0 24.40625l-10.71875 0l0 -58.96875l9.359375 0l0 7.203125q2.40625 -3.6875 6.078125 -5.796875q3.6875 -2.125 8.40625 -2.125q4.234375 0 7.796875 1.6875q3.5625 1.671875 6.203125 4.671875q2.640625 3.0 4.109375 6.890625q1.484375 3.875 1.484375 8.34375q0 6.09375 -2.359375 11.046875q-2.359375 4.953125 -6.484375 7.875q-4.109375 2.921875 -9.46875 2.921875zm-3.59375 -9.109375q2.46875 0 4.46875 -1.046875q2.0 -1.046875 3.484375 -2.84375q1.484375 -1.796875 2.234375 -4.078125q0.765625 -2.28125 0.765625 -4.765625q0 -2.640625 -0.84375 -4.875q-0.828125 -2.234375 -2.4375 -3.953125q-1.59375 -1.71875 -3.71875 -2.671875q-2.125 -0.96875 -4.59375 -0.96875q-1.53125 0 -3.09375 0.515625q-1.546875 0.515625 -3.0 1.484375q-1.4375 0.953125 -2.515625 2.234375q-1.078125 1.28125 -1.5625 2.796875l0 9.84375q0.96875 2.328125 2.609375 4.25q1.640625 1.90625 3.796875 3.0q2.15625 1.078125 4.40625 1.078125zm29.110596 -50.09375l10.71875 0l0 44.96875q0 2.875 0.953125 3.875q0.96875 1.0 2.65625 1.0q1.28125 0 2.640625 -0.3125q1.359375 -0.328125 2.390625 -0.8125l1.4375 8.171875q-2.15625 1.03125 -5.03125 1.59375q-2.875 0.5625 -5.203125 0.5625q-5.046875 0 -7.8125 -2.671875q-2.75 -2.6875 -2.75 -7.65625l0 -48.71875zm44.87558 59.203125q-5.03125 0 -9.109375 -1.71875q-4.078125 -1.71875 -6.96875 -4.71875q-2.875 -3.0 -4.4375 -6.875q-1.5625 -3.890625 -1.5625 -8.203125q0 -6.0 2.671875 -10.953125q2.6875 -4.96875 7.6875 -7.96875q5.0 -3.0 11.8125 -3.0q6.875 0 11.75 3.0q4.890625 3.0 7.484375 7.921875q2.59375 4.921875 2.59375 10.59375q0 0.96875 -0.078125 1.96875q-0.078125 1.0 -0.15625 1.640625l-32.40625 0q0.328125 3.203125 1.890625 5.609375q1.5625 2.390625 4.0 3.625q2.4375 1.234375 5.234375 1.234375q3.203125 0 6.03125 -1.546875q2.84375 -1.5625 3.890625 -4.125l9.203125 2.5625q-1.53125 3.203125 -4.375 5.6875q-2.828125 2.46875 -6.671875 3.875q-3.84375 1.390625 -8.484375 1.390625zm-10.953125 -25.109375l21.921875 0q-0.328125 -3.203125 -1.8125 -5.5625q-1.46875 -2.359375 -3.875 -3.671875q-2.390625 -1.328125 -5.359375 -1.328125q-2.875 0 -5.234375 1.328125q-2.359375 1.3125 -3.84375 3.671875q-1.46875 2.359375 -1.796875 5.5625z" fill-rule="nonzero"/></g></svg>