<svg version="1.1" viewBox="0.0 0.0 960.0 540.0" fill="none" stroke="none" stroke-linecap="square" stroke-miterlimit="10" xmlns:xlink="http://www.w3.org/1999/xlink" xmlns="http://www.w3.org/2000/svg"><clipPath id="gcb9a0b074_1_0.0"><path d="m0 0l960.0 0l0 540.0l-960.0 0l0 -540.0z" clip-rule="nonzero"/></clipPath><g clip-path="url(#gcb9a0b074_1_0.0)"><path fill="#ffffff" d="m0 0l960.0 0l0 540.0l-960.0 0z" fill-rule="evenodd"/><path fill="#000000" fill-opacity="0.0" d="m260.12854 43.637794l655.5591 0" fill-rule="evenodd"/><path stroke="#ffffff" stroke-width="4.0" stroke-linejoin="round" stroke-linecap="butt" d="m260.12854 43.637794l655.5591 0" fill-rule="evenodd"/><path fill="#000000" fill-opacity="0.0" d="m260.12854 497.6378l655.5591 0" fill-rule="evenodd"/><path stroke="#ffffff" stroke-width="2.0" stroke-linejoin="round" stroke-linecap="butt" d="m260.12854 497.6378l655.5591 0" fill-rule="evenodd"/><path fill="#000000" fill-opacity="0.0" d="m13.454068 13.913385l933.1024 0l0 512.1575l-933.1024 0z" fill-rule="evenodd"/><path stroke="#cccccc" stroke-width="1.0" stroke-linejoin="round" stroke-linecap="butt" d="m13.454068 13.913385l933.1024 0l0 512.1575l-933.1024 0z" fill-rule="evenodd"/><path fill="#000000" fill-opacity="0.0" d="m190.85826 110.267715l328.22046 0l0 192.72441l-328.22046 0z" fill-rule="evenodd"/><path fill="#69b7cf" d="m204.11537 160.79117l10.3125 0q1.65625 0 2.75 0.84375q1.09375 0.828125 1.46875 2.109375l18.953125 63.734375q0.5 1.734375 0.921875 3.71875q0.421875 1.984375 0.796875 4.15625q0.453125 -2.171875 0.890625 -4.1875q0.453125 -2.015625 1.03125 -3.6875l21.562515 -63.734375q0.390625 -1.09375 1.5 -2.015625q1.125 -0.9375 2.734375 -0.9375l3.578125 0q1.671875 0 2.71875 0.84375q1.0625 0.828125 1.5 2.109375l21.453125 63.734375q1.140625 3.328125 2.046875 7.625q0.375 -2.109375 0.6875 -4.03125q0.328125 -1.921875 0.84375 -3.59375l19.0 -63.734375q0.328125 -1.15625 1.4375 -2.046875q1.125 -0.90625 2.734375 -0.90625l9.65625 0l-28.609375 91.71875l-11.125 0l-23.234375 -69.953125q-0.703125 -1.984375 -1.28125 -4.609375q-0.328125 1.28125 -0.625 2.46875q-0.28125 1.1875 -0.59375 2.140625l-23.35939 69.953125l-11.140625 0l-28.609375 -91.71875zm163.07127 25.859375q7.109375 0 12.828125 2.375q5.734375 2.359375 9.734375 6.71875q4.0 4.34375 6.140625 10.53125q2.15625 6.171875 2.15625 13.78125q0 7.6875 -2.15625 13.828125q-2.140625 6.140625 -6.140625 10.5q-4.0 4.34375 -9.734375 6.6875q-5.71875 2.328125 -12.828125 2.328125q-7.09375 0 -12.828125 -2.328125q-5.71875 -2.34375 -9.765625 -6.6875q-4.03125 -4.359375 -6.203125 -10.5q-2.171875 -6.140625 -2.171875 -13.828125q0 -7.609375 2.171875 -13.78125q2.171875 -6.1875 6.203125 -10.53125q4.046875 -4.359375 9.765625 -6.71875q5.734375 -2.375 12.828125 -2.375zm0 57.859375q9.609375 0 14.34375 -6.421875q4.734375 -6.4375 4.734375 -17.96875q0 -11.578125 -4.734375 -18.03125q-4.734375 -6.46875 -14.34375 -6.46875q-4.859375 0 -8.453125 1.671875q-3.578125 1.65625 -5.984375 4.796875q-2.390625 3.125 -3.578125 7.703125q-1.171875 4.578125 -1.171875 10.328125q0 5.765625 1.171875 10.3125q1.1875 4.546875 3.578125 7.65625q2.40625 3.09375 5.984375 4.765625q3.59375 1.65625 8.453125 1.65625zm57.605377 -86.265625l0 94.265625l-11.390625 0l0 -94.265625l11.390625 0zm46.330475 28.40625q7.109375 0 12.828125 2.375q5.734375 2.359375 9.734375 6.71875q4.0 4.34375 6.140625 10.53125q2.15625 6.171875 2.15625 13.78125q0 7.6875 -2.15625 13.828125q-2.140625 6.140625 -6.140625 10.5q-4.0 4.34375 -9.734375 6.6875q-5.71875 2.328125 -12.828125 2.328125q-7.09375 0 -12.828125 -2.328125q-5.71875 -2.34375 -9.765625 -6.6875q-4.0312805 -4.359375 -6.2031555 -10.5q-2.171875 -6.140625 -2.171875 -13.828125q0 -7.609375 2.171875 -13.78125q2.171875 -6.1875 6.2031555 -10.53125q4.046875 -4.359375 9.765625 -6.71875q5.734375 -2.375 12.828125 -2.375zm0 57.859375q9.609375 0 14.34375 -6.421875q4.734375 -6.4375 4.734375 -17.96875q0 -11.578125 -4.734375 -18.03125q-4.734375 -6.46875 -14.34375 -6.46875q-4.859375 0 -8.453125 1.671875q-3.578125 1.65625 -5.984375 4.796875q-2.390625 3.125 -3.578125 7.703125q-1.171875 4.578125 -1.171875 10.328125q0 5.765625 1.171875 10.3125q1.1875 4.546875 3.578125 7.65625q2.40625 3.09375 5.984375 4.765625q3.59375 1.65625 8.453125 1.65625z" fill-rule="nonzero"/><path fill="#000000" fill-opacity="0.0" d="m297.08136 317.53806l391.0866 0l0 59.055115l-391.0866 0z" fill-rule="evenodd"/><path fill="#69b7cf" d="m330.69513 354.93936q0 1.0625 -0.4375 1.9375q-0.421875 0.859375 -1.15625 1.484375q-0.71875 0.625 -1.671875 0.984375q-0.953125 0.34375 -2.0 0.34375l-1.390625 0q-1.046875 0 -2.015625 -0.390625q-0.953125 -0.40625 -1.671875 -1.09375q-0.71875 -0.703125 -1.15625 -1.625q-0.421875 -0.9375 -0.421875 -1.984375l0 -0.703125l2.078125 -0.328125l0 1.140625q0 0.625 0.265625 1.1875q0.265625 0.546875 0.703125 0.953125q0.4375 0.40625 1.015625 0.640625q0.578125 0.234375 1.203125 0.234375l1.390625 0q0.625 0 1.203125 -0.1875q0.578125 -0.1875 1.015625 -0.53125q0.453125 -0.34375 0.71875 -0.828125q0.265625 -0.5 0.265625 -1.125q0 -0.9375 -0.40625 -1.515625q-0.40625 -0.59375 -1.078125 -0.984375q-0.671875 -0.40625 -1.53125 -0.671875q-0.84375 -0.265625 -1.75 -0.53125q-0.890625 -0.265625 -1.75 -0.59375q-0.859375 -0.34375 -1.53125 -0.890625q-0.65625 -0.546875 -1.0625 -1.375q-0.40625 -0.828125 -0.40625 -2.0625q0 -1.0625 0.40625 -1.921875q0.40625 -0.875 1.09375 -1.5q0.703125 -0.625 1.625 -0.96875q0.921875 -0.359375 1.96875 -0.359375l1.21875 0q1.046875 0 1.96875 0.40625q0.9375 0.390625 1.625 1.09375q0.703125 0.6875 1.09375 1.625q0.40625 0.921875 0.40625 1.96875l0 0.078125l-2.078125 0.328125l0 -0.515625q0 -0.625 -0.25 -1.171875q-0.234375 -0.5625 -0.640625 -0.96875q-0.40625 -0.40625 -0.953125 -0.640625q-0.546875 -0.234375 -1.171875 -0.234375l-1.21875 0q-0.625 0 -1.1875 0.1875q-0.546875 0.1875 -0.953125 0.53125q-0.40625 0.34375 -0.640625 0.84375q-0.234375 0.484375 -0.234375 1.109375q0 0.890625 0.40625 1.46875q0.40625 0.5625 1.078125 0.953125q0.671875 0.390625 1.515625 0.65625q0.859375 0.25 1.75 0.53125q0.890625 0.28125 1.734375 0.640625q0.859375 0.359375 1.53125 0.921875q0.671875 0.546875 1.078125 1.390625q0.40625 0.828125 0.40625 2.0625zm4.5160522 -17.078125l0 -2.78125l2.421875 0l0 2.78125l-2.421875 0zm0.171875 21.484375l0 -17.328125l2.078125 0l0 17.328125l-2.078125 0zm25.225586 0l0 -12.6875q0 -0.625 -0.234375 -1.171875q-0.234375 -0.5625 -0.640625 -0.96875q-0.40625 -0.40625 -0.96875 -0.640625q-0.546875 -0.234375 -1.171875 -0.234375l-1.03125 0q-0.625 0 -1.171875 0.234375q-0.546875 0.234375 -0.96875 0.640625q-0.40625 0.40625 -0.65625 0.96875q-0.234375 0.546875 -0.234375 1.171875l0 12.6875l-2.0625 0l0 -12.6875q0 -0.625 -0.234375 -1.171875q-0.234375 -0.5625 -0.65625 -0.96875q-0.40625 -0.40625 -0.96875 -0.640625q-0.546875 -0.234375 -1.171875 -0.234375l-1.03125 0q-0.625 0 -1.171875 0.234375q-0.546875 0.234375 -0.953125 0.640625q-0.40625 0.40625 -0.65625 0.96875q-0.234375 0.546875 -0.234375 1.171875l0 12.6875l-2.078125 0l0 -17.328125l0.703125 0l1.125 1.765625q0.71875 -0.96875 1.78125 -1.53125q1.078125 -0.578125 2.34375 -0.578125l0.171875 0q1.46875 0 2.65625 0.734375q1.1875 0.71875 1.828125 1.921875q0.328125 -0.59375 0.796875 -1.078125q0.46875 -0.484375 1.046875 -0.828125q0.578125 -0.359375 1.25 -0.546875q0.6875 -0.203125 1.40625 -0.203125l0.171875 0q1.046875 0 1.96875 0.40625q0.9375 0.390625 1.625 1.09375q0.703125 0.6875 1.09375 1.625q0.40625 0.921875 0.40625 1.96875l0 12.578125l-2.078125 0zm17.818146 -4.75q0 1.046875 -0.40625 1.984375q-0.390625 0.921875 -1.09375 1.625q-0.6875 0.6875 -1.625 1.09375q-0.921875 0.390625 -1.96875 0.390625l-0.53125 0q-1.15625 0 -2.15625 -0.46875q-1.0 -0.484375 -1.71875 -1.328125l0 8.390625l-2.078125 0l0 -24.265625l0.703125 0l1.125 1.765625q0.71875 -0.96875 1.78125 -1.53125q1.078125 -0.578125 2.34375 -0.578125l0.53125 0q1.046875 0 1.96875 0.40625q0.9375 0.390625 1.625 1.09375q0.703125 0.6875 1.09375 1.625q0.40625 0.921875 0.40625 1.96875l0 7.828125l0 0zm-2.078125 -7.9375q0 -0.625 -0.25 -1.171875q-0.234375 -0.5625 -0.640625 -0.96875q-0.40625 -0.40625 -0.953125 -0.640625q-0.546875 -0.234375 -1.171875 -0.234375l-1.390625 0q-0.625 0 -1.171875 0.234375q-0.546875 0.234375 -0.953125 0.640625q-0.40625 0.40625 -0.65625 0.96875q-0.234375 0.546875 -0.234375 1.171875l0 8.046875q0 0.625 0.234375 1.1875q0.25 0.546875 0.65625 0.953125q0.40625 0.40625 0.953125 0.640625q0.546875 0.234375 1.171875 0.234375l1.390625 0q0.625 0 1.171875 -0.234375q0.546875 -0.234375 0.953125 -0.640625q0.40625 -0.40625 0.640625 -0.953125q0.25 -0.5625 0.25 -1.1875l0 -8.046875zm6.9405823 12.6875l0 -24.265625l2.078125 0l0 24.265625l-2.078125 0zm18.506805 -4.75q0 1.046875 -0.40625 1.984375q-0.390625 0.921875 -1.09375 1.625q-0.6875 0.6875 -1.625 1.09375q-0.921875 0.390625 -1.96875 0.390625l-1.390625 0q-1.046875 0 -1.984375 -0.390625q-0.921875 -0.40625 -1.625 -1.09375q-0.6875 -0.703125 -1.09375 -1.625q-0.390625 -0.9375 -0.390625 -1.984375l0 -7.828125q0 -1.046875 0.390625 -1.96875q0.40625 -0.9375 1.09375 -1.625q0.703125 -0.703125 1.625 -1.09375q0.9375 -0.40625 1.984375 -0.40625l1.390625 0q1.046875 0 1.96875 0.40625q0.9375 0.390625 1.625 1.09375q0.703125 0.6875 1.09375 1.625q0.40625 0.921875 0.40625 1.96875l0 4.078125l-9.5 0l0 3.859375q0 0.625 0.234375 1.1875q0.25 0.546875 0.65625 0.953125q0.40625 0.40625 0.953125 0.640625q0.546875 0.234375 1.171875 0.234375l1.390625 0q0.625 0 1.171875 -0.234375q0.546875 -0.234375 0.953125 -0.640625q0.40625 -0.40625 0.640625 -0.953125q0.25 -0.5625 0.25 -1.1875l0 -1.140625l2.078125 0.328125l0 0.703125l0 0zm-2.078125 -7.9375q0 -0.625 -0.25 -1.171875q-0.234375 -0.5625 -0.640625 -0.96875q-0.40625 -0.40625 -0.953125 -0.640625q-0.546875 -0.234375 -1.171875 -0.234375l-1.390625 0q-0.625 0 -1.171875 0.234375q-0.546875 0.234375 -0.953125 0.640625q-0.40625 0.40625 -0.65625 0.96875q-0.234375 0.546875 -0.234375 1.171875l0 2.5625l7.421875 0l0 -2.5625zm33.756104 7.9375q0 1.046875 -0.40625 1.984375q-0.390625 0.921875 -1.09375 1.625q-0.6875 0.6875 -1.625 1.09375q-0.921875 0.390625 -1.96875 0.390625l-0.53125 0q-1.15625 0 -2.15625 -0.46875q-1.0 -0.484375 -1.71875 -1.328125l0 8.390625l-2.078125 0l0 -24.265625l0.703125 0l1.125 1.765625q0.71875 -0.96875 1.78125 -1.53125q1.078125 -0.578125 2.34375 -0.578125l0.53125 0q1.046875 0 1.96875 0.40625q0.9375 0.390625 1.625 1.09375q0.703125 0.6875 1.09375 1.625q0.40625 0.921875 0.40625 1.96875l0 7.828125l0 0zm-2.078125 -7.9375q0 -0.625 -0.25 -1.171875q-0.234375 -0.5625 -0.640625 -0.96875q-0.40625 -0.40625 -0.953125 -0.640625q-0.546875 -0.234375 -1.171875 -0.234375l-1.390625 0q-0.625 0 -1.171875 0.234375q-0.546875 0.234375 -0.953125 0.640625q-0.40625 0.40625 -0.65625 0.96875q-0.234375 0.546875 -0.234375 1.171875l0 8.046875q0 0.625 0.234375 1.1875q0.25 0.546875 0.65625 0.953125q0.40625 0.40625 0.953125 0.640625q0.546875 0.234375 1.171875 0.234375l1.390625 0q0.625 0 1.171875 -0.234375q0.546875 -0.234375 0.953125 -0.640625q0.40625 -0.40625 0.640625 -0.953125q0.25 -0.5625 0.25 -1.1875l0 -8.046875zm11.331207 -2.65625q-0.625 0 -1.171875 0.234375q-0.546875 0.234375 -0.953125 0.640625q-0.40625 0.40625 -0.65625 0.953125q-0.234375 0.546875 -0.234375 1.171875l0 12.34375l-2.078125 0l0 -17.328125l0.703125 0l1.125 1.765625q0.71875 -0.96875 1.78125 -1.53125q1.078125 -0.578125 2.34375 -0.578125l1.21875 0l0 2.328125l-2.078125 0zm16.43451 10.59375q0 1.046875 -0.40625 1.984375q-0.390625 0.921875 -1.09375 1.625q-0.6875 0.6875 -1.625 1.09375q-0.921875 0.390625 -1.96875 0.390625l-1.390625 0q-1.046875 0 -1.984375 -0.390625q-0.921875 -0.40625 -1.625 -1.09375q-0.6875 -0.703125 -1.09375 -1.625q-0.390625 -0.9375 -0.390625 -1.984375l0 -7.828125q0 -1.046875 0.390625 -1.96875q0.40625 -0.9375 1.09375 -1.625q0.703125 -0.703125 1.625 -1.09375q0.9375 -0.40625 1.984375 -0.40625l1.390625 0q1.046875 0 1.96875 0.40625q0.9375 0.390625 1.625 1.09375q0.703125 0.6875 1.09375 1.625q0.40625 0.921875 0.40625 1.96875l0 4.078125l-9.5 0l0 3.859375q0 0.625 0.234375 1.1875q0.25 0.546875 0.65625 0.953125q0.40625 0.40625 0.953125 0.640625q0.546875 0.234375 1.171875 0.234375l1.390625 0q0.625 0 1.171875 -0.234375q0.546875 -0.234375 0.953125 -0.640625q0.40625 -0.40625 0.640625 -0.953125q0.25 -0.5625 0.25 -1.1875l0 -1.140625l2.078125 0.328125l0 0.703125l0 0zm-2.078125 -7.9375q0 -0.625 -0.25 -1.171875q-0.234375 -0.5625 -0.640625 -0.96875q-0.40625 -0.40625 -0.953125 -0.640625q-0.546875 -0.234375 -1.171875 -0.234375l-1.390625 0q-0.625 0 -1.171875 0.234375q-0.546875 0.234375 -0.953125 0.640625q-0.40625 0.40625 -0.65625 0.96875q-0.234375 0.546875 -0.234375 1.171875l0 2.5625l7.421875 0l0 -2.5625zm17.815582 7.9375q0 1.046875 -0.40625 1.984375q-0.390625 0.921875 -1.09375 1.625q-0.6875 0.6875 -1.625 1.09375q-0.921875 0.390625 -1.96875 0.390625l-1.390625 0q-1.046875 0 -1.984375 -0.390625q-0.921875 -0.40625 -1.625 -1.09375q-0.6875 -0.703125 -1.09375 -1.625q-0.390625 -0.9375 -0.390625 -1.984375l0 -7.828125q0 -1.046875 0.390625 -1.96875q0.40625 -0.9375 1.09375 -1.625q0.703125 -0.703125 1.625 -1.09375q0.9375 -0.40625 1.984375 -0.40625l1.390625 0q1.046875 0 1.96875 0.40625q0.9375 0.390625 1.625 1.09375q0.703125 0.6875 1.09375 1.625q0.40625 0.921875 0.40625 1.96875l0 0.703125l-2.078125 0.328125l0 -1.140625q0 -0.625 -0.25 -1.171875q-0.234375 -0.5625 -0.640625 -0.96875q-0.40625 -0.40625 -0.953125 -0.640625q-0.546875 -0.234375 -1.171875 -0.234375l-1.390625 0q-0.625 0 -1.171875 0.234375q-0.546875 0.234375 -0.953125 0.640625q-0.40625 0.40625 -0.65625 0.96875q-0.234375 0.546875 -0.234375 1.171875l0 8.046875q0 0.625 0.234375 1.1875q0.25 0.546875 0.65625 0.953125q0.40625 0.40625 0.953125 0.640625q0.546875 0.234375 1.171875 0.234375l1.390625 0q0.625 0 1.171875 -0.234375q0.546875 -0.234375 0.953125 -0.640625q0.40625 -0.40625 0.640625 -0.953125q0.25 -0.5625 0.25 -1.1875l0 -1.140625l2.078125 0.328125l0 0.703125l0 0zm4.6905823 -16.734375l0 -2.78125l2.421875 0l0 2.78125l-2.421875 0zm0.171875 21.484375l0 -17.328125l2.078125 0l0 17.328125l-2.078125 0zm18.850586 -4.40625q0 1.0625 -0.4375 1.9375q-0.421875 0.859375 -1.15625 1.484375q-0.71875 0.625 -1.671875 0.984375q-0.953125 0.34375 -2.0 0.34375l-1.390625 0q-1.046875 0 -2.015625 -0.390625q-0.953125 -0.40625 -1.671875 -1.09375q-0.71875 -0.703125 -1.15625 -1.625q-0.421875 -0.9375 -0.421875 -1.984375l0 -0.703125l2.078125 -0.328125l0 1.140625q0 0.625 0.265625 1.1875q0.265625 0.546875 0.703125 0.953125q0.4375 0.40625 1.015625 0.640625q0.578125 0.234375 1.203125 0.234375l1.390625 0q0.625 0 1.203125 -0.1875q0.578125 -0.1875 1.015625 -0.53125q0.453125 -0.34375 0.71875 -0.828125q0.265625 -0.5 0.265625 -1.125q0 -0.9375 -0.40625 -1.515625q-0.40625 -0.59375 -1.078125 -0.984375q-0.671875 -0.40625 -1.53125 -0.671875q-0.84375 -0.265625 -1.75 -0.53125q-0.890625 -0.265625 -1.75 -0.59375q-0.859375 -0.34375 -1.53125 -0.890625q-0.65625 -0.546875 -1.0625 -1.375q-0.40625 -0.828125 -0.40625 -2.0625q0 -1.0625 0.40625 -1.921875q0.40625 -0.875 1.09375 -1.5q0.703125 -0.625 1.625 -0.96875q0.921875 -0.359375 1.96875 -0.359375l1.21875 0q1.046875 0 1.96875 0.40625q0.9375 0.390625 1.625 1.09375q0.703125 0.6875 1.09375 1.625q0.40625 0.921875 0.40625 1.96875l0 0.078125l-2.078125 0.328125l0 -0.515625q0 -0.625 -0.25 -1.171875q-0.234375 -0.5625 -0.640625 -0.96875q-0.40625 -0.40625 -0.953125 -0.640625q-0.546875 -0.234375 -1.171875 -0.234375l-1.21875 0q-0.625 0 -1.1875 0.1875q-0.546875 0.1875 -0.953125 0.53125q-0.40625 0.34375 -0.640625 0.84375q-0.234375 0.484375 -0.234375 1.109375q0 0.890625 0.40625 1.46875q0.40625 0.5625 1.078125 0.953125q0.671875 0.390625 1.515625 0.65625q0.859375 0.25 1.75 0.53125q0.890625 0.28125 1.734375 0.640625q0.859375 0.359375 1.53125 0.921875q0.671875 0.546875 1.078125 1.390625q0.40625 0.828125 0.40625 2.0625zm15.562927 -0.34375q0 1.046875 -0.40625 1.984375q-0.390625 0.921875 -1.09375 1.625q-0.6875 0.6875 -1.625 1.09375q-0.921875 0.390625 -1.96875 0.390625l-1.390625 0q-1.046875 0 -1.984375 -0.390625q-0.921875 -0.40625 -1.625 -1.09375q-0.6875 -0.703125 -1.09375 -1.625q-0.390625 -0.9375 -0.390625 -1.984375l0 -7.828125q0 -1.046875 0.390625 -1.96875q0.40625 -0.9375 1.09375 -1.625q0.703125 -0.703125 1.625 -1.09375q0.9375 -0.40625 1.984375 -0.40625l1.390625 0q1.046875 0 1.96875 0.40625q0.9375 0.390625 1.625 1.09375q0.703125 0.6875 1.09375 1.625q0.40625 0.921875 0.40625 1.96875l0 4.078125l-9.5 0l0 3.859375q0 0.625 0.234375 1.1875q0.25 0.546875 0.65625 0.953125q0.40625 0.40625 0.953125 0.640625q0.546875 0.234375 1.171875 0.234375l1.390625 0q0.625 0 1.171875 -0.234375q0.546875 -0.234375 0.953125 -0.640625q0.40625 -0.40625 0.640625 -0.953125q0.25 -0.5625 0.25 -1.1875l0 -1.140625l2.078125 0.328125l0 0.703125l0 0zm-2.078125 -7.9375q0 -0.625 -0.25 -1.171875q-0.234375 -0.5625 -0.640625 -0.96875q-0.40625 -0.40625 -0.953125 -0.640625q-0.546875 -0.234375 -1.171875 -0.234375l-1.390625 0q-0.625 0 -1.171875 0.234375q-0.546875 0.234375 -0.953125 0.640625q-0.40625 0.40625 -0.65625 0.96875q-0.234375 0.546875 -0.234375 1.171875l0 2.5625l7.421875 0l0 -2.5625zm33.068604 12.6875l-1.15625 -1.71875q-0.71875 0.921875 -1.78125 1.5q-1.0625 0.5625 -2.328125 0.5625l-0.53125 0q-1.046875 0 -1.984375 -0.390625q-0.921875 -0.40625 -1.625 -1.09375q-0.6875 -0.703125 -1.09375 -1.625q-0.390625 -0.9375 -0.390625 -1.984375l0 -0.171875q0 -1.046875 0.390625 -1.96875q0.40625 -0.9375 1.09375 -1.625q0.703125 -0.703125 1.625 -1.09375q0.9375 -0.40625 1.984375 -0.40625l4.40625 0l0 -2.671875q0 -0.625 -0.25 -1.171875q-0.234375 -0.5625 -0.640625 -0.96875q-0.40625 -0.40625 -0.953125 -0.640625q-0.546875 -0.234375 -1.171875 -0.234375l-1.21875 0q-0.625 0 -1.171875 0.234375q-0.546875 0.234375 -0.953125 0.640625q-0.40625 0.40625 -0.65625 0.96875q-0.234375 0.546875 -0.234375 1.171875l0 0.625l-2.078125 -0.34375l0 -0.171875q0 -1.046875 0.390625 -1.96875q0.40625 -0.9375 1.09375 -1.625q0.703125 -0.703125 1.625 -1.09375q0.9375 -0.40625 1.984375 -0.40625l1.21875 0q1.046875 0 1.96875 0.40625q0.9375 0.390625 1.625 1.09375q0.703125 0.6875 1.09375 1.625q0.40625 0.921875 0.40625 1.96875l0 12.578125l-0.6875 0zm-1.390625 -8.390625l-4.40625 0q-0.625 0 -1.171875 0.234375q-0.546875 0.234375 -0.953125 0.65625q-0.40625 0.40625 -0.65625 0.96875q-0.234375 0.546875 -0.234375 1.171875l0 0.71875q0 0.625 0.234375 1.1875q0.25 0.546875 0.65625 0.953125q0.40625 0.40625 0.953125 0.640625q0.546875 0.234375 1.171875 0.234375l1.390625 0q0.625 0 1.171875 -0.234375q0.546875 -0.234375 0.953125 -0.640625q0.40625 -0.40625 0.640625 -0.953125q0.25 -0.5625 0.25 -1.1875l0 -3.75zm17.128052 8.390625l-1.15625 -1.765625q-0.71875 0.96875 -1.78125 1.546875q-1.0625 0.5625 -2.328125 0.5625l-0.53125 0q-1.046875 0 -1.984375 -0.390625q-0.921875 -0.40625 -1.625 -1.09375q-0.6875 -0.703125 -1.09375 -1.625q-0.390625 -0.9375 -0.390625 -1.984375l0 -7.828125q0 -1.046875 0.390625 -1.96875q0.40625 -0.9375 1.09375 -1.625q0.703125 -0.703125 1.625 -1.09375q0.9375 -0.40625 1.984375 -0.40625l0.53125 0q1.15625 0 2.15625 0.484375q1.0 0.46875 1.71875 1.3125l0 -8.390625l2.078125 0l0 24.265625l-0.6875 0zm-1.390625 -12.6875q0 -0.625 -0.25 -1.171875q-0.234375 -0.5625 -0.640625 -0.96875q-0.40625 -0.40625 -0.953125 -0.640625q-0.546875 -0.234375 -1.171875 -0.234375l-1.390625 0q-0.625 0 -1.171875 0.234375q-0.546875 0.234375 -0.953125 0.640625q-0.40625 0.40625 -0.65625 0.96875q-0.234375 0.546875 -0.234375 1.171875l0 8.046875q0 0.625 0.234375 1.1875q0.25 0.546875 0.65625 0.953125q0.40625 0.40625 0.953125 0.640625q0.546875 0.234375 1.171875 0.234375l1.390625 0q0.625 0 1.171875 -0.234375q0.546875 -0.234375 0.953125 -0.640625q0.40625 -0.40625 0.640625 -0.953125q0.25 -0.5625 0.25 -1.1875l0 -8.046875zm17.128113 12.6875l-1.15625 -1.765625q-0.71875 0.96875 -1.78125 1.546875q-1.0625 0.5625 -2.328125 0.5625l-0.53125 0q-1.046875 0 -1.984375 -0.390625q-0.921875 -0.40625 -1.625 -1.09375q-0.6875 -0.703125 -1.09375 -1.625q-0.390625 -0.9375 -0.390625 -1.984375l0 -7.828125q0 -1.046875 0.390625 -1.96875q0.40625 -0.9375 1.09375 -1.625q0.703125 -0.703125 1.625 -1.09375q0.9375 -0.40625 1.984375 -0.40625l0.53125 0q1.15625 0 2.15625 0.484375q1.0 0.46875 1.71875 1.3125l0 -8.390625l2.078125 0l0 24.265625l-0.6875 0zm-1.390625 -12.6875q0 -0.625 -0.25 -1.171875q-0.234375 -0.5625 -0.640625 -0.96875q-0.40625 -0.40625 -0.953125 -0.640625q-0.546875 -0.234375 -1.171875 -0.234375l-1.390625 0q-0.625 0 -1.171875 0.234375q-0.546875 0.234375 -0.953125 0.640625q-0.40625 0.40625 -0.65625 0.96875q-0.234375 0.546875 -0.234375 1.171875l0 8.046875q0 0.625 0.234375 1.1875q0.25 0.546875 0.65625 0.953125q0.40625 0.40625 0.953125 0.640625q0.546875 0.234375 1.171875 0.234375l1.390625 0q0.625 0 1.171875 -0.234375q0.546875 -0.234375 0.953125 -0.640625q0.40625 -0.40625 0.640625 -0.953125q0.25 -0.5625 0.25 -1.1875l0 -8.046875zm11.331177 -2.65625q-0.625 0 -1.171875 0.234375q-0.546875 0.234375 -0.953125 0.640625q-0.40625 0.40625 -0.65625 0.953125q-0.234375 0.546875 -0.234375 1.171875l0 12.34375l-2.078125 0l0 -17.328125l0.703125 0l1.125 1.765625q0.71875 -0.96875 1.78125 -1.53125q1.078125 -0.578125 2.34375 -0.578125l1.21875 0l0 2.328125l-2.078125 0zm16.43451 10.59375q0 1.046875 -0.40625 1.984375q-0.390625 0.921875 -1.09375 1.625q-0.6875 0.6875 -1.625 1.09375q-0.921875 0.390625 -1.96875 0.390625l-1.390625 0q-1.046875 0 -1.984375 -0.390625q-0.921875 -0.40625 -1.625 -1.09375q-0.6875 -0.703125 -1.09375 -1.625q-0.390625 -0.9375 -0.390625 -1.984375l0 -7.828125q0 -1.046875 0.390625 -1.96875q0.40625 -0.9375 1.09375 -1.625q0.703125 -0.703125 1.625 -1.09375q0.9375 -0.40625 1.984375 -0.40625l1.390625 0q1.046875 0 1.96875 0.40625q0.9375 0.390625 1.625 1.09375q0.703125 0.6875 1.09375 1.625q0.40625 0.921875 0.40625 1.96875l0 4.078125l-9.5 0l0 3.859375q0 0.625 0.234375 1.1875q0.25 0.546875 0.65625 0.953125q0.40625 0.40625 0.953125 0.640625q0.546875 0.234375 1.171875 0.234375l1.390625 0q0.625 0 1.171875 -0.234375q0.546875 -0.234375 0.953125 -0.640625q0.40625 -0.40625 0.640625 -0.953125q0.25 -0.5625 0.25 -1.1875l0 -1.140625l2.078125 0.328125l0 0.703125l0 0zm-2.078125 -7.9375q0 -0.625 -0.25 -1.171875q-0.234375 -0.5625 -0.640625 -0.96875q-0.40625 -0.40625 -0.953125 -0.640625q-0.546875 -0.234375 -1.171875 -0.234375l-1.390625 0q-0.625 0 -1.171875 0.234375q-0.546875 0.234375 -0.953125 0.640625q-0.40625 0.40625 -0.65625 0.96875q-0.234375 0.546875 -0.234375 1.171875l0 2.5625l7.421875 0l0 -2.5625zm18.159363 8.28125q0 1.0625 -0.4375 1.9375q-0.421875 0.859375 -1.15625 1.484375q-0.71875 0.625 -1.671875 0.984375q-0.953125 0.34375 -2.0 0.34375l-1.390625 0q-1.046875 0 -2.015625 -0.390625q-0.953125 -0.40625 -1.671875 -1.09375q-0.71875 -0.703125 -1.15625 -1.625q-0.421875 -0.9375 -0.421875 -1.984375l0 -0.703125l2.078125 -0.328125l0 1.140625q0 0.625 0.265625 1.1875q0.265625 0.546875 0.703125 0.953125q0.4375 0.40625 1.015625 0.640625q0.578125 0.234375 1.203125 0.234375l1.390625 0q0.625 0 1.203125 -0.1875q0.578125 -0.1875 1.015625 -0.53125q0.453125 -0.34375 0.71875 -0.828125q0.265625 -0.5 0.265625 -1.125q0 -0.9375 -0.40625 -1.515625q-0.40625 -0.59375 -1.078125 -0.984375q-0.671875 -0.40625 -1.53125 -0.671875q-0.84375 -0.265625 -1.75 -0.53125q-0.890625 -0.265625 -1.75 -0.59375q-0.859375 -0.34375 -1.53125 -0.890625q-0.65625 -0.546875 -1.0625 -1.375q-0.40625 -0.828125 -0.40625 -2.0625q0 -1.0625 0.40625 -1.921875q0.40625 -0.875 1.09375 -1.5q0.703125 -0.625 1.625 -0.96875q0.921875 -0.359375 1.96875 -0.359375l1.21875 0q1.046875 0 1.96875 0.40625q0.9375 0.390625 1.625 1.09375q0.703125 0.6875 1.09375 1.625q0.40625 0.921875 0.40625 1.96875l0 0.078125l-2.078125 0.328125l0 -0.515625q0 -0.625 -0.25 -1.171875q-0.234375 -0.5625 -0.640625 -0.96875q-0.40625 -0.40625 -0.953125 -0.640625q-0.546875 -0.234375 -1.171875 -0.234375l-1.21875 0q-0.625 0 -1.1875 0.1875q-0.546875 0.1875 -0.953125 0.53125q-0.40625 0.34375 -0.640625 0.84375q-0.234375 0.484375 -0.234375 1.109375q0 0.890625 0.40625 1.46875q0.40625 0.5625 1.078125 0.953125q0.671875 0.390625 1.515625 0.65625q0.859375 0.25 1.75 0.53125q0.890625 0.28125 1.734375 0.640625q0.859375 0.359375 1.53125 0.921875q0.671875 0.546875 1.078125 1.390625q0.40625 0.828125 0.40625 2.0625zm15.906677 0q0 1.0625 -0.4375 1.9375q-0.421875 0.859375 -1.15625 1.484375q-0.71875 0.625 -1.671875 0.984375q-0.953125 0.34375 -2.0 0.34375l-1.390625 0q-1.046875 0 -2.015625 -0.390625q-0.953125 -0.40625 -1.671875 -1.09375q-0.71875 -0.703125 -1.15625 -1.625q-0.421875 -0.9375 -0.421875 -1.984375l0 -0.703125l2.078125 -0.328125l0 1.140625q0 0.625 0.265625 1.1875q0.265625 0.546875 0.703125 0.953125q0.4375 0.40625 1.015625 0.640625q0.578125 0.234375 1.203125 0.234375l1.390625 0q0.625 0 1.203125 -0.1875q0.578125 -0.1875 1.015625 -0.53125q0.453125 -0.34375 0.71875 -0.828125q0.265625 -0.5 0.265625 -1.125q0 -0.9375 -0.40625 -1.515625q-0.40625 -0.59375 -1.078125 -0.984375q-0.671875 -0.40625 -1.53125 -0.671875q-0.84375 -0.265625 -1.75 -0.53125q-0.890625 -0.265625 -1.75 -0.59375q-0.859375 -0.34375 -1.53125 -0.890625q-0.65625 -0.546875 -1.0625 -1.375q-0.40625 -0.828125 -0.40625 -2.0625q0 -1.0625 0.40625 -1.921875q0.40625 -0.875 1.09375 -1.5q0.703125 -0.625 1.625 -0.96875q0.921875 -0.359375 1.96875 -0.359375l1.21875 0q1.046875 0 1.96875 0.40625q0.9375 0.390625 1.625 1.09375q0.703125 0.6875 1.09375 1.625q0.40625 0.921875 0.40625 1.96875l0 0.078125l-2.078125 0.328125l0 -0.515625q0 -0.625 -0.25 -1.171875q-0.234375 -0.5625 -0.640625 -0.96875q-0.40625 -0.40625 -0.953125 -0.640625q-0.546875 -0.234375 -1.171875 -0.234375l-1.21875 0q-0.625 0 -1.1875 0.1875q-0.546875 0.1875 -0.953125 0.53125q-0.40625 0.34375 -0.640625 0.84375q-0.234375 0.484375 -0.234375 1.109375q0 0.890625 0.40625 1.46875q0.40625 0.5625 1.078125 0.953125q0.671875 0.390625 1.515625 0.65625q0.859375 0.25 1.75 0.53125q0.890625 0.28125 1.734375 0.640625q0.859375 0.359375 1.53125 0.921875q0.671875 0.546875 1.078125 1.390625q0.40625 0.828125 0.40625 2.0625zm15.562927 -0.34375q0 1.046875 -0.40625 1.984375q-0.390625 0.921875 -1.09375 1.625q-0.6875 0.6875 -1.625 1.09375q-0.921875 0.390625 -1.96875 0.390625l-1.390625 0q-1.046875 0 -1.984375 -0.390625q-0.921875 -0.40625 -1.625 -1.09375q-0.6875 -0.703125 -1.09375 -1.625q-0.390625 -0.9375 -0.390625 -1.984375l0 -7.828125q0 -1.046875 0.390625 -1.96875q0.40625 -0.9375 1.09375 -1.625q0.703125 -0.703125 1.625 -1.09375q0.9375 -0.40625 1.984375 -0.40625l1.390625 0q1.046875 0 1.96875 0.40625q0.9375 0.390625 1.625 1.09375q0.703125 0.6875 1.09375 1.625q0.40625 0.921875 0.40625 1.96875l0 4.078125l-9.5 0l0 3.859375q0 0.625 0.234375 1.1875q0.25 0.546875 0.65625 0.953125q0.40625 0.40625 0.953125 0.640625q0.546875 0.234375 1.171875 0.234375l1.390625 0q0.625 0 1.171875 -0.234375q0.546875 -0.234375 0.953125 -0.640625q0.40625 -0.40625 0.640625 -0.953125q0.25 -0.5625 0.25 -1.1875l0 -1.140625l2.078125 0.328125l0 0.703125l0 0zm-2.078125 -7.9375q0 -0.625 -0.25 -1.171875q-0.234375 -0.5625 -0.640625 -0.96875q-0.40625 -0.40625 -0.953125 -0.640625q-0.546875 -0.234375 -1.171875 -0.234375l-1.390625 0q-0.625 0 -1.171875 0.234375q-0.546875 0.234375 -0.953125 0.640625q-0.40625 0.40625 -0.65625 0.96875q-0.234375 0.546875 -0.234375 1.171875l0 2.5625l7.421875 0l0 -2.5625zm18.159302 8.28125q0 1.0625 -0.4375 1.9375q-0.421875 0.859375 -1.15625 1.484375q-0.71875 0.625 -1.671875 0.984375q-0.953125 0.34375 -2.0 0.34375l-1.390625 0q-1.046875 0 -2.015625 -0.390625q-0.953125 -0.40625 -1.671875 -1.09375q-0.71875 -0.703125 -1.15625 -1.625q-0.421875 -0.9375 -0.421875 -1.984375l0 -0.703125l2.078125 -0.328125l0 1.140625q0 0.625 0.265625 1.1875q0.265625 0.546875 0.703125 0.953125q0.4375 0.40625 1.015625 0.640625q0.578125 0.234375 1.203125 0.234375l1.390625 0q0.625 0 1.203125 -0.1875q0.578125 -0.1875 1.015625 -0.53125q0.453125 -0.34375 0.71875 -0.828125q0.265625 -0.5 0.265625 -1.125q0 -0.9375 -0.40625 -1.515625q-0.40625 -0.59375 -1.078125 -0.984375q-0.671875 -0.40625 -1.53125 -0.671875q-0.84375 -0.265625 -1.75 -0.53125q-0.890625 -0.265625 -1.75 -0.59375q-0.859375 -0.34375 -1.53125 -0.890625q-0.65625 -0.546875 -1.0625 -1.375q-0.40625 -0.828125 -0.40625 -2.0625q0 -1.0625 0.40625 -1.921875q0.40625 -0.875 1.09375 -1.5q0.703125 -0.625 1.625 -0.96875q0.921875 -0.359375 1.96875 -0.359375l1.21875 0q1.046875 0 1.96875 0.40625q0.9375 0.390625 1.625 1.09375q0.703125 0.6875 1.09375 1.625q0.40625 0.921875 0.40625 1.96875l0 0.078125l-2.078125 0.328125l0 -0.515625q0 -0.625 -0.25 -1.171875q-0.234375 -0.5625 -0.640625 -0.96875q-0.40625 -0.40625 -0.953125 -0.640625q-0.546875 -0.234375 -1.171875 -0.234375l-1.21875 0q-0.625 0 -1.1875 0.1875q-0.546875 0.1875 -0.953125 0.53125q-0.40625 0.34375 -0.640625 0.84375q-0.234375 0.484375 -0.234375 1.109375q0 0.890625 0.40625 1.46875q0.40625 0.5625 1.078125 0.953125q0.671875 0.390625 1.515625 0.65625q0.859375 0.25 1.75 0.53125q0.890625 0.28125 1.734375 0.640625q0.859375 0.359375 1.53125 0.921875q0.671875 0.546875 1.078125 1.390625q0.40625 0.828125 0.40625 2.0625z" fill-rule="nonzero"/><path fill="#000000" fill-opacity="0.0" d="m600.3895 193.0391l176.75586 0l0 82.39371l-176.75586 0z" fill-rule="evenodd"/><path fill="#69b7cf" d="m645.454 243.68594q0 2.109375 -0.796875 3.984375q-0.796875 1.875 -2.203125 3.28125q-1.40625 1.40625 -3.28125 2.203125q-1.875 0.796875 -3.984375 0.796875l-2.65625 0q-2.125 0 -4.015625 -0.796875q-1.875 -0.796875 -3.28125 -2.1875q-1.40625 -1.40625 -2.21875 -3.28125q-0.796875 -1.875 -0.796875 -4.0l0 -20.046875q0 -2.140625 0.796875 -4.0q0.8125 -1.875 2.203125 -3.265625q1.40625 -1.40625 3.28125 -2.203125q1.890625 -0.8125 4.03125 -0.8125l2.65625 0q2.125 0 4.0 0.8125q1.875 0.796875 3.265625 2.203125q1.40625 1.390625 2.203125 3.265625q0.796875 1.859375 0.796875 4.0l0 2.453125l-5.578125 0.859375l0 -3.3125q0 -1.015625 -0.390625 -1.890625q-0.375 -0.890625 -1.03125 -1.546875q-0.65625 -0.65625 -1.53125 -1.03125q-0.875 -0.390625 -1.890625 -0.390625l-2.34375 0q-1.015625 0 -1.90625 0.390625q-0.890625 0.375 -1.5625 1.03125q-0.65625 0.65625 -1.046875 1.546875q-0.375 0.875 -0.375 1.890625l0 20.046875q0 1.015625 0.375 1.890625q0.390625 0.875 1.0625 1.546875q0.671875 0.671875 1.546875 1.0625q0.890625 0.375 1.90625 0.375l2.34375 0q1.015625 0 1.890625 -0.375q0.875 -0.390625 1.53125 -1.046875q0.65625 -0.671875 1.03125 -1.546875q0.390625 -0.890625 0.390625 -1.90625l0 -3.328125l5.578125 0.90625l0 2.421875l0 0zm27.940002 0q0 2.109375 -0.796875 3.984375q-0.796875 1.875 -2.203125 3.28125q-1.40625 1.40625 -3.28125 2.203125q-1.875 0.796875 -3.984375 0.796875l-2.65625 0q-2.125 0 -4.015625 -0.796875q-1.875 -0.796875 -3.28125 -2.1875q-1.40625 -1.40625 -2.21875 -3.28125q-0.796875 -1.875 -0.796875 -4.0l0 -20.046875q0 -2.140625 0.796875 -4.0q0.8125 -1.875 2.203125 -3.265625q1.40625 -1.40625 3.28125 -2.203125q1.890625 -0.8125 4.03125 -0.8125l2.65625 0q2.125 0 4.0 0.8125q1.875 0.796875 3.265625 2.203125q1.40625 1.390625 2.203125 3.265625q0.796875 1.859375 0.796875 4.0l0 20.046875l0 0zm-5.578125 -20.046875q0 -1.015625 -0.390625 -1.890625q-0.375 -0.890625 -1.03125 -1.546875q-0.65625 -0.65625 -1.53125 -1.03125q-0.875 -0.390625 -1.890625 -0.390625l-2.34375 0q-1.015625 0 -1.90625 0.390625q-0.890625 0.375 -1.5625 1.03125q-0.65625 0.65625 -1.046875 1.546875q-0.375 0.875 -0.375 1.890625l0 20.046875q0 1.015625 0.375 1.890625q0.390625 0.875 1.0625 1.546875q0.671875 0.671875 1.546875 1.0625q0.890625 0.375 1.90625 0.375l2.34375 0q1.015625 0 1.890625 -0.375q0.875 -0.390625 1.53125 -1.046875q0.65625 -0.671875 1.03125 -1.546875q0.390625 -0.890625 0.390625 -1.90625l0 -20.046875zm34.611816 19.515625q0 2.140625 -0.796875 4.015625q-0.796875 1.859375 -2.203125 3.265625q-1.390625 1.390625 -3.28125 2.203125q-1.875 0.796875 -4.015625 0.796875l-12.9375 0l0 -39.5625l12.9375 0q2.140625 0 4.015625 0.8125q1.890625 0.796875 3.28125 2.203125q1.40625 1.40625 2.203125 3.296875q0.796875 1.875 0.796875 4.0l0 18.96875l0 0zm-5.578125 -18.96875q0 -1.015625 -0.390625 -1.890625q-0.375 -0.890625 -1.046875 -1.5625q-0.671875 -0.671875 -1.546875 -1.046875q-0.875 -0.390625 -1.890625 -0.390625l-7.203125 0l0 28.71875l7.203125 0q1.015625 0 1.890625 -0.375q0.890625 -0.390625 1.546875 -1.046875q0.671875 -0.65625 1.046875 -1.53125q0.390625 -0.890625 0.390625 -1.90625l0 -18.96875zm11.351318 29.25l0 -39.5625l23.234375 0l0 5.421875l-17.65625 0l0 11.65625l14.296875 0l0 5.421875l-14.296875 0l0 11.640625l17.65625 0l0 5.421875l-23.234375 0zm50.10669 -9.75q0 2.125 -0.859375 4.015625q-0.859375 1.875 -2.296875 3.265625q-1.4375 1.390625 -3.34375 2.1875q-1.90625 0.796875 -4.03125 0.796875l-2.6875 0q-2.109375 0 -4.03125 -0.796875q-1.90625 -0.796875 -3.34375 -2.1875q-1.4375 -1.390625 -2.296875 -3.265625q-0.859375 -1.890625 -0.859375 -4.015625l0 -2.421875l5.578125 -0.90625l0 3.328125q0 1.0 0.40625 1.875q0.421875 0.875 1.125 1.546875q0.703125 0.671875 1.640625 1.0625q0.9375 0.390625 1.96875 0.390625l2.34375 0q1.03125 0 1.9375 -0.375q0.921875 -0.390625 1.625 -1.0625q0.71875 -0.6875 1.125 -1.5625q0.421875 -0.875 0.421875 -1.875l0 -1.125q0 -1.625 -0.625 -2.671875q-0.609375 -1.046875 -1.703125 -1.828125q-1.09375 -0.796875 -2.609375 -1.390625q-1.515625 -0.609375 -3.203125 -1.234375q-1.671875 -0.640625 -3.34375 -1.421875q-1.671875 -0.796875 -3.0625 -2.0625q-1.390625 -1.265625 -2.25 -3.109375q-0.859375 -1.859375 -0.859375 -4.5l0 -0.703125q0 -2.140625 0.796875 -4.0q0.8125 -1.875 2.203125 -3.265625q1.40625 -1.40625 3.28125 -2.203125q1.890625 -0.8125 4.03125 -0.8125l2.390625 0q2.140625 0 4.0 0.8125q1.875 0.796875 3.265625 2.203125q1.40625 1.390625 2.203125 3.265625q0.8125 1.859375 0.8125 4.0l0 1.890625l-5.578125 0.90625l0 -2.796875q0 -1.015625 -0.390625 -1.890625q-0.375 -0.890625 -1.046875 -1.546875q-0.65625 -0.65625 -1.53125 -1.03125q-0.875 -0.390625 -1.890625 -0.390625l-2.078125 0q-1.015625 0 -1.90625 0.390625q-0.890625 0.375 -1.5625 1.03125q-0.65625 0.65625 -1.046875 1.546875q-0.375 0.875 -0.375 1.890625l0 0.703125q0 1.46875 0.609375 2.46875q0.625 0.984375 1.71875 1.765625q1.109375 0.765625 2.625 1.375q1.515625 0.609375 3.203125 1.28125q1.6875 0.671875 3.359375 1.515625q1.671875 0.84375 3.0625 2.140625q1.390625 1.28125 2.234375 3.171875q0.84375 1.875 0.84375 4.5l0 1.125z" fill-rule="nonzero"/><path fill="#000000" fill-opacity="0.0" d="m133.65092 105.83465l83.68503 0l0 193.95276l-83.68503 0z" fill-rule="evenodd"/><path fill="#cccccc" d="m150.21222 154.42538l4.859375 0q2.125 0 3.65625 1.09375q1.53125 1.078125 2.359375 3.125l38.468765 95.8125l-4.7968903 0q-1.859375 0 -3.65625 -1.09375q-1.78125 -1.09375 -2.625 -3.328125l-38.265625 -95.609375z" fill-rule="nonzero"/><path fill="#000000" fill-opacity="0.0" d="m511.9427 105.83465l83.68506 0l0 193.95276l-83.68506 0z" fill-rule="evenodd"/><path fill="#cccccc" d="m540.21014 250.03476q-0.890625 2.234375 -2.65625 3.328125q-1.75 1.09375 -3.609375 1.09375l-4.796875 0l38.46875 -95.8125q0.828125 -2.046875 2.359375 -3.125q1.53125 -1.09375 3.65625 -1.09375l4.796875 0l-38.21875 95.609375z" fill-rule="nonzero"/><path fill="#ffffff" d="m-8.314961E-4 6.6614174E-4l22.141733 0l0 22.141733l-22.141733 0z" fill-rule="evenodd"/><path fill="#ffffff" d="m937.8574 -7.013123E-4l22.141724 0l0 22.141733l-22.141724 0z" fill-rule="evenodd"/><path fill="#ffffff" d="m937.8574 517.85754l22.141724 0l0 22.141785l-22.141724 0z" fill-rule="evenodd"/><path fill="#ffffff" d="m-8.314961E-4 517.85754l22.141733 0l0 22.141785l-22.141733 0z" fill-rule="evenodd"/><path fill="#ffffff" d="m468.9283 517.51306l22.141724 0l0 22.141724l-22.141724 0z" fill-rule="evenodd"/><path fill="#ffffff" d="m468.9283 -1.2447958l22.141724 0l0 22.141731l-22.141724 0z" fill-rule="evenodd"/><path fill="#ffffff" d="m-8.314961E-4 223.16466l22.141733 0l0 22.141724l-22.141733 0z" fill-rule="evenodd"/><path fill="#ffffff" d="m937.8574 223.16466l22.141724 0l0 22.141724l-22.141724 0z" fill-rule="evenodd"/></g></svg>