<svg version="1.1" viewBox="0.0 0.0 960.0 540.0" fill="none" stroke="none" stroke-linecap="square" stroke-miterlimit="10" xmlns:xlink="http://www.w3.org/1999/xlink" xmlns="http://www.w3.org/2000/svg"><clipPath id="gcb9a0b074_1_0.0"><path d="m0 0l960.0 0l0 540.0l-960.0 0l0 -540.0z" clip-rule="nonzero"/></clipPath><g clip-path="url(#gcb9a0b074_1_0.0)"><path fill="#69b7cf" d="m0 0l960.0 0l0 540.0l-960.0 0z" fill-rule="evenodd"/><path fill="#000000" fill-opacity="0.0" d="m260.12854 43.637794l655.5591 0" fill-rule="evenodd"/><path stroke="#ffffff" stroke-width="4.0" stroke-linejoin="round" stroke-linecap="butt" d="m260.12854 43.637794l655.5591 0" fill-rule="evenodd"/><path fill="#000000" fill-opacity="0.0" d="m260.12854 497.6378l655.5591 0" fill-rule="evenodd"/><path stroke="#ffffff" stroke-width="2.0" stroke-linejoin="round" stroke-linecap="butt" d="m260.12854 497.6378l655.5591 0" fill-rule="evenodd"/><path fill="#000000" fill-opacity="0.0" d="m260.45145 66.16535l200.25195 0l0 138.14172l-200.25195 0z" fill-rule="evenodd"/><path fill="#f3f3f3" d="m325.59207 167.32535l-6.234375 0l-13.515625 -52.25l1.796875 -2.953125l1.6875 2.984375l-13.40625 52.21875l-6.21875 0l-18.921875 -71.21875l10.1875 0l13.609375 52.765625l-1.796875 2.8125l-1.796875 -2.8125l13.359375 -52.765625l6.5 0l13.359375 52.765625l-1.796875 2.8125l-1.734375 -2.828125l13.546875 -52.75l10.1875 0l-18.8125 71.21875zm57.96875 -15.171875q0 3.3125 -1.265625 6.265625q-1.25 2.9375 -3.453125 5.140625q-2.1875 2.1875 -5.140625 3.453125q-2.9375 1.25 -6.25 1.25l-3.84375 0q-3.3125 0 -6.265625 -1.25q-2.9375 -1.265625 -5.140625 -3.453125q-2.1875 -2.203125 -3.453125 -5.140625q-1.25 -2.953125 -1.25 -6.265625l0 -21.65625q0 -3.3125 1.25 -6.25q1.265625 -2.953125 3.453125 -5.140625q2.203125 -2.203125 5.140625 -3.453125q2.953125 -1.265625 6.265625 -1.265625l3.84375 0q3.3125 0 6.25 1.265625q2.953125 1.25 5.140625 3.453125q2.203125 2.1875 3.453125 5.140625q1.265625 2.9375 1.265625 6.25l0 21.65625l0 0zm-9.765625 -21.984375q0 -1.328125 -0.5 -2.484375q-0.5 -1.15625 -1.359375 -2.0q-0.84375 -0.859375 -2.0 -1.359375q-1.15625 -0.5 -2.484375 -0.5l-3.84375 0q-1.328125 0 -2.484375 0.5q-1.15625 0.5 -2.015625 1.359375q-0.84375 0.84375 -1.34375 2.0q-0.5 1.15625 -0.5 2.484375l0 22.3125q0 1.328125 0.5 2.484375q0.5 1.15625 1.34375 2.015625q0.859375 0.84375 2.015625 1.34375q1.15625 0.5 2.484375 0.5l3.84375 0q1.328125 0 2.484375 -0.5q1.15625 -0.5 2.0 -1.34375q0.859375 -0.859375 1.359375 -2.015625q0.5 -1.15625 0.5 -2.484375l0 -22.3125zm19.21875 37.15625l0 -71.21875l9.765625 0l0 71.21875l-9.765625 0zm55.28125 -15.171875q0 3.3125 -1.265625 6.265625q-1.25 2.9375 -3.453125 5.140625q-2.1875 2.1875 -5.140625 3.453125q-2.9375 1.25 -6.25 1.25l-3.84375 0q-3.3125 0 -6.265625 -1.25q-2.9375 -1.265625 -5.140625 -3.453125q-2.1875 -2.203125 -3.453125 -5.140625q-1.25 -2.953125 -1.25 -6.265625l0 -21.65625q0 -3.3125 1.25 -6.25q1.265625 -2.953125 3.453125 -5.140625q2.203125 -2.203125 5.140625 -3.453125q2.953125 -1.265625 6.265625 -1.265625l3.84375 0q3.3125 0 6.25 1.265625q2.953125 1.25 5.140625 3.453125q2.203125 2.1875 3.453125 5.140625q1.265625 2.9375 1.265625 6.25l0 21.65625l0 0zm-9.765625 -21.984375q0 -1.328125 -0.5 -2.484375q-0.5 -1.15625 -1.359375 -2.0q-0.84375 -0.859375 -2.0 -1.359375q-1.15625 -0.5 -2.484375 -0.5l-3.84375 0q-1.328125 0 -2.484375 0.5q-1.15625 0.5 -2.015625 1.359375q-0.84375 0.84375 -1.34375 2.0q-0.5 1.15625 -0.5 2.484375l0 22.3125q0 1.328125 0.5 2.484375q0.5 1.15625 1.34375 2.015625q0.859375 0.84375 2.015625 1.34375q1.15625 0.5 2.484375 0.5l3.84375 0q1.328125 0 2.484375 -0.5q1.15625 -0.5 2.0 -1.34375q0.859375 -0.859375 1.359375 -2.015625q0.5 -1.15625 0.5 -2.484375l0 -22.3125z" fill-rule="nonzero"/><path fill="#000000" fill-opacity="0.0" d="m256.47095 339.99475l664.7244 0l0 130.36221l-664.7244 0z" fill-rule="evenodd"/><path fill="#ffffff" d="m283.0022 454.07697l-1.046875 0l-4.359375 -16.859375l-0.0625 -0.875l-0.09375 0.875l-4.328125 16.859375l-1.046875 0l-5.953125 -22.40625l2.015625 0l4.390625 17.03125l0.0625 0.828125l0.0625 -0.828125l4.3125 -17.03125l1.125 0l4.3125 17.03125l0.0625 0.828125l0.078125 -0.828125l4.375 -17.03125l2.015625 0l-5.921875 22.40625zm19.171875 -4.390625q0 0.96875 -0.375 1.828125q-0.359375 0.859375 -1.0 1.5q-0.640625 0.640625 -1.5 1.015625q-0.859375 0.359375 -1.828125 0.359375l-1.28125 0q-0.96875 0 -1.828125 -0.359375q-0.859375 -0.375 -1.5 -1.015625q-0.640625 -0.640625 -1.015625 -1.5q-0.359375 -0.859375 -0.359375 -1.828125l0 -7.21875q0 -0.96875 0.359375 -1.828125q0.375 -0.859375 1.015625 -1.5q0.640625 -0.640625 1.5 -1.0q0.859375 -0.375 1.828125 -0.375l1.28125 0q0.96875 0 1.828125 0.375q0.859375 0.359375 1.5 1.0q0.640625 0.640625 1.0 1.5q0.375 0.859375 0.375 1.828125l0 7.21875l0 0zm-1.921875 -7.328125q0 -0.578125 -0.21875 -1.078125q-0.21875 -0.515625 -0.59375 -0.890625q-0.375 -0.375 -0.890625 -0.59375q-0.5 -0.21875 -1.078125 -0.21875l-1.28125 0q-0.578125 0 -1.09375 0.21875q-0.5 0.21875 -0.875 0.59375q-0.375 0.375 -0.59375 0.890625q-0.21875 0.5 -0.21875 1.078125l0 7.4375q0 0.578125 0.21875 1.09375q0.21875 0.5 0.59375 0.875q0.375 0.375 0.875 0.59375q0.515625 0.21875 1.09375 0.21875l1.28125 0q0.578125 0 1.078125 -0.21875q0.515625 -0.21875 0.890625 -0.59375q0.375 -0.375 0.59375 -0.875q0.21875 -0.515625 0.21875 -1.09375l0 -7.4375zm10.46875 -2.453125q-0.578125 0 -1.09375 0.21875q-0.5 0.21875 -0.875 0.59375q-0.375 0.375 -0.59375 0.890625q-0.21875 0.5 -0.21875 1.078125l0 11.390625l-1.921875 0l0 -16.0l0.640625 0l1.046875 1.625q0.65625 -0.890625 1.640625 -1.40625q1.0 -0.53125 2.171875 -0.53125l1.125 0l0 2.140625l-1.921875 0zm14.53125 14.171875l-1.0625 -1.625q-0.65625 0.890625 -1.640625 1.421875q-0.984375 0.515625 -2.15625 0.515625l-0.484375 0q-0.96875 0 -1.828125 -0.359375q-0.859375 -0.375 -1.5 -1.015625q-0.640625 -0.640625 -1.015625 -1.5q-0.359375 -0.859375 -0.359375 -1.828125l0 -7.21875q0 -0.96875 0.359375 -1.828125q0.375 -0.859375 1.015625 -1.5q0.640625 -0.640625 1.5 -1.0q0.859375 -0.375 1.828125 -0.375l0.484375 0q1.078125 0 2.0 0.4375q0.921875 0.4375 1.578125 1.21875l0 -7.75l1.921875 0l0 22.40625l-0.640625 0zm-1.28125 -11.71875q0 -0.578125 -0.21875 -1.078125q-0.21875 -0.515625 -0.59375 -0.890625q-0.375 -0.375 -0.890625 -0.59375q-0.5 -0.21875 -1.078125 -0.21875l-1.28125 0q-0.578125 0 -1.09375 0.21875q-0.5 0.21875 -0.875 0.59375q-0.375 0.375 -0.59375 0.890625q-0.21875 0.5 -0.21875 1.078125l0 7.4375q0 0.578125 0.21875 1.09375q0.21875 0.5 0.59375 0.875q0.375 0.375 0.875 0.59375q0.515625 0.21875 1.09375 0.21875l1.28125 0q0.578125 0 1.078125 -0.21875q0.515625 -0.21875 0.890625 -0.59375q0.375 -0.375 0.59375 -0.875q0.21875 -0.515625 0.21875 -1.09375l0 -7.4375zm23.8125 7.328125q0 0.96875 -0.375 1.828125q-0.359375 0.859375 -1.0 1.5q-0.640625 0.640625 -1.5 1.015625q-0.859375 0.359375 -1.828125 0.359375l-1.28125 0q-0.96875 0 -1.828125 -0.359375q-0.859375 -0.375 -1.5 -1.015625q-0.640625 -0.640625 -1.015625 -1.5q-0.359375 -0.859375 -0.359375 -1.828125l0 -18.015625l1.921875 0l0 7.75q0.65625 -0.78125 1.578125 -1.21875q0.921875 -0.4375 2.0 -0.4375l0.484375 0q0.96875 0 1.828125 0.375q0.859375 0.359375 1.5 1.0q0.640625 0.640625 1.0 1.5q0.375 0.859375 0.375 1.828125l0 7.21875l0 0zm-1.921875 -7.328125q0 -0.578125 -0.21875 -1.078125q-0.21875 -0.515625 -0.59375 -0.890625q-0.375 -0.375 -0.890625 -0.59375q-0.5 -0.21875 -1.078125 -0.21875l-1.28125 0q-0.578125 0 -1.09375 0.21875q-0.5 0.21875 -0.875 0.59375q-0.375 0.375 -0.59375 0.890625q-0.21875 0.5 -0.21875 1.078125l0 7.4375q0 0.578125 0.21875 1.09375q0.21875 0.5 0.59375 0.875q0.375 0.375 0.875 0.59375q0.515625 0.21875 1.09375 0.21875l1.28125 0q0.578125 0 1.078125 -0.21875q0.515625 -0.21875 0.890625 -0.59375q0.375 -0.375 0.59375 -0.875q0.21875 -0.515625 0.21875 -1.09375l0 -7.4375zm15.8125 11.71875l-1.0625 -1.59375q-0.65625 0.859375 -1.640625 1.390625q-0.984375 0.515625 -2.15625 0.515625l-0.484375 0q-0.96875 0 -1.828125 -0.359375q-0.859375 -0.375 -1.5 -1.015625q-0.640625 -0.640625 -1.015625 -1.5q-0.359375 -0.859375 -0.359375 -1.828125l0 -0.15625q0 -0.96875 0.359375 -1.828125q0.375 -0.859375 1.015625 -1.5q0.640625 -0.640625 1.5 -1.0q0.859375 -0.375 1.828125 -0.375l4.0625 0l0 -2.46875q0 -0.578125 -0.21875 -1.078125q-0.21875 -0.515625 -0.59375 -0.890625q-0.375 -0.375 -0.890625 -0.59375q-0.5 -0.21875 -1.078125 -0.21875l-1.125 0q-0.578125 0 -1.09375 0.21875q-0.5 0.21875 -0.875 0.59375q-0.375 0.375 -0.59375 0.890625q-0.21875 0.5 -0.21875 1.078125l0 0.578125l-1.921875 -0.3125l0 -0.15625q0 -0.96875 0.359375 -1.828125q0.375 -0.859375 1.015625 -1.5q0.640625 -0.640625 1.5 -1.0q0.859375 -0.375 1.828125 -0.375l1.125 0q0.96875 0 1.828125 0.375q0.859375 0.359375 1.5 1.0q0.640625 0.640625 1.0 1.5q0.375 0.859375 0.375 1.828125l0 11.609375l-0.640625 0zm-1.28125 -7.75l-4.0625 0q-0.578125 0 -1.09375 0.21875q-0.5 0.21875 -0.875 0.609375q-0.375 0.375 -0.59375 0.890625q-0.21875 0.5 -0.21875 1.078125l0 0.671875q0 0.578125 0.21875 1.09375q0.21875 0.5 0.59375 0.875q0.375 0.375 0.875 0.59375q0.515625 0.21875 1.09375 0.21875l1.28125 0q0.578125 0 1.078125 -0.21875q0.515625 -0.21875 0.890625 -0.59375q0.375 -0.375 0.59375 -0.875q0.21875 -0.515625 0.21875 -1.09375l0 -3.46875zm16.765625 3.6875q0 0.96875 -0.390625 1.78125q-0.390625 0.796875 -1.0625 1.375q-0.671875 0.578125 -1.5625 0.90625q-0.875 0.3125 -1.84375 0.3125l-1.28125 0q-0.96875 0 -1.859375 -0.359375q-0.875 -0.375 -1.546875 -1.015625q-0.65625 -0.640625 -1.0625 -1.5q-0.390625 -0.859375 -0.390625 -1.828125l0 -0.640625l1.921875 -0.3125l0 1.0625q0 0.578125 0.234375 1.09375q0.25 0.5 0.65625 0.875q0.40625 0.375 0.9375 0.59375q0.53125 0.21875 1.109375 0.21875l1.28125 0q0.578125 0 1.109375 -0.171875q0.53125 -0.171875 0.9375 -0.484375q0.421875 -0.328125 0.65625 -0.78125q0.25 -0.453125 0.25 -1.03125q0 -0.859375 -0.375 -1.40625q-0.375 -0.546875 -1.0 -0.90625q-0.609375 -0.375 -1.40625 -0.609375q-0.78125 -0.25 -1.609375 -0.484375q-0.828125 -0.25 -1.625 -0.5625q-0.78125 -0.3125 -1.40625 -0.8125q-0.609375 -0.515625 -0.984375 -1.28125q-0.375 -0.765625 -0.375 -1.90625q0 -0.96875 0.375 -1.765625q0.375 -0.8125 1.015625 -1.390625q0.640625 -0.578125 1.484375 -0.890625q0.859375 -0.328125 1.828125 -0.328125l1.125 0q0.96875 0 1.828125 0.375q0.859375 0.359375 1.5 1.0q0.640625 0.640625 1.0 1.5q0.375 0.859375 0.375 1.828125l0 0.0625l-1.921875 0.3125l0 -0.484375q0 -0.578125 -0.21875 -1.078125q-0.21875 -0.515625 -0.59375 -0.890625q-0.375 -0.375 -0.890625 -0.59375q-0.5 -0.21875 -1.078125 -0.21875l-1.125 0q-0.578125 0 -1.09375 0.171875q-0.5 0.171875 -0.875 0.5q-0.375 0.3125 -0.59375 0.765625q-0.21875 0.453125 -0.21875 1.03125q0 0.828125 0.375 1.359375q0.375 0.515625 0.984375 0.875q0.625 0.359375 1.40625 0.609375q0.796875 0.234375 1.609375 0.5q0.828125 0.25 1.609375 0.578125q0.796875 0.328125 1.40625 0.84375q0.625 0.515625 1.0 1.296875q0.375 0.765625 0.375 1.90625zm14.375 -0.328125q0 0.96875 -0.375 1.828125q-0.359375 0.859375 -1.0 1.5q-0.640625 0.640625 -1.5 1.015625q-0.859375 0.359375 -1.828125 0.359375l-1.28125 0q-0.96875 0 -1.828125 -0.359375q-0.859375 -0.375 -1.5 -1.015625q-0.640625 -0.640625 -1.015625 -1.5q-0.359375 -0.859375 -0.359375 -1.828125l0 -7.21875q0 -0.96875 0.359375 -1.828125q0.375 -0.859375 1.015625 -1.5q0.640625 -0.640625 1.5 -1.0q0.859375 -0.375 1.828125 -0.375l1.28125 0q0.96875 0 1.828125 0.375q0.859375 0.359375 1.5 1.0q0.640625 0.640625 1.0 1.5q0.375 0.859375 0.375 1.828125l0 3.765625l-8.765625 0l0 3.5625q0 0.578125 0.21875 1.09375q0.21875 0.5 0.59375 0.875q0.375 0.375 0.875 0.59375q0.515625 0.21875 1.09375 0.21875l1.28125 0q0.578125 0 1.078125 -0.21875q0.515625 -0.21875 0.890625 -0.59375q0.375 -0.375 0.59375 -0.875q0.21875 -0.515625 0.21875 -1.09375l0 -1.0625l1.921875 0.3125l0 0.640625l0 0zm-1.921875 -7.328125q0 -0.578125 -0.21875 -1.078125q-0.21875 -0.515625 -0.59375 -0.890625q-0.375 -0.375 -0.890625 -0.59375q-0.5 -0.21875 -1.078125 -0.21875l-1.28125 0q-0.578125 0 -1.09375 0.21875q-0.5 0.21875 -0.875 0.59375q-0.375 0.375 -0.59375 0.890625q-0.21875 0.5 -0.21875 1.078125l0 2.375l6.84375 0l0 -2.375zm15.8125 11.71875l-1.0625 -1.625q-0.65625 0.890625 -1.640625 1.421875q-0.984375 0.515625 -2.15625 0.515625l-0.484375 0q-0.96875 0 -1.828125 -0.359375q-0.859375 -0.375 -1.5 -1.015625q-0.640625 -0.640625 -1.015625 -1.5q-0.359375 -0.859375 -0.359375 -1.828125l0 -7.21875q0 -0.96875 0.359375 -1.828125q0.375 -0.859375 1.015625 -1.5q0.640625 -0.640625 1.5 -1.0q0.859375 -0.375 1.828125 -0.375l0.484375 0q1.078125 0 2.0 0.4375q0.921875 0.4375 1.578125 1.21875l0 -7.75l1.921875 0l0 22.40625l-0.640625 0zm-1.28125 -11.71875q0 -0.578125 -0.21875 -1.078125q-0.21875 -0.515625 -0.59375 -0.890625q-0.375 -0.375 -0.890625 -0.59375q-0.5 -0.21875 -1.078125 -0.21875l-1.28125 0q-0.578125 0 -1.09375 0.21875q-0.5 0.21875 -0.875 0.59375q-0.375 0.375 -0.59375 0.890625q-0.21875 0.5 -0.21875 1.078125l0 7.4375q0 0.578125 0.21875 1.09375q0.21875 0.5 0.59375 0.875q0.375 0.375 0.875 0.59375q0.515625 0.21875 1.09375 0.21875l1.28125 0q0.578125 0 1.078125 -0.21875q0.515625 -0.21875 0.890625 -0.59375q0.375 -0.375 0.59375 -0.875q0.21875 -0.515625 0.21875 -1.09375l0 -7.4375zm13.765625 11.71875l0 -22.40625l1.921875 0l0 22.40625l-1.921875 0zm17.09375 -4.390625q0 0.96875 -0.375 1.828125q-0.359375 0.859375 -1.0 1.5q-0.640625 0.640625 -1.5 1.015625q-0.859375 0.359375 -1.828125 0.359375l-1.28125 0q-0.96875 0 -1.828125 -0.359375q-0.859375 -0.375 -1.5 -1.015625q-0.640625 -0.640625 -1.015625 -1.5q-0.359375 -0.859375 -0.359375 -1.828125l0 -7.21875q0 -0.96875 0.359375 -1.828125q0.375 -0.859375 1.015625 -1.5q0.640625 -0.640625 1.5 -1.0q0.859375 -0.375 1.828125 -0.375l1.28125 0q0.96875 0 1.828125 0.375q0.859375 0.359375 1.5 1.0q0.640625 0.640625 1.0 1.5q0.375 0.859375 0.375 1.828125l0 7.21875l0 0zm-1.921875 -7.328125q0 -0.578125 -0.21875 -1.078125q-0.21875 -0.515625 -0.59375 -0.890625q-0.375 -0.375 -0.890625 -0.59375q-0.5 -0.21875 -1.078125 -0.21875l-1.28125 0q-0.578125 0 -1.09375 0.21875q-0.5 0.21875 -0.875 0.59375q-0.375 0.375 -0.59375 0.890625q-0.21875 0.5 -0.21875 1.078125l0 7.4375q0 0.578125 0.21875 1.09375q0.21875 0.5 0.59375 0.875q0.375 0.375 0.875 0.59375q0.515625 0.21875 1.09375 0.21875l1.28125 0q0.578125 0 1.078125 -0.21875q0.515625 -0.21875 0.890625 -0.59375q0.375 -0.375 0.59375 -0.875q0.21875 -0.515625 0.21875 -1.09375l0 -7.4375zm16.453125 7.328125q0 0.96875 -0.375 1.828125q-0.359375 0.859375 -1.0 1.5q-0.640625 0.640625 -1.5 1.015625q-0.859375 0.359375 -1.828125 0.359375l-1.28125 0q-0.96875 0 -1.828125 -0.359375q-0.859375 -0.375 -1.5 -1.015625q-0.640625 -0.640625 -1.015625 -1.5q-0.359375 -0.859375 -0.359375 -1.828125l0 -7.21875q0 -0.96875 0.359375 -1.828125q0.375 -0.859375 1.015625 -1.5q0.640625 -0.640625 1.5 -1.0q0.859375 -0.375 1.828125 -0.375l1.28125 0q0.96875 0 1.828125 0.375q0.859375 0.359375 1.5 1.0q0.640625 0.640625 1.0 1.5q0.375 0.859375 0.375 1.828125l0 0.640625l-1.921875 0.3125l0 -1.0625q0 -0.578125 -0.21875 -1.078125q-0.21875 -0.515625 -0.59375 -0.890625q-0.375 -0.375 -0.890625 -0.59375q-0.5 -0.21875 -1.078125 -0.21875l-1.28125 0q-0.578125 0 -1.09375 0.21875q-0.5 0.21875 -0.875 0.59375q-0.375 0.375 -0.59375 0.890625q-0.21875 0.5 -0.21875 1.078125l0 7.4375q0 0.578125 0.21875 1.09375q0.21875 0.5 0.59375 0.875q0.375 0.375 0.875 0.59375q0.515625 0.21875 1.09375 0.21875l1.28125 0q0.578125 0 1.078125 -0.21875q0.515625 -0.21875 0.890625 -0.59375q0.375 -0.375 0.59375 -0.875q0.21875 -0.515625 0.21875 -1.09375l0 -1.0625l1.921875 0.3125l0 0.640625l0 0zm13.890625 4.390625l-1.0625 -1.59375q-0.65625 0.859375 -1.640625 1.390625q-0.984375 0.515625 -2.15625 0.515625l-0.484375 0q-0.96875 0 -1.828125 -0.359375q-0.859375 -0.375 -1.5 -1.015625q-0.640625 -0.640625 -1.015625 -1.5q-0.359375 -0.859375 -0.359375 -1.828125l0 -0.15625q0 -0.96875 0.359375 -1.828125q0.375 -0.859375 1.015625 -1.5q0.640625 -0.640625 1.5 -1.0q0.859375 -0.375 1.828125 -0.375l4.0625 0l0 -2.46875q0 -0.578125 -0.21875 -1.078125q-0.21875 -0.515625 -0.59375 -0.890625q-0.375 -0.375 -0.890625 -0.59375q-0.5 -0.21875 -1.078125 -0.21875l-1.125 0q-0.578125 0 -1.09375 0.21875q-0.5 0.21875 -0.875 0.59375q-0.375 0.375 -0.59375 0.890625q-0.21875 0.5 -0.21875 1.078125l0 0.578125l-1.921875 -0.3125l0 -0.15625q0 -0.96875 0.359375 -1.828125q0.375 -0.859375 1.015625 -1.5q0.640625 -0.640625 1.5 -1.0q0.859375 -0.375 1.828125 -0.375l1.125 0q0.96875 0 1.828125 0.375q0.859375 0.359375 1.5 1.0q0.640625 0.640625 1.0 1.5q0.375 0.859375 0.375 1.828125l0 11.609375l-0.640625 0zm-1.28125 -7.75l-4.0625 0q-0.578125 0 -1.09375 0.21875q-0.5 0.21875 -0.875 0.609375q-0.375 0.375 -0.59375 0.890625q-0.21875 0.5 -0.21875 1.078125l0 0.671875q0 0.578125 0.21875 1.09375q0.21875 0.5 0.59375 0.875q0.375 0.375 0.875 0.59375q0.515625 0.21875 1.09375 0.21875l1.28125 0q0.578125 0 1.078125 -0.21875q0.515625 -0.21875 0.890625 -0.59375q0.375 -0.375 0.59375 -0.875q0.21875 -0.515625 0.21875 -1.09375l0 -3.46875zm11.59375 7.75q-0.875 0 -1.65625 -0.328125q-0.765625 -0.328125 -1.34375 -0.90625q-0.5625 -0.578125 -0.90625 -1.34375q-0.328125 -0.765625 -0.328125 -1.640625l0 -9.953125l-2.875 0l0 -1.828125l2.875 0l0 -3.84375l1.921875 -0.3125l0 4.15625l4.0625 0l0 1.828125l-4.0625 0l0 10.046875q0 0.484375 0.171875 0.90625q0.1875 0.40625 0.5 0.71875q0.3125 0.3125 0.734375 0.5q0.421875 0.171875 0.90625 0.171875l1.75 0l0 1.828125l-1.75 0zm5.765625 -19.84375l0 -2.5625l2.234375 0l0 2.5625l-2.234375 0zm0.15625 19.84375l0 -16.0l1.921875 0l0 16.0l-1.921875 0zm17.09375 -4.390625q0 0.96875 -0.375 1.828125q-0.359375 0.859375 -1.0 1.5q-0.640625 0.640625 -1.5 1.015625q-0.859375 0.359375 -1.828125 0.359375l-1.28125 0q-0.96875 0 -1.828125 -0.359375q-0.859375 -0.375 -1.5 -1.015625q-0.640625 -0.640625 -1.015625 -1.5q-0.359375 -0.859375 -0.359375 -1.828125l0 -7.21875q0 -0.96875 0.359375 -1.828125q0.375 -0.859375 1.015625 -1.5q0.640625 -0.640625 1.5 -1.0q0.859375 -0.375 1.828125 -0.375l1.28125 0q0.96875 0 1.828125 0.375q0.859375 0.359375 1.5 1.0q0.640625 0.640625 1.0 1.5q0.375 0.859375 0.375 1.828125l0 7.21875l0 0zm-1.921875 -7.328125q0 -0.578125 -0.21875 -1.078125q-0.21875 -0.515625 -0.59375 -0.890625q-0.375 -0.375 -0.890625 -0.59375q-0.5 -0.21875 -1.078125 -0.21875l-1.28125 0q-0.578125 0 -1.09375 0.21875q-0.5 0.21875 -0.875 0.59375q-0.375 0.375 -0.59375 0.890625q-0.21875 0.5 -0.21875 1.078125l0 7.4375q0 0.578125 0.21875 1.09375q0.21875 0.5 0.59375 0.875q0.375 0.375 0.875 0.59375q0.515625 0.21875 1.09375 0.21875l1.28125 0q0.578125 0 1.078125 -0.21875q0.515625 -0.21875 0.890625 -0.59375q0.375 -0.375 0.59375 -0.875q0.21875 -0.515625 0.21875 -1.09375l0 -7.4375zm14.53125 11.71875l0 -11.71875q0 -0.578125 -0.21875 -1.078125q-0.21875 -0.515625 -0.59375 -0.890625q-0.375 -0.375 -0.890625 -0.59375q-0.5 -0.21875 -1.078125 -0.21875l-1.28125 0q-0.578125 0 -1.09375 0.21875q-0.5 0.21875 -0.875 0.59375q-0.375 0.375 -0.59375 0.890625q-0.21875 0.5 -0.21875 1.078125l0 11.71875l-1.921875 0l0 -16.0l0.640625 0l1.046875 1.625q0.65625 -0.890625 1.640625 -1.40625q1.0 -0.53125 2.171875 -0.53125l0.484375 0q0.96875 0 1.828125 0.375q0.859375 0.359375 1.5 1.0q0.640625 0.640625 1.0 1.5q0.375 0.859375 0.375 1.828125l0 11.609375l-1.921875 0zm23.8125 -4.390625q0 0.96875 -0.375 1.828125q-0.359375 0.859375 -1.0 1.5q-0.640625 0.640625 -1.5 1.015625q-0.859375 0.359375 -1.828125 0.359375l-1.28125 0q-0.96875 0 -1.828125 -0.359375q-0.859375 -0.375 -1.5 -1.015625q-0.640625 -0.640625 -1.015625 -1.5q-0.359375 -0.859375 -0.359375 -1.828125l0 -7.21875q0 -0.96875 0.359375 -1.828125q0.375 -0.859375 1.015625 -1.5q0.640625 -0.640625 1.5 -1.0q0.859375 -0.375 1.828125 -0.375l1.28125 0q0.96875 0 1.828125 0.375q0.859375 0.359375 1.5 1.0q0.640625 0.640625 1.0 1.5q0.375 0.859375 0.375 1.828125l0 0.640625l-1.921875 0.3125l0 -1.0625q0 -0.578125 -0.21875 -1.078125q-0.21875 -0.515625 -0.59375 -0.890625q-0.375 -0.375 -0.890625 -0.59375q-0.5 -0.21875 -1.078125 -0.21875l-1.28125 0q-0.578125 0 -1.09375 0.21875q-0.5 0.21875 -0.875 0.59375q-0.375 0.375 -0.59375 0.890625q-0.21875 0.5 -0.21875 1.078125l0 7.4375q0 0.578125 0.21875 1.09375q0.21875 0.5 0.59375 0.875q0.375 0.375 0.875 0.59375q0.515625 0.21875 1.09375 0.21875l1.28125 0q0.578125 0 1.078125 -0.21875q0.515625 -0.21875 0.890625 -0.59375q0.375 -0.375 0.59375 -0.875q0.21875 -0.515625 0.21875 -1.09375l0 -1.0625l1.921875 0.3125l0 0.640625l0 0zm14.53125 0q0 0.96875 -0.375 1.828125q-0.359375 0.859375 -1.0 1.5q-0.640625 0.640625 -1.5 1.015625q-0.859375 0.359375 -1.828125 0.359375l-1.28125 0q-0.96875 0 -1.828125 -0.359375q-0.859375 -0.375 -1.5 -1.015625q-0.640625 -0.640625 -1.015625 -1.5q-0.359375 -0.859375 -0.359375 -1.828125l0 -7.21875q0 -0.96875 0.359375 -1.828125q0.375 -0.859375 1.015625 -1.5q0.640625 -0.640625 1.5 -1.0q0.859375 -0.375 1.828125 -0.375l1.28125 0q0.96875 0 1.828125 0.375q0.859375 0.359375 1.5 1.0q0.640625 0.640625 1.0 1.5q0.375 0.859375 0.375 1.828125l0 7.21875l0 0zm-1.921875 -7.328125q0 -0.578125 -0.21875 -1.078125q-0.21875 -0.515625 -0.59375 -0.890625q-0.375 -0.375 -0.890625 -0.59375q-0.5 -0.21875 -1.078125 -0.21875l-1.28125 0q-0.578125 0 -1.09375 0.21875q-0.5 0.21875 -0.875 0.59375q-0.375 0.375 -0.59375 0.890625q-0.21875 0.5 -0.21875 1.078125l0 7.4375q0 0.578125 0.21875 1.09375q0.21875 0.5 0.59375 0.875q0.375 0.375 0.875 0.59375q0.515625 0.21875 1.09375 0.21875l1.28125 0q0.578125 0 1.078125 -0.21875q0.515625 -0.21875 0.890625 -0.59375q0.375 -0.375 0.59375 -0.875q0.21875 -0.515625 0.21875 -1.09375l0 -7.4375zm15.8125 11.71875l-1.0625 -1.625q-0.65625 0.890625 -1.640625 1.421875q-0.984375 0.515625 -2.15625 0.515625l-0.484375 0q-0.96875 0 -1.828125 -0.359375q-0.859375 -0.375 -1.5 -1.015625q-0.640625 -0.640625 -1.015625 -1.5q-0.359375 -0.859375 -0.359375 -1.828125l0 -7.21875q0 -0.96875 0.359375 -1.828125q0.375 -0.859375 1.015625 -1.5q0.640625 -0.640625 1.5 -1.0q0.859375 -0.375 1.828125 -0.375l0.484375 0q1.078125 0 2.0 0.4375q0.921875 0.4375 1.578125 1.21875l0 -7.75l1.921875 0l0 22.40625l-0.640625 0zm-1.28125 -11.71875q0 -0.578125 -0.21875 -1.078125q-0.21875 -0.515625 -0.59375 -0.890625q-0.375 -0.375 -0.890625 -0.59375q-0.5 -0.21875 -1.078125 -0.21875l-1.28125 0q-0.578125 0 -1.09375 0.21875q-0.5 0.21875 -0.875 0.59375q-0.375 0.375 -0.59375 0.890625q-0.21875 0.5 -0.21875 1.078125l0 7.4375q0 0.578125 0.21875 1.09375q0.21875 0.5 0.59375 0.875q0.375 0.375 0.875 0.59375q0.515625 0.21875 1.09375 0.21875l1.28125 0q0.578125 0 1.078125 -0.21875q0.515625 -0.21875 0.890625 -0.59375q0.375 -0.375 0.59375 -0.875q0.21875 -0.515625 0.21875 -1.09375l0 -7.4375zm16.453125 7.328125q0 0.96875 -0.375 1.828125q-0.359375 0.859375 -1.0 1.5q-0.640625 0.640625 -1.5 1.015625q-0.859375 0.359375 -1.828125 0.359375l-1.28125 0q-0.96875 0 -1.828125 -0.359375q-0.859375 -0.375 -1.5 -1.015625q-0.640625 -0.640625 -1.015625 -1.5q-0.359375 -0.859375 -0.359375 -1.828125l0 -7.21875q0 -0.96875 0.359375 -1.828125q0.375 -0.859375 1.015625 -1.5q0.640625 -0.640625 1.5 -1.0q0.859375 -0.375 1.828125 -0.375l1.28125 0q0.96875 0 1.828125 0.375q0.859375 0.359375 1.5 1.0q0.640625 0.640625 1.0 1.5q0.375 0.859375 0.375 1.828125l0 3.765625l-8.765625 0l0 3.5625q0 0.578125 0.21875 1.09375q0.21875 0.5 0.59375 0.875q0.375 0.375 0.875 0.59375q0.515625 0.21875 1.09375 0.21875l1.28125 0q0.578125 0 1.078125 -0.21875q0.515625 -0.21875 0.890625 -0.59375q0.375 -0.375 0.59375 -0.875q0.21875 -0.515625 0.21875 -1.09375l0 -1.0625l1.921875 0.3125l0 0.640625l0 0zm-1.921875 -7.328125q0 -0.578125 -0.21875 -1.078125q-0.21875 -0.515625 -0.59375 -0.890625q-0.375 -0.375 -0.890625 -0.59375q-0.5 -0.21875 -1.078125 -0.21875l-1.28125 0q-0.578125 0 -1.09375 0.21875q-0.5 0.21875 -0.875 0.59375q-0.375 0.375 -0.59375 0.890625q-0.21875 0.5 -0.21875 1.078125l0 2.375l6.84375 0l0 -2.375zm16.765625 7.65625q0 0.96875 -0.390625 1.78125q-0.390625 0.796875 -1.0625 1.375q-0.671875 0.578125 -1.5625 0.90625q-0.875 0.3125 -1.84375 0.3125l-1.28125 0q-0.96875 0 -1.859375 -0.359375q-0.875 -0.375 -1.546875 -1.015625q-0.65625 -0.640625 -1.0625 -1.5q-0.390625 -0.859375 -0.390625 -1.828125l0 -0.640625l1.921875 -0.3125l0 1.0625q0 0.578125 0.234375 1.09375q0.25 0.5 0.65625 0.875q0.40625 0.375 0.9375 0.59375q0.53125 0.21875 1.109375 0.21875l1.28125 0q0.578125 0 1.109375 -0.171875q0.53125 -0.171875 0.9375 -0.484375q0.421875 -0.328125 0.65625 -0.78125q0.25 -0.453125 0.25 -1.03125q0 -0.859375 -0.375 -1.40625q-0.375 -0.546875 -1.0 -0.90625q-0.609375 -0.375 -1.40625 -0.609375q-0.78125 -0.25 -1.609375 -0.484375q-0.828125 -0.25 -1.625 -0.5625q-0.78125 -0.3125 -1.40625 -0.8125q-0.609375 -0.515625 -0.984375 -1.28125q-0.375 -0.765625 -0.375 -1.90625q0 -0.96875 0.375 -1.765625q0.375 -0.8125 1.015625 -1.390625q0.640625 -0.578125 1.484375 -0.890625q0.859375 -0.328125 1.828125 -0.328125l1.125 0q0.96875 0 1.828125 0.375q0.859375 0.359375 1.5 1.0q0.640625 0.640625 1.0 1.5q0.375 0.859375 0.375 1.828125l0 0.0625l-1.921875 0.3125l0 -0.484375q0 -0.578125 -0.21875 -1.078125q-0.21875 -0.515625 -0.59375 -0.890625q-0.375 -0.375 -0.890625 -0.59375q-0.5 -0.21875 -1.078125 -0.21875l-1.125 0q-0.578125 0 -1.09375 0.171875q-0.5 0.171875 -0.875 0.5q-0.375 0.3125 -0.59375 0.765625q-0.21875 0.453125 -0.21875 1.03125q0 0.828125 0.375 1.359375q0.375 0.515625 0.984375 0.875q0.625 0.359375 1.40625 0.609375q0.796875 0.234375 1.609375 0.5q0.828125 0.25 1.609375 0.578125q0.796875 0.328125 1.40625 0.84375q0.625 0.515625 1.0 1.296875q0.375 0.765625 0.375 1.90625z" fill-rule="nonzero"/><path fill="#000000" fill-opacity="0.0" d="m336.40945 178.22835l148.34647 0l0 59.055115l-148.34647 0z" fill-rule="evenodd"/><path fill="#f3f3f3" d="m369.67508 224.5271q0 1.90625 -0.71875 3.59375q-0.71875 1.6875 -1.984375 2.953125q-1.25 1.25 -2.9375 1.984375q-1.6875 0.71875 -3.609375 0.71875l-2.390625 0q-1.90625 0 -3.609375 -0.71875q-1.703125 -0.734375 -2.96875 -1.984375q-1.25 -1.265625 -1.96875 -2.953125q-0.71875 -1.6875 -0.71875 -3.59375l0 -18.046875q0 -1.921875 0.71875 -3.609375q0.71875 -1.6875 1.984375 -2.9375q1.265625 -1.265625 2.953125 -1.984375q1.703125 -0.71875 3.609375 -0.71875l2.390625 0q1.921875 0 3.609375 0.71875q1.6875 0.71875 2.9375 1.984375q1.265625 1.25 1.984375 2.9375q0.71875 1.6875 0.71875 3.609375l0 2.21875l-5.015625 0.78125l0 -3.0q0 -0.921875 -0.34375 -1.703125q-0.34375 -0.796875 -0.9375 -1.390625q-0.59375 -0.59375 -1.390625 -0.9375q-0.78125 -0.34375 -1.703125 -0.34375l-2.109375 0q-0.921875 0 -1.71875 0.34375q-0.78125 0.34375 -1.390625 0.9375q-0.59375 0.59375 -0.9375 1.390625q-0.34375 0.78125 -0.34375 1.703125l0 18.046875q0 0.921875 0.34375 1.703125q0.34375 0.78125 0.953125 1.390625q0.609375 0.609375 1.390625 0.953125q0.78125 0.34375 1.703125 0.34375l2.109375 0q0.921875 0 1.703125 -0.34375q0.796875 -0.34375 1.390625 -0.9375q0.59375 -0.609375 0.9375 -1.390625q0.34375 -0.796875 0.34375 -1.71875l0 -3.0l5.015625 0.796875l0 2.203125l0 0zm25.148438 0q0 1.90625 -0.71875 3.59375q-0.71875 1.6875 -1.984375 2.953125q-1.25 1.25 -2.9375 1.984375q-1.6875 0.71875 -3.609375 0.71875l-2.390625 0q-1.90625 0 -3.609375 -0.71875q-1.703125 -0.734375 -2.96875 -1.984375q-1.25 -1.265625 -1.96875 -2.953125q-0.71875 -1.6875 -0.71875 -3.59375l0 -18.046875q0 -1.921875 0.71875 -3.609375q0.71875 -1.6875 1.984375 -2.9375q1.265625 -1.265625 2.953125 -1.984375q1.703125 -0.71875 3.609375 -0.71875l2.390625 0q1.921875 0 3.609375 0.71875q1.6875 0.71875 2.9375 1.984375q1.265625 1.25 1.984375 2.9375q0.71875 1.6875 0.71875 3.609375l0 18.046875l0 0zm-5.015625 -18.046875q0 -0.921875 -0.34375 -1.703125q-0.34375 -0.796875 -0.9375 -1.390625q-0.59375 -0.59375 -1.390625 -0.9375q-0.78125 -0.34375 -1.703125 -0.34375l-2.109375 0q-0.921875 0 -1.71875 0.34375q-0.78125 0.34375 -1.390625 0.9375q-0.59375 0.59375 -0.9375 1.390625q-0.34375 0.78125 -0.34375 1.703125l0 18.046875q0 0.921875 0.34375 1.703125q0.34375 0.78125 0.953125 1.390625q0.609375 0.609375 1.390625 0.953125q0.78125 0.34375 1.703125 0.34375l2.109375 0q0.921875 0 1.703125 -0.34375q0.796875 -0.34375 1.390625 -0.9375q0.59375 -0.609375 0.9375 -1.390625q0.34375 -0.796875 0.34375 -1.71875l0 -18.046875zm31.15625 17.578125q0 1.90625 -0.734375 3.59375q-0.71875 1.6875 -1.984375 2.953125q-1.25 1.25 -2.953125 1.984375q-1.6875 0.71875 -3.609375 0.71875l-11.640625 0l0 -35.609375l11.640625 0q1.921875 0 3.609375 0.71875q1.6875 0.71875 2.953125 1.984375q1.265625 1.25 1.984375 2.953125q0.734375 1.703125 0.734375 3.609375l0 17.09375l0 0zm-5.03125 -17.09375q0 -0.921875 -0.34375 -1.703125q-0.34375 -0.78125 -0.953125 -1.390625q-0.59375 -0.609375 -1.390625 -0.953125q-0.78125 -0.34375 -1.703125 -0.34375l-6.46875 0l0 25.84375l6.46875 0q0.921875 0 1.71875 -0.34375q0.796875 -0.34375 1.390625 -0.9375q0.59375 -0.59375 0.9375 -1.375q0.34375 -0.78125 0.34375 -1.703125l0 -17.09375zm10.21875 26.34375l0 -35.609375l20.921875 0l0 4.875l-15.890625 0l0 10.5l12.859375 0l0 4.875l-12.859375 0l0 10.46875l15.890625 0l0 4.890625l-20.921875 0zm45.101562 -8.78125q0 1.921875 -0.78125 3.609375q-0.765625 1.6875 -2.0625 2.9375q-1.296875 1.25 -3.015625 1.984375q-1.703125 0.71875 -3.625 0.71875l-2.40625 0q-1.921875 0 -3.640625 -0.71875q-1.703125 -0.734375 -3.0 -1.984375q-1.296875 -1.25 -2.078125 -2.9375q-0.765625 -1.6875 -0.765625 -3.609375l0 -2.203125l5.015625 -0.796875l0 3.0q0 0.90625 0.375 1.6875q0.375 0.78125 1.015625 1.40625q0.640625 0.609375 1.46875 0.953125q0.84375 0.34375 1.765625 0.34375l2.109375 0q0.921875 0 1.75 -0.34375q0.828125 -0.34375 1.46875 -0.953125q0.640625 -0.625 1.015625 -1.40625q0.375 -0.78125 0.375 -1.6875l0 -1.015625q0 -1.453125 -0.5625 -2.390625q-0.546875 -0.953125 -1.546875 -1.65625q-0.984375 -0.703125 -2.34375 -1.234375q-1.359375 -0.546875 -2.875 -1.109375q-1.515625 -0.578125 -3.015625 -1.296875q-1.5 -0.71875 -2.765625 -1.859375q-1.25 -1.140625 -2.015625 -2.8125q-0.765625 -1.671875 -0.765625 -4.046875l0 -0.625q0 -1.921875 0.71875 -3.609375q0.71875 -1.6875 1.984375 -2.9375q1.265625 -1.265625 2.953125 -1.984375q1.703125 -0.71875 3.609375 -0.71875l2.15625 0q1.921875 0 3.609375 0.71875q1.6875 0.71875 2.9375 1.984375q1.265625 1.25 1.984375 2.9375q0.71875 1.6875 0.71875 3.609375l0 1.703125l-5.015625 0.828125l0 -2.53125q0 -0.921875 -0.34375 -1.703125q-0.34375 -0.796875 -0.9375 -1.390625q-0.59375 -0.59375 -1.390625 -0.9375q-0.78125 -0.34375 -1.703125 -0.34375l-1.875 0q-0.921875 0 -1.71875 0.34375q-0.78125 0.34375 -1.390625 0.9375q-0.59375 0.59375 -0.9375 1.390625q-0.34375 0.78125 -0.34375 1.703125l0 0.625q0 1.34375 0.546875 2.234375q0.546875 0.890625 1.546875 1.578125q1.0 0.6875 2.359375 1.25q1.375 0.5625 2.890625 1.171875q1.515625 0.59375 3.015625 1.359375q1.5 0.75 2.75 1.90625q1.25 1.15625 2.015625 2.84375q0.765625 1.6875 0.765625 4.0625l0 1.015625z" fill-rule="nonzero"/></g></svg>