<svg version="1.1" viewBox="0.0 0.0 960.0 540.0" fill="none" stroke="none" stroke-linecap="square" stroke-miterlimit="10" xmlns:xlink="http://www.w3.org/1999/xlink" xmlns="http://www.w3.org/2000/svg"><clipPath id="g613d28eae9_0_6.0"><path d="m0 0l960.0 0l0 540.0l-960.0 0l0 -540.0z" clip-rule="nonzero"/></clipPath><g clip-path="url(#g613d28eae9_0_6.0)"><path fill="#ffffff" d="m0 0l960.0 0l0 540.0l-960.0 0z" fill-rule="evenodd"/><path fill="#000000" fill-opacity="0.0" d="m51.427822 31.335958l841.8583 0l0 160.91339l-841.8583 0z" fill-rule="evenodd"/><path fill="#b7b7b7" d="m461.485 59.892204l-7.265625 0l0 18.84375l-4.375 0l0 -18.84375l-7.265625 0l0 -3.875l18.90625 0l0 3.875zm17.97992 18.84375l-4.28125 0l0 -9.40625q0 -1.953125 -0.75 -2.90625q-0.75 -0.96875 -2.0625 -0.96875q-0.78125 0 -1.640625 0.453125q-0.859375 0.4375 -1.546875 1.234375q-0.6875 0.78125 -1.015625 1.796875l0 9.796875l-4.28125 0l0 -23.359375l4.28125 0l0 9.703125q0.9375 -1.609375 2.53125 -2.5q1.609375 -0.90625 3.484375 -0.90625q1.640625 0 2.65625 0.5625q1.03125 0.5625 1.609375 1.515625q0.578125 0.9375 0.796875 2.109375q0.21875 1.15625 0.21875 2.40625l0 10.46875zm11.531158 0.3125q-2.015625 0 -3.65625 -0.6875q-1.625 -0.6875 -2.78125 -1.875q-1.15625 -1.203125 -1.78125 -2.75q-0.625 -1.5625 -0.625 -3.28125q0 -2.40625 1.078125 -4.390625q1.078125 -1.984375 3.078125 -3.1875q2.0 -1.203125 4.71875 -1.203125q2.75 0 4.703125 1.203125q1.953125 1.203125 2.984375 3.171875q1.046875 1.96875 1.046875 4.234375q0 0.390625 -0.03125 0.796875q-0.03125 0.390625 -0.0625 0.640625l-12.96875 0q0.125 1.28125 0.75 2.25q0.625 0.953125 1.59375 1.453125q0.984375 0.5 2.109375 0.5q1.28125 0 2.40625 -0.625q1.140625 -0.625 1.5625 -1.65625l3.671875 1.03125q-0.609375 1.28125 -1.75 2.28125q-1.125 0.984375 -2.671875 1.546875q-1.53125 0.546875 -3.375 0.546875zm-4.390625 -10.046875l8.765625 0q-0.125 -1.28125 -0.71875 -2.21875q-0.59375 -0.9375 -1.5625 -1.46875q-0.953125 -0.53125 -2.125 -0.53125q-1.15625 0 -2.109375 0.53125q-0.9375 0.53125 -1.53125 1.46875q-0.59375 0.9375 -0.71875 2.21875zm15.577148 13.0q0.578125 0.125 1.078125 0.21875q0.5 0.09375 0.84375 0.09375q0.609375 0 1.0 -0.3125q0.40625 -0.296875 0.796875 -1.078125q0.390625 -0.78125 0.796875 -2.1875l-6.625 -16.765625l4.453125 0l4.515625 12.375l3.9687195 -12.375l4.09375 0l-7.0468445 20.09375q-0.375 1.125 -1.171875 2.03125q-0.78125 0.90625 -1.953125 1.4375q-1.15625 0.53125 -2.59375 0.53125q-0.515625 0 -1.03125 -0.078125q-0.515625 -0.078125 -1.125 -0.28125l0 -3.703125zm22.980072 -8.21875q0 -1.640625 0.90625 -2.875q0.921875 -1.234375 2.546875 -1.90625q1.640625 -0.671875 3.75 -0.671875q1.0625 0 2.140625 0.171875q1.09375 0.15625 1.890625 0.5l0 -0.890625q0 -1.59375 -0.953125 -2.453125q-0.9375 -0.875 -2.796875 -0.875q-1.375 0 -2.625 0.484375q-1.234375 0.484375 -2.609375 1.40625l-1.390625 -2.8125q1.671875 -1.09375 3.40625 -1.640625q1.75 -0.546875 3.671875 -0.546875q3.578125 0 5.578125 1.796875q2.0 1.796875 2.0 5.125l0 5.34375q0 0.671875 0.234375 0.96875q0.25 0.28125 0.796875 0.34375l0 3.484375q-0.578125 0.09375 -1.046875 0.15625q-0.453125 0.0625 -0.78125 0.0625q-1.28125 0 -1.9375 -0.5625q-0.65625 -0.578125 -0.8125 -1.421875l-0.09375 -0.859375q-1.09375 1.40625 -2.734375 2.171875q-1.625 0.765625 -3.3125 0.765625q-1.671875 0 -3.0 -0.6875q-1.328125 -0.6875 -2.078125 -1.875q-0.75 -1.203125 -0.75 -2.703125zm10.4375 0.859375q0.34375 -0.390625 0.5625 -0.765625q0.234375 -0.390625 0.234375 -0.703125l0 -1.703125q-0.765625 -0.3125 -1.671875 -0.484375q-0.890625 -0.1875 -1.6875 -0.1875q-1.65625 0 -2.734375 0.71875q-1.078125 0.71875 -1.078125 1.90625q0 0.640625 0.34375 1.21875q0.359375 0.578125 1.03125 0.9375q0.671875 0.34375 1.609375 0.34375q0.953125 0 1.875 -0.359375q0.9375 -0.375 1.515625 -0.921875zm19.071167 -8.96875q-1.953125 0 -3.5 0.765625q-1.53125 0.75 -2.203125 2.15625l0 10.140625l-4.28125 0l0 -16.765625l3.9375 0l0 3.578125q0.890625 -1.71875 2.265625 -2.703125q1.375 -1.0 2.921875 -1.09375q0.34375 0 0.53125 0q0.203125 0 0.328125 0.03125l0 3.890625zm9.956848 13.375q-2.015625 0 -3.65625 -0.6875q-1.625 -0.6875 -2.78125 -1.875q-1.15625 -1.203125 -1.78125 -2.75q-0.625 -1.5625 -0.625 -3.28125q0 -2.40625 1.078125 -4.390625q1.078125 -1.984375 3.078125 -3.1875q2.0 -1.203125 4.71875 -1.203125q2.75 0 4.703125 1.203125q1.953125 1.203125 2.984375 3.171875q1.046875 1.96875 1.046875 4.234375q0 0.390625 -0.03125 0.796875q-0.03125 0.390625 -0.0625 0.640625l-12.96875 0q0.125 1.28125 0.75 2.25q0.625 0.953125 1.59375 1.453125q0.984375 0.5 2.109375 0.5q1.28125 0 2.40625 -0.625q1.140625 -0.625 1.5625 -1.65625l3.671875 1.03125q-0.609375 1.28125 -1.75 2.28125q-1.125 0.984375 -2.671875 1.546875q-1.53125 0.546875 -3.375 0.546875zm-4.390625 -10.046875l8.765625 0q-0.125 -1.28125 -0.71875 -2.21875q-0.59375 -0.9375 -1.5625 -1.46875q-0.953125 -0.53125 -2.125 -0.53125q-1.15625 0 -2.109375 0.53125q-0.9375 0.53125 -1.53125 1.46875q-0.59375 0.9375 -0.71875 2.21875zm30.019958 9.828125q-1.671875 0 -3.0625 -0.65625q-1.390625 -0.65625 -2.40625 -1.828125q-1.0 -1.1875 -1.546875 -2.71875q-0.546875 -1.546875 -0.546875 -3.28125q0 -1.8125 0.578125 -3.375q0.578125 -1.578125 1.609375 -2.78125q1.046875 -1.203125 2.46875 -1.859375q1.4375 -0.65625 3.15625 -0.65625q1.953125 0 3.421875 0.890625q1.46875 0.875 2.4375 2.34375l0 -2.9375l3.75 0l0 15.96875q0 2.5 -1.203125 4.265625q-1.203125 1.78125 -3.3125 2.71875q-2.109375 0.953125 -4.796875 0.953125q-2.71875 0 -4.609375 -0.921875q-1.890625 -0.90625 -3.234375 -2.578125l2.328125 -2.265625q0.96875 1.1875 2.421875 1.859375q1.453125 0.671875 3.09375 0.671875q1.375 0 2.5 -0.5q1.140625 -0.5 1.828125 -1.546875q0.6875 -1.03125 0.6875 -2.65625l0 -2.109375q-0.828125 1.4375 -2.359375 2.21875q-1.515625 0.78125 -3.203125 0.78125zm1.4375 -3.421875q0.703125 0 1.34375 -0.21875q0.640625 -0.234375 1.1875 -0.609375q0.546875 -0.390625 0.953125 -0.90625q0.421875 -0.53125 0.640625 -1.078125l0 -4.0q-0.375 -1.0 -1.078125 -1.734375q-0.6875 -0.734375 -1.53125 -1.125q-0.84375 -0.40625 -1.765625 -0.40625q-1.0 0 -1.796875 0.421875q-0.796875 0.40625 -1.375 1.15625q-0.578125 0.75 -0.890625 1.671875q-0.296875 0.90625 -0.296875 1.90625q0 1.015625 0.34375 1.921875q0.359375 0.890625 0.984375 1.5625q0.625 0.671875 1.46875 1.0625q0.84375 0.375 1.8125 0.375zm20.069275 3.640625q-2.015625 0 -3.65625 -0.6875q-1.625 -0.6875 -2.78125 -1.875q-1.15625 -1.203125 -1.78125 -2.75q-0.625 -1.5625 -0.625 -3.28125q0 -2.40625 1.078125 -4.390625q1.078125 -1.984375 3.078125 -3.1875q2.0 -1.203125 4.71875 -1.203125q2.75 0 4.703125 1.203125q1.953125 1.203125 2.984375 3.171875q1.046875 1.96875 1.046875 4.234375q0 0.390625 -0.03125 0.796875q-0.03125 0.390625 -0.0625 0.640625l-12.96875 0q0.125 1.28125 0.75 2.25q0.625 0.953125 1.59375 1.453125q0.984375 0.5 2.109375 0.5q1.28125 0 2.40625 -0.625q1.140625 -0.625 1.5625 -1.65625l3.671875 1.03125q-0.609375 1.28125 -1.75 2.28125q-1.125 0.984375 -2.671875 1.546875q-1.53125 0.546875 -3.375 0.546875zm-4.390625 -10.046875l8.765625 0q-0.125 -1.28125 -0.71875 -2.21875q-0.59375 -0.9375 -1.5625 -1.46875q-0.953125 -0.53125 -2.125 -0.53125q-1.15625 0 -2.109375 0.53125q-0.9375 0.53125 -1.53125 1.46875q-0.59375 0.9375 -0.71875 2.21875zm31.35553 9.734375l-4.28125 0l0 -9.40625q0 -2.015625 -0.703125 -2.9375q-0.703125 -0.9375 -1.953125 -0.9375q-0.859375 0 -1.75 0.453125q-0.875 0.4375 -1.578125 1.234375q-0.703125 0.78125 -1.03125 1.796875l0 9.796875l-4.28125 0l0 -16.765625l3.875 0l0 3.109375q0.640625 -1.09375 1.625 -1.84375q1.0 -0.75 2.296875 -1.15625q1.296875 -0.40625 2.734375 -0.40625q1.5625 0 2.5625 0.5625q1.015625 0.5625 1.546875 1.515625q0.53125 0.9375 0.734375 2.125q0.203125 1.171875 0.203125 2.390625l0 10.46875zm11.531189 0.3125q-2.015625 0 -3.65625 -0.6875q-1.625 -0.6875 -2.78125 -1.875q-1.15625 -1.203125 -1.78125 -2.75q-0.625 -1.5625 -0.625 -3.28125q0 -2.40625 1.078125 -4.390625q1.078125 -1.984375 3.078125 -3.1875q2.0 -1.203125 4.71875 -1.203125q2.75 0 4.703125 1.203125q1.953125 1.203125 2.984375 3.171875q1.046875 1.96875 1.046875 4.234375q0 0.390625 -0.03125 0.796875q-0.03125 0.390625 -0.0625 0.640625l-12.96875 0q0.125 1.28125 0.75 2.25q0.625 0.953125 1.59375 1.453125q0.984375 0.5 2.109375 0.5q1.28125 0 2.40625 -0.625q1.140625 -0.625 1.5625 -1.65625l3.671875 1.03125q-0.609375 1.28125 -1.75 2.28125q-1.125 0.984375 -2.671875 1.546875q-1.53125 0.546875 -3.375 0.546875zm-4.390625 -10.046875l8.765625 0q-0.125 -1.28125 -0.71875 -2.21875q-0.59375 -0.9375 -1.5625 -1.46875q-0.953125 -0.53125 -2.125 -0.53125q-1.15625 0 -2.109375 0.53125q-0.9375 0.53125 -1.53125 1.46875q-0.59375 0.9375 -0.71875 2.21875zm25.76178 -3.328125q-1.953125 0 -3.5 0.765625q-1.53125 0.75 -2.203125 2.15625l0 10.140625l-4.28125 0l0 -16.765625l3.9375 0l0 3.578125q0.890625 -1.71875 2.265625 -2.703125q1.375 -1.0 2.921875 -1.09375q0.34375 0 0.53125 0q0.203125 0 0.328125 0.03125l0 3.890625zm1.1473999 8.109375q0 -1.640625 0.90625 -2.875q0.921875 -1.234375 2.546875 -1.90625q1.640625 -0.671875 3.75 -0.671875q1.0625 0 2.140625 0.171875q1.09375 0.15625 1.890625 0.5l0 -0.890625q0 -1.59375 -0.953125 -2.453125q-0.9375 -0.875 -2.796875 -0.875q-1.375 0 -2.625 0.484375q-1.234375 0.484375 -2.609375 1.40625l-1.390625 -2.8125q1.671875 -1.09375 3.40625 -1.640625q1.75 -0.546875 3.671875 -0.546875q3.578125 0 5.578125 1.796875q2.0 1.796875 2.0 5.125l0 5.34375q0 0.671875 0.234375 0.96875q0.25 0.28125 0.796875 0.34375l0 3.484375q-0.578125 0.09375 -1.046875 0.15625q-0.453125 0.0625 -0.78125 0.0625q-1.28125 0 -1.9375 -0.5625q-0.65625 -0.578125 -0.8125 -1.421875l-0.09375 -0.859375q-1.09375 1.40625 -2.734375 2.171875q-1.625 0.765625 -3.3125 0.765625q-1.671875 0 -3.0 -0.6875q-1.328125 -0.6875 -2.078125 -1.875q-0.75 -1.203125 -0.75 -2.703125zm10.4375 0.859375q0.34375 -0.390625 0.5625 -0.765625q0.234375 -0.390625 0.234375 -0.703125l0 -1.703125q-0.765625 -0.3125 -1.671875 -0.484375q-0.890625 -0.1875 -1.6875 -0.1875q-1.65625 0 -2.734375 0.71875q-1.078125 0.71875 -1.078125 1.90625q0 0.640625 0.34375 1.21875q0.359375 0.578125 1.03125 0.9375q0.671875 0.34375 1.609375 0.34375q0.953125 0 1.875 -0.359375q0.9375 -0.375 1.515625 -0.921875zm9.055542 -19.265625l4.28125 0l0 17.984375q0 1.15625 0.375 1.5625q0.390625 0.390625 1.0625 0.390625q0.515625 0 1.0625 -0.125q0.546875 -0.140625 0.953125 -0.328125l0.578125 3.265625q-0.859375 0.421875 -2.015625 0.640625q-1.140625 0.21875 -2.078125 0.21875q-2.015625 0 -3.125 -1.0625q-1.09375 -1.078125 -1.09375 -3.0625l0 -19.484375zm10.144043 0l4.28125 0l0 17.984375q0 1.15625 0.375 1.5625q0.390625 0.390625 1.0625 0.390625q0.515625 0 1.0625 -0.125q0.546875 -0.140625 0.953125 -0.328125l0.578125 3.265625q-0.859375 0.421875 -2.015625 0.640625q-1.140625 0.21875 -2.078125 0.21875q-2.015625 0 -3.125 -1.0625q-1.09375 -1.078125 -1.09375 -3.0625l0 -19.484375zm9.687073 26.625q0.578125 0.125 1.078125 0.21875q0.5 0.09375 0.84375 0.09375q0.609375 0 1.0 -0.3125q0.40625 -0.296875 0.796875 -1.078125q0.390625 -0.78125 0.796875 -2.1875l-6.625 -16.765625l4.453125 0l4.515625 12.375l3.96875 -12.375l4.09375 0l-7.046875 20.09375q-0.375 1.125 -1.171875 2.03125q-0.78125 0.90625 -1.953125 1.4375q-1.15625 0.53125 -2.59375 0.53125q-0.515625 0 -1.03125 -0.078125q-0.515625 -0.078125 -1.125 -0.28125l0 -3.703125z" fill-rule="nonzero"/><path fill="#b7b7b7" d="m739.4124 49.53283l5.359375 0l0 22.484375q0 1.4375 0.46875 1.9375q0.484375 0.5 1.328125 0.5q0.640625 0 1.3125 -0.15625q0.6875 -0.15625 1.203125 -0.40625l0.71875 4.078125q-1.078125 0.53125 -2.515625 0.796875q-1.4375 0.28125 -2.59375 0.28125q-2.53125 0 -3.90625 -1.328125q-1.375 -1.34375 -1.375 -3.828125l0 -24.359375zm22.429993 29.609375q-2.515625 0 -4.5625 -0.859375q-2.03125 -0.859375 -3.46875 -2.359375q-1.4375 -1.5 -2.21875 -3.4375q-0.78125 -1.953125 -0.78125 -4.109375q0 -3.0 1.328125 -5.46875q1.34375 -2.484375 3.84375 -3.984375q2.5 -1.5 5.90625 -1.5q3.4375 0 5.875 1.5q2.4375 1.5 3.734375 3.953125q1.3125 2.453125 1.3125 5.296875q0 0.484375 -0.046875 0.984375q-0.03125 0.5 -0.078125 0.8125l-16.203125 0q0.15625 1.609375 0.9375 2.8125q0.78125 1.1875 2.0 1.8125q1.21875 0.625 2.625 0.625q1.59375 0 3.015625 -0.78125q1.421875 -0.78125 1.9375 -2.0625l4.609375 1.28125q-0.765625 1.59375 -2.1875 2.84375q-1.421875 1.234375 -3.34375 1.9375q-1.90625 0.703125 -4.234375 0.703125zm-5.46875 -12.5625l10.953125 0q-0.15625 -1.609375 -0.90625 -2.78125q-0.734375 -1.1875 -1.9375 -1.84375q-1.203125 -0.65625 -2.671875 -0.65625q-1.4375 0 -2.625 0.65625q-1.1875 0.65625 -1.921875 1.84375q-0.734375 1.171875 -0.890625 2.78125zm39.194397 12.15625l-5.359375 0l0 -11.765625q0 -2.515625 -0.890625 -3.671875q-0.875 -1.15625 -2.4375 -1.15625q-1.078125 0 -2.1875 0.5625q-1.09375 0.546875 -1.96875 1.53125q-0.875 0.984375 -1.28125 2.265625l0 12.234375l-5.359375 0l0 -20.953125l4.84375 0l0 3.875q0.796875 -1.359375 2.03125 -2.296875q1.25 -0.9375 2.859375 -1.4375q1.625 -0.5 3.421875 -0.5q1.96875 0 3.21875 0.703125q1.265625 0.6875 1.921875 1.875q0.671875 1.171875 0.921875 2.65625q0.265625 1.484375 0.265625 3.0l0 13.078125zm12.878662 0.125q-2.078125 0 -3.828125 -0.8125q-1.734375 -0.828125 -3.0 -2.3125q-1.25 -1.484375 -1.9375 -3.390625q-0.671875 -1.921875 -0.671875 -4.09375q0 -2.28125 0.71875 -4.234375q0.71875 -1.96875 2.015625 -3.46875q1.296875 -1.5 3.078125 -2.3125q1.78125 -0.8125 3.9375 -0.8125q2.453125 0 4.28125 1.09375q1.84375 1.09375 3.046875 2.9375l0 -3.671875l4.671875 0l0 19.953125q0 3.125 -1.5 5.34375q-1.5 2.21875 -4.140625 3.390625q-2.625 1.1875 -6.0 1.1875q-3.390625 0 -5.75 -1.140625q-2.359375 -1.140625 -4.046875 -3.21875l2.921875 -2.84375q1.203125 1.484375 3.015625 2.3125q1.828125 0.84375 3.859375 0.84375q1.734375 0 3.140625 -0.625q1.421875 -0.609375 2.28125 -1.90625q0.859375 -1.296875 0.859375 -3.34375l0 -2.640625q-1.03125 1.796875 -2.9375 2.78125q-1.890625 0.984375 -4.015625 0.984375zm1.796875 -4.28125q0.875 0 1.671875 -0.28125q0.8125 -0.28125 1.484375 -0.765625q0.6875 -0.484375 1.203125 -1.140625q0.515625 -0.65625 0.796875 -1.34375l0 -5.0q-0.46875 -1.234375 -1.328125 -2.15625q-0.859375 -0.921875 -1.921875 -1.421875q-1.0625 -0.5 -2.21875 -0.5q-1.25 0 -2.25 0.53125q-1.0 0.515625 -1.71875 1.453125q-0.71875 0.9375 -1.09375 2.078125q-0.375 1.140625 -0.375 2.390625q0 1.265625 0.4375 2.390625q0.4375 1.125 1.21875 1.96875q0.78125 0.828125 1.828125 1.3125q1.0625 0.484375 2.265625 0.484375zm27.922485 3.078125q-0.6875 0.28125 -1.640625 0.640625q-0.953125 0.359375 -2.0625 0.578125q-1.09375 0.21875 -2.21875 0.21875q-1.484375 0 -2.71875 -0.515625q-1.234375 -0.53125 -1.984375 -1.65625q-0.734375 -1.140625 -0.734375 -2.984375l0 -12.046875l-2.765625 0l0 -4.109375l2.765625 0l0 -6.8125l5.359375 0l0 6.8125l4.40625 0l0 4.109375l-4.40625 0l0 10.25q0.046875 1.078125 0.59375 1.5625q0.5625 0.46875 1.40625 0.46875q0.84375 0 1.640625 -0.28125q0.796875 -0.28125 1.28125 -0.46875l1.078125 4.234375zm22.28186 1.078125l-5.359375 0l0 -11.765625q0 -2.4375 -0.9375 -3.625q-0.9375 -1.203125 -2.578125 -1.203125q-0.96875 0 -2.046875 0.5625q-1.078125 0.546875 -1.9375 1.53125q-0.859375 0.984375 -1.265625 2.265625l0 12.234375l-5.359375 0l0 -29.203125l5.359375 0l0 12.125q1.15625 -2.0 3.15625 -3.109375q2.0 -1.125 4.359375 -1.125q2.046875 0 3.328125 0.703125q1.28125 0.6875 2.0 1.875q0.71875 1.171875 1.0 2.640625q0.28125 1.453125 0.28125 3.015625l0 13.078125zm4.713135 4.078125q0.71875 0.15625 1.34375 0.28125q0.625 0.125 1.0625 0.125q0.765625 0 1.265625 -0.390625q0.5 -0.375 0.96875 -1.359375q0.484375 -0.96875 1.0 -2.734375l-8.28125 -20.953125l5.5625 0l5.640625 15.46875l4.96875 -15.46875l5.109375 0l-8.796875 25.109375q-0.484375 1.40625 -1.46875 2.546875q-0.96875 1.140625 -2.4375 1.796875q-1.453125 0.65625 -3.25 0.65625q-0.640625 0 -1.28125 -0.109375q-0.640625 -0.09375 -1.40625 -0.328125l0 -4.640625z" fill-rule="nonzero"/><path fill="#b7b7b7" d="m546.21075 108.50158l0 18.234375l-5.53125 0l0 -28.40625l4.40625 0l14.6875 18.71875l0 -18.671875l5.515625 0l0 28.359375l-4.609375 0l-14.46875 -18.234375zm33.8006 18.640625q-2.5625 0 -4.609375 -0.859375q-2.03125 -0.859375 -3.453125 -2.375q-1.421875 -1.53125 -2.1875 -3.484375q-0.75 -1.96875 -0.75 -4.125q0 -2.203125 0.75 -4.15625q0.765625 -1.96875 2.1875 -3.484375q1.421875 -1.515625 3.453125 -2.375q2.046875 -0.859375 4.609375 -0.859375q2.5625 0 4.578125 0.859375q2.015625 0.859375 3.453125 2.375q1.4375 1.515625 2.171875 3.484375q0.75 1.953125 0.75 4.15625q0 2.15625 -0.75 4.125q-0.734375 1.953125 -2.15625 3.484375q-1.40625 1.515625 -3.453125 2.375q-2.03125 0.859375 -4.59375 0.859375zm-5.484375 -10.84375q0 1.84375 0.71875 3.265625q0.71875 1.40625 1.953125 2.21875q1.25 0.796875 2.8125 0.796875q1.515625 0 2.75 -0.8125q1.25 -0.828125 1.984375 -2.25q0.734375 -1.421875 0.734375 -3.265625q0 -1.796875 -0.734375 -3.234375q-0.734375 -1.4375 -1.984375 -2.234375q-1.234375 -0.8125 -2.75 -0.8125q-1.5625 0 -2.8125 0.828125q-1.234375 0.8125 -1.953125 2.234375q-0.71875 1.421875 -0.71875 3.265625zm39.52124 10.4375l-5.359375 0l0 -11.765625q0 -2.515625 -0.890625 -3.671875q-0.875 -1.15625 -2.4375 -1.15625q-1.078125 0 -2.1875 0.5625q-1.09375 0.546875 -1.96875 1.53125q-0.875 0.984375 -1.28125 2.265625l0 12.234375l-5.359375 0l0 -20.953125l4.84375 0l0 3.875q0.796875 -1.359375 2.03125 -2.296875q1.25 -0.9375 2.859375 -1.4375q1.625 -0.5 3.421875 -0.5q1.96875 0 3.21875 0.703125q1.265625 0.6875 1.921875 1.875q0.671875 1.171875 0.921875 2.65625q0.265625 1.484375 0.265625 3.0l0 13.078125zm4.550598 -8.5625l0 -4.84375l12.125 0l0 4.84375l-12.125 0zm24.56372 8.96875q-2.671875 0 -5.125 -0.875q-2.4375 -0.890625 -4.1875 -2.609375l1.921875 -3.484375q1.875 1.515625 3.6875 2.25q1.828125 0.71875 3.5 0.71875q1.5625 0 2.5 -0.5625q0.953125 -0.5625 0.953125 -1.6875q0 -0.75 -0.53125 -1.171875q-0.515625 -0.421875 -1.5 -0.734375q-0.96875 -0.328125 -2.375 -0.734375q-2.3125 -0.75 -3.875 -1.46875q-1.5625 -0.734375 -2.34375 -1.828125q-0.78125 -1.09375 -0.78125 -2.8125q0 -2.09375 1.0625 -3.59375q1.0625 -1.5 2.953125 -2.328125q1.90625 -0.84375 4.46875 -0.84375q2.234375 0 4.234375 0.703125q2.0 0.703125 3.640625 2.25l-2.15625 3.40625q-1.609375 -1.234375 -3.046875 -1.8125q-1.4375 -0.59375 -2.921875 -0.59375q-0.828125 0 -1.578125 0.203125q-0.734375 0.203125 -1.203125 0.671875q-0.453125 0.453125 -0.453125 1.296875q0 0.75 0.421875 1.171875q0.421875 0.421875 1.28125 0.75q0.859375 0.3125 2.09375 0.71875q2.515625 0.71875 4.25 1.484375q1.75 0.75 2.625 1.859375q0.890625 1.09375 0.890625 3.015625q0 3.109375 -2.28125 4.875q-2.28125 1.765625 -6.125 1.765625zm24.483765 -1.484375q-0.6875 0.28125 -1.640625 0.640625q-0.953125 0.359375 -2.0625 0.578125q-1.09375 0.21875 -2.21875 0.21875q-1.484375 0 -2.71875 -0.515625q-1.234375 -0.53125 -1.984375 -1.65625q-0.734375 -1.140625 -0.734375 -2.984375l0 -12.046875l-2.765625 0l0 -4.109375l2.765625 0l0 -6.8125l5.359375 0l0 6.8125l4.40625 0l0 4.109375l-4.40625 0l0 10.25q0.046875 1.078125 0.59375 1.5625q0.5625 0.46875 1.40625 0.46875q0.84375 0 1.640625 -0.28125q0.796875 -0.28125 1.28125 -0.46875l1.078125 4.234375zm1.3599854 -5.125q0 -2.03125 1.140625 -3.5625q1.140625 -1.546875 3.171875 -2.390625q2.046875 -0.84375 4.6875 -0.84375q1.3125 0 2.671875 0.203125q1.375 0.203125 2.375 0.640625l0 -1.125q0 -2.0 -1.1875 -3.078125q-1.171875 -1.078125 -3.5 -1.078125q-1.71875 0 -3.28125 0.609375q-1.5625 0.59375 -3.28125 1.75l-1.71875 -3.515625q2.078125 -1.359375 4.25 -2.03125q2.1875 -0.6875 4.59375 -0.6875q4.484375 0 6.984375 2.234375q2.5 2.234375 2.5 6.390625l0 6.6875q0 0.84375 0.296875 1.203125q0.296875 0.359375 0.984375 0.4375l0 4.359375q-0.734375 0.125 -1.3125 0.203125q-0.578125 0.078125 -0.96875 0.078125q-1.609375 0 -2.4375 -0.71875q-0.8125 -0.71875 -1.015625 -1.765625l-0.109375 -1.078125q-1.359375 1.765625 -3.40625 2.734375q-2.03125 0.953125 -4.15625 0.953125q-2.078125 0 -3.75 -0.859375q-1.65625 -0.859375 -2.59375 -2.359375q-0.9375 -1.5 -0.9375 -3.390625zm13.046875 1.078125q0.4375 -0.46875 0.71875 -0.953125q0.28125 -0.484375 0.28125 -0.875l0 -2.125q-0.96875 -0.40625 -2.09375 -0.625q-1.109375 -0.21875 -2.109375 -0.21875q-2.078125 0 -3.421875 0.90625q-1.34375 0.890625 -1.34375 2.375q0 0.796875 0.4375 1.515625q0.4375 0.71875 1.28125 1.171875q0.84375 0.4375 2.0 0.4375q1.203125 0 2.359375 -0.453125q1.15625 -0.46875 1.890625 -1.15625zm30.83496 5.125l-5.359375 0l0 -11.765625q0 -2.515625 -0.890625 -3.671875q-0.875 -1.15625 -2.4375 -1.15625q-1.078125 0 -2.1875 0.5625q-1.09375 0.546875 -1.96875 1.53125q-0.875 0.984375 -1.28125 2.265625l0 12.234375l-5.359375 0l0 -20.953125l4.84375 0l0 3.875q0.796875 -1.359375 2.03125 -2.296875q1.25 -0.9375 2.859375 -1.4375q1.625 -0.5 3.421875 -0.5q1.96875 0 3.21875 0.703125q1.265625 0.6875 1.921875 1.875q0.671875 1.171875 0.921875 2.65625q0.265625 1.484375 0.265625 3.0l0 13.078125zm3.3943481 -10.484375q0 -3.03125 1.203125 -5.484375q1.203125 -2.46875 3.3125 -3.90625q2.125 -1.4375 4.84375 -1.4375q2.328125 0 4.1875 1.140625q1.859375 1.125 2.890625 2.890625l0 -11.921875l5.359375 0l0 23.203125q0 0.84375 0.28125 1.203125q0.28125 0.359375 0.96875 0.4375l0 4.359375q-1.40625 0.28125 -2.28125 0.28125q-1.4375 0 -2.390625 -0.71875q-0.9375 -0.71875 -1.046875 -1.875l-0.078125 -1.328125q-1.171875 1.953125 -3.15625 3.0q-1.96875 1.046875 -4.125 1.046875q-2.171875 0 -4.0 -0.84375q-1.8125 -0.84375 -3.15625 -2.3125q-1.328125 -1.484375 -2.078125 -3.46875q-0.734375 -1.984375 -0.734375 -4.265625zm16.4375 2.796875l0 -5.0q-0.390625 -1.15625 -1.28125 -2.078125q-0.875 -0.921875 -1.953125 -1.453125q-1.078125 -0.546875 -2.15625 -0.546875q-1.25 0 -2.25 0.53125q-1.0 0.515625 -1.734375 1.40625q-0.734375 0.875 -1.125 2.03125q-0.375 1.15625 -0.375 2.4375q0 1.28125 0.421875 2.421875q0.421875 1.140625 1.21875 1.984375q0.796875 0.828125 1.859375 1.3125q1.0625 0.484375 2.296875 0.484375q0.765625 0 1.546875 -0.265625q0.78125 -0.265625 1.46875 -0.71875q0.703125 -0.453125 1.234375 -1.109375q0.546875 -0.671875 0.828125 -1.4375zm9.206238 1.484375q0 -2.03125 1.140625 -3.5625q1.140625 -1.546875 3.171875 -2.390625q2.046875 -0.84375 4.6875 -0.84375q1.3125 0 2.671875 0.203125q1.375 0.203125 2.375 0.640625l0 -1.125q0 -2.0 -1.1875 -3.078125q-1.171875 -1.078125 -3.5 -1.078125q-1.71875 0 -3.28125 0.609375q-1.5625 0.59375 -3.28125 1.75l-1.71875 -3.515625q2.078125 -1.359375 4.25 -2.03125q2.1875 -0.6875 4.59375 -0.6875q4.484375 0 6.984375 2.234375q2.5 2.234375 2.5 6.390625l0 6.6875q0 0.84375 0.296875 1.203125q0.296875 0.359375 0.984375 0.4375l0 4.359375q-0.734375 0.125 -1.3125 0.203125q-0.578125 0.078125 -0.96875 0.078125q-1.609375 0 -2.4375 -0.71875q-0.8125 -0.71875 -1.015625 -1.765625l-0.109375 -1.078125q-1.359375 1.765625 -3.40625 2.734375q-2.03125 0.953125 -4.15625 0.953125q-2.078125 0 -3.75 -0.859375q-1.65625 -0.859375 -2.59375 -2.359375q-0.9375 -1.5 -0.9375 -3.390625zm13.046875 1.078125q0.4375 -0.46875 0.71875 -0.953125q0.28125 -0.484375 0.28125 -0.875l0 -2.125q-0.96875 -0.40625 -2.09375 -0.625q-1.109375 -0.21875 -2.109375 -0.21875q-2.078125 0 -3.421875 0.90625q-1.34375 0.890625 -1.34375 2.375q0 0.796875 0.4375 1.515625q0.4375 0.71875 1.28125 1.171875q0.84375 0.4375 2.0 0.4375q1.203125 0 2.359375 -0.453125q1.15625 -0.46875 1.890625 -1.15625zm23.83496 -11.1875q-2.4375 0 -4.359375 0.9375q-1.921875 0.9375 -2.765625 2.6875l0 12.6875l-5.359375 0l0 -20.953125l4.921875 0l0 4.46875q1.125 -2.15625 2.84375 -3.390625q1.71875 -1.25 3.640625 -1.359375q0.4375 0 0.671875 0q0.25 0 0.40625 0.03125l0 4.890625zm1.5143433 5.828125q0 -3.03125 1.203125 -5.484375q1.203125 -2.46875 3.3125 -3.90625q2.125 -1.4375 4.84375 -1.4375q2.328125 0 4.1875 1.140625q1.859375 1.125 2.890625 2.890625l0 -11.921875l5.359375 0l0 23.203125q0 0.84375 0.28125 1.203125q0.28125 0.359375 0.96875 0.4375l0 4.359375q-1.40625 0.28125 -2.28125 0.28125q-1.4375 0 -2.390625 -0.71875q-0.9375 -0.71875 -1.046875 -1.875l-0.078125 -1.328125q-1.171875 1.953125 -3.15625 3.0q-1.96875 1.046875 -4.125 1.046875q-2.171875 0 -4.0 -0.84375q-1.8125 -0.84375 -3.15625 -2.3125q-1.328125 -1.484375 -2.078125 -3.46875q-0.734375 -1.984375 -0.734375 -4.265625zm16.4375 2.796875l0 -5.0q-0.390625 -1.15625 -1.28125 -2.078125q-0.875 -0.921875 -1.953125 -1.453125q-1.078125 -0.546875 -2.15625 -0.546875q-1.25 0 -2.25 0.53125q-1.0 0.515625 -1.734375 1.40625q-0.734375 0.875 -1.125 2.03125q-0.375 1.15625 -0.375 2.4375q0 1.28125 0.421875 2.421875q0.421875 1.140625 1.21875 1.984375q0.796875 0.828125 1.859375 1.3125q1.0625 0.484375 2.296875 0.484375q0.765625 0 1.546875 -0.265625q0.78125 -0.265625 1.46875 -0.71875q0.703125 -0.453125 1.234375 -1.109375q0.546875 -0.671875 0.828125 -1.4375zm10.643738 7.6875l0 -20.953125l5.359375 0l0 20.953125l-5.359375 0zm0 -23.875l0 -5.328125l5.359375 0l0 5.328125l-5.359375 0zm8.809387 20.59375l11.546875 -13.921875l-11.078125 0l0 -3.75l16.84375 0l0 3.265625l-11.484375 13.921875l11.6875 0l0 3.765625l-17.515625 0l0 -3.28125zm30.46936 3.6875q-2.515625 0 -4.5625 -0.859375q-2.03125 -0.859375 -3.46875 -2.359375q-1.4375 -1.5 -2.21875 -3.4375q-0.78125 -1.953125 -0.78125 -4.109375q0 -3.0 1.328125 -5.46875q1.34375 -2.484375 3.84375 -3.984375q2.5 -1.5 5.90625 -1.5q3.4375 0 5.875 1.5q2.4375 1.5 3.734375 3.953125q1.3125 2.453125 1.3125 5.296875q0 0.484375 -0.046875 0.984375q-0.03125 0.5 -0.078125 0.8125l-16.203125 0q0.15625 1.609375 0.9375 2.8125q0.78125 1.1875 2.0 1.8125q1.21875 0.625 2.625 0.625q1.59375 0 3.015625 -0.78125q1.421875 -0.78125 1.9375 -2.0625l4.609375 1.28125q-0.765625 1.59375 -2.1875 2.84375q-1.421875 1.234375 -3.34375 1.9375q-1.90625 0.703125 -4.234375 0.703125zm-5.46875 -12.5625l10.953125 0q-0.15625 -1.609375 -0.90625 -2.78125q-0.734375 -1.1875 -1.9375 -1.84375q-1.203125 -0.65625 -2.671875 -0.65625q-1.4375 0 -2.625 0.65625q-1.1875 0.65625 -1.921875 1.84375q-0.734375 1.171875 -0.890625 2.78125zm18.42871 1.671875q0 -3.03125 1.203125 -5.484375q1.203125 -2.46875 3.3125 -3.90625q2.125 -1.4375 4.84375 -1.4375q2.328125 0 4.1875 1.140625q1.859375 1.125 2.890625 2.890625l0 -11.921875l5.359375 0l0 23.203125q0 0.84375 0.28125 1.203125q0.28125 0.359375 0.96875 0.4375l0 4.359375q-1.40625 0.28125 -2.28125 0.28125q-1.4375 0 -2.390625 -0.71875q-0.9375 -0.71875 -1.046875 -1.875l-0.078125 -1.328125q-1.171875 1.953125 -3.15625 3.0q-1.96875 1.046875 -4.125 1.046875q-2.171875 0 -4.0 -0.84375q-1.8125 -0.84375 -3.15625 -2.3125q-1.328125 -1.484375 -2.078125 -3.46875q-0.734375 -1.984375 -0.734375 -4.265625zm16.4375 2.796875l0 -5.0q-0.390625 -1.15625 -1.28125 -2.078125q-0.875 -0.921875 -1.953125 -1.453125q-1.078125 -0.546875 -2.15625 -0.546875q-1.25 0 -2.25 0.53125q-1.0 0.515625 -1.734375 1.40625q-0.734375 0.875 -1.125 2.03125q-0.375 1.15625 -0.375 2.4375q0 1.28125 0.421875 2.421875q0.421875 1.140625 1.21875 1.984375q0.796875 0.828125 1.859375 1.3125q1.0625 0.484375 2.296875 0.484375q0.765625 0 1.546875 -0.265625q0.78125 -0.265625 1.46875 -0.71875q0.703125 -0.453125 1.234375 -1.109375q0.546875 -0.671875 0.828125 -1.4375z" fill-rule="nonzero"/><path fill="#b7b7b7" d="m602.5871 169.78282q0 -1.640625 0.90625 -2.875q0.921875 -1.234375 2.546875 -1.90625q1.640625 -0.671875 3.75 -0.671875q1.0625 0 2.140625 0.171875q1.09375 0.15625 1.890625 0.5l0 -0.890625q0 -1.59375 -0.953125 -2.453125q-0.9375 -0.875 -2.796875 -0.875q-1.375 0 -2.625 0.484375q-1.234375 0.484375 -2.609375 1.40625l-1.390625 -2.8125q1.671875 -1.09375 3.40625 -1.640625q1.75 -0.546875 3.671875 -0.546875q3.578125 0 5.578125 1.796875q2.0 1.796875 2.0 5.125l0 5.34375q0 0.671875 0.234375 0.96875q0.25 0.28125 0.796875 0.34375l0 3.484375q-0.578125 0.09375 -1.046875 0.15625q-0.453125 0.0625 -0.78125 0.0625q-1.28125 0 -1.9375 -0.5625q-0.65625 -0.578125 -0.8125 -1.421875l-0.09375 -0.859375q-1.09375 1.40625 -2.734375 2.171875q-1.625 0.765625 -3.3125 0.765625q-1.671875 0 -3.0 -0.6875q-1.328125 -0.6875 -2.078125 -1.875q-0.75 -1.203125 -0.75 -2.703125zm10.4375 0.859375q0.34375 -0.390625 0.5625 -0.765625q0.234375 -0.390625 0.234375 -0.703125l0 -1.703125q-0.765625 -0.3125 -1.671875 -0.484375q-0.890625 -0.1875 -1.6875 -0.1875q-1.65625 0 -2.734375 0.71875q-1.078125 0.71875 -1.078125 1.90625q0 0.640625 0.34375 1.21875q0.359375 0.578125 1.03125 0.9375q0.671875 0.34375 1.609375 0.34375q0.953125 0 1.875 -0.359375q0.9375 -0.375 1.515625 -0.921875zm24.664917 4.09375l-4.28125 0l0 -9.40625q0 -2.015625 -0.703125 -2.9375q-0.703125 -0.9375 -1.953125 -0.9375q-0.859375 0 -1.75 0.453125q-0.875 0.4375 -1.578125 1.234375q-0.703125 0.78125 -1.03125 1.796875l0 9.796875l-4.28125 0l0 -16.765625l3.875 0l0 3.109375q0.640625 -1.09375 1.625 -1.84375q1.0 -0.75 2.296875 -1.15625q1.296875 -0.40625 2.734375 -0.40625q1.5625 0 2.5625 0.5625q1.015625 0.5625 1.546875 1.515625q0.53125 0.9375 0.734375 2.125q0.203125 1.171875 0.203125 2.390625l0 10.46875zm2.718628 -8.390625q0 -2.421875 0.953125 -4.390625q0.96875 -1.96875 2.65625 -3.125q1.703125 -1.15625 3.890625 -1.15625q1.84375 0 3.328125 0.921875q1.5 0.90625 2.328125 2.3125l0 -9.53125l4.296875 0l0 18.5625q0 0.671875 0.21875 0.96875q0.21875 0.28125 0.765625 0.34375l0 3.484375q-1.125 0.21875 -1.828125 0.21875q-1.140625 0 -1.90625 -0.5625q-0.75 -0.578125 -0.84375 -1.515625l-0.0625 -1.046875q-0.921875 1.5625 -2.515625 2.390625q-1.578125 0.828125 -3.3125 0.828125q-1.71875 0 -3.1875 -0.671875q-1.453125 -0.671875 -2.53125 -1.84375q-1.0625 -1.1875 -1.65625 -2.765625q-0.59375 -1.59375 -0.59375 -3.421875zm13.15625 2.25l0 -4.0q-0.3125 -0.9375 -1.015625 -1.671875q-0.703125 -0.734375 -1.578125 -1.15625q-0.859375 -0.4375 -1.71875 -0.4375q-1.0 0 -1.796875 0.421875q-0.796875 0.40625 -1.390625 1.109375q-0.59375 0.703125 -0.90625 1.640625q-0.296875 0.921875 -0.296875 1.953125q0 1.015625 0.328125 1.9375q0.34375 0.90625 0.984375 1.578125q0.640625 0.671875 1.484375 1.0625q0.859375 0.375 1.84375 0.375q0.609375 0 1.234375 -0.203125q0.625 -0.21875 1.171875 -0.578125q0.5625 -0.375 1.0 -0.890625q0.4375 -0.53125 0.65625 -1.140625z" fill-rule="nonzero"/><path fill="#b7b7b7" d="m670.7263 168.53282q0 -2.03125 1.140625 -3.5625q1.140625 -1.546875 3.171875 -2.390625q2.046875 -0.84375 4.6875 -0.84375q1.3125 0 2.671875 0.203125q1.375 0.203125 2.375 0.640625l0 -1.125q0 -2.0 -1.1875 -3.078125q-1.171875 -1.078125 -3.5 -1.078125q-1.71875 0 -3.28125 0.609375q-1.5625 0.59375 -3.28125 1.75l-1.71875 -3.515625q2.078125 -1.359375 4.25 -2.03125q2.1875 -0.6875 4.59375 -0.6875q4.484375 0 6.984375 2.234375q2.5 2.234375 2.5 6.390625l0 6.6875q0 0.84375 0.296875 1.203125q0.296875 0.359375 0.984375 0.4375l0 4.359375q-0.734375 0.125 -1.3125 0.203125q-0.578125 0.078125 -0.96875 0.078125q-1.609375 0 -2.4375 -0.71875q-0.8125 -0.71875 -1.015625 -1.765625l-0.109375 -1.078125q-1.359375 1.765625 -3.40625 2.734375q-2.03125 0.953125 -4.15625 0.953125q-2.078125 0 -3.75 -0.859375q-1.65625 -0.859375 -2.59375 -2.359375q-0.9375 -1.5 -0.9375 -3.390625zm13.046875 1.078125q0.4375 -0.46875 0.71875 -0.953125q0.28125 -0.484375 0.28125 -0.875l0 -2.125q-0.96875 -0.40625 -2.09375 -0.625q-1.109375 -0.21875 -2.109375 -0.21875q-2.078125 0 -3.421875 0.90625q-1.34375 0.890625 -1.34375 2.375q0 0.796875 0.4375 1.515625q0.4375 0.71875 1.28125 1.171875q0.84375 0.4375 2.0 0.4375q1.203125 0 2.359375 -0.453125q1.15625 -0.46875 1.890625 -1.15625zm43.913147 5.125l-5.359375 0l0 -11.765625q0 -2.46875 -0.859375 -3.640625q-0.859375 -1.1875 -2.375 -1.1875q-1.5625 0 -2.984375 1.21875q-1.421875 1.21875 -2.015625 3.171875l0 12.203125l-5.359375 0l0 -11.765625q0 -2.515625 -0.875 -3.671875q-0.859375 -1.15625 -2.375 -1.15625q-1.5625 0 -2.984375 1.203125q-1.40625 1.1875 -2.015625 3.15625l0 12.234375l-5.359375 0l0 -20.953125l4.84375 0l0 3.875q1.203125 -2.046875 3.203125 -3.140625q2.0 -1.09375 4.59375 -1.09375q2.609375 0 4.0625 1.28125q1.453125 1.265625 1.859375 3.15625q1.28125 -2.171875 3.25 -3.296875q1.984375 -1.140625 4.46875 -1.140625q1.96875 0 3.1875 0.703125q1.21875 0.6875 1.890625 1.875q0.6875 1.171875 0.9375 2.65625q0.265625 1.484375 0.265625 3.0l0 13.078125zm16.599304 0.40625q-2.40625 0 -4.28125 -1.078125q-1.875 -1.09375 -2.953125 -2.96875l0 3.640625l-4.6875 0l0 -29.203125l5.359375 0l0 11.921875q1.125 -1.875 2.9375 -2.953125q1.828125 -1.078125 4.265625 -1.078125q2.046875 0 3.71875 0.859375q1.6875 0.859375 2.90625 2.375q1.21875 1.515625 1.875 3.484375q0.65625 1.953125 0.65625 4.1875q0 2.25 -0.734375 4.21875q-0.734375 1.953125 -2.0625 3.453125q-1.3125 1.5 -3.09375 2.328125q-1.78125 0.8125 -3.90625 0.8125zm-1.484375 -4.5625q1.28125 0 2.34375 -0.5q1.0625 -0.5 1.84375 -1.34375q0.78125 -0.84375 1.203125 -1.984375q0.421875 -1.140625 0.421875 -2.375q0 -1.71875 -0.703125 -3.171875q-0.703125 -1.46875 -1.921875 -2.34375q-1.21875 -0.890625 -2.859375 -0.890625q-1.15625 0 -2.21875 0.546875q-1.0625 0.53125 -1.890625 1.453125q-0.8125 0.921875 -1.296875 2.078125l0 5.0q0.25 0.8125 0.78125 1.453125q0.546875 0.640625 1.265625 1.09375q0.71875 0.453125 1.5 0.71875q0.78125 0.265625 1.53125 0.265625zm14.922485 4.15625l0 -20.953125l5.359375 0l0 20.953125l-5.359375 0zm0 -23.875l0 -5.328125l5.359375 0l0 5.328125l-5.359375 0zm18.403137 24.0q-2.078125 0 -3.828125 -0.8125q-1.734375 -0.828125 -3.0 -2.3125q-1.25 -1.484375 -1.9375 -3.390625q-0.671875 -1.921875 -0.671875 -4.09375q0 -2.28125 0.71875 -4.234375q0.71875 -1.96875 2.015625 -3.46875q1.296875 -1.5 3.078125 -2.3125q1.78125 -0.8125 3.9375 -0.8125q2.453125 0 4.28125 1.09375q1.84375 1.09375 3.046875 2.9375l0 -3.671875l4.671875 0l0 19.953125q0 3.125 -1.5 5.34375q-1.5 2.21875 -4.140625 3.390625q-2.625 1.1875 -6.0 1.1875q-3.390625 0 -5.75 -1.140625q-2.359375 -1.140625 -4.046875 -3.21875l2.921875 -2.84375q1.203125 1.484375 3.015625 2.3125q1.828125 0.84375 3.859375 0.84375q1.734375 0 3.140625 -0.625q1.421875 -0.609375 2.28125 -1.90625q0.859375 -1.296875 0.859375 -3.34375l0 -2.640625q-1.03125 1.796875 -2.9375 2.78125q-1.890625 0.984375 -4.015625 0.984375zm1.796875 -4.28125q0.875 0 1.671875 -0.28125q0.8125 -0.28125 1.484375 -0.765625q0.6875 -0.484375 1.203125 -1.140625q0.515625 -0.65625 0.796875 -1.34375l0 -5.0q-0.46875 -1.234375 -1.328125 -2.15625q-0.859375 -0.921875 -1.921875 -1.421875q-1.0625 -0.5 -2.21875 -0.5q-1.25 0 -2.25 0.53125q-1.0 0.515625 -1.71875 1.453125q-0.71875 0.9375 -1.09375 2.078125q-0.375 1.140625 -0.375 2.390625q0 1.265625 0.4375 2.390625q0.4375 1.125 1.21875 1.96875q0.78125 0.828125 1.828125 1.3125q1.0625 0.484375 2.265625 0.484375zm15.156799 -3.6875l0 -13.109375l5.359375 0l0 11.953125q0 2.40625 0.875 3.625q0.890625 1.21875 2.609375 1.21875q1.046875 0 2.0625 -0.421875q1.015625 -0.421875 1.875 -1.265625q0.859375 -0.84375 1.46875 -2.109375l0 -13.0l5.359375 0l0 14.953125q0 0.84375 0.296875 1.203125q0.296875 0.359375 0.984375 0.4375l0 4.359375q-0.8125 0.125 -1.359375 0.171875q-0.53125 0.0625 -0.96875 0.0625q-1.4375 0 -2.34375 -0.65625q-0.890625 -0.65625 -1.046875 -1.8125l-0.125 -1.6875q-1.40625 2.125 -3.609375 3.234375q-2.1875 1.09375 -4.828125 1.09375q-3.25 0 -4.9375 -2.09375q-1.671875 -2.109375 -1.671875 -6.15625zm34.610596 8.25q-2.5625 0 -4.609375 -0.859375q-2.03125 -0.859375 -3.453125 -2.375q-1.421875 -1.53125 -2.1875 -3.484375q-0.75 -1.96875 -0.75 -4.125q0 -2.203125 0.75 -4.15625q0.765625 -1.96875 2.1875 -3.484375q1.421875 -1.515625 3.453125 -2.375q2.046875 -0.859375 4.609375 -0.859375q2.5625 0 4.578125 0.859375q2.015625 0.859375 3.453125 2.375q1.4375 1.515625 2.171875 3.484375q0.75 1.953125 0.75 4.15625q0 2.15625 -0.75 4.125q-0.734375 1.953125 -2.15625 3.484375q-1.40625 1.515625 -3.453125 2.375q-2.03125 0.859375 -4.59375 0.859375zm-5.484375 -10.84375q0 1.84375 0.71875 3.265625q0.71875 1.40625 1.953125 2.21875q1.25 0.796875 2.8125 0.796875q1.515625 0 2.75 -0.8125q1.25 -0.828125 1.984375 -2.25q0.734375 -1.421875 0.734375 -3.265625q0 -1.796875 -0.734375 -3.234375q-0.734375 -1.4375 -1.984375 -2.234375q-1.234375 -0.8125 -2.75 -0.8125q-1.5625 0 -2.8125 0.828125q-1.234375 0.8125 -1.953125 2.234375q-0.71875 1.421875 -0.71875 3.265625zm19.83374 2.59375l0 -13.109375l5.359375 0l0 11.953125q0 2.40625 0.875 3.625q0.890625 1.21875 2.609375 1.21875q1.046875 0 2.0625 -0.421875q1.015625 -0.421875 1.875 -1.265625q0.859375 -0.84375 1.46875 -2.109375l0 -13.0l5.359375 0l0 14.953125q0 0.84375 0.296875 1.203125q0.296875 0.359375 0.984375 0.4375l0 4.359375q-0.8125 0.125 -1.359375 0.171875q-0.53125 0.0625 -0.96875 0.0625q-1.4375 0 -2.34375 -0.65625q-0.890625 -0.65625 -1.046875 -1.8125l-0.125 -1.6875q-1.40625 2.125 -3.609375 3.234375q-2.1875 1.09375 -4.828125 1.09375q-3.25 0 -4.9375 -2.09375q-1.671875 -2.109375 -1.671875 -6.15625zm32.641846 8.25q-2.671875 0 -5.125 -0.875q-2.4375 -0.890625 -4.1875 -2.609375l1.921875 -3.484375q1.875 1.515625 3.6875 2.25q1.828125 0.71875 3.5 0.71875q1.5625 0 2.5 -0.5625q0.953125 -0.5625 0.953125 -1.6875q0 -0.75 -0.53125 -1.171875q-0.515625 -0.421875 -1.5 -0.734375q-0.96875 -0.328125 -2.375 -0.734375q-2.3125 -0.75 -3.875 -1.46875q-1.5625 -0.734375 -2.34375 -1.828125q-0.78125 -1.09375 -0.78125 -2.8125q0 -2.09375 1.0625 -3.59375q1.0625 -1.5 2.953125 -2.328125q1.90625 -0.84375 4.46875 -0.84375q2.234375 0 4.234375 0.703125q2.0 0.703125 3.640625 2.25l-2.15625 3.40625q-1.609375 -1.234375 -3.046875 -1.8125q-1.4375 -0.59375 -2.921875 -0.59375q-0.828125 0 -1.578125 0.203125q-0.734375 0.203125 -1.203125 0.671875q-0.453125 0.453125 -0.453125 1.296875q0 0.75 0.421875 1.171875q0.421875 0.421875 1.28125 0.75q0.859375 0.3125 2.09375 0.71875q2.515625 0.71875 4.25 1.484375q1.75 0.75 2.625 1.859375q0.890625 1.09375 0.890625 3.015625q0 3.109375 -2.28125 4.875q-2.28125 1.765625 -6.125 1.765625z" fill-rule="nonzero"/><path fill="#000000" fill-opacity="0.0" d="m62.14173 214.53018l826.9921 0l0 152.0l-826.9921 0z" fill-rule="evenodd"/><path fill="#61aac1" d="m235.00478 271.27017l5.21875 0l9.75 26.5l-5.296875 0l-2.46875 -6.609375l-9.265625 0l-2.421875 6.609375l-5.296875 0l9.78125 -26.5zm6.265625 16.265625l-3.65625 -10.9375l-3.8125 10.9375l7.46875 0zm10.97258 -17.015625l5.0 0l0 20.984375q0 1.34375 0.453125 1.8125q0.453125 0.453125 1.234375 0.453125q0.59375 0 1.21875 -0.140625q0.640625 -0.15625 1.125 -0.375l0.671875 3.8125q-1.0 0.484375 -2.34375 0.734375q-1.34375 0.265625 -2.421875 0.265625q-2.359375 0 -3.65625 -1.25q-1.28125 -1.25 -1.28125 -3.5625l0 -22.734375zm19.083038 27.625q-2.5 0 -4.78125 -0.8125q-2.28125 -0.828125 -3.921875 -2.4375l1.796875 -3.25q1.75 1.421875 3.453125 2.09375q1.703125 0.671875 3.265625 0.671875q1.453125 0 2.328125 -0.515625q0.875 -0.53125 0.875 -1.578125q0 -0.703125 -0.484375 -1.09375q-0.484375 -0.390625 -1.40625 -0.6875q-0.90625 -0.3125 -2.203125 -0.671875q-2.171875 -0.71875 -3.625 -1.390625q-1.453125 -0.671875 -2.1875 -1.6875q-0.734375 -1.03125 -0.734375 -2.640625q0 -1.9375 0.984375 -3.328125q1.0 -1.40625 2.765625 -2.1875q1.78125 -0.796875 4.171875 -0.796875q2.09375 0 3.953125 0.65625q1.875 0.65625 3.40625 2.109375l-2.015625 3.171875q-1.5 -1.15625 -2.84375 -1.6875q-1.34375 -0.546875 -2.71875 -0.546875q-0.796875 0 -1.484375 0.1875q-0.6875 0.1875 -1.125 0.625q-0.421875 0.421875 -0.421875 1.203125q0 0.703125 0.390625 1.09375q0.390625 0.390625 1.1875 0.703125q0.8125 0.296875 1.96875 0.65625q2.359375 0.671875 3.96875 1.390625q1.625 0.703125 2.4375 1.734375q0.828125 1.03125 0.828125 2.8125q0 2.921875 -2.125 4.5625q-2.125 1.640625 -5.703125 1.640625zm20.26828 0q-2.390625 0 -4.296875 -0.796875q-1.90625 -0.8125 -3.234375 -2.21875q-1.3125 -1.421875 -2.03125 -3.25q-0.703125 -1.84375 -0.703125 -3.859375q0 -2.046875 0.703125 -3.875q0.71875 -1.828125 2.03125 -3.25q1.328125 -1.421875 3.234375 -2.21875q1.90625 -0.796875 4.296875 -0.796875q2.390625 0 4.265625 0.796875q1.890625 0.796875 3.234375 2.21875q1.34375 1.421875 2.03125 3.25q0.6875 1.828125 0.6875 3.875q0 2.015625 -0.6875 3.859375q-0.6875 1.828125 -2.015625 3.25q-1.328125 1.40625 -3.234375 2.21875q-1.890625 0.796875 -4.28125 0.796875zm-5.109375 -10.125q0 1.71875 0.671875 3.046875q0.671875 1.328125 1.828125 2.078125q1.15625 0.75 2.609375 0.75q1.421875 0 2.578125 -0.765625q1.15625 -0.765625 1.84375 -2.09375q0.6875 -1.328125 0.6875 -3.046875q0 -1.671875 -0.6875 -3.015625q-0.6875 -1.34375 -1.84375 -2.09375q-1.15625 -0.75 -2.578125 -0.75q-1.453125 0 -2.609375 0.765625q-1.15625 0.765625 -1.828125 2.09375q-0.671875 1.328125 -0.671875 3.03125zm18.725891 14.046875l1.015625 -4.453125l-1.5625 0l0 -5.21875l4.328125 0l0 5.21875l-1.53125 4.453125l-2.25 0zm26.212677 -3.921875q-2.390625 0 -4.296875 -0.796875q-1.90625 -0.8125 -3.234375 -2.21875q-1.3125 -1.421875 -2.03125 -3.25q-0.703125 -1.84375 -0.703125 -3.859375q0 -2.046875 0.703125 -3.875q0.71875 -1.828125 2.03125 -3.25q1.328125 -1.421875 3.234375 -2.21875q1.90625 -0.796875 4.296875 -0.796875q2.390625 0 4.265625 0.796875q1.890625 0.796875 3.234375 2.21875q1.34375 1.421875 2.03125 3.25q0.6875 1.828125 0.6875 3.875q0 2.015625 -0.6875 3.859375q-0.6875 1.828125 -2.015625 3.25q-1.328125 1.40625 -3.234375 2.21875q-1.890625 0.796875 -4.28125 0.796875zm-5.109375 -10.125q0 1.71875 0.671875 3.046875q0.671875 1.328125 1.828125 2.078125q1.15625 0.75 2.609375 0.75q1.421875 0 2.578125 -0.765625q1.15625 -0.765625 1.84375 -2.09375q0.6875 -1.328125 0.6875 -3.046875q0 -1.671875 -0.6875 -3.015625q-0.6875 -1.34375 -1.84375 -2.09375q-1.15625 -0.75 -2.578125 -0.75q-1.453125 0 -2.609375 0.765625q-1.15625 0.765625 -1.828125 2.09375q-0.671875 1.328125 -0.671875 3.03125zm19.69986 9.75l0 -14.703125l-2.578125 0l0 -3.8125l2.578125 0l0 -1.1875q0 -2.4375 0.796875 -4.203125q0.8125 -1.78125 2.28125 -2.75q1.484375 -0.96875 3.453125 -0.96875q1.203125 0 2.40625 0.296875q1.21875 0.296875 2.40625 0.859375l-1.0 3.765625q-0.5625 -0.296875 -1.3125 -0.5q-0.734375 -0.203125 -1.40625 -0.203125q-1.28125 0 -1.953125 0.90625q-0.671875 0.890625 -0.671875 2.609375l0 1.375l4.78125 0l0 3.8125l-4.78125 0l0 14.703125l-5.0 0zm24.342712 -1.015625q-0.640625 0.265625 -1.53125 0.609375q-0.890625 0.328125 -1.921875 0.53125q-1.03125 0.21875 -2.078125 0.21875q-1.375 0 -2.53125 -0.484375q-1.15625 -0.5 -1.859375 -1.5625q-0.6875 -1.0625 -0.6875 -2.78125l0 -11.234375l-2.5625 0l0 -3.84375l2.5625 0l0 -6.34375l5.015625 0l0 6.34375l4.09375 0l0 3.84375l-4.09375 0l0 9.5625q0.03125 1.0 0.546875 1.453125q0.53125 0.453125 1.3125 0.453125q0.78125 0 1.53125 -0.265625q0.75 -0.265625 1.1875 -0.453125l1.015625 3.953125zm11.416443 1.390625q-2.34375 0 -4.25 -0.796875q-1.90625 -0.8125 -3.25 -2.203125q-1.34375 -1.40625 -2.078125 -3.21875q-0.71875 -1.8125 -0.71875 -3.828125q0 -2.796875 1.25 -5.109375q1.25 -2.3125 3.578125 -3.703125q2.34375 -1.40625 5.515625 -1.40625q3.203125 0 5.484375 1.40625q2.28125 1.390625 3.484375 3.6875q1.21875 2.296875 1.21875 4.9375q0 0.453125 -0.046875 0.921875q-0.03125 0.46875 -0.0625 0.765625l-15.125 0q0.15625 1.484375 0.875 2.609375q0.734375 1.125 1.875 1.703125q1.140625 0.578125 2.4375 0.578125q1.5 0 2.8125 -0.71875q1.328125 -0.734375 1.8125 -1.9375l4.296875 1.203125q-0.703125 1.484375 -2.03125 2.640625q-1.328125 1.15625 -3.125 1.8125q-1.78125 0.65625 -3.953125 0.65625zm-5.109375 -11.71875l10.234375 0q-0.15625 -1.5 -0.84375 -2.59375q-0.6875 -1.109375 -1.8125 -1.71875q-1.125 -0.625 -2.5 -0.625q-1.34375 0 -2.453125 0.625q-1.09375 0.609375 -1.78125 1.71875q-0.6875 1.09375 -0.84375 2.59375zm36.57837 11.34375l-5.0 0l0 -10.96875q0 -2.359375 -0.828125 -3.4375q-0.8125 -1.078125 -2.265625 -1.078125q-1.015625 0 -2.046875 0.515625q-1.015625 0.515625 -1.84375 1.4375q-0.8125 0.921875 -1.1875 2.109375l0 11.421875l-5.0 0l0 -19.5625l4.515625 0l0 3.625q0.75 -1.265625 1.90625 -2.140625q1.15625 -0.890625 2.65625 -1.34375q1.515625 -0.46875 3.203125 -0.46875q1.828125 0 3.0 0.65625q1.171875 0.640625 1.78125 1.75q0.625 1.09375 0.859375 2.484375q0.25 1.375 0.25 2.796875l0 12.203125zm17.59082 0l-7.203125 -19.5625l5.1875 0l4.921875 15.015625l4.96875 -15.015625l4.734375 0l-7.171875 19.5625l-5.4375 0zm23.655396 0.375q-2.34375 0 -4.25 -0.796875q-1.90625 -0.8125 -3.25 -2.203125q-1.34375 -1.40625 -2.078125 -3.21875q-0.71875 -1.8125 -0.71875 -3.828125q0 -2.796875 1.25 -5.109375q1.25 -2.3125 3.578125 -3.703125q2.34375 -1.40625 5.515625 -1.40625q3.203125 0 5.484375 1.40625q2.28125 1.390625 3.484375 3.6875q1.21875 2.296875 1.21875 4.9375q0 0.453125 -0.046875 0.921875q-0.03125 0.46875 -0.0625 0.765625l-15.125 0q0.15625 1.484375 0.875 2.609375q0.734375 1.125 1.875 1.703125q1.140625 0.578125 2.4375 0.578125q1.5 0 2.8125 -0.71875q1.328125 -0.734375 1.8125 -1.9375l4.296875 1.203125q-0.703125 1.484375 -2.03125 2.640625q-1.328125 1.15625 -3.125 1.8125q-1.78125 0.65625 -3.953125 0.65625zm-5.109375 -11.71875l10.234375 0q-0.15625 -1.5 -0.84375 -2.59375q-0.6875 -1.109375 -1.8125 -1.71875q-1.125 -0.625 -2.5 -0.625q-1.34375 0 -2.453125 0.625q-1.09375 0.609375 -1.78125 1.71875q-0.6875 1.09375 -0.84375 2.59375zm30.04712 -3.890625q-2.28125 0 -4.078125 0.890625q-1.78125 0.875 -2.5625 2.515625l0 11.828125l-5.0 0l0 -19.5625l4.59375 0l0 4.1875q1.03125 -2.015625 2.640625 -3.171875q1.609375 -1.15625 3.40625 -1.28125q0.40625 0 0.625 0q0.234375 0 0.375 0.046875l0 4.546875zm3.21167 19.046875q0.671875 0.140625 1.25 0.25q0.578125 0.125 0.984375 0.125q0.71875 0 1.171875 -0.359375q0.46875 -0.359375 0.921875 -1.28125q0.453125 -0.90625 0.9375 -2.546875l-7.734375 -19.5625l5.1875 0l5.265625 14.453125l4.625 -14.453125l4.78125 0l-8.203125 23.4375q-0.453125 1.3125 -1.375 2.375q-0.90625 1.0625 -2.265625 1.671875q-1.359375 0.625 -3.046875 0.625q-0.59375 0 -1.203125 -0.09375q-0.59375 -0.09375 -1.296875 -0.3125l0 -4.328125z" fill-rule="nonzero"/><path fill="#61aac1" d="m520.5595 297.77017l0 -40.515625l10.359375 0l0 40.515625l-10.359375 0zm0 -46.17186l0 -10.28125l10.359375 0l0 10.28125l-10.359375 0zm82.65619 46.17186l-10.359375 0l0 -22.734375q0 -4.796875 -1.671875 -7.078125q-1.65625 -2.28125 -4.59375 -2.28125q-3.015625 0 -5.765625 2.359375q-2.734375 2.359375 -3.890625 6.15625l0 23.578125l-10.359375 0l0 -22.734375q0 -4.875 -1.671875 -7.109375q-1.65625 -2.25 -4.59375 -2.25q-3.015625 0 -5.765625 2.328125q-2.75 2.3125 -3.90625 6.109375l0 23.65625l-10.359375 0l0 -40.515625l9.359375 0l0 7.5q2.3125 -3.953125 6.171875 -6.078125q3.875 -2.125 8.90625 -2.125q5.015625 0 7.84375 2.484375q2.828125 2.46875 3.59375 6.109375q2.484375 -4.1875 6.3125 -6.390625q3.828125 -2.203125 8.609375 -2.203125q3.796875 0 6.15625 1.359375q2.359375 1.34375 3.671875 3.625q1.3125 2.28125 1.8125 5.15625q0.5 2.859375 0.5 5.796875l0 25.28125zm33.336304 0.765625q-4.71875 0 -8.3125 -2.125q-3.59375 -2.125 -5.609375 -5.75l0 23.578125l-10.359375 0l0 -56.984375l9.046875 0l0 6.953125q2.3125 -3.5625 5.875 -5.609375q3.5625 -2.046875 8.125 -2.046875q4.09375 0 7.53125 1.625q3.4375 1.625 5.984375 4.53125q2.5625 2.890625 3.984375 6.640625q1.4375 3.75 1.4375 8.078125q0 5.890625 -2.28125 10.6875q-2.28125 4.78125 -6.265625 7.609375q-3.984375 2.8125 -9.15625 2.8125zm-3.484375 -8.8125q2.40625 0 4.328125 -1.0q1.9375 -1.0 3.359375 -2.734375q1.4375 -1.75 2.171875 -3.953125q0.734375 -2.203125 0.734375 -4.609375q0 -2.546875 -0.8125 -4.703125q-0.8125 -2.171875 -2.359375 -3.828125q-1.546875 -1.671875 -3.59375 -2.59375q-2.046875 -0.9375 -4.4375 -0.9375q-1.46875 0 -2.984375 0.515625q-1.5 0.5 -2.90625 1.421875q-1.390625 0.921875 -2.4375 2.171875q-1.03125 1.234375 -1.5 2.703125l0 9.515625q0.921875 2.234375 2.5 4.09375q1.59375 1.859375 3.6875 2.90625q2.09375 1.03125 4.25 1.03125zm52.354187 -23.5q-4.71875 0 -8.4375 1.8125q-3.703125 1.8125 -5.328125 5.21875l0 24.515625l-10.359375 0l0 -40.515625l9.515625 0l0 8.65625q2.15625 -4.171875 5.484375 -6.5625q3.328125 -2.40625 7.03125 -2.640625q0.859375 0 1.3125 0q0.46875 0 0.78125 0.078125l0 9.4375zm24.040955 32.3125q-4.859375 0 -8.8125 -1.65625q-3.9375 -1.65625 -6.71875 -4.546875q-2.78125 -2.90625 -4.296875 -6.65625q-1.5 -3.765625 -1.5 -7.9375q0 -5.796875 2.578125 -10.59375q2.59375 -4.796875 7.421875 -7.6875q4.84375 -2.90625 11.40625 -2.90625q6.65625 0 11.375 2.90625q4.71875 2.890625 7.234375 7.65625q2.515625 4.75 2.515625 10.234375q0 0.9375 -0.078125 1.90625q-0.078125 0.96875 -0.15625 1.578125l-31.328125 0q0.3125 3.09375 1.8125 5.421875q1.515625 2.3125 3.875 3.515625q2.359375 1.1875 5.0625 1.1875q3.09375 0 5.84375 -1.5q2.75 -1.515625 3.75 -3.984375l8.890625 2.46875q-1.46875 3.09375 -4.21875 5.5q-2.734375 2.390625 -6.453125 3.75q-3.703125 1.34375 -8.203125 1.34375zm-10.59375 -24.265625l21.203125 0q-0.3125 -3.09375 -1.75 -5.375q-1.421875 -2.28125 -3.75 -3.5625q-2.3125 -1.28125 -5.171875 -1.28125q-2.796875 0 -5.078125 1.28125q-2.28125 1.28125 -3.71875 3.5625q-1.421875 2.28125 -1.734375 5.375zm56.991455 24.265625q-4.9375 0 -8.890625 -1.65625q-3.9375 -1.65625 -6.71875 -4.625q-2.78125 -2.984375 -4.296875 -6.765625q-1.5 -3.796875 -1.5 -7.984375q0 -5.71875 2.578125 -10.46875q2.59375 -4.765625 7.390625 -7.625q4.796875 -2.859375 11.359375 -2.859375q6.578125 0 11.296875 2.859375q4.71875 2.859375 7.03125 7.5l-10.125 3.09375q-1.3125 -2.234375 -3.484375 -3.4375q-2.15625 -1.203125 -4.78125 -1.203125q-2.953125 0 -5.390625 1.515625q-2.421875 1.5 -3.8125 4.25q-1.390625 2.75 -1.390625 6.375q0 3.5625 1.421875 6.3125q1.4375 2.734375 3.828125 4.328125q2.390625 1.578125 5.34375 1.578125q1.84375 0 3.5 -0.609375q1.671875 -0.625 2.984375 -1.703125q1.3125 -1.078125 1.9375 -2.484375l10.125 3.09375q-1.390625 3.015625 -4.0625 5.421875q-2.65625 2.390625 -6.265625 3.75q-3.59375 1.34375 -8.078125 1.34375zm24.753723 -0.765625l0 -40.515625l10.359375 0l0 40.515625l-10.359375 0zm0 -46.17186l0 -10.28125l10.359375 0l0 10.28125l-10.359375 0zm34.640564 46.937485q-5.1875 0 -9.90625 -1.6875q-4.703125 -1.703125 -8.109375 -5.03125l3.703125 -6.734375q3.640625 2.9375 7.15625 4.34375q3.515625 1.390625 6.765625 1.390625q3.015625 0 4.828125 -1.078125q1.828125 -1.09375 1.828125 -3.265625q0 -1.46875 -1.015625 -2.28125q-1.0 -0.8125 -2.890625 -1.421875q-1.890625 -0.625 -4.59375 -1.390625q-4.5 -1.46875 -7.515625 -2.859375q-3.015625 -1.390625 -4.53125 -3.515625q-1.5 -2.140625 -1.5 -5.453125q0 -4.03125 2.046875 -6.921875q2.0625 -2.90625 5.734375 -4.53125q3.671875 -1.625 8.625 -1.625q4.328125 0 8.1875 1.359375q3.875 1.34375 7.046875 4.359375l-4.1875 6.578125q-3.09375 -2.390625 -5.875 -3.515625q-2.78125 -1.125 -5.640625 -1.125q-1.625 0 -3.0625 0.390625q-1.421875 0.390625 -2.3125 1.28125q-0.890625 0.875 -0.890625 2.5q0 1.46875 0.8125 2.28125q0.8125 0.8125 2.46875 1.4375q1.671875 0.625 4.0625 1.390625q4.875 1.390625 8.234375 2.859375q3.375 1.46875 5.0625 3.59375q1.703125 2.125 1.703125 5.84375q0 6.03125 -4.40625 9.4375q-4.40625 3.390625 -11.828125 3.390625zm42.05951 0q-4.859375 0 -8.8125 -1.65625q-3.9375 -1.65625 -6.71875 -4.546875q-2.78125 -2.90625 -4.296875 -6.65625q-1.5 -3.765625 -1.5 -7.9375q0 -5.796875 2.578125 -10.59375q2.59375 -4.796875 7.421875 -7.6875q4.84375 -2.90625 11.40625 -2.90625q6.65625 0 11.375 2.90625q4.71875 2.890625 7.234375 7.65625q2.515625 4.75 2.515625 10.234375q0 0.9375 -0.078125 1.90625q-0.078125 0.96875 -0.15625 1.578125l-31.328125 0q0.3125 3.09375 1.8125 5.421875q1.515625 2.3125 3.875 3.515625q2.359375 1.1875 5.0625 1.1875q3.09375 0 5.84375 -1.5q2.75 -1.515625 3.75 -3.984375l8.890625 2.46875q-1.46875 3.09375 -4.21875 5.5q-2.734375 2.390625 -6.453125 3.75q-3.703125 1.34375 -8.203125 1.34375zm-10.59375 -24.265625l21.203125 0q-0.3125 -3.09375 -1.75 -5.375q-1.421875 -2.28125 -3.75 -3.5625q-2.3125 -1.28125 -5.171875 -1.28125q-2.796875 0 -5.078125 1.28125q-2.28125 1.28125 -3.71875 3.5625q-1.421875 2.28125 -1.734375 5.375z" fill-rule="nonzero"/><path fill="#000000" fill-opacity="0.0" d="m243.42783 367.10162l645.7008 0l0 160.91339l-645.7008 0z" fill-rule="evenodd"/><path fill="#b7b7b7" d="m375.20248 384.10287l4.484375 0l8.34375 22.71875l-4.546875 0l-2.109375 -5.65625l-7.9375 0l-2.078125 5.65625l-4.546875 0l8.390625 -22.71875zm5.375 13.953125l-3.140625 -9.375l-3.265625 9.375l6.40625 0zm25.113403 8.765625l-4.28125 0l0 -9.40625q0 -2.015625 -0.703125 -2.9375q-0.703125 -0.9375 -1.953125 -0.9375q-0.859375 0 -1.75 0.453125q-0.875 0.4375 -1.578125 1.234375q-0.703125 0.78125 -1.03125 1.796875l0 9.796875l-4.28125 0l0 -16.765625l3.875 0l0 3.109375q0.640625 -1.09375 1.625 -1.84375q1.0 -0.75 2.296875 -1.15625q1.296875 -0.40625 2.734375 -0.40625q1.5625 0 2.5625 0.5625q1.015625 0.5625 1.546875 1.515625q0.53125 0.9375 0.734375 2.125q0.203125 1.171875 0.203125 2.390625l0 10.46875zm2.7186584 -8.390625q0 -2.421875 0.953125 -4.390625q0.96875 -1.96875 2.65625 -3.125q1.703125 -1.15625 3.890625 -1.15625q1.84375 0 3.328125 0.921875q1.5 0.90625 2.328125 2.3125l0 -9.53125l4.296875 0l0 18.5625q0 0.671875 0.21875 0.96875q0.21875 0.28125 0.765625 0.34375l0 3.484375q-1.125 0.21875 -1.828125 0.21875q-1.140625 0 -1.90625 -0.5625q-0.75 -0.578125 -0.84375 -1.515625l-0.0625 -1.046875q-0.921875 1.5625 -2.515625 2.390625q-1.578125 0.828125 -3.3125 0.828125q-1.71875 0 -3.1875 -0.671875q-1.453125 -0.671875 -2.53125 -1.84375q-1.0625 -1.1875 -1.65625 -2.765625q-0.59375 -1.59375 -0.59375 -3.421875zm13.15625 2.25l0 -4.0q-0.3125 -0.9375 -1.015625 -1.671875q-0.703125 -0.734375 -1.578125 -1.15625q-0.859375 -0.4375 -1.71875 -0.4375q-1.0 0 -1.796875 0.421875q-0.796875 0.40625 -1.390625 1.109375q-0.59375 0.703125 -0.90625 1.640625q-0.296875 0.921875 -0.296875 1.953125q0 1.015625 0.328125 1.9375q0.34375 0.90625 0.984375 1.578125q0.640625 0.671875 1.484375 1.0625q0.859375 0.375 1.84375 0.375q0.609375 0 1.234375 -0.203125q0.625 -0.21875 1.171875 -0.578125q0.5625 -0.375 1.0 -0.890625q0.4375 -0.53125 0.65625 -1.140625zm26.241943 5.28125q-0.546875 0.21875 -1.3125 0.515625q-0.765625 0.28125 -1.65625 0.453125q-0.875 0.171875 -1.765625 0.171875q-1.1875 0 -2.1875 -0.40625q-0.984375 -0.421875 -1.578125 -1.328125q-0.59375 -0.921875 -0.59375 -2.390625l0 -9.625l-2.203125 0l0 -3.296875l2.203125 0l0 -5.4375l4.296875 0l0 5.4375l3.515625 0l0 3.296875l-3.515625 0l0 8.1875q0.03125 0.859375 0.46875 1.25q0.453125 0.390625 1.125 0.390625q0.671875 0 1.3125 -0.21875q0.640625 -0.234375 1.03125 -0.390625l0.859375 3.390625zm17.819275 0.859375l-4.28125 0l0 -9.40625q0 -1.953125 -0.75 -2.90625q-0.75 -0.96875 -2.0625 -0.96875q-0.78125 0 -1.640625 0.453125q-0.859375 0.4375 -1.546875 1.234375q-0.6875 0.78125 -1.015625 1.796875l0 9.796875l-4.28125 0l0 -23.359375l4.28125 0l0 9.703125q0.9375 -1.609375 2.53125 -2.5q1.609375 -0.90625 3.484375 -0.90625q1.640625 0 2.65625 0.5625q1.03125 0.5625 1.609375 1.515625q0.578125 0.9375 0.796875 2.109375q0.21875 1.15625 0.21875 2.40625l0 10.46875zm11.531158 0.3125q-2.015625 0 -3.65625 -0.6875q-1.625 -0.6875 -2.78125 -1.875q-1.15625 -1.203125 -1.78125 -2.75q-0.625 -1.5625 -0.625 -3.28125q0 -2.40625 1.078125 -4.390625q1.078125 -1.984375 3.078125 -3.1875q2.0 -1.203125 4.71875 -1.203125q2.75 0 4.703125 1.203125q1.953125 1.203125 2.984375 3.171875q1.046875 1.96875 1.046875 4.234375q0 0.390625 -0.03125 0.796875q-0.03125 0.390625 -0.0625 0.640625l-12.96875 0q0.125 1.28125 0.75 2.25q0.625 0.953125 1.59375 1.453125q0.984375 0.5 2.109375 0.5q1.28125 0 2.40625 -0.625q1.140625 -0.625 1.5625 -1.65625l3.671875 1.03125q-0.609375 1.28125 -1.75 2.28125q-1.125 0.984375 -2.671875 1.546875q-1.53125 0.546875 -3.375 0.546875zm-4.390625 -10.046875l8.765625 0q-0.125 -1.28125 -0.71875 -2.21875q-0.59375 -0.9375 -1.5625 -1.46875q-0.953125 -0.53125 -2.125 -0.53125q-1.15625 0 -2.109375 0.53125q-0.9375 0.53125 -1.53125 1.46875q-0.59375 0.9375 -0.71875 2.21875zm23.426208 -13.625l4.28125 0l0 17.984375q0 1.15625 0.375 1.5625q0.390625 0.390625 1.0625 0.390625q0.515625 0 1.0625 -0.125q0.546875 -0.140625 0.953125 -0.328125l0.578125 3.265625q-0.859375 0.421875 -2.015625 0.640625q-1.140625 0.21875 -2.078125 0.21875q-2.015625 0 -3.125 -1.0625q-1.09375 -1.078125 -1.09375 -3.0625l0 -19.484375zm9.019043 18.40625q0 -1.640625 0.90625 -2.875q0.921875 -1.234375 2.546875 -1.90625q1.640625 -0.671875 3.7499695 -0.671875q1.0625 0 2.140625 0.171875q1.09375 0.15625 1.890625 0.5l0 -0.890625q0 -1.59375 -0.953125 -2.453125q-0.9375 -0.875 -2.796875 -0.875q-1.3749695 0 -2.6249695 0.484375q-1.234375 0.484375 -2.609375 1.40625l-1.390625 -2.8125q1.671875 -1.09375 3.40625 -1.640625q1.75 -0.546875 3.6718445 -0.546875q3.578125 0 5.578125 1.796875q2.0 1.796875 2.0 5.125l0 5.34375q0 0.671875 0.234375 0.96875q0.25 0.28125 0.796875 0.34375l0 3.484375q-0.578125 0.09375 -1.046875 0.15625q-0.453125 0.0625 -0.78125 0.0625q-1.28125 0 -1.9375 -0.5625q-0.65625 -0.578125 -0.8125 -1.421875l-0.09375 -0.859375q-1.09375 1.40625 -2.734375 2.171875q-1.625 0.765625 -3.3124695 0.765625q-1.671875 0 -3.0 -0.6875q-1.328125 -0.6875 -2.078125 -1.875q-0.75 -1.203125 -0.75 -2.703125zm10.4374695 0.859375q0.34375 -0.390625 0.5625 -0.765625q0.234375 -0.390625 0.234375 -0.703125l0 -1.703125q-0.765625 -0.3125 -1.671875 -0.484375q-0.890625 -0.1875 -1.6875 -0.1875q-1.6562195 0 -2.7343445 0.71875q-1.078125 0.71875 -1.078125 1.90625q0 0.640625 0.34375 1.21875q0.359375 0.578125 1.03125 0.9375q0.671875 0.34375 1.6093445 0.34375q0.953125 0 1.875 -0.359375q0.9375 -0.375 1.515625 -0.921875zm18.973633 3.234375q-0.546875 0.21875 -1.3125 0.515625q-0.765625 0.28125 -1.65625 0.453125q-0.875 0.171875 -1.765625 0.171875q-1.1875 0 -2.1875 -0.40625q-0.984375 -0.421875 -1.578125 -1.328125q-0.59375 -0.921875 -0.59375 -2.390625l0 -9.625l-2.203125 0l0 -3.296875l2.203125 0l0 -5.4375l4.296875 0l0 5.4375l3.515625 0l0 3.296875l-3.515625 0l0 8.1875q0.03125 0.859375 0.46875 1.25q0.453125 0.390625 1.125 0.390625q0.671875 0 1.3125 -0.21875q0.640625 -0.234375 1.03125 -0.390625l0.859375 3.390625zm9.827454 -5.984375l0 -3.875l9.6875 0l0 3.875l-9.6875 0zm21.11853 -16.515625l4.28125 0l0 17.984375q0 1.15625 0.375 1.5625q0.390625 0.390625 1.0625 0.390625q0.515625 0 1.0625 -0.125q0.546875 -0.140625 0.953125 -0.328125l0.578125 3.265625q-0.859375 0.421875 -2.015625 0.640625q-1.140625 0.21875 -2.078125 0.21875q-2.015625 0 -3.125 -1.0625q-1.09375 -1.078125 -1.09375 -3.0625l0 -19.484375zm17.925293 23.671875q-2.0625 0 -3.6875 -0.6875q-1.625 -0.6875 -2.765625 -1.890625q-1.140625 -1.21875 -1.75 -2.78125q-0.609375 -1.578125 -0.609375 -3.3125q0 -1.75 0.609375 -3.3125q0.609375 -1.578125 1.75 -2.796875q1.140625 -1.21875 2.765625 -1.90625q1.625 -0.6875 3.6875 -0.6875q2.046875 0 3.65625 0.6875q1.609375 0.6875 2.765625 1.90625q1.15625 1.21875 1.75 2.796875q0.59375 1.5625 0.59375 3.3125q0 1.734375 -0.59375 3.3125q-0.59375 1.5625 -1.734375 2.78125q-1.125 1.203125 -2.765625 1.890625q-1.625 0.6875 -3.671875 0.6875zm-4.390625 -8.671875q0 1.484375 0.578125 2.625q0.578125 1.125 1.5625 1.765625q1.0 0.640625 2.25 0.640625q1.203125 0 2.1875 -0.65625q1.0 -0.65625 1.59375 -1.78125q0.59375 -1.140625 0.59375 -2.625q0 -1.4375 -0.59375 -2.578125q-0.59375 -1.15625 -1.59375 -1.796875q-0.984375 -0.640625 -2.1875 -0.640625q-1.25 0 -2.25 0.65625q-0.984375 0.65625 -1.5625 1.796875q-0.578125 1.125 -0.578125 2.59375zm31.610779 8.359375l-4.28125 0l0 -9.40625q0 -2.015625 -0.703125 -2.9375q-0.703125 -0.9375 -1.953125 -0.9375q-0.859375 0 -1.75 0.453125q-0.875 0.4375 -1.578125 1.234375q-0.703125 0.78125 -1.03125 1.796875l0 9.796875l-4.28125 0l0 -16.765625l3.875 0l0 3.109375q0.640625 -1.09375 1.625 -1.84375q1.0 -0.75 2.296875 -1.15625q1.296875 -0.40625 2.734375 -0.40625q1.5625 0 2.5625 0.5625q1.015625 0.5625 1.546875 1.515625q0.53125 0.9375 0.734375 2.125q0.203125 1.171875 0.203125 2.390625l0 10.46875zm10.312439 0.09375q-1.671875 0 -3.0625 -0.65625q-1.390625 -0.65625 -2.40625 -1.828125q-1.0 -1.1875 -1.546875 -2.71875q-0.546875 -1.546875 -0.546875 -3.28125q0 -1.8125 0.578125 -3.375q0.578125 -1.578125 1.609375 -2.78125q1.046875 -1.203125 2.46875 -1.859375q1.4375 -0.65625 3.15625 -0.65625q1.953125 0 3.421875 0.890625q1.46875 0.875 2.4375 2.34375l0 -2.9375l3.75 0l0 15.96875q0 2.5 -1.203125 4.265625q-1.203125 1.78125 -3.3125 2.71875q-2.109375 0.953125 -4.796875 0.953125q-2.71875 0 -4.609375 -0.921875q-1.890625 -0.90625 -3.234375 -2.578125l2.328125 -2.265625q0.96875 1.1875 2.421875 1.859375q1.453125 0.671875 3.09375 0.671875q1.375 0 2.5 -0.5q1.140625 -0.5 1.828125 -1.546875q0.6875 -1.03125 0.6875 -2.65625l0 -2.109375q-0.828125 1.4375 -2.359375 2.21875q-1.515625 0.78125 -3.203125 0.78125zm1.4375 -3.421875q0.703125 0 1.34375 -0.21875q0.640625 -0.234375 1.1875 -0.609375q0.546875 -0.390625 0.953125 -0.90625q0.421875 -0.53125 0.640625 -1.078125l0 -4.0q-0.375 -1.0 -1.078125 -1.734375q-0.6875 -0.734375 -1.53125 -1.125q-0.84375 -0.40625 -1.765625 -0.40625q-1.0 0 -1.796875 0.421875q-0.796875 0.40625 -1.375 1.15625q-0.578125 0.75 -0.890625 1.671875q-0.296875 0.90625 -0.296875 1.90625q0 1.015625 0.34375 1.921875q0.359375 0.890625 0.984375 1.5625q0.625 0.671875 1.46875 1.0625q0.84375 0.375 1.8125 0.375zm27.780579 3.640625q-2.046875 0 -3.6875 -0.6875q-1.625 -0.6875 -2.78125 -1.90625q-1.15625 -1.234375 -1.78125 -2.796875q-0.625 -1.578125 -0.625 -3.3125q0 -2.359375 1.078125 -4.328125q1.078125 -1.96875 3.0625 -3.15625q1.984375 -1.1875 4.703125 -1.1875q2.71875 0 4.671875 1.1875q1.953125 1.1875 2.90625 3.109375l-4.1875 1.28125q-0.546875 -0.9375 -1.453125 -1.421875q-0.890625 -0.5 -1.96875 -0.5q-1.21875 0 -2.234375 0.625q-1.0 0.625 -1.578125 1.765625q-0.578125 1.125 -0.578125 2.625q0 1.484375 0.59375 2.625q0.59375 1.125 1.578125 1.78125q1.0 0.65625 2.21875 0.65625q0.765625 0 1.453125 -0.25q0.6875 -0.265625 1.21875 -0.703125q0.546875 -0.453125 0.8125 -1.03125l4.1875 1.28125q-0.578125 1.25 -1.6875 2.25q-1.09375 0.984375 -2.59375 1.546875q-1.484375 0.546875 -3.328125 0.546875zm17.8255 0q-2.0625 0 -3.6875 -0.6875q-1.625 -0.6875 -2.765625 -1.890625q-1.140625 -1.21875 -1.75 -2.78125q-0.609375 -1.578125 -0.609375 -3.3125q0 -1.75 0.609375 -3.3125q0.609375 -1.578125 1.75 -2.796875q1.140625 -1.21875 2.765625 -1.90625q1.625 -0.6875 3.6875 -0.6875q2.046875 0 3.65625 0.6875q1.609375 0.6875 2.765625 1.90625q1.15625 1.21875 1.75 2.796875q0.59375 1.5625 0.59375 3.3125q0 1.734375 -0.59375 3.3125q-0.59375 1.5625 -1.734375 2.78125q-1.125 1.203125 -2.765625 1.890625q-1.625 0.6875 -3.671875 0.6875zm-4.390625 -8.671875q0 1.484375 0.578125 2.625q0.578125 1.125 1.5625 1.765625q1.0 0.640625 2.25 0.640625q1.203125 0 2.1875 -0.65625q1.0 -0.65625 1.59375 -1.78125q0.59375 -1.140625 0.59375 -2.625q0 -1.4375 -0.59375 -2.578125q-0.59375 -1.15625 -1.59375 -1.796875q-0.984375 -0.640625 -2.1875 -0.640625q-1.25 0 -2.25 0.65625q-0.984375 0.65625 -1.5625 1.796875q-0.578125 1.125 -0.578125 2.59375zm23.782654 8.671875q-2.0625 0 -3.6875 -0.6875q-1.625 -0.6875 -2.765625 -1.890625q-1.140625 -1.21875 -1.75 -2.78125q-0.609375 -1.578125 -0.609375 -3.3125q0 -1.75 0.609375 -3.3125q0.609375 -1.578125 1.75 -2.796875q1.140625 -1.21875 2.765625 -1.90625q1.625 -0.6875 3.6875 -0.6875q2.046875 0 3.65625 0.6875q1.609375 0.6875 2.765625 1.90625q1.15625 1.21875 1.75 2.796875q0.59375 1.5625 0.59375 3.3125q0 1.734375 -0.59375 3.3125q-0.59375 1.5625 -1.734375 2.78125q-1.125 1.203125 -2.765625 1.890625q-1.625 0.6875 -3.671875 0.6875zm-4.390625 -8.671875q0 1.484375 0.578125 2.625q0.578125 1.125 1.5625 1.765625q1.0 0.640625 2.25 0.640625q1.203125 0 2.1875 -0.65625q1.0 -0.65625 1.59375 -1.78125q0.59375 -1.140625 0.59375 -2.625q0 -1.4375 -0.59375 -2.578125q-0.59375 -1.15625 -1.59375 -1.796875q-0.984375 -0.640625 -2.1875 -0.640625q-1.25 0 -2.25 0.65625q-0.984375 0.65625 -1.5625 1.796875q-0.578125 1.125 -0.578125 2.59375zm26.017029 -4.703125q-1.953125 0 -3.5 0.765625q-1.53125 0.75 -2.203125 2.15625l0 10.140625l-4.28125 0l0 -16.765625l3.9375 0l0 3.578125q0.890625 -1.71875 2.265625 -2.703125q1.375 -1.0 2.921875 -1.09375q0.34375 0 0.53125 0q0.203125 0 0.328125 0.03125l0 3.890625zm1.208374 4.671875q0 -2.421875 0.953125 -4.390625q0.96875 -1.96875 2.65625 -3.125q1.703125 -1.15625 3.890625 -1.15625q1.84375 0 3.328125 0.921875q1.5 0.90625 2.328125 2.3125l0 -9.53125l4.296875 0l0 18.5625q0 0.671875 0.21875 0.96875q0.21875 0.28125 0.765625 0.34375l0 3.484375q-1.125 0.21875 -1.828125 0.21875q-1.140625 0 -1.90625 -0.5625q-0.75 -0.578125 -0.84375 -1.515625l-0.0625 -1.046875q-0.921875 1.5625 -2.515625 2.390625q-1.578125 0.828125 -3.3125 0.828125q-1.71875 0 -3.1875 -0.671875q-1.453125 -0.671875 -2.53125 -1.84375q-1.0625 -1.1875 -1.65625 -2.765625q-0.59375 -1.59375 -0.59375 -3.421875zm13.15625 2.25l0 -4.0q-0.3125 -0.9375 -1.015625 -1.671875q-0.703125 -0.734375 -1.578125 -1.15625q-0.859375 -0.4375 -1.71875 -0.4375q-1.0 0 -1.796875 0.421875q-0.796875 0.40625 -1.390625 1.109375q-0.59375 0.703125 -0.90625 1.640625q-0.296875 0.921875 -0.296875 1.953125q0 1.015625 0.328125 1.9375q0.34375 0.90625 0.984375 1.578125q0.640625 0.671875 1.484375 1.0625q0.859375 0.375 1.84375 0.375q0.609375 0 1.234375 -0.203125q0.625 -0.21875 1.171875 -0.578125q0.5625 -0.375 1.0 -0.890625q0.4375 -0.53125 0.65625 -1.140625zm8.515076 6.140625l0 -16.765625l4.28125 0l0 16.765625l-4.28125 0zm0 -19.109375l0 -4.25l4.28125 0l0 4.25l-4.28125 0zm23.738098 19.109375l-4.28125 0l0 -9.40625q0 -2.015625 -0.703125 -2.9375q-0.703125 -0.9375 -1.953125 -0.9375q-0.859375 0 -1.75 0.453125q-0.875 0.4375 -1.578125 1.234375q-0.703125 0.78125 -1.03125 1.796875l0 9.796875l-4.28125 0l0 -16.765625l3.875 0l0 3.109375q0.640625 -1.09375 1.625 -1.84375q1.0 -0.75 2.296875 -1.15625q1.296875 -0.40625 2.734375 -0.40625q1.5625 0 2.5625 0.5625q1.015625 0.5625 1.546875 1.515625q0.53125 0.9375 0.734375 2.125q0.203125 1.171875 0.203125 2.390625l0 10.46875zm2.593628 -4.953125q0 -1.640625 0.90625 -2.875q0.921875 -1.234375 2.546875 -1.90625q1.640625 -0.671875 3.75 -0.671875q1.0625 0 2.140625 0.171875q1.09375 0.15625 1.890625 0.5l0 -0.890625q0 -1.59375 -0.953125 -2.453125q-0.9375 -0.875 -2.796875 -0.875q-1.375 0 -2.625 0.484375q-1.234375 0.484375 -2.609375 1.40625l-1.390625 -2.8125q1.671875 -1.09375 3.40625 -1.640625q1.75 -0.546875 3.671875 -0.546875q3.578125 0 5.578125 1.796875q2.0 1.796875 2.0 5.125l0 5.34375q0 0.671875 0.234375 0.96875q0.25 0.28125 0.796875 0.34375l0 3.484375q-0.578125 0.09375 -1.046875 0.15625q-0.453125 0.0625 -0.78125 0.0625q-1.28125 0 -1.9375 -0.5625q-0.65625 -0.578125 -0.8125 -1.421875l-0.09375 -0.859375q-1.09375 1.40625 -2.734375 2.171875q-1.625 0.765625 -3.3125 0.765625q-1.671875 0 -3.0 -0.6875q-1.328125 -0.6875 -2.078125 -1.875q-0.75 -1.203125 -0.75 -2.703125zm10.4375 0.859375q0.34375 -0.390625 0.5625 -0.765625q0.234375 -0.390625 0.234375 -0.703125l0 -1.703125q-0.765625 -0.3125 -1.671875 -0.484375q-0.890625 -0.1875 -1.6875 -0.1875q-1.65625 0 -2.734375 0.71875q-1.078125 0.71875 -1.078125 1.90625q0 0.640625 0.34375 1.21875q0.359375 0.578125 1.03125 0.9375q0.671875 0.34375 1.609375 0.34375q0.953125 0 1.875 -0.359375q0.9375 -0.375 1.515625 -0.921875zm18.973694 3.234375q-0.546875 0.21875 -1.3125 0.515625q-0.765625 0.28125 -1.65625 0.453125q-0.875 0.171875 -1.765625 0.171875q-1.1875 0 -2.1875 -0.40625q-0.984375 -0.421875 -1.578125 -1.328125q-0.59375 -0.921875 -0.59375 -2.390625l0 -9.625l-2.203125 0l0 -3.296875l2.203125 0l0 -5.4375l4.296875 0l0 5.4375l3.515625 0l0 3.296875l-3.515625 0l0 8.1875q0.03125 0.859375 0.46875 1.25q0.453125 0.390625 1.125 0.390625q0.671875 0 1.3125 -0.21875q0.640625 -0.234375 1.03125 -0.390625l0.859375 3.390625zm9.798401 1.171875q-2.015625 0 -3.65625 -0.6875q-1.625 -0.6875 -2.78125 -1.875q-1.15625 -1.203125 -1.78125 -2.75q-0.625 -1.5625 -0.625 -3.28125q0 -2.40625 1.078125 -4.390625q1.078125 -1.984375 3.078125 -3.1875q2.0 -1.203125 4.71875 -1.203125q2.75 0 4.703125 1.203125q1.953125 1.203125 2.984375 3.171875q1.046875 1.96875 1.046875 4.234375q0 0.390625 -0.03125 0.796875q-0.03125 0.390625 -0.0625 0.640625l-12.96875 0q0.125 1.28125 0.75 2.25q0.625 0.953125 1.59375 1.453125q0.984375 0.5 2.109375 0.5q1.28125 0 2.40625 -0.625q1.140625 -0.625 1.5625 -1.65625l3.671875 1.03125q-0.609375 1.28125 -1.75 2.28125q-1.125 0.984375 -2.671875 1.546875q-1.53125 0.546875 -3.375 0.546875zm-4.390625 -10.046875l8.765625 0q-0.125 -1.28125 -0.71875 -2.21875q-0.59375 -0.9375 -1.5625 -1.46875q-0.953125 -0.53125 -2.125 -0.53125q-1.15625 0 -2.109375 0.53125q-0.9375 0.53125 -1.53125 1.46875q-0.59375 0.9375 -0.71875 2.21875zm21.94928 10.046875q-2.140625 0 -4.09375 -0.703125q-1.953125 -0.703125 -3.359375 -2.078125l1.53125 -2.78125q1.515625 1.21875 2.96875 1.796875q1.453125 0.578125 2.796875 0.578125q1.25 0 2.0 -0.453125q0.75 -0.453125 0.75 -1.34375q0 -0.609375 -0.421875 -0.9375q-0.40625 -0.34375 -1.203125 -0.59375q-0.78125 -0.265625 -1.890625 -0.578125q-1.859375 -0.609375 -3.109375 -1.1875q-1.25 -0.578125 -1.875 -1.453125q-0.625 -0.875 -0.625 -2.265625q0 -1.65625 0.84375 -2.859375q0.859375 -1.203125 2.375 -1.875q1.53125 -0.671875 3.578125 -0.671875q1.78125 0 3.375 0.5625q1.609375 0.5625 2.921875 1.8125l-1.734375 2.71875q-1.265625 -0.984375 -2.421875 -1.453125q-1.15625 -0.46875 -2.34375 -0.46875q-0.671875 0 -1.265625 0.171875q-0.578125 0.15625 -0.953125 0.53125q-0.375 0.359375 -0.375 1.03125q0 0.609375 0.328125 0.953125q0.34375 0.328125 1.03125 0.578125q0.6875 0.25 1.6875 0.578125q2.015625 0.578125 3.40625 1.1875q1.390625 0.609375 2.09375 1.484375q0.703125 0.875 0.703125 2.421875q0 2.484375 -1.828125 3.890625q-1.8125 1.40625 -4.890625 1.40625zm16.159973 -5.265625q0 -1.640625 0.90625 -2.875q0.921875 -1.234375 2.546875 -1.90625q1.640625 -0.671875 3.75 -0.671875q1.0625 0 2.140625 0.171875q1.09375 0.15625 1.890625 0.5l0 -0.890625q0 -1.59375 -0.953125 -2.453125q-0.9375 -0.875 -2.796875 -0.875q-1.375 0 -2.625 0.484375q-1.234375 0.484375 -2.609375 1.40625l-1.390625 -2.8125q1.671875 -1.09375 3.40625 -1.640625q1.75 -0.546875 3.671875 -0.546875q3.578125 0 5.578125 1.796875q2.0 1.796875 2.0 5.125l0 5.34375q0 0.671875 0.234375 0.96875q0.25 0.28125 0.796875 0.34375l0 3.484375q-0.578125 0.09375 -1.046875 0.15625q-0.453125 0.0625 -0.78125 0.0625q-1.28125 0 -1.9375 -0.5625q-0.65625 -0.578125 -0.8125 -1.421875l-0.09375 -0.859375q-1.09375 1.40625 -2.734375 2.171875q-1.625 0.765625 -3.3125 0.765625q-1.671875 0 -3.0 -0.6875q-1.328125 -0.6875 -2.078125 -1.875q-0.75 -1.203125 -0.75 -2.703125zm10.4375 0.859375q0.34375 -0.390625 0.5625 -0.765625q0.234375 -0.390625 0.234375 -0.703125l0 -1.703125q-0.765625 -0.3125 -1.671875 -0.484375q-0.890625 -0.1875 -1.6875 -0.1875q-1.65625 0 -2.734375 0.71875q-1.078125 0.71875 -1.078125 1.90625q0 0.640625 0.34375 1.21875q0.359375 0.578125 1.03125 0.9375q0.671875 0.34375 1.609375 0.34375q0.953125 0 1.875 -0.359375q0.9375 -0.375 1.515625 -0.921875zm19.071167 -8.96875q-1.953125 0 -3.5 0.765625q-1.53125 0.75 -2.203125 2.15625l0 10.140625l-4.28125 0l0 -16.765625l3.9375 0l0 3.578125q0.890625 -1.71875 2.265625 -2.703125q1.375 -1.0 2.921875 -1.09375q0.34375 0 0.53125 0q0.203125 0 0.328125 0.03125l0 3.890625zm9.956848 13.375q-2.015625 0 -3.65625 -0.6875q-1.625 -0.6875 -2.78125 -1.875q-1.15625 -1.203125 -1.78125 -2.75q-0.625 -1.5625 -0.625 -3.28125q0 -2.40625 1.078125 -4.390625q1.078125 -1.984375 3.078125 -3.1875q2.0 -1.203125 4.71875 -1.203125q2.75 0 4.703125 1.203125q1.953125 1.203125 2.984375 3.171875q1.046875 1.96875 1.046875 4.234375q0 0.390625 -0.03125 0.796875q-0.03125 0.390625 -0.0625 0.640625l-12.96875 0q0.125 1.28125 0.75 2.25q0.625 0.953125 1.59375 1.453125q0.984375 0.5 2.109375 0.5q1.28125 0 2.40625 -0.625q1.140625 -0.625 1.5625 -1.65625l3.671875 1.03125q-0.609375 1.28125 -1.75 2.28125q-1.125 0.984375 -2.671875 1.546875q-1.53125 0.546875 -3.375 0.546875zm-4.390625 -10.046875l8.765625 0q-0.125 -1.28125 -0.71875 -2.21875q-0.59375 -0.9375 -1.5625 -1.46875q-0.953125 -0.53125 -2.125 -0.53125q-1.15625 0 -2.109375 0.53125q-0.9375 0.53125 -1.53125 1.46875q-0.59375 0.9375 -0.71875 2.21875z" fill-rule="nonzero"/><path fill="#b7b7b7" d="m452.98416 451.64224q-0.546875 0.21875 -1.3125 0.515625q-0.765625 0.28125 -1.65625 0.453125q-0.875 0.171875 -1.765625 0.171875q-1.1875 0 -2.1875 -0.40625q-0.984375 -0.421875 -1.578125 -1.328125q-0.59375 -0.921875 -0.59375 -2.390625l0 -9.625l-2.203125 0l0 -3.296875l2.203125 0l0 -5.4375l4.296875 0l0 5.4375l3.515625 0l0 3.296875l-3.515625 0l0 8.1875q0.03125 0.859375 0.46875 1.25q0.453125 0.390625 1.125 0.390625q0.671875 0 1.3125 -0.21875q0.640625 -0.234375 1.03125 -0.390625l0.859375 3.390625zm9.767151 1.171875q-2.0625 0 -3.6875 -0.6875q-1.625 -0.6875 -2.765625 -1.890625q-1.140625 -1.21875 -1.75 -2.78125q-0.609375 -1.578125 -0.609375 -3.3125q0 -1.75 0.609375 -3.3125q0.609375 -1.578125 1.75 -2.796875q1.140625 -1.21875 2.765625 -1.90625q1.625 -0.6875 3.6875 -0.6875q2.046875 0 3.65625 0.6875q1.609375 0.6875 2.765625 1.90625q1.15625 1.21875 1.75 2.796875q0.59375 1.5625 0.59375 3.3125q0 1.734375 -0.59375 3.3125q-0.59375 1.5625 -1.734375 2.78125q-1.125 1.203125 -2.765625 1.890625q-1.625 0.6875 -3.671875 0.6875zm-4.390625 -8.671875q0 1.484375 0.578125 2.625q0.578125 1.125 1.5625 1.765625q1.0 0.640625 2.25 0.640625q1.203125 0 2.1875 -0.65625q1.0 -0.65625 1.59375 -1.78125q0.59375 -1.140625 0.59375 -2.625q0 -1.4375 -0.59375 -2.578125q-0.59375 -1.15625 -1.59375 -1.796875q-0.984375 -0.640625 -2.1875 -0.640625q-1.25 0 -2.25 0.65625q-0.984375 0.65625 -1.5625 1.796875q-0.578125 1.125 -0.578125 2.59375zm23.782654 8.671875q-2.0625 0 -3.6875 -0.6875q-1.625 -0.6875 -2.765625 -1.890625q-1.140625 -1.21875 -1.75 -2.78125q-0.609375 -1.578125 -0.609375 -3.3125q0 -1.75 0.609375 -3.3125q0.609375 -1.578125 1.75 -2.796875q1.140625 -1.21875 2.765625 -1.90625q1.625 -0.6875 3.6875 -0.6875q2.046875 0 3.65625 0.6875q1.609375 0.6875 2.765625 1.90625q1.15625 1.21875 1.75 2.796875q0.59375 1.5625 0.59375 3.3125q0 1.734375 -0.59375 3.3125q-0.59375 1.5625 -1.734375 2.78125q-1.125 1.203125 -2.765625 1.890625q-1.625 0.6875 -3.671875 0.6875zm-4.390625 -8.671875q0 1.484375 0.578125 2.625q0.578125 1.125 1.5625 1.765625q1.0 0.640625 2.25 0.640625q1.203125 0 2.1875 -0.65625q1.0 -0.65625 1.59375 -1.78125q0.59375 -1.140625 0.59375 -2.625q0 -1.4375 -0.59375 -2.578125q-0.59375 -1.15625 -1.59375 -1.796875q-0.984375 -0.640625 -2.1875 -0.640625q-1.25 0 -2.25 0.65625q-0.984375 0.65625 -1.5625 1.796875q-0.578125 1.125 -0.578125 2.59375z" fill-rule="nonzero"/><path fill="#b7b7b7" d="m511.71542 452.90787q-2.5625 0 -4.609375 -0.859375q-2.03125 -0.859375 -3.46875 -2.40625q-1.4375 -1.546875 -2.21875 -3.5q-0.78125 -1.953125 -0.78125 -4.125q0 -2.953125 1.328125 -5.40625q1.34375 -2.46875 3.828125 -3.9375q2.484375 -1.484375 5.875 -1.484375q3.4062195 0 5.8437195 1.484375q2.4375 1.46875 3.640625 3.875l-5.234375 1.59375q-0.6875 -1.15625 -1.8125 -1.78125q-1.109375 -0.625 -2.4687195 -0.625q-1.53125 0 -2.796875 0.78125q-1.25 0.78125 -1.96875 2.203125q-0.71875 1.421875 -0.71875 3.296875q0 1.84375 0.734375 3.265625q0.75 1.421875 1.984375 2.25q1.234375 0.8125 2.765625 0.8125q0.9530945 0 1.8124695 -0.3125q0.859375 -0.328125 1.53125 -0.890625q0.6875 -0.5625 1.015625 -1.28125l5.234375 1.59375q-0.71875 1.5625 -2.109375 2.8125q-1.375 1.234375 -3.234375 1.9375q-1.859375 0.703125 -4.1718445 0.703125zm22.28183 0q-2.5625 0 -4.609375 -0.859375q-2.03125 -0.859375 -3.453125 -2.375q-1.421875 -1.53125 -2.1875 -3.484375q-0.75 -1.96875 -0.75 -4.125q0 -2.203125 0.75 -4.15625q0.765625 -1.96875 2.1875 -3.484375q1.421875 -1.515625 3.453125 -2.375q2.046875 -0.859375 4.609375 -0.859375q2.5625 0 4.578125 0.859375q2.015625 0.859375 3.453125 2.375q1.4375 1.515625 2.171875 3.484375q0.75 1.953125 0.75 4.15625q0 2.15625 -0.75 4.125q-0.734375 1.953125 -2.15625 3.484375q-1.40625 1.515625 -3.453125 2.375q-2.03125 0.859375 -4.59375 0.859375zm-5.484375 -10.84375q0 1.84375 0.71875 3.265625q0.71875 1.40625 1.953125 2.21875q1.25 0.796875 2.8125 0.796875q1.515625 0 2.75 -0.8125q1.25 -0.828125 1.984375 -2.25q0.734375 -1.421875 0.734375 -3.265625q0 -1.796875 -0.734375 -3.234375q-0.734375 -1.4375 -1.984375 -2.234375q-1.234375 -0.8125 -2.75 -0.8125q-1.5625 0 -2.8125 0.828125q-1.234375 0.8125 -1.953125 2.234375q-0.71875 1.421875 -0.71875 3.265625zm52.599365 10.4375l-5.359375 0l0 -11.765625q0 -2.46875 -0.859375 -3.640625q-0.859375 -1.1875 -2.375 -1.1875q-1.5625 0 -2.984375 1.21875q-1.421875 1.21875 -2.015625 3.171875l0 12.203125l-5.359375 0l0 -11.765625q0 -2.515625 -0.875 -3.671875q-0.859375 -1.15625 -2.375 -1.15625q-1.5625 0 -2.984375 1.203125q-1.40625 1.1875 -2.015625 3.15625l0 12.234375l-5.359375 0l0 -20.953125l4.84375 0l0 3.875q1.203125 -2.046875 3.203125 -3.140625q2.0 -1.09375 4.59375 -1.09375q2.609375 0 4.0625 1.28125q1.453125 1.265625 1.859375 3.15625q1.28125 -2.171875 3.25 -3.296875q1.984375 -1.140625 4.46875 -1.140625q1.96875 0 3.1875 0.703125q1.21875 0.6875 1.890625 1.875q0.6875 1.171875 0.9375 2.65625q0.265625 1.484375 0.265625 3.0l0 13.078125zm17.23993 0.40625q-2.4375 0 -4.296875 -1.09375q-1.859375 -1.109375 -2.90625 -3.0l0 12.203125l-5.359375 0l0 -29.46875l4.6875 0l0 3.59375q1.1875 -1.84375 3.03125 -2.890625q1.84375 -1.0625 4.203125 -1.0625q2.125 0 3.90625 0.84375q1.78125 0.828125 3.09375 2.328125q1.328125 1.5 2.0625 3.4375q0.734375 1.9375 0.734375 4.1875q0 3.03125 -1.1875 5.515625q-1.171875 2.484375 -3.234375 3.953125q-2.046875 1.453125 -4.734375 1.453125zm-1.796875 -4.5625q1.234375 0 2.234375 -0.515625q1.0 -0.53125 1.734375 -1.421875q0.75 -0.90625 1.125 -2.046875q0.390625 -1.140625 0.390625 -2.375q0 -1.328125 -0.421875 -2.4375q-0.421875 -1.125 -1.234375 -1.984375q-0.796875 -0.859375 -1.859375 -1.34375q-1.046875 -0.484375 -2.296875 -0.484375q-0.75 0 -1.53125 0.265625q-0.78125 0.265625 -1.5 0.75q-0.71875 0.46875 -1.265625 1.109375q-0.53125 0.640625 -0.78125 1.40625l0 4.921875q0.484375 1.15625 1.296875 2.125q0.828125 0.953125 1.90625 1.5q1.078125 0.53125 2.203125 0.53125zm14.56311 -25.046875l5.359375 0l0 22.484375q0 1.4375 0.46875 1.9375q0.484375 0.5 1.328125 0.5q0.640625 0 1.3125 -0.15625q0.6875 -0.15625 1.203125 -0.40625l0.71875 4.078125q-1.078125 0.53125 -2.515625 0.796875q-1.4375 0.28125 -2.59375 0.28125q-2.53125 0 -3.90625 -1.328125q-1.375 -1.34375 -1.375 -3.828125l0 -24.359375zm22.429993 29.609375q-2.515625 0 -4.5625 -0.859375q-2.03125 -0.859375 -3.46875 -2.359375q-1.4375 -1.5 -2.21875 -3.4375q-0.78125 -1.953125 -0.78125 -4.109375q0 -3.0 1.328125 -5.46875q1.34375 -2.484375 3.84375 -3.984375q2.5 -1.5 5.90625 -1.5q3.4375 0 5.875 1.5q2.4375 1.5 3.734375 3.953125q1.3125 2.453125 1.3125 5.296875q0 0.484375 -0.046875 0.984375q-0.03125 0.5 -0.078125 0.8125l-16.203125 0q0.15625 1.609375 0.9375 2.8125q0.78125 1.1875 2.0 1.8125q1.21875 0.625 2.625 0.625q1.59375 0 3.015625 -0.78125q1.421875 -0.78125 1.9375 -2.0625l4.609375 1.28125q-0.765625 1.59375 -2.1875 2.84375q-1.421875 1.234375 -3.34375 1.9375q-1.90625 0.703125 -4.234375 0.703125zm-5.46875 -12.5625l10.953125 0q-0.15625 -1.609375 -0.90625 -2.78125q-0.734375 -1.1875 -1.9375 -1.84375q-1.203125 -0.65625 -2.671875 -0.65625q-1.4375 0 -2.625 0.65625q-1.1875 0.65625 -1.921875 1.84375q-0.734375 1.171875 -0.890625 2.78125zm22.347473 -8.796875l4.40625 6.546875l0.3125 0.71875l0.40625 -0.71875l4.359375 -6.546875l5.640625 0l-7.28125 10.4375l7.40625 10.515625l-5.640625 0l-4.53125 -6.515625l-0.359375 -0.6875l-0.3125 0.6875l-4.484375 6.515625l-5.640625 0l7.40625 -10.40625l-7.28125 -10.546875l5.59375 0z" fill-rule="nonzero"/><path fill="#b7b7b7" d="m685.47217 451.64224q-0.546875 0.21875 -1.3125 0.515625q-0.765625 0.28125 -1.65625 0.453125q-0.875 0.171875 -1.765625 0.171875q-1.1875 0 -2.1875 -0.40625q-0.984375 -0.421875 -1.578125 -1.328125q-0.59375 -0.921875 -0.59375 -2.390625l0 -9.625l-2.203125 0l0 -3.296875l2.203125 0l0 -5.4375l4.296875 0l0 5.4375l3.515625 0l0 3.296875l-3.515625 0l0 8.1875q0.03125 0.859375 0.46875 1.25q0.453125 0.390625 1.125 0.390625q0.671875 0 1.3125 -0.21875q0.640625 -0.234375 1.03125 -0.390625l0.859375 3.390625zm9.767151 1.171875q-2.0625 0 -3.6875 -0.6875q-1.625 -0.6875 -2.765625 -1.890625q-1.140625 -1.21875 -1.75 -2.78125q-0.609375 -1.578125 -0.609375 -3.3125q0 -1.75 0.609375 -3.3125q0.609375 -1.578125 1.75 -2.796875q1.140625 -1.21875 2.765625 -1.90625q1.625 -0.6875 3.6875 -0.6875q2.046875 0 3.65625 0.6875q1.609375 0.6875 2.765625 1.90625q1.15625 1.21875 1.75 2.796875q0.59375 1.5625 0.59375 3.3125q0 1.734375 -0.59375 3.3125q-0.59375 1.5625 -1.734375 2.78125q-1.125 1.203125 -2.765625 1.890625q-1.625 0.6875 -3.671875 0.6875zm-4.390625 -8.671875q0 1.484375 0.578125 2.625q0.578125 1.125 1.5625 1.765625q1.0 0.640625 2.25 0.640625q1.203125 0 2.1875 -0.65625q1.0 -0.65625 1.59375 -1.78125q0.59375 -1.140625 0.59375 -2.625q0 -1.4375 -0.59375 -2.578125q-0.59375 -1.15625 -1.59375 -1.796875q-0.984375 -0.640625 -2.1875 -0.640625q-1.25 0 -2.25 0.65625q-0.984375 0.65625 -1.5625 1.796875q-0.578125 1.125 -0.578125 2.59375zm33.243896 8.671875q-1.921875 0 -3.421875 -0.859375q-1.5 -0.859375 -2.359375 -2.359375l0 2.90625l-3.75 0l0 -23.359375l4.28125 0l0 9.53125q0.90625 -1.5 2.359375 -2.359375q1.453125 -0.875 3.40625 -0.875q1.625 0 2.96875 0.6875q1.34375 0.6875 2.3125 1.90625q0.984375 1.21875 1.515625 2.796875q0.53125 1.5625 0.53125 3.359375q0 1.78125 -0.59375 3.359375q-0.59375 1.5625 -1.65625 2.765625q-1.046875 1.203125 -2.46875 1.859375q-1.421875 0.640625 -3.125 0.640625zm-1.1875 -3.640625q1.03125 0 1.875 -0.390625q0.859375 -0.40625 1.46875 -1.078125q0.625 -0.671875 0.953125 -1.578125q0.34375 -0.921875 0.34375 -1.90625q0 -1.375 -0.5625 -2.546875q-0.546875 -1.171875 -1.53125 -1.875q-0.96875 -0.703125 -2.28125 -0.703125q-0.9375 0 -1.78125 0.4375q-0.84375 0.421875 -1.5 1.15625q-0.65625 0.734375 -1.046875 1.671875l0 4.0q0.203125 0.640625 0.625 1.15625q0.4375 0.5 1.015625 0.875q0.578125 0.359375 1.203125 0.578125q0.625 0.203125 1.21875 0.203125zm19.725586 3.640625q-2.015625 0 -3.65625 -0.6875q-1.625 -0.6875 -2.78125 -1.875q-1.15625 -1.203125 -1.78125 -2.75q-0.625 -1.5625 -0.625 -3.28125q0 -2.40625 1.078125 -4.390625q1.078125 -1.984375 3.078125 -3.1875q2.0 -1.203125 4.71875 -1.203125q2.75 0 4.703125 1.203125q1.953125 1.203125 2.984375 3.171875q1.046875 1.96875 1.046875 4.234375q0 0.390625 -0.03125 0.796875q-0.03125 0.390625 -0.0625 0.640625l-12.96875 0q0.125 1.28125 0.75 2.25q0.625 0.953125 1.59375 1.453125q0.984375 0.5 2.109375 0.5q1.28125 0 2.40625 -0.625q1.140625 -0.625 1.5625 -1.65625l3.671875 1.03125q-0.609375 1.28125 -1.75 2.28125q-1.125 0.984375 -2.671875 1.546875q-1.53125 0.546875 -3.375 0.546875zm-4.390625 -10.046875l8.765625 0q-0.125 -1.28125 -0.71875 -2.21875q-0.59375 -0.9375 -1.5625 -1.46875q-0.953125 -0.53125 -2.125 -0.53125q-1.15625 0 -2.109375 0.53125q-0.9375 0.53125 -1.53125 1.46875q-0.59375 0.9375 -0.71875 2.21875zm23.301147 3.46875l0 -10.5l4.28125 0l0 9.5625q0 1.921875 0.703125 2.90625q0.703125 0.96875 2.078125 0.96875q0.84375 0 1.65625 -0.328125q0.8125 -0.34375 1.5 -1.015625q0.6875 -0.671875 1.171875 -1.703125l0 -10.390625l4.28125 0l0 11.96875q0 0.671875 0.234375 0.96875q0.25 0.28125 0.796875 0.34375l0 3.484375q-0.640625 0.09375 -1.078125 0.140625q-0.4375 0.046875 -0.78125 0.046875q-1.15625 0 -1.875 -0.515625q-0.71875 -0.53125 -0.84375 -1.46875l-0.09375 -1.34375q-1.125 1.703125 -2.890625 2.578125q-1.75 0.875 -3.859375 0.875q-2.59375 0 -3.9375 -1.671875q-1.34375 -1.6875 -1.34375 -4.90625zm26.104187 6.578125q-2.140625 0 -4.09375 -0.703125q-1.953125 -0.703125 -3.359375 -2.078125l1.53125 -2.78125q1.515625 1.21875 2.96875 1.796875q1.453125 0.578125 2.796875 0.578125q1.25 0 2.0 -0.453125q0.75 -0.453125 0.75 -1.34375q0 -0.609375 -0.421875 -0.9375q-0.40625 -0.34375 -1.203125 -0.59375q-0.78125 -0.265625 -1.890625 -0.578125q-1.859375 -0.609375 -3.109375 -1.1875q-1.25 -0.578125 -1.875 -1.453125q-0.625 -0.875 -0.625 -2.265625q0 -1.65625 0.84375 -2.859375q0.859375 -1.203125 2.375 -1.875q1.53125 -0.671875 3.578125 -0.671875q1.78125 0 3.375 0.5625q1.609375 0.5625 2.921875 1.8125l-1.734375 2.71875q-1.265625 -0.984375 -2.421875 -1.453125q-1.15625 -0.46875 -2.34375 -0.46875q-0.671875 0 -1.265625 0.171875q-0.578125 0.15625 -0.953125 0.53125q-0.375 0.359375 -0.375 1.03125q0 0.609375 0.328125 0.953125q0.34375 0.328125 1.03125 0.578125q0.6875 0.25 1.6875 0.578125q2.015625 0.578125 3.40625 1.1875q1.390625 0.609375 2.09375 1.484375q0.703125 0.875 0.703125 2.421875q0 2.484375 -1.828125 3.890625q-1.8125 1.40625 -4.890625 1.40625zm17.41742 0q-2.015625 0 -3.65625 -0.6875q-1.625 -0.6875 -2.78125 -1.875q-1.15625 -1.203125 -1.78125 -2.75q-0.625 -1.5625 -0.625 -3.28125q0 -2.40625 1.078125 -4.390625q1.078125 -1.984375 3.078125 -3.1875q2.0 -1.203125 4.71875 -1.203125q2.75 0 4.703125 1.203125q1.953125 1.203125 2.984375 3.171875q1.046875 1.96875 1.046875 4.234375q0 0.390625 -0.03125 0.796875q-0.03125 0.390625 -0.0625 0.640625l-12.96875 0q0.125 1.28125 0.75 2.25q0.625 0.953125 1.59375 1.453125q0.984375 0.5 2.109375 0.5q1.28125 0 2.40625 -0.625q1.140625 -0.625 1.5625 -1.65625l3.671875 1.03125q-0.609375 1.28125 -1.75 2.28125q-1.125 0.984375 -2.671875 1.546875q-1.53125 0.546875 -3.375 0.546875zm-4.390625 -10.046875l8.765625 0q-0.125 -1.28125 -0.71875 -2.21875q-0.59375 -0.9375 -1.5625 -1.46875q-0.953125 -0.53125 -2.125 -0.53125q-1.15625 0 -2.109375 0.53125q-0.9375 0.53125 -1.53125 1.46875q-0.59375 0.9375 -0.71875 2.21875zm14.746155 1.34375q0 -2.421875 0.953125 -4.390625q0.96875 -1.96875 2.65625 -3.125q1.703125 -1.15625 3.890625 -1.15625q1.84375 0 3.328125 0.921875q1.5 0.90625 2.328125 2.3125l0 -9.53125l4.296875 0l0 18.5625q0 0.671875 0.21875 0.96875q0.21875 0.28125 0.765625 0.34375l0 3.484375q-1.125 0.21875 -1.828125 0.21875q-1.140625 0 -1.90625 -0.5625q-0.75 -0.578125 -0.84375 -1.515625l-0.0625 -1.046875q-0.921875 1.5625 -2.515625 2.390625q-1.578125 0.828125 -3.3125 0.828125q-1.71875 0 -3.1875 -0.671875q-1.453125 -0.671875 -2.53125 -1.84375q-1.0625 -1.1875 -1.65625 -2.765625q-0.59375 -1.59375 -0.59375 -3.421875zm13.15625 2.25l0 -4.0q-0.3125 -0.9375 -1.015625 -1.671875q-0.703125 -0.734375 -1.578125 -1.15625q-0.859375 -0.4375 -1.71875 -0.4375q-1.0 0 -1.796875 0.421875q-0.796875 0.40625 -1.390625 1.109375q-0.59375 0.703125 -0.90625 1.640625q-0.296875 0.921875 -0.296875 1.953125q0 1.015625 0.328125 1.9375q0.34375 0.90625 0.984375 1.578125q0.640625 0.671875 1.484375 1.0625q0.859375 0.375 1.84375 0.375q0.609375 0 1.234375 -0.203125q0.625 -0.21875 1.171875 -0.578125q0.5625 -0.375 1.0 -0.890625q0.4375 -0.53125 0.65625 -1.140625zm25.726318 6.453125q-1.921875 0 -3.421875 -0.859375q-1.5 -0.859375 -2.359375 -2.359375l0 2.90625l-3.75 0l0 -23.359375l4.28125 0l0 9.53125q0.90625 -1.5 2.359375 -2.359375q1.453125 -0.875 3.40625 -0.875q1.625 0 2.96875 0.6875q1.34375 0.6875 2.3125 1.90625q0.984375 1.21875 1.515625 2.796875q0.53125 1.5625 0.53125 3.359375q0 1.78125 -0.59375 3.359375q-0.59375 1.5625 -1.65625 2.765625q-1.046875 1.203125 -2.46875 1.859375q-1.421875 0.640625 -3.125 0.640625zm-1.1875 -3.640625q1.03125 0 1.875 -0.390625q0.859375 -0.40625 1.46875 -1.078125q0.625 -0.671875 0.953125 -1.578125q0.34375 -0.921875 0.34375 -1.90625q0 -1.375 -0.5625 -2.546875q-0.546875 -1.171875 -1.53125 -1.875q-0.96875 -0.703125 -2.28125 -0.703125q-0.9375 0 -1.78125 0.4375q-0.84375 0.421875 -1.5 1.15625q-0.65625 0.734375 -1.046875 1.671875l0 4.0q0.203125 0.640625 0.625 1.15625q0.4375 0.5 1.015625 0.875q0.578125 0.359375 1.203125 0.578125q0.625 0.203125 1.21875 0.203125zm11.712036 6.59375q0.578125 0.125 1.078125 0.21875q0.5 0.09375 0.84375 0.09375q0.609375 0 1.0 -0.3125q0.40625 -0.296875 0.796875 -1.078125q0.390625 -0.78125 0.796875 -2.1875l-6.625 -16.765625l4.453125 0l4.515625 12.375l3.96875 -12.375l4.09375 0l-7.046875 20.09375q-0.375 1.125 -1.171875 2.03125q-0.78125 0.90625 -1.953125 1.4375q-1.15625 0.53125 -2.59375 0.53125q-0.515625 0 -1.03125 -0.078125q-0.515625 -0.078125 -1.125 -0.28125l0 -3.703125z" fill-rule="nonzero"/><path fill="#b7b7b7" d="m611.39197 491.96225q-0.546875 0.21875 -1.3125 0.515625q-0.765625 0.28125 -1.65625 0.453125q-0.875 0.171875 -1.765625 0.171875q-1.1875 0 -2.1875 -0.40625q-0.984375 -0.421875 -1.578125 -1.328125q-0.59375 -0.921875 -0.59375 -2.390625l0 -9.625l-2.203125 0l0 -3.296875l2.203125 0l0 -5.4375l4.296875 0l0 5.4375l3.515625 0l0 3.296875l-3.515625 0l0 8.1875q0.03125 0.859375 0.46875 1.25q0.453125 0.390625 1.125 0.390625q0.671875 0 1.3125 -0.21875q0.640625 -0.234375 1.03125 -0.390625l0.859375 3.390625zm17.819275 0.859375l-4.28125 0l0 -9.40625q0 -1.953125 -0.75 -2.90625q-0.75 -0.96875 -2.0625 -0.96875q-0.78125 0 -1.640625 0.453125q-0.859375 0.4375 -1.546875 1.234375q-0.6875 0.78125 -1.015625 1.796875l0 9.796875l-4.28125 0l0 -23.359375l4.28125 0l0 9.703125q0.9375 -1.609375 2.53125 -2.5q1.609375 -0.90625 3.484375 -0.90625q1.640625 0 2.65625 0.5625q1.03125 0.5625 1.609375 1.515625q0.578125 0.9375 0.796875 2.109375q0.21875 1.15625 0.21875 2.40625l0 10.46875zm11.531189 0.3125q-2.015625 0 -3.65625 -0.6875q-1.625 -0.6875 -2.78125 -1.875q-1.15625 -1.203125 -1.78125 -2.75q-0.625 -1.5625 -0.625 -3.28125q0 -2.40625 1.078125 -4.390625q1.078125 -1.984375 3.078125 -3.1875q2.0 -1.203125 4.71875 -1.203125q2.75 0 4.703125 1.203125q1.953125 1.203125 2.984375 3.171875q1.046875 1.96875 1.046875 4.234375q0 0.390625 -0.03125 0.796875q-0.03125 0.390625 -0.0625 0.640625l-12.96875 0q0.125 1.28125 0.75 2.25q0.625 0.953125 1.59375 1.453125q0.984375 0.5 2.109375 0.5q1.28125 0 2.40625 -0.625q1.140625 -0.625 1.5625 -1.65625l3.671875 1.03125q-0.609375 1.28125 -1.75 2.28125q-1.125 0.984375 -2.671875 1.546875q-1.53125 0.546875 -3.375 0.546875zm-4.390625 -10.046875l8.765625 0q-0.125 -1.28125 -0.71875 -2.21875q-0.59375 -0.9375 -1.5625 -1.46875q-0.953125 -0.53125 -2.125 -0.53125q-1.15625 0 -2.109375 0.53125q-0.9375 0.53125 -1.53125 1.46875q-0.59375 0.9375 -0.71875 2.21875zm30.019897 9.828125q-1.671875 0 -3.0625 -0.65625q-1.390625 -0.65625 -2.40625 -1.828125q-1.0 -1.1875 -1.546875 -2.71875q-0.546875 -1.546875 -0.546875 -3.28125q0 -1.8125 0.578125 -3.375q0.578125 -1.578125 1.609375 -2.78125q1.046875 -1.203125 2.46875 -1.859375q1.4375 -0.65625 3.15625 -0.65625q1.953125 0 3.421875 0.890625q1.46875 0.875 2.4375 2.34375l0 -2.9375l3.75 0l0 15.96875q0 2.5 -1.203125 4.265625q-1.203125 1.78125 -3.3125 2.71875q-2.109375 0.953125 -4.796875 0.953125q-2.71875 0 -4.609375 -0.921875q-1.890625 -0.90625 -3.234375 -2.578125l2.328125 -2.265625q0.96875 1.1875 2.421875 1.859375q1.453125 0.671875 3.09375 0.671875q1.375 0 2.5 -0.5q1.140625 -0.5 1.828125 -1.546875q0.6875 -1.03125 0.6875 -2.65625l0 -2.109375q-0.828125 1.4375 -2.359375 2.21875q-1.515625 0.78125 -3.203125 0.78125zm1.4375 -3.421875q0.703125 0 1.34375 -0.21875q0.640625 -0.234375 1.1875 -0.609375q0.546875 -0.390625 0.953125 -0.90625q0.421875 -0.53125 0.640625 -1.078125l0 -4.0q-0.375 -1.0 -1.078125 -1.734375q-0.6875 -0.734375 -1.53125 -1.125q-0.84375 -0.40625 -1.765625 -0.40625q-1.0 0 -1.796875 0.421875q-0.796875 0.40625 -1.375 1.15625q-0.578125 0.75 -0.890625 1.671875q-0.296875 0.90625 -0.296875 1.90625q0 1.015625 0.34375 1.921875q0.359375 0.890625 0.984375 1.5625q0.625 0.671875 1.46875 1.0625q0.84375 0.375 1.8125 0.375zm20.069336 3.640625q-2.015625 0 -3.65625 -0.6875q-1.625 -0.6875 -2.78125 -1.875q-1.15625 -1.203125 -1.78125 -2.75q-0.625 -1.5625 -0.625 -3.28125q0 -2.40625 1.078125 -4.390625q1.078125 -1.984375 3.078125 -3.1875q2.0 -1.203125 4.71875 -1.203125q2.75 0 4.703125 1.203125q1.953125 1.203125 2.984375 3.171875q1.046875 1.96875 1.046875 4.234375q0 0.390625 -0.03125 0.796875q-0.03125 0.390625 -0.0625 0.640625l-12.96875 0q0.125 1.28125 0.75 2.25q0.625 0.953125 1.59375 1.453125q0.984375 0.5 2.109375 0.5q1.28125 0 2.40625 -0.625q1.140625 -0.625 1.5625 -1.65625l3.671875 1.03125q-0.609375 1.28125 -1.75 2.28125q-1.125 0.984375 -2.671875 1.546875q-1.53125 0.546875 -3.375 0.546875zm-4.390625 -10.046875l8.765625 0q-0.125 -1.28125 -0.71875 -2.21875q-0.59375 -0.9375 -1.5625 -1.46875q-0.953125 -0.53125 -2.125 -0.53125q-1.15625 0 -2.109375 0.53125q-0.9375 0.53125 -1.53125 1.46875q-0.59375 0.9375 -0.71875 2.21875zm31.35553 9.734375l-4.28125 0l0 -9.40625q0 -2.015625 -0.703125 -2.9375q-0.703125 -0.9375 -1.953125 -0.9375q-0.859375 0 -1.75 0.453125q-0.875 0.4375 -1.578125 1.234375q-0.703125 0.78125 -1.03125 1.796875l0 9.796875l-4.28125 0l0 -16.765625l3.875 0l0 3.109375q0.640625 -1.09375 1.625 -1.84375q1.0 -0.75 2.296875 -1.15625q1.296875 -0.40625 2.734375 -0.40625q1.5625 0 2.5625 0.5625q1.015625 0.5625 1.546875 1.515625q0.53125 0.9375 0.734375 2.125q0.203125 1.171875 0.203125 2.390625l0 10.46875zm11.531128 0.3125q-2.015625 0 -3.65625 -0.6875q-1.625 -0.6875 -2.78125 -1.875q-1.15625 -1.203125 -1.78125 -2.75q-0.625 -1.5625 -0.625 -3.28125q0 -2.40625 1.078125 -4.390625q1.078125 -1.984375 3.078125 -3.1875q2.0 -1.203125 4.71875 -1.203125q2.75 0 4.703125 1.203125q1.953125 1.203125 2.984375 3.171875q1.046875 1.96875 1.046875 4.234375q0 0.390625 -0.03125 0.796875q-0.03125 0.390625 -0.0625 0.640625l-12.96875 0q0.125 1.28125 0.75 2.25q0.625 0.953125 1.59375 1.453125q0.984375 0.5 2.109375 0.5q1.28125 0 2.40625 -0.625q1.140625 -0.625 1.5625 -1.65625l3.671875 1.03125q-0.609375 1.28125 -1.75 2.28125q-1.125 0.984375 -2.671875 1.546875q-1.53125 0.546875 -3.375 0.546875zm-4.390625 -10.046875l8.765625 0q-0.125 -1.28125 -0.71875 -2.21875q-0.59375 -0.9375 -1.5625 -1.46875q-0.953125 -0.53125 -2.125 -0.53125q-1.15625 0 -2.109375 0.53125q-0.9375 0.53125 -1.53125 1.46875q-0.59375 0.9375 -0.71875 2.21875zm25.76184 -3.328125q-1.953125 0 -3.5 0.765625q-1.53125 0.75 -2.203125 2.15625l0 10.140625l-4.28125 0l0 -16.765625l3.9375 0l0 3.578125q0.890625 -1.71875 2.265625 -2.703125q1.375 -1.0 2.921875 -1.09375q0.34375 0 0.53125 0q0.203125 0 0.328125 0.03125l0 3.890625zm1.1473999 8.109375q0 -1.640625 0.90625 -2.875q0.921875 -1.234375 2.546875 -1.90625q1.640625 -0.671875 3.749939 -0.671875q1.0625 0 2.140625 0.171875q1.09375 0.15625 1.890625 0.5l0 -0.890625q0 -1.59375 -0.953125 -2.453125q-0.9375 -0.875 -2.796875 -0.875q-1.374939 0 -2.624939 0.484375q-1.234375 0.484375 -2.609375 1.40625l-1.390625 -2.8125q1.671875 -1.09375 3.40625 -1.640625q1.75 -0.546875 3.671814 -0.546875q3.578125 0 5.578125 1.796875q2.0 1.796875 2.0 5.125l0 5.34375q0 0.671875 0.234375 0.96875q0.25 0.28125 0.796875 0.34375l0 3.484375q-0.578125 0.09375 -1.046875 0.15625q-0.453125 0.0625 -0.78125 0.0625q-1.28125 0 -1.9375 -0.5625q-0.65625 -0.578125 -0.8125 -1.421875l-0.09375 -0.859375q-1.09375 1.40625 -2.734375 2.171875q-1.625 0.765625 -3.312439 0.765625q-1.671875 0 -3.0 -0.6875q-1.328125 -0.6875 -2.078125 -1.875q-0.75 -1.203125 -0.75 -2.703125zm10.437439 0.859375q0.34375 -0.390625 0.5625 -0.765625q0.234375 -0.390625 0.234375 -0.703125l0 -1.703125q-0.765625 -0.3125 -1.671875 -0.484375q-0.890625 -0.1875 -1.6875 -0.1875q-1.656189 0 -2.734314 0.71875q-1.078125 0.71875 -1.078125 1.90625q0 0.640625 0.34375 1.21875q0.359375 0.578125 1.03125 0.9375q0.671875 0.34375 1.609314 0.34375q0.953125 0 1.875 -0.359375q0.9375 -0.375 1.515625 -0.921875zm9.055542 -19.265625l4.28125 0l0 17.984375q0 1.15625 0.375 1.5625q0.390625 0.390625 1.0625 0.390625q0.515625 0 1.0625 -0.125q0.546875 -0.140625 0.953125 -0.328125l0.578125 3.265625q-0.859375 0.421875 -2.015625 0.640625q-1.140625 0.21875 -2.078125 0.21875q-2.015625 0 -3.125 -1.0625q-1.09375 -1.078125 -1.09375 -3.0625l0 -19.484375zm27.038208 23.671875q-1.953125 0 -3.4375 -0.875q-1.484375 -0.875 -2.328125 -2.375l0 9.75l-4.28125 0l0 -23.578125l3.75 0l0 2.875q0.953125 -1.46875 2.421875 -2.3125q1.46875 -0.859375 3.359375 -0.859375q1.703125 0 3.125 0.671875q1.421875 0.671875 2.46875 1.875q1.0625 1.203125 1.65625 2.765625q0.59375 1.546875 0.59375 3.328125q0 2.4375 -0.953125 4.421875q-0.9375 1.984375 -2.59375 3.15625q-1.640625 1.15625 -3.78125 1.15625zm-1.4375 -3.640625q0.984375 0 1.78125 -0.40625q0.8125 -0.421875 1.40625 -1.140625q0.59375 -0.71875 0.890625 -1.625q0.296875 -0.921875 0.296875 -1.921875q0 -1.046875 -0.34375 -1.9375q-0.328125 -0.90625 -0.96875 -1.59375q-0.640625 -0.6875 -1.484375 -1.0625q-0.84375 -0.390625 -1.84375 -0.390625q-0.59375 0 -1.21875 0.21875q-0.625 0.203125 -1.203125 0.59375q-0.578125 0.375 -1.015625 0.890625q-0.421875 0.5 -0.625 1.109375l0 3.9375q0.390625 0.921875 1.046875 1.703125q0.65625 0.765625 1.515625 1.203125q0.859375 0.421875 1.765625 0.421875zm11.5224 -2.9375l0 -10.5l4.28125 0l0 9.5625q0 1.921875 0.703125 2.90625q0.703125 0.96875 2.078125 0.96875q0.84375 0 1.65625 -0.328125q0.8125 -0.34375 1.5 -1.015625q0.6875 -0.671875 1.171875 -1.703125l0 -10.390625l4.28125 0l0 11.96875q0 0.671875 0.234375 0.96875q0.25 0.28125 0.796875 0.34375l0 3.484375q-0.640625 0.09375 -1.078125 0.140625q-0.4375 0.046875 -0.78125 0.046875q-1.15625 0 -1.875 -0.515625q-0.71875 -0.53125 -0.84375 -1.46875l-0.09375 -1.34375q-1.125 1.703125 -2.890625 2.578125q-1.75 0.875 -3.859375 0.875q-2.59375 0 -3.9375 -1.671875q-1.34375 -1.6875 -1.34375 -4.90625zm29.463562 6.578125q-1.921875 0 -3.421875 -0.859375q-1.5 -0.859375 -2.359375 -2.359375l0 2.90625l-3.75 0l0 -23.359375l4.28125 0l0 9.53125q0.90625 -1.5 2.359375 -2.359375q1.453125 -0.875 3.40625 -0.875q1.625 0 2.96875 0.6875q1.34375 0.6875 2.3125 1.90625q0.984375 1.21875 1.515625 2.796875q0.53125 1.5625 0.53125 3.359375q0 1.78125 -0.59375 3.359375q-0.59375 1.5625 -1.65625 2.765625q-1.046875 1.203125 -2.46875 1.859375q-1.421875 0.640625 -3.125 0.640625zm-1.1875 -3.640625q1.03125 0 1.875 -0.390625q0.859375 -0.40625 1.46875 -1.078125q0.625 -0.671875 0.953125 -1.578125q0.34375 -0.921875 0.34375 -1.90625q0 -1.375 -0.5625 -2.546875q-0.546875 -1.171875 -1.53125 -1.875q-0.96875 -0.703125 -2.28125 -0.703125q-0.9375 0 -1.78125 0.4375q-0.84375 0.421875 -1.5 1.15625q-0.65625 0.734375 -1.046875 1.671875l0 4.0q0.203125 0.640625 0.625 1.15625q0.4375 0.5 1.015625 0.875q0.578125 0.359375 1.203125 0.578125q0.625 0.203125 1.21875 0.203125zm11.913025 -20.03125l4.28125 0l0 17.984375q0 1.15625 0.375 1.5625q0.390625 0.390625 1.0625 0.390625q0.515625 0 1.0625 -0.125q0.546875 -0.140625 0.953125 -0.328125l0.578125 3.265625q-0.859375 0.421875 -2.015625 0.640625q-1.140625 0.21875 -2.078125 0.21875q-2.015625 0 -3.125 -1.0625q-1.09375 -1.078125 -1.09375 -3.0625l0 -19.484375zm10.175293 23.359375l0 -16.765625l4.28125 0l0 16.765625l-4.28125 0zm0 -19.109375l0 -4.25l4.28125 0l0 4.25l-4.28125 0zm15.972534 19.421875q-2.046875 0 -3.6875 -0.6875q-1.625 -0.6875 -2.78125 -1.90625q-1.15625 -1.234375 -1.78125 -2.796875q-0.625 -1.578125 -0.625 -3.3125q0 -2.359375 1.078125 -4.328125q1.078125 -1.96875 3.0625 -3.15625q1.984375 -1.1875 4.703125 -1.1875q2.71875 0 4.671875 1.1875q1.953125 1.1875 2.90625 3.109375l-4.1875 1.28125q-0.546875 -0.9375 -1.453125 -1.421875q-0.890625 -0.5 -1.96875 -0.5q-1.21875 0 -2.234375 0.625q-1.0 0.625 -1.578125 1.765625q-0.578125 1.125 -0.578125 2.625q0 1.484375 0.59375 2.625q0.59375 1.125 1.578125 1.78125q1.0 0.65625 2.21875 0.65625q0.765625 0 1.453125 -0.25q0.6875 -0.265625 1.21875 -0.703125q0.546875 -0.453125 0.8125 -1.03125l4.1875 1.28125q-0.578125 1.25 -1.6875 2.25q-1.09375 0.984375 -2.59375 1.546875q-1.484375 0.546875 -3.328125 0.546875z" fill-rule="nonzero"/></g></svg>