<svg version="1.1" viewBox="0.0 0.0 960.0 540.0" fill="none" stroke="none" stroke-linecap="square" stroke-miterlimit="10" xmlns:xlink="http://www.w3.org/1999/xlink" xmlns="http://www.w3.org/2000/svg"><clipPath id="gd251bb473_0_681.0"><path d="m0 0l960.0 0l0 540.0l-960.0 0l0 -540.0z" clip-rule="nonzero"/></clipPath><g clip-path="url(#gd251bb473_0_681.0)"><path fill="#ffffff" d="m0 0l960.0 0l0 540.0l-960.0 0z" fill-rule="evenodd"/><path fill="#000000" fill-opacity="0.0" d="m77.72212 74.76541l655.5591 0l0 402.67715l-655.5591 0z" fill-rule="evenodd"/><path fill="#b7b7b7" d="m100.28462 116.080414l0 29.125l-8.828125 0l0 -45.4375l6.84375 0l23.6875 29.828125l0 -29.765625l8.828125 0l0 45.375l-7.171875 0l-23.359375 -29.125zm54.21205 29.765625q-4.09375 0 -7.359375 -1.40625q-3.265625 -1.40625 -5.546875 -3.796875q-2.265625 -2.40625 -3.484375 -5.546875q-1.203125 -3.140625 -1.203125 -6.59375q0 -3.515625 1.203125 -6.65625q1.21875 -3.140625 3.484375 -5.53125q2.28125 -2.40625 5.546875 -3.8125q3.265625 -1.40625 7.359375 -1.40625q4.09375 0 7.328125 1.40625q3.234375 1.40625 5.5 3.8125q2.28125 2.390625 3.484375 5.53125q1.21875 3.140625 1.21875 6.65625q0 3.453125 -1.21875 6.59375q-1.203125 3.140625 -3.453125 5.546875q-2.234375 2.390625 -5.5 3.796875q-3.265625 1.40625 -7.359375 1.40625zm-8.765625 -17.34375q0 2.234375 0.671875 4.0625q0.671875 1.828125 1.859375 3.171875q1.1875 1.34375 2.78125 2.078125q1.59375 0.734375 3.453125 0.734375q1.859375 0 3.453125 -0.734375q1.609375 -0.734375 2.78125 -2.078125q1.1875 -1.34375 1.859375 -3.203125q0.671875 -1.859375 0.671875 -4.09375q0 -2.171875 -0.671875 -4.03125q-0.671875 -1.859375 -1.859375 -3.203125q-1.171875 -1.34375 -2.78125 -2.078125q-1.59375 -0.734375 -3.453125 -0.734375q-1.859375 0 -3.453125 0.765625q-1.59375 0.765625 -2.78125 2.109375q-1.1875 1.34375 -1.859375 3.203125q-0.671875 1.859375 -0.671875 4.03125zm51.710938 14.96875q-1.734375 0.78125 -4.234375 1.546875q-2.484375 0.765625 -5.234375 0.765625q-1.796875 0 -3.375 -0.453125q-1.5625 -0.4375 -2.75 -1.421875q-1.171875 -1.0 -1.875 -2.5625q-0.703125 -1.578125 -0.703125 -3.828125l0 -19.25l-4.421875 0l0 -6.59375l4.421875 0l0 -10.890625l8.578125 0l0 10.890625l7.03125 0l0 6.59375l-7.03125 0l0 16.375q0 1.796875 0.921875 2.53125q0.921875 0.734375 2.265625 0.734375q1.34375 0 2.625 -0.4375q1.28125 -0.453125 2.046875 -0.78125l1.734375 6.78125zm28.998428 2.375q-2.4375 0 -4.546875 -0.796875q-2.109375 -0.796875 -3.65625 -2.234375q-1.53125 -1.453125 -2.40625 -3.375q-0.859375 -1.921875 -0.859375 -4.21875q0 -2.375 1.0625 -4.390625q1.0625 -2.015625 2.9375 -3.421875q1.890625 -1.40625 4.515625 -2.203125q2.625 -0.796875 5.765625 -0.796875q2.234375 0 4.375 0.390625q2.15625 0.375 3.8125 1.078125l0 -1.921875q0 -3.328125 -1.890625 -5.109375q-1.890625 -1.796875 -5.59375 -1.796875q-2.6875 0 -5.25 0.96875q-2.5625 0.953125 -5.25 2.796875l-2.625 -5.4375q6.46875 -4.28125 13.953125 -4.28125q7.234375 0 11.234375 3.546875q4.0 3.546875 4.0 10.28125l0 10.421875q0 1.34375 0.46875 1.921875q0.484375 0.578125 1.578125 0.640625l0 7.296875q-2.171875 0.453125 -3.78125 0.453125q-2.421875 0 -3.734375 -1.09375q-1.3125 -1.09375 -1.640625 -2.875l-0.1875 -1.859375q-2.234375 2.9375 -5.4375 4.484375q-3.203125 1.53125 -6.84375 1.53125zm2.421875 -6.265625q2.171875 0 4.125 -0.765625q1.953125 -0.78125 3.046875 -2.0625q1.40625 -1.078125 1.40625 -2.421875l0 -3.84375q-1.53125 -0.578125 -3.328125 -0.921875q-1.796875 -0.359375 -3.453125 -0.359375q-3.328125 0 -5.4375 1.515625q-2.109375 1.5 -2.109375 3.796875q0 2.171875 1.65625 3.625q1.671875 1.4375 4.09375 1.4375zm56.329697 5.625l-8.578125 0l0 -18.8125q0 -4.03125 -1.40625 -5.890625q-1.40625 -1.859375 -3.90625 -1.859375q-1.28125 0 -2.625 0.515625q-1.34375 0.515625 -2.53125 1.4375q-1.1875 0.921875 -2.15625 2.203125q-0.953125 1.28125 -1.390625 2.828125l0 19.578125l-8.57814 0l0 -33.53125l7.7343903 0l0 6.203125q1.859375 -3.203125 5.375 -4.984375q3.53125 -1.796875 7.9375 -1.796875q3.140625 0 5.125 1.15625q1.984375 1.140625 3.0625 3.0q1.09375 1.859375 1.515625 4.234375q0.421875 2.359375 0.421875 4.796875l0 20.921875zm7.419159 6.53125q1.09375 0.3125 2.109375 0.46875q1.03125 0.171875 1.734375 0.171875q0.828125 0 1.53125 -0.328125q0.703125 -0.3125 1.28125 -1.125q0.578125 -0.796875 1.140625 -2.203125q0.578125 -1.40625 1.21875 -3.515625l-13.234375 -33.53125l8.828125 0l9.078125 26.109375l8.078125 -26.109375l8.0625 0l-14.078125 40.1875q-1.21875 3.515625 -4.171875 5.75q-2.9375 2.25 -7.296875 2.25q-1.015625 0 -2.078125 -0.15625q-1.046875 -0.15625 -2.203125 -0.546875l0 -7.421875zm100.222565 -6.53125l-8.578125 0l0 -18.8125q0 -4.03125 -1.375 -5.890625q-1.375 -1.859375 -3.8125 -1.859375q-2.546875 0 -4.796875 1.953125q-2.234375 1.953125 -3.203125 5.09375l0 19.515625l-8.578125 0l0 -18.8125q0 -4.03125 -1.375 -5.890625q-1.375 -1.859375 -3.796875 -1.859375q-2.5 0 -4.78125 1.921875q-2.265625 1.921875 -3.21875 5.0625l0 19.578125l-8.578125 0l0 -33.53125l7.734375 0l0 6.203125q1.859375 -3.265625 5.09375 -5.015625q3.234375 -1.765625 7.390625 -1.765625q4.234375 0 6.53125 2.046875q2.296875 2.046875 2.9375 5.046875q2.046875 -3.453125 5.1875 -5.265625q3.140625 -1.828125 7.171875 -1.828125q3.078125 0 5.046875 1.15625q1.984375 1.140625 3.078125 3.0q1.09375 1.859375 1.5 4.234375q0.421875 2.359375 0.421875 4.796875l0 20.921875zm22.974487 0.640625q-4.09375 0 -7.359375 -1.40625q-3.265625 -1.40625 -5.546875 -3.796875q-2.265625 -2.40625 -3.484375 -5.546875q-1.203125 -3.140625 -1.203125 -6.59375q0 -3.515625 1.203125 -6.65625q1.21875 -3.140625 3.484375 -5.53125q2.28125 -2.40625 5.546875 -3.8125q3.265625 -1.40625 7.359375 -1.40625q4.09375 0 7.328125 1.40625q3.234375 1.40625 5.5 3.8125q2.28125 2.390625 3.484375 5.53125q1.21875 3.140625 1.21875 6.65625q0 3.453125 -1.21875 6.59375q-1.203125 3.140625 -3.453125 5.546875q-2.234375 2.390625 -5.5 3.796875q-3.265625 1.40625 -7.359375 1.40625zm-8.765625 -17.34375q0 2.234375 0.671875 4.0625q0.671875 1.828125 1.859375 3.171875q1.1875 1.34375 2.78125 2.078125q1.59375 0.734375 3.453125 0.734375q1.859375 0 3.453125 -0.734375q1.609375 -0.734375 2.78125 -2.078125q1.1875 -1.34375 1.859375 -3.203125q0.671875 -1.859375 0.671875 -4.09375q0 -2.171875 -0.671875 -4.03125q-0.671875 -1.859375 -1.859375 -3.203125q-1.171875 -1.34375 -2.78125 -2.078125q-1.59375 -0.734375 -3.453125 -0.734375q-1.859375 0 -3.453125 0.765625q-1.59375 0.765625 -2.78125 2.109375q-1.1875 1.34375 -1.859375 3.203125q-0.671875 1.859375 -0.671875 4.03125zm52.033936 -9.40625q-3.90625 0.0625 -6.984375 1.5q-3.0625 1.4375 -4.40625 4.328125l0 20.28125l-8.578125 0l0 -33.53125l7.875 0l0 7.15625q0.890625 -1.71875 2.109375 -3.09375q1.21875 -1.375 2.625 -2.390625q1.40625 -1.03125 2.84375 -1.578125q1.4375 -0.546875 2.78125 -0.546875q0.703125 0 1.046875 0q0.359375 0 0.6875 0.0625l0 7.8125zm18.682068 26.75q-4.03125 0 -7.296875 -1.375q-3.265625 -1.375 -5.578125 -3.734375q-2.296875 -2.375 -3.546875 -5.515625q-1.234375 -3.140625 -1.234375 -6.59375q0 -3.578125 1.203125 -6.75q1.21875 -3.171875 3.515625 -5.5625q2.3125 -2.40625 5.609375 -3.8125q3.296875 -1.40625 7.390625 -1.40625q4.09375 0 7.328125 1.40625q3.234375 1.40625 5.5 3.78125q2.28125 2.359375 3.453125 5.5q1.1875 3.140625 1.1875 6.53125q0 0.828125 -0.03125 1.59375q-0.03125 0.765625 -0.15625 1.28125l-25.921875 0q0.203125 1.984375 0.96875 3.53125q0.765625 1.53125 1.984375 2.625q1.21875 1.078125 2.75 1.65625q1.53125 0.578125 3.203125 0.578125q2.5625 0 4.828125 -1.25q2.265625 -1.25 3.109375 -3.296875l7.359375 2.046875q-1.859375 3.84375 -5.921875 6.3125q-4.0625 2.453125 -9.703125 2.453125zm8.703125 -20.21875q-0.3125 -3.78125 -2.78125 -6.046875q-2.46875 -2.28125 -5.984375 -2.28125q-1.734375 0 -3.234375 0.609375q-1.5 0.609375 -2.65625 1.703125q-1.140625 1.078125 -1.890625 2.625q-0.734375 1.53125 -0.859375 3.390625l17.40625 0zm15.7421875 2.484375l0 -28.796875l8.578125 0l0 28.796875l-8.578125 0zm0 17.09375l0 -9.65625l8.578125 0l0 9.65625l-8.578125 0z" fill-rule="nonzero"/><path fill="#b7b7b7" d="m100.28462 206.08041l0 29.125l-8.828125 0l0 -45.4375l6.84375 0l23.6875 29.828125l0 -29.765625l8.828125 0l0 45.375l-7.171875 0l-23.359375 -29.125zm54.21205 29.765625q-4.09375 0 -7.359375 -1.40625q-3.265625 -1.40625 -5.546875 -3.796875q-2.265625 -2.40625 -3.484375 -5.546875q-1.203125 -3.140625 -1.203125 -6.59375q0 -3.515625 1.203125 -6.65625q1.21875 -3.140625 3.484375 -5.53125q2.28125 -2.40625 5.546875 -3.8125q3.265625 -1.40625 7.359375 -1.40625q4.09375 0 7.328125 1.40625q3.234375 1.40625 5.5 3.8125q2.28125 2.390625 3.484375 5.53125q1.21875 3.140625 1.21875 6.65625q0 3.453125 -1.21875 6.59375q-1.203125 3.140625 -3.453125 5.546875q-2.234375 2.390625 -5.5 3.796875q-3.265625 1.40625 -7.359375 1.40625zm-8.765625 -17.34375q0 2.234375 0.671875 4.0625q0.671875 1.828125 1.859375 3.171875q1.1875 1.34375 2.78125 2.078125q1.59375 0.734375 3.453125 0.734375q1.859375 0 3.453125 -0.734375q1.609375 -0.734375 2.78125 -2.078125q1.1875 -1.34375 1.859375 -3.203125q0.671875 -1.859375 0.671875 -4.09375q0 -2.171875 -0.671875 -4.03125q-0.671875 -1.859375 -1.859375 -3.203125q-1.171875 -1.34375 -2.78125 -2.078125q-1.59375 -0.734375 -3.453125 -0.734375q-1.859375 0 -3.453125 0.765625q-1.59375 0.765625 -2.78125 2.109375q-1.1875 1.34375 -1.859375 3.203125q-0.671875 1.859375 -0.671875 4.03125zm72.44293 -16.828125l8.125 0l-14.015625 33.53125l-7.03125 0l-5.765625 -14.71875l-5.6875 14.71875l-7.046875 0l-13.953125 -33.53125l8.0625 0l9.984375 25.46875l4.09375 -10.875l-5.875 -14.53125l6.90625 0l3.515625 10.296875l3.59375 -10.296875l6.90625 0l-5.828125 14.53125l4.03125 10.875l9.984375 -25.46875zm34.89038 34.171875q-2.4375 0 -4.546875 -0.796875q-2.109375 -0.796875 -3.65625 -2.234375q-1.53125 -1.453125 -2.40625 -3.375q-0.859375 -1.921875 -0.859375 -4.21875q0 -2.375 1.0625 -4.390625q1.0625 -2.015625 2.9375 -3.421875q1.890625 -1.40625 4.515625 -2.203125q2.625 -0.796875 5.765625 -0.796875q2.234375 0 4.375 0.390625q2.15625 0.375 3.8125 1.078125l0 -1.921875q0 -3.328125 -1.890625 -5.109375q-1.890625 -1.796875 -5.59375 -1.796875q-2.6875 0 -5.25 0.96875q-2.5625 0.953125 -5.25 2.796875l-2.625 -5.4375q6.46875 -4.28125 13.953125 -4.28125q7.234375 0 11.234375 3.546875q4.0 3.546875 4.0 10.28125l0 10.421875q0 1.34375 0.46875 1.921875q0.484375 0.578125 1.578125 0.640625l0 7.296875q-2.171875 0.453125 -3.78125 0.453125q-2.421875 0 -3.734375 -1.09375q-1.3125 -1.09375 -1.640625 -2.875l-0.1875 -1.859375q-2.234375 2.9375 -5.4375 4.484375q-3.203125 1.53125 -6.84375 1.53125zm2.421875 -6.265625q2.171875 0 4.125 -0.765625q1.953125 -0.78125 3.046875 -2.0625q1.40625 -1.078125 1.40625 -2.421875l0 -3.84375q-1.53125 -0.578125 -3.328125 -0.921875q-1.796875 -0.359375 -3.453125 -0.359375q-3.328125 0 -5.4375 1.515625q-2.109375 1.5 -2.109375 3.796875q0 2.171875 1.65625 3.625q1.671875 1.4375 4.09375 1.4375zm39.04843 6.265625q-3.453125 0 -6.40625 -1.34375q-2.9375 -1.34375 -5.0625 -3.703125q-2.109375 -2.375 -3.296875 -5.546875q-1.171875 -3.171875 -1.171875 -6.8125q0 -3.65625 1.109375 -6.78125q1.125 -3.140625 3.109375 -5.5q1.984375 -2.375 4.734375 -3.71875q2.75 -1.34375 6.015625 -1.34375q3.71875 0 6.6875 1.796875q2.984375 1.78125 4.640625 4.671875l0 -19.078125l8.578125 0l0 36.859375q0 1.34375 0.4375 1.921875q0.453125 0.578125 1.546875 0.640625l0 7.296875q-2.234375 0.453125 -3.640625 0.453125q-2.3125 0 -3.78125 -1.15625q-1.46875 -1.15625 -1.671875 -3.015625l-0.1875 -2.109375q-1.859375 3.203125 -5.03125 4.84375q-3.15625 1.625 -6.609375 1.625zm2.234375 -7.296875q1.21875 0 2.5 -0.40625q1.28125 -0.421875 2.359375 -1.1875q1.09375 -0.78125 1.953125 -1.796875q0.875 -1.03125 1.3125 -2.234375l0 -8.0q-0.515625 -1.421875 -1.4375 -2.59375q-0.921875 -1.1875 -2.109375 -2.046875q-1.1875 -0.875 -2.5 -1.375q-1.3125 -0.515625 -2.59375 -0.515625q-1.921875 0 -3.546875 0.828125q-1.625 0.828125 -2.78125 2.28125q-1.15625 1.4375 -1.796875 3.296875q-0.640625 1.84375 -0.640625 3.828125q0 2.109375 0.703125 3.90625q0.703125 1.796875 1.921875 3.140625q1.21875 1.34375 2.90625 2.109375q1.703125 0.765625 3.75 0.765625zm39.045563 7.296875q-3.453125 0 -6.40625 -1.34375q-2.9375 -1.34375 -5.0625 -3.703125q-2.109375 -2.375 -3.296875 -5.546875q-1.171875 -3.171875 -1.171875 -6.8125q0 -3.65625 1.109375 -6.78125q1.125 -3.140625 3.109375 -5.5q1.984375 -2.375 4.734375 -3.71875q2.75 -1.34375 6.015625 -1.34375q3.71875 0 6.6875 1.796875q2.984375 1.78125 4.640625 4.671875l0 -19.078125l8.578125 0l0 36.859375q0 1.34375 0.4375 1.921875q0.453125 0.578125 1.546875 0.640625l0 7.296875q-2.234375 0.453125 -3.640625 0.453125q-2.3125 0 -3.78125 -1.15625q-1.46875 -1.15625 -1.671875 -3.015625l-0.1875 -2.109375q-1.859375 3.203125 -5.03125 4.84375q-3.15625 1.625 -6.609375 1.625zm2.234375 -7.296875q1.21875 0 2.5 -0.40625q1.28125 -0.421875 2.359375 -1.1875q1.09375 -0.78125 1.953125 -1.796875q0.875 -1.03125 1.3125 -2.234375l0 -8.0q-0.515625 -1.421875 -1.4375 -2.59375q-0.921875 -1.1875 -2.109375 -2.046875q-1.1875 -0.875 -2.5 -1.375q-1.3125 -0.515625 -2.59375 -0.515625q-1.921875 0 -3.546875 0.828125q-1.625 0.828125 -2.78125 2.28125q-1.15625 1.4375 -1.796875 3.296875q-0.640625 1.84375 -0.640625 3.828125q0 2.109375 0.703125 3.90625q0.703125 1.796875 1.921875 3.140625q1.21875 1.34375 2.90625 2.109375q1.703125 0.765625 3.75 0.765625zm45.123657 -19.453125q-3.90625 0.0625 -6.984375 1.5q-3.0625 1.4375 -4.40625 4.328125l0 20.28125l-8.578125 0l0 -33.53125l7.875 0l0 7.15625q0.890625 -1.71875 2.109375 -3.09375q1.21875 -1.375 2.625 -2.390625q1.40625 -1.03125 2.84375 -1.578125q1.4375 -0.546875 2.78125 -0.546875q0.703125 0 1.046875 0q0.359375 0 0.6875 0.0625l0 7.8125zm18.682068 26.75q-4.03125 0 -7.296875 -1.375q-3.265625 -1.375 -5.578125 -3.734375q-2.296875 -2.375 -3.546875 -5.515625q-1.234375 -3.140625 -1.234375 -6.59375q0 -3.578125 1.203125 -6.75q1.21875 -3.171875 3.515625 -5.5625q2.3125 -2.40625 5.609375 -3.8125q3.296875 -1.40625 7.390625 -1.40625q4.09375 0 7.328125 1.40625q3.234375 1.40625 5.5 3.78125q2.28125 2.359375 3.453125 5.5q1.1875 3.140625 1.1875 6.53125q0 0.828125 -0.03125 1.59375q-0.03125 0.765625 -0.15625 1.28125l-25.921875 0q0.203125 1.984375 0.96875 3.53125q0.765625 1.53125 1.984375 2.625q1.21875 1.078125 2.75 1.65625q1.53125 0.578125 3.203125 0.578125q2.5625 0 4.828125 -1.25q2.265625 -1.25 3.109375 -3.296875l7.359375 2.046875q-1.859375 3.84375 -5.921875 6.3125q-4.0625 2.453125 -9.703125 2.453125zm8.703125 -20.21875q-0.3125 -3.78125 -2.78125 -6.046875q-2.46875 -2.28125 -5.984375 -2.28125q-1.734375 0 -3.234375 0.609375q-1.5 0.609375 -2.65625 1.703125q-1.140625 1.078125 -1.890625 2.625q-0.734375 1.53125 -0.859375 3.390625l17.40625 0zm26.757812 20.21875q-4.21875 0 -8.265625 -1.34375q-4.03125 -1.34375 -6.90625 -3.84375l3.203125 -5.375q3.078125 2.171875 5.984375 3.296875q2.90625 1.125 5.796875 1.125q2.546875 0 4.015625 -0.953125q1.484375 -0.96875 1.484375 -2.765625q0 -1.796875 -1.734375 -2.625q-1.71875 -0.828125 -5.625 -1.921875q-3.265625 -0.890625 -5.578125 -1.71875q-2.296875 -0.828125 -3.703125 -1.890625q-1.40625 -1.0625 -2.046875 -2.4375q-0.640625 -1.375 -0.640625 -3.296875q0 -2.546875 0.984375 -4.59375q1.0 -2.0625 2.78125 -3.5q1.796875 -1.4375 4.1875 -2.203125q2.40625 -0.765625 5.234375 -0.765625q3.765625 0 7.0625 1.09375q3.296875 1.078125 6.046875 3.515625l-3.453125 5.171875q-2.5625 -1.90625 -4.96875 -2.796875q-2.390625 -0.90625 -4.75 -0.90625q-2.1875 0 -3.65625 0.90625q-1.46875 0.890625 -1.46875 2.875q0 0.890625 0.34375 1.46875q0.359375 0.578125 1.125 1.03125q0.765625 0.4375 2.015625 0.859375q1.25 0.40625 3.109375 0.859375q3.453125 0.890625 5.90625 1.796875q2.46875 0.890625 4.03125 2.046875q1.578125 1.140625 2.3125 2.65625q0.734375 1.5 0.734375 3.609375q0 4.921875 -3.65625 7.78125q-3.640625 2.84375 -9.90625 2.84375zm31.807953 0q-4.21875 0 -8.265625 -1.34375q-4.03125 -1.34375 -6.90625 -3.84375l3.203125 -5.375q3.078125 2.171875 5.984375 3.296875q2.90625 1.125 5.796875 1.125q2.546875 0 4.015625 -0.953125q1.484375 -0.96875 1.484375 -2.765625q0 -1.796875 -1.734375 -2.625q-1.71875 -0.828125 -5.625 -1.921875q-3.265625 -0.890625 -5.578125 -1.71875q-2.296875 -0.828125 -3.703125 -1.890625q-1.40625 -1.0625 -2.046875 -2.4375q-0.640625 -1.375 -0.640625 -3.296875q0 -2.546875 0.984375 -4.59375q1.0 -2.0625 2.78125 -3.5q1.796875 -1.4375 4.1875 -2.203125q2.40625 -0.765625 5.234375 -0.765625q3.765625 0 7.0625 1.09375q3.296875 1.078125 6.046875 3.515625l-3.453125 5.171875q-2.5625 -1.90625 -4.96875 -2.796875q-2.390625 -0.90625 -4.75 -0.90625q-2.1875 0 -3.65625 0.90625q-1.46875 0.890625 -1.46875 2.875q0 0.890625 0.34375 1.46875q0.359375 0.578125 1.125 1.03125q0.765625 0.4375 2.015625 0.859375q1.25 0.40625 3.109375 0.859375q3.453125 0.890625 5.90625 1.796875q2.46875 0.890625 4.03125 2.046875q1.578125 1.140625 2.3125 2.65625q0.734375 1.5 0.734375 3.609375q0 4.921875 -3.65625 7.78125q-3.640625 2.84375 -9.90625 2.84375zm34.682953 0q-4.03125 0 -7.296875 -1.375q-3.265625 -1.375 -5.578125 -3.734375q-2.296875 -2.375 -3.546875 -5.515625q-1.234375 -3.140625 -1.234375 -6.59375q0 -3.578125 1.203125 -6.75q1.21875 -3.171875 3.515625 -5.5625q2.3125 -2.40625 5.609375 -3.8125q3.296875 -1.40625 7.390625 -1.40625q4.09375 0 7.328125 1.40625q3.2343445 1.40625 5.4999695 3.78125q2.28125 2.359375 3.453125 5.5q1.1875 3.140625 1.1875 6.53125q0 0.828125 -0.03125 1.59375q-0.03125 0.765625 -0.15625 1.28125l-25.921844 0q0.203125 1.984375 0.96875 3.53125q0.765625 1.53125 1.984375 2.625q1.21875 1.078125 2.75 1.65625q1.53125 0.578125 3.203125 0.578125q2.5625 0 4.828125 -1.25q2.265625 -1.25 3.1093445 -3.296875l7.359375 2.046875q-1.859375 3.84375 -5.921875 6.3125q-4.0624695 2.453125 -9.7030945 2.453125zm8.7030945 -20.21875q-0.3125 -3.78125 -2.7812195 -6.046875q-2.46875 -2.28125 -5.984375 -2.28125q-1.734375 0 -3.234375 0.609375q-1.5 0.609375 -2.65625 1.703125q-1.140625 1.078125 -1.890625 2.625q-0.734375 1.53125 -0.859375 3.390625l17.40622 0zm26.757812 20.21875q-4.21875 0 -8.265625 -1.34375q-4.03125 -1.34375 -6.90625 -3.84375l3.203125 -5.375q3.078125 2.171875 5.984375 3.296875q2.90625 1.125 5.796875 1.125q2.546875 0 4.015625 -0.953125q1.484375 -0.96875 1.484375 -2.765625q0 -1.796875 -1.734375 -2.625q-1.71875 -0.828125 -5.625 -1.921875q-3.265625 -0.890625 -5.578125 -1.71875q-2.296875 -0.828125 -3.703125 -1.890625q-1.40625 -1.0625 -2.046875 -2.4375q-0.640625 -1.375 -0.640625 -3.296875q0 -2.546875 0.984375 -4.59375q1.0 -2.0625 2.78125 -3.5q1.796875 -1.4375 4.1875 -2.203125q2.40625 -0.765625 5.234375 -0.765625q3.765625 0 7.0625 1.09375q3.296875 1.078125 6.046875 3.515625l-3.453125 5.171875q-2.5625 -1.90625 -4.96875 -2.796875q-2.390625 -0.90625 -4.75 -0.90625q-2.1875 0 -3.65625 0.90625q-1.46875 0.890625 -1.46875 2.875q0 0.890625 0.34375 1.46875q0.359375 0.578125 1.125 1.03125q0.765625 0.4375 2.015625 0.859375q1.25 0.40625 3.109375 0.859375q3.453125 0.890625 5.90625 1.796875q2.46875 0.890625 4.03125 2.046875q1.578125 1.140625 2.3125 2.65625q0.734375 1.5 0.734375 3.609375q0 4.921875 -3.65625 7.78125q-3.640625 2.84375 -9.90625 2.84375zm32.386658 -17.40625q0 -3.515625 1.203125 -6.65625q1.21875 -3.140625 3.515625 -5.5q2.3125 -2.375 5.578125 -3.78125q3.265625 -1.40625 7.359375 -1.40625q5.5 0 9.375 2.375q3.875 2.359375 5.796875 6.203125l-8.390625 2.5625q-1.078125 -1.859375 -2.875 -2.84375q-1.796875 -1.0 -3.96875 -1.0q-1.859375 0 -3.453125 0.734375q-1.59375 0.734375 -2.78125 2.046875q-1.1875 1.3125 -1.859375 3.171875q-0.671875 1.84375 -0.671875 4.09375q0 2.234375 0.703125 4.09375q0.703125 1.859375 1.890625 3.203125q1.1875 1.34375 2.78125 2.078125q1.59375 0.734375 3.390625 0.734375q2.3125 0 4.25 -1.140625q1.953125 -1.15625 2.734375 -2.828125l8.375 2.5625q-1.71875 3.84375 -5.6875 6.28125q-3.96875 2.421875 -9.546875 2.421875q-4.09375 0 -7.359375 -1.40625q-3.265625 -1.40625 -5.578125 -3.796875q-2.296875 -2.40625 -3.546875 -5.578125q-1.234375 -3.171875 -1.234375 -6.625zm47.361572 17.40625q-2.4375 0 -4.546875 -0.796875q-2.109375 -0.796875 -3.65625 -2.234375q-1.53125 -1.453125 -2.40625 -3.375q-0.859375 -1.921875 -0.859375 -4.21875q0 -2.375 1.0625 -4.390625q1.0625 -2.015625 2.9375 -3.421875q1.890625 -1.40625 4.515625 -2.203125q2.625 -0.796875 5.765625 -0.796875q2.234375 0 4.375 0.390625q2.15625 0.375 3.8125 1.078125l0 -1.921875q0 -3.328125 -1.890625 -5.109375q-1.890625 -1.796875 -5.59375 -1.796875q-2.6875 0 -5.25 0.96875q-2.5625 0.953125 -5.25 2.796875l-2.625 -5.4375q6.46875 -4.28125 13.953125 -4.28125q7.234375 0 11.234375 3.546875q4.0 3.546875 4.0 10.28125l0 10.421875q0 1.34375 0.46875 1.921875q0.484375 0.578125 1.578125 0.640625l0 7.296875q-2.171875 0.453125 -3.78125 0.453125q-2.421875 0 -3.734375 -1.09375q-1.3125 -1.09375 -1.640625 -2.875l-0.1875 -1.859375q-2.234375 2.9375 -5.4375 4.484375q-3.203125 1.53125 -6.84375 1.53125zm2.421875 -6.265625q2.171875 0 4.125 -0.765625q1.953125 -0.78125 3.046875 -2.0625q1.40625 -1.078125 1.40625 -2.421875l0 -3.84375q-1.53125 -0.578125 -3.328125 -0.921875q-1.796875 -0.359375 -3.453125 -0.359375q-3.328125 0 -5.4375 1.515625q-2.109375 1.5 -2.109375 3.796875q0 2.171875 1.65625 3.625q1.671875 1.4375 4.09375 1.4375zm56.329712 5.625l-8.578125 0l0 -18.8125q0 -4.03125 -1.40625 -5.890625q-1.40625 -1.859375 -3.90625 -1.859375q-1.28125 0 -2.625 0.515625q-1.34375 0.515625 -2.53125 1.4375q-1.1875 0.921875 -2.15625 2.203125q-0.953125 1.28125 -1.390625 2.828125l0 19.578125l-8.578125 0l0 -33.53125l7.734375 0l0 6.203125q1.859375 -3.203125 5.375 -4.984375q3.53125 -1.796875 7.9375 -1.796875q3.140625 0 5.125 1.15625q1.984375 1.140625 3.0625 3.0q1.09375 1.859375 1.515625 4.234375q0.421875 2.359375 0.421875 4.796875l0 20.921875z" fill-rule="nonzero"/><path fill="#b7b7b7" d="m109.69087 328.20602q-3.828125 0 -6.84375 -1.71875q-3.0 -1.734375 -4.734375 -4.75l0 5.828125l-7.484375 0l0 -46.71875l8.578125 0l0 19.078125q1.78125 -3.078125 4.6875 -4.765625q2.921875 -1.703125 6.828125 -1.703125q3.265625 0 5.953125 1.40625q2.6875 1.40625 4.640625 3.78125q1.953125 2.359375 3.0 5.5625q1.0625 3.203125 1.0625 6.71875q0 3.65625 -1.1875 6.796875q-1.1875 3.125 -3.296875 5.46875q-2.109375 2.328125 -5.0 3.671875q-2.875 1.34375 -6.203125 1.34375zm-2.359375 -7.296875q2.046875 0 3.765625 -0.796875q1.734375 -0.796875 2.953125 -2.140625q1.21875 -1.34375 1.890625 -3.140625q0.671875 -1.796875 0.671875 -3.84375q0 -2.046875 -0.640625 -3.90625q-0.640625 -1.859375 -1.828125 -3.265625q-1.1875 -1.40625 -2.78125 -2.234375q-1.59375 -0.828125 -3.515625 -0.828125q-2.890625 0 -5.15625 1.890625q-2.265625 1.875 -3.484375 4.640625l0 8.0q0.4375 1.265625 1.296875 2.296875q0.875 1.03125 1.953125 1.765625q1.09375 0.734375 2.375 1.15625q1.28125 0.40625 2.5 0.40625zm39.419678 7.296875q-4.03125 0 -7.296875 -1.375q-3.265625 -1.375 -5.578125 -3.734375q-2.296875 -2.375 -3.546875 -5.515625q-1.234375 -3.140625 -1.234375 -6.59375q0 -3.578125 1.203125 -6.75q1.21875 -3.171875 3.515625 -5.5625q2.3125 -2.40625 5.609375 -3.8125q3.296875 -1.40625 7.390625 -1.40625q4.09375 0 7.328125 1.40625q3.234375 1.40625 5.5 3.78125q2.28125 2.359375 3.453125 5.5q1.1875 3.140625 1.1875 6.53125q0 0.828125 -0.03125 1.59375q-0.03125 0.765625 -0.15625 1.28125l-25.921875 0q0.203125 1.984375 0.96875 3.53125q0.765625 1.53125 1.984375 2.625q1.21875 1.078125 2.75 1.65625q1.53125 0.578125 3.203125 0.578125q2.5625 0 4.828125 -1.25q2.265625 -1.25 3.109375 -3.296875l7.359375 2.046875q-1.859375 3.84375 -5.921875 6.3125q-4.0625 2.453125 -9.703125 2.453125zm8.703125 -20.21875q-0.3125 -3.78125 -2.78125 -6.046875q-2.46875 -2.28125 -5.984375 -2.28125q-1.734375 0 -3.234375 0.609375q-1.5 0.609375 -2.65625 1.703125q-1.140625 1.078125 -1.890625 2.625q-0.734375 1.53125 -0.859375 3.390625l17.40625 0z" fill-rule="nonzero"/><path fill="#69b7cf" d="m201.7127 328.36227q-5.28125 0 -10.328125 -1.671875q-5.03125 -1.6875 -8.625 -4.8125l4.0 -6.71875q3.828125 2.71875 7.46875 4.125q3.640625 1.40625 7.25 1.40625q3.203125 0 5.03125 -1.203125q1.84375 -1.203125 1.84375 -3.4375q0 -2.25 -2.15625 -3.28125q-2.15625 -1.046875 -7.046875 -2.40625q-4.078125 -1.109375 -6.96875 -2.15625q-2.875 -1.046875 -4.640625 -2.359375q-1.75 -1.328125 -2.546875 -3.046875q-0.796875 -1.71875 -0.796875 -4.109375q0 -3.203125 1.234375 -5.765625q1.25 -2.5625 3.484375 -4.359375q2.234375 -1.796875 5.234375 -2.75q3.0 -0.96875 6.53125 -0.96875q4.71875 0 8.828125 1.359375q4.125 1.359375 7.5625 4.40625l-4.3125 6.46875q-3.203125 -2.390625 -6.203125 -3.515625q-3.0 -1.125 -5.96875 -1.125q-2.71875 0 -4.5625 1.125q-1.828125 1.125 -1.828125 3.59375q0 1.125 0.4375 1.84375q0.4375 0.71875 1.390625 1.28125q0.96875 0.5625 2.53125 1.078125q1.5625 0.515625 3.875 1.078125q4.328125 1.125 7.40625 2.25q3.078125 1.109375 5.03125 2.5625q1.96875 1.4375 2.890625 3.3125q0.921875 1.875 0.921875 4.515625q0 6.171875 -4.5625 9.734375q-4.5625 3.546875 -12.40625 3.546875zm36.728714 0q-6.484375 0 -9.84375 -4.15625q-3.359375 -4.15625 -3.359375 -12.328125l0 -26.234375l10.71875 0l0 23.921875q0 9.6875 6.953125 9.6875q3.125 0 6.046875 -1.875q2.921875 -1.890625 4.75 -5.734375l0 -26.0l10.73439 0l0 29.609375q0 1.671875 0.59375 2.390625q0.59375 0.71875 1.953125 0.796875l0 9.125q-1.59375 0.3125 -2.671875 0.390625q-1.078125 0.09375 -1.96875 0.09375q-2.875 0 -4.671875 -1.3125q-1.7968903 -1.328125 -2.1250153 -3.65625l-0.234375 -3.359375q-2.796875 4.328125 -7.203125 6.484375q-4.40625 2.15625 -9.671875 2.15625zm61.752457 0q-4.953125 0 -8.640625 -2.1875q-3.671875 -2.203125 -5.765625 -5.96875l0 24.40625l-10.71875 0l0 -58.96875l9.359375 0l0 7.203125q2.328125 -3.6875 6.0 -5.796875q3.6875 -2.125 8.484375 -2.125q4.234375 0 7.828125 1.71875q3.609375 1.71875 6.203125 4.640625q2.609375 2.921875 4.078125 6.890625q1.484375 3.953125 1.484375 8.34375q0 4.5625 -1.359375 8.5625q-1.359375 4.0 -3.796875 6.96875q-2.4375 2.953125 -5.796875 4.640625q-3.359375 1.671875 -7.359375 1.671875zm-3.59375 -9.109375q2.390625 0 4.421875 -1.046875q2.046875 -1.046875 3.484375 -2.796875q1.453125 -1.765625 2.25 -4.078125q0.796875 -2.328125 0.796875 -4.8125q0 -2.640625 -0.890625 -4.90625q-0.875 -2.28125 -2.4375 -3.953125q-1.546875 -1.6875 -3.671875 -2.640625q-2.125 -0.96875 -4.59375 -0.96875q-1.53125 0 -3.125 0.515625q-1.59375 0.515625 -2.96875 1.484375q-1.359375 0.953125 -2.4375 2.234375q-1.078125 1.28125 -1.640625 2.796875l0 9.84375q1.453125 3.59375 4.40625 5.96875q2.953125 2.359375 6.40625 2.359375zm48.62622 9.109375q-5.03125 0 -9.109375 -1.71875q-4.078125 -1.71875 -6.96875 -4.671875q-2.875 -2.96875 -4.4375 -6.890625q-1.5625 -3.921875 -1.5625 -8.234375q0 -4.484375 1.515625 -8.4375q1.53125 -3.96875 4.40625 -6.96875q2.890625 -3.0 7.0 -4.75q4.125 -1.765625 9.25 -1.765625q5.109375 0 9.140625 1.765625q4.046875 1.75 6.890625 4.71875q2.84375 2.953125 4.3125 6.875q1.484375 3.921875 1.484375 8.15625q0 1.046875 -0.046875 2.015625q-0.03125 0.953125 -0.1875 1.59375l-32.40625 0q0.25 2.46875 1.203125 4.390625q0.96875 1.921875 2.484375 3.28125q1.515625 1.359375 3.4375 2.078125q1.921875 0.71875 4.0 0.71875q3.203125 0 6.03125 -1.546875q2.84375 -1.5625 3.890625 -4.125l9.203125 2.5625q-2.328125 4.796875 -7.40625 7.875q-5.078125 3.078125 -12.125 3.078125zm10.890625 -25.28125q-0.40625 -4.71875 -3.484375 -7.546875q-3.078125 -2.84375 -7.484375 -2.84375q-2.15625 0 -4.046875 0.765625q-1.875 0.75 -3.3125 2.109375q-1.4375 1.359375 -2.359375 3.28125q-0.921875 1.921875 -1.078125 4.234375l21.765625 0zm42.560577 -8.15625q-4.890625 0.078125 -8.734375 1.890625q-3.828125 1.796875 -5.515625 5.390625l0 25.359375l-10.71875 0l0 -41.921875l9.84375 0l0 8.96875q1.125 -2.171875 2.640625 -3.890625q1.515625 -1.71875 3.28125 -3.0q1.765625 -1.28125 3.5625 -1.953125q1.796875 -0.6875 3.484375 -0.6875q0.875 0 1.3125 0q0.4375 0 0.84375 0.078125l0 9.765625zm2.316864 15.515625l0 -9.671875l24.234375 0l0 9.671875l-24.234375 0zm49.518066 17.921875q-5.28125 0 -10.328125 -1.671875q-5.03125 -1.6875 -8.625 -4.8125l4.0 -6.71875q3.828125 2.71875 7.46875 4.125q3.640625 1.40625 7.25 1.40625q3.203125 0 5.03125 -1.203125q1.84375 -1.203125 1.84375 -3.4375q0 -2.25 -2.15625 -3.28125q-2.15625 -1.046875 -7.046875 -2.40625q-4.078125 -1.109375 -6.96875 -2.15625q-2.875 -1.046875 -4.640625 -2.359375q-1.75 -1.328125 -2.546875 -3.046875q-0.796875 -1.71875 -0.796875 -4.109375q0 -3.203125 1.234375 -5.765625q1.25 -2.5625 3.484375 -4.359375q2.234375 -1.796875 5.234375 -2.75q3.0 -0.96875 6.53125 -0.96875q4.71875 0 8.828125 1.359375q4.125 1.359375 7.5625 4.40625l-4.3125 6.46875q-3.203125 -2.390625 -6.203125 -3.515625q-3.0 -1.125 -5.96875 -1.125q-2.71875 0 -4.5625 1.125q-1.828125 1.125 -1.828125 3.59375q0 1.125 0.4375 1.84375q0.4375 0.71875 1.390625 1.28125q0.96875 0.5625 2.53125 1.078125q1.5625 0.515625 3.875 1.078125q4.328125 1.125 7.40625 2.25q3.078125 1.109375 5.03125 2.5625q1.96875 1.4375 2.890625 3.3125q0.921875 1.875 0.921875 4.515625q0 6.171875 -4.5625 9.734375q-4.5625 3.546875 -12.40625 3.546875zm62.88498 -0.796875l-10.7187195 0l0 -23.515625q0 -4.96875 -1.84375 -7.328125q-1.84375 -2.359375 -5.203125 -2.359375q-1.4375 0 -3.046875 0.640625q-1.59375 0.640625 -3.03125 1.8125q-1.4375 1.15625 -2.640625 2.75q-1.203125 1.59375 -1.765625 3.515625l0 24.484375l-10.71875 0l0 -58.40625l10.71875 0l0 24.25q2.328125 -4.078125 6.28125 -6.28125q3.96875 -2.203125 8.765625 -2.203125q4.078125 0 6.640625 1.40625q2.5625 1.390625 4.0 3.71875q1.4374695 2.3125 1.9999695 5.28125q0.5625 2.953125 0.5625 6.078125l0 26.15625zm28.710571 0.796875q-5.109375 0 -9.203125 -1.75q-4.078125 -1.765625 -6.921875 -4.765625q-2.828125 -3.0 -4.359375 -6.921875q-1.515625 -3.921875 -1.515625 -8.234375q0 -4.40625 1.515625 -8.328125q1.53125 -3.921875 4.359375 -6.921875q2.84375 -3.0 6.921875 -4.75q4.09375 -1.765625 9.203125 -1.765625q5.125 0 9.15625 1.765625q4.046875 1.75 6.890625 4.75q2.84375 3.0 4.359375 6.921875q1.515625 3.921875 1.515625 8.328125q0 4.3125 -1.515625 8.234375q-1.515625 3.921875 -4.328125 6.921875q-2.796875 3.0 -6.875 4.765625q-4.078125 1.75 -9.203125 1.75zm-10.953125 -21.671875q0 2.796875 0.828125 5.078125q0.84375 2.28125 2.328125 3.96875q1.484375 1.671875 3.484375 2.59375q2.0 0.921875 4.3125 0.921875q2.328125 0 4.328125 -0.921875q2.0 -0.921875 3.46875 -2.59375q1.484375 -1.6875 2.328125 -4.0q0.84375 -2.328125 0.84375 -5.125q0 -2.734375 -0.84375 -5.046875q-0.84375 -2.3125 -2.328125 -4.0q-1.46875 -1.6875 -3.46875 -2.59375q-2.0 -0.921875 -4.328125 -0.921875q-2.3125 0 -4.3125 0.96875q-2.0 0.953125 -3.484375 2.640625q-1.484375 1.671875 -2.328125 4.0q-0.828125 2.3125 -0.828125 5.03125zm65.04242 -11.765625q-4.890625 0.078125 -8.734375 1.890625q-3.828125 1.796875 -5.515625 5.390625l0 25.359375l-10.71875 0l0 -41.921875l9.84375 0l0 8.96875q1.125 -2.171875 2.640625 -3.890625q1.515625 -1.71875 3.28125 -3.0q1.765625 -1.28125 3.5625 -1.953125q1.796875 -0.6875 3.484375 -0.6875q0.875 0 1.3125 0q0.4375 0 0.84375 0.078125l0 9.765625zm31.116272 30.484375q-2.15625 0.953125 -5.28125 1.921875q-3.125 0.953125 -6.5625 0.953125q-2.234375 0 -4.203125 -0.5625q-1.953125 -0.5625 -3.4375 -1.796875q-1.46875 -1.234375 -2.359375 -3.1875q-0.875 -1.96875 -0.875 -4.765625l0 -24.09375l-5.515625 0l0 -8.234375l5.515625 0l0 -13.59375l10.71875 0l0 13.59375l8.796875 0l0 8.234375l-8.796875 0l0 20.484375q0 2.25 1.15625 3.171875q1.15625 0.90625 2.84375 0.90625q1.6875 0 3.28125 -0.546875q1.59375 -0.5625 2.5625 -0.96875l2.15625 8.484375z" fill-rule="nonzero"/><path fill="#b7b7b7" d="m99.78462 424.20602q-2.4375 0 -4.546875 -0.796875q-2.109375 -0.796875 -3.65625 -2.234375q-1.53125 -1.453125 -2.40625 -3.375q-0.859375 -1.921875 -0.859375 -4.21875q0 -2.375 1.0625 -4.390625q1.0625 -2.015625 2.9375 -3.421875q1.890625 -1.40625 4.515625 -2.203125q2.625 -0.796875 5.765625 -0.796875q2.234375 0 4.375 0.390625q2.15625 0.375 3.8125 1.078125l0 -1.921875q0 -3.328125 -1.890625 -5.109375q-1.890625 -1.796875 -5.59375 -1.796875q-2.6875 0 -5.25 0.96875q-2.5625 0.953125 -5.25 2.796875l-2.625 -5.4375q6.46875 -4.28125 13.953125 -4.28125q7.234375 0 11.234375 3.546875q4.0 3.546875 4.0 10.28125l0 10.421875q0 1.34375 0.46875 1.921875q0.484375 0.578125 1.578125 0.640625l0 7.296875q-2.171875 0.453125 -3.78125 0.453125q-2.421875 0 -3.734375 -1.09375q-1.3125 -1.09375 -1.640625 -2.875l-0.1875 -1.859375q-2.234375 2.9375 -5.4375 4.484375q-3.203125 1.53125 -6.84375 1.53125zm2.421875 -6.265625q2.171875 0 4.125 -0.765625q1.953125 -0.78125 3.046875 -2.0625q1.40625 -1.078125 1.40625 -2.421875l0 -3.84375q-1.53125 -0.578125 -3.328125 -0.921875q-1.796875 -0.359375 -3.453125 -0.359375q-3.328125 0 -5.4375 1.515625q-2.109375 1.5 -2.109375 3.796875q0 2.171875 1.65625 3.625q1.671875 1.4375 4.09375 1.4375zm56.32968 5.625l-8.578125 0l0 -18.8125q0 -4.03125 -1.40625 -5.890625q-1.40625 -1.859375 -3.90625 -1.859375q-1.28125 0 -2.625 0.515625q-1.34375 0.515625 -2.53125 1.4375q-1.1875 0.921875 -2.15625 2.203125q-0.953125 1.28125 -1.390625 2.828125l0 19.578125l-8.578125 0l0 -33.53125l7.734375 0l0 6.203125q1.859375 -3.203125 5.375 -4.984375q3.53125 -1.796875 7.9375 -1.796875q3.140625 0 5.125 1.15625q1.984375 1.140625 3.0625 3.0q1.09375 1.859375 1.515625 4.234375q0.421875 2.359375 0.421875 4.796875l0 20.921875zm21.37468 0.640625q-3.453125 0 -6.40625 -1.34375q-2.9375 -1.34375 -5.0625 -3.703125q-2.109375 -2.375 -3.296875 -5.546875q-1.171875 -3.171875 -1.171875 -6.8125q0 -3.65625 1.109375 -6.78125q1.125 -3.140625 3.109375 -5.5q1.984375 -2.375 4.734375 -3.71875q2.75 -1.34375 6.015625 -1.34375q3.71875 0 6.6875 1.796875q2.984375 1.78125 4.640625 4.671875l0 -19.078125l8.578125 0l0 36.859375q0 1.34375 0.4375 1.921875q0.453125 0.578125 1.546875 0.640625l0 7.296875q-2.234375 0.453125 -3.640625 0.453125q-2.3125 0 -3.78125 -1.15625q-1.46875 -1.15625 -1.671875 -3.015625l-0.1875 -2.109375q-1.859375 3.203125 -5.03125 4.84375q-3.15625 1.625 -6.609375 1.625zm2.234375 -7.296875q1.21875 0 2.5 -0.40625q1.28125 -0.421875 2.359375 -1.1875q1.09375 -0.78125 1.953125 -1.796875q0.875 -1.03125 1.3125 -2.234375l0 -8.0q-0.515625 -1.421875 -1.4375 -2.59375q-0.921875 -1.1875 -2.109375 -2.046875q-1.1875 -0.875 -2.5 -1.375q-1.3125 -0.515625 -2.59375 -0.515625q-1.921875 0 -3.546875 0.828125q-1.625 0.828125 -2.78125 2.28125q-1.15625 1.4375 -1.796875 3.296875q-0.640625 1.84375 -0.640625 3.828125q0 2.109375 0.703125 3.90625q0.703125 1.796875 1.921875 3.140625q1.21875 1.34375 2.90625 2.109375q1.703125 0.765625 3.75 0.765625z" fill-rule="nonzero"/><path fill="#69b7cf" d="m239.47263 424.36227q-5.28125 0 -10.328125 -1.671875q-5.03125 -1.6875 -8.625 -4.8125l4.0 -6.71875q3.828125 2.71875 7.46875 4.125q3.640625 1.40625 7.25 1.40625q3.203125 0 5.03125 -1.203125q1.84375 -1.203125 1.84375 -3.4375q0 -2.25 -2.15625 -3.28125q-2.15625 -1.046875 -7.046875 -2.40625q-4.078125 -1.109375 -6.96875 -2.15625q-2.875 -1.046875 -4.640625 -2.359375q-1.75 -1.328125 -2.546875 -3.046875q-0.796875 -1.71875 -0.796875 -4.109375q0 -3.203125 1.234375 -5.765625q1.25 -2.5625 3.484375 -4.359375q2.234375 -1.796875 5.234375 -2.75q3.0 -0.96875 6.53125 -0.96875q4.71875 0 8.828125 1.359375q4.125 1.359375 7.5625 4.40625l-4.3125 6.46875q-3.203125 -2.390625 -6.203125 -3.515625q-3.0 -1.125 -5.96875 -1.125q-2.71875 0 -4.5625 1.125q-1.828125 1.125 -1.828125 3.59375q0 1.125 0.4375 1.84375q0.4375 0.71875 1.390625 1.28125q0.96875 0.5625 2.53125 1.078125q1.5625 0.515625 3.875 1.078125q4.328125 1.125 7.40625 2.25q3.078125 1.109375 5.03125 2.5625q1.96875 1.4375 2.890625 3.3125q0.921875 1.875 0.921875 4.515625q0 6.171875 -4.5625 9.734375q-4.5625 3.546875 -12.40625 3.546875zm23.91623 -0.796875l0 -41.921875l10.71875 0l0 41.921875l-10.71875 0zm0 -47.765625l0 -10.640625l10.71875 0l0 10.640625l-10.71875 0zm85.524994 47.765625l-10.71875 0l0 -23.515625q0 -5.046875 -1.71875 -7.359375q-1.71875 -2.328125 -4.7656555 -2.328125q-3.203125 0 -6.0 2.453125q-2.796875 2.4375 -4.0 6.34375l0 24.40625l-10.71875 0l0 -23.515625q0 -5.046875 -1.71875 -7.359375q-1.71875 -2.328125 -4.765625 -2.328125q-3.109375 0 -5.953125 2.40625q-2.84375 2.390625 -4.046875 6.3125l0 24.484375l-10.71875 0l0 -41.921875l9.6875 0l0 7.765625q2.3125 -4.078125 6.34375 -6.28125q4.046875 -2.203125 9.25 -2.203125q5.28125 0 8.15625 2.5625q2.890625 2.5625 3.6875 6.3125q2.5625 -4.3125 6.484375 -6.59375q3.921875 -2.28125 8.9531555 -2.28125q3.84375 0 6.3125 1.4375q2.484375 1.4375 3.84375 3.765625q1.359375 2.3125 1.875 5.28125q0.53125 2.953125 0.53125 6.0l0 26.15625zm34.47992 0.796875q-4.953125 0 -8.640625 -2.1875q-3.671875 -2.203125 -5.765625 -5.96875l0 24.40625l-10.71875 0l0 -58.96875l9.359375 0l0 7.203125q2.328125 -3.6875 6.0 -5.796875q3.6875 -2.125 8.484375 -2.125q4.234375 0 7.828125 1.71875q3.609375 1.71875 6.203125 4.640625q2.609375 2.921875 4.078125 6.890625q1.484375 3.953125 1.484375 8.34375q0 4.5625 -1.359375 8.5625q-1.359375 4.0 -3.796875 6.96875q-2.4375 2.953125 -5.796875 4.640625q-3.359375 1.671875 -7.359375 1.671875zm-3.59375 -9.109375q2.390625 0 4.421875 -1.046875q2.046875 -1.046875 3.484375 -2.796875q1.453125 -1.765625 2.25 -4.078125q0.796875 -2.328125 0.796875 -4.8125q0 -2.640625 -0.890625 -4.90625q-0.875 -2.28125 -2.4375 -3.953125q-1.546875 -1.6875 -3.671875 -2.640625q-2.125 -0.96875 -4.59375 -0.96875q-1.53125 0 -3.125 0.515625q-1.59375 0.515625 -2.96875 1.484375q-1.359375 0.953125 -2.4375 2.234375q-1.078125 1.28125 -1.640625 2.796875l0 9.84375q1.453125 3.59375 4.40625 5.96875q2.953125 2.359375 6.40625 2.359375zm29.110596 -50.09375l10.71875 0l0 44.96875q0 2.3125 1.125 3.59375q1.125 1.28125 3.203125 1.28125q0.953125 0 2.109375 -0.3125q1.171875 -0.328125 2.203125 -0.8125l1.4375 8.171875q-2.15625 1.03125 -5.03125 1.59375q-2.875 0.5625 -5.203125 0.5625q-5.046875 0 -7.8125 -2.671875q-2.75 -2.6875 -2.75 -7.65625l0 -48.71875zm44.87558 59.203125q-5.03125 0 -9.109375 -1.71875q-4.078125 -1.71875 -6.96875 -4.671875q-2.875 -2.96875 -4.4375 -6.890625q-1.5625 -3.921875 -1.5625 -8.234375q0 -4.484375 1.515625 -8.4375q1.53125 -3.96875 4.40625 -6.96875q2.890625 -3.0 7.0 -4.75q4.125 -1.765625 9.25 -1.765625q5.109375 0 9.140625 1.765625q4.046875 1.75 6.890625 4.71875q2.84375 2.953125 4.3125 6.875q1.484375 3.921875 1.484375 8.15625q0 1.046875 -0.046875 2.015625q-0.03125 0.953125 -0.1875 1.59375l-32.40625 0q0.25 2.46875 1.203125 4.390625q0.96875 1.921875 2.484375 3.28125q1.515625 1.359375 3.4375 2.078125q1.921875 0.71875 4.0 0.71875q3.203125 0 6.03125 -1.546875q2.84375 -1.5625 3.890625 -4.125l9.203125 2.5625q-2.328125 4.796875 -7.40625 7.875q-5.078125 3.078125 -12.125 3.078125zm10.890625 -25.28125q-0.40625 -4.71875 -3.484375 -7.546875q-3.078125 -2.84375 -7.484375 -2.84375q-2.15625 0 -4.046875 0.765625q-1.875 0.75 -3.3125 2.109375q-1.4375 1.359375 -2.359375 3.28125q-0.921875 1.921875 -1.078125 4.234375l21.765625 0z" fill-rule="nonzero"/><path fill="#69b7cf" d="m479.7374 419.20602q0 -0.984375 0.359375 -1.875q0.375 -0.90625 1.03125 -1.546875q0.65625 -0.640625 1.546875 -1.015625q0.890625 -0.390625 1.921875 -0.390625q0.984375 0 1.875 0.390625q0.90625 0.375 1.546875 1.015625q0.640625 0.640625 1.015625 1.546875q0.390625 0.890625 0.390625 1.875q0 1.03125 -0.390625 1.921875q-0.375 0.875 -1.015625 1.515625q-0.640625 0.640625 -1.546875 1.0q-0.890625 0.375 -1.875 0.375q-1.03125 0 -1.921875 -0.375q-0.890625 -0.359375 -1.546875 -1.0q-0.65625 -0.640625 -1.03125 -1.515625q-0.359375 -0.890625 -0.359375 -1.921875z" fill-rule="nonzero"/></g></svg>