<svg width="228" height="50" version="1.1" viewBox="-55 -18 228 100" xmlns="http://www.w3.org/2000/svg">
	<g transform="matrix(1.2483 0 0 1.2483 -96.7299 -55.4379)">
		<g transform="matrix(.789715 0 0 .700183 -9.82751 49.7403)">
			<g>
				<path d="m-20.8 73.9-31.2-89.8h8.5l31.1 89.8z" fill="#d9d9d9"/>
			</g>
			<g transform="matrix(.999815 0 0 .999815 3.48035 .0107088)">
				<g>
					<path d="m-3.6 66.1-25.2-72.8h13.5l25.1 72.8z" fill="#69b7cf"/>
				</g>
				<g>
					<path d="m26.3 12.6-15.2 46.9-5.7-18.6 15.2-47.6h12.6l17.1 51 18.1-51h13.4l-25.3 72.8h-12.6z" fill="#69b7cf"/>
				</g>
			</g>
			<g transform="translate(148.103)">
				<path d="m94.4-15.9h8.5l-30.7 89.8h-8.5z" fill="#d9d9d9"/>
			</g>
		</g>
		<g transform="matrix(.84861 0 0 .84861 -3.04166 15.8275)">
			<g transform="matrix(.937743 0 0 .937743 8.31883 5.54144)">
				<path d="m145.276 94.6964h-28.462v-45.9481h6.08204v40.4835h22.3799z" fill="#69b7cf" stroke-width="4.86563"/>
			</g>
			<g transform="matrix(.921116 0 0 .921116 8.16335 5.47591)">
				<path d="m90.8633 49.3067q4.75158 0 8.79024 1.71056 4.03867 1.71056 6.93741 4.8466 2.946 3.08855 4.56153 7.50766 1.66307 4.37147 1.66307 9.6933 0 5.27434-1.61553 9.64562-1.61554 4.37147-4.56153 7.55486-2.89845 3.13604-6.93741 4.89433-3.99132 1.71056-8.83792 1.71056t-8.88561-1.71056q-4.03886-1.71056-6.98461-4.8466-2.89845-3.13604-4.51399-7.50766-1.61554-4.41896-1.61554-9.74098 0-5.36922 1.61554-9.74099 1.66307-4.41896 4.60906-7.50766 2.94599-3.13604 6.93741-4.79911 4.03886-1.71056 8.83792-1.71056zm-.04768 42.3368q3.42112 0 6.31948-1.23543 2.89845-1.28292 4.98921-3.65871 2.09071-2.42333 3.23107-5.84459 1.18789-3.46866 1.18789-7.83998 0-4.41896-1.18789-7.83998-1.1879-3.42112-3.27861-5.79691-2.04317-2.37579-4.94153-3.61122-2.85096-1.23543-6.17691-1.23543-3.42112 0-6.36716 1.28292-2.89845 1.23543-4.98921 3.61122-2.09071 2.37579-3.2786 5.79691t-1.18789 7.79279 1.1404 7.83998q1.1879 3.42112 3.27861 5.84459 2.09071 2.37579 4.94153 3.65871 2.89845 1.23543 6.31948 1.23543z" fill="#69b7cf" stroke-width="4.86563"/>
			</g>
			<g transform="translate(77.2044 -.289557)">
				<path d="m87.8638 51.1826q4.37675 0 8.09683 1.57562t6.39016 4.46428q2.71361 2.84492 4.2017 6.91543 1.53188 4.02664 1.53188 8.92866 0 4.85828-1.48809 8.88474-1.4881 4.02664-4.2017 6.9589-2.66981 2.88866-6.39016 4.50825-3.67647 1.57562-8.14076 1.57562-4.46428 0-8.18468-1.57562-3.72026-1.57562-6.43364-4.46428-2.66981-2.88866-4.15791-6.91543-1.4881-4.07038-1.4881-8.97258 0-4.94568 1.4881-8.97258 1.53188-4.07038 4.24548-6.91543 2.7136-2.88866 6.39016-4.42054 3.72026-1.57562 8.14076-1.57562zm-.04392 38.9971q3.15125 0 5.82097-1.13798 2.66981-1.18172 4.59564-3.3701 1.92579-2.23216 2.9762-5.38355 1.09418-3.19504 1.09418-7.22154 0-4.07038-1.09418-7.22154-1.0942-3.15125-3.01999-5.33963-1.882-2.18838-4.55172-3.32635-2.62607-1.13798-5.68966-1.13798-3.15125 0-5.86489 1.18172-2.66981 1.13798-4.59565 3.32635-1.92579 2.18838-3.01998 5.33963t-1.09419 7.17806 1.05044 7.22154q1.09419 3.15125 3.01998 5.38355 1.92579 2.18838 4.55172 3.3701 2.66981 1.13798 5.82097 1.13798z" fill="#69b7cf" stroke-width="4.48181"/>
			</g>
		</g>
	</g>
	<g transform="matrix(2.79055 0 0 2.79055 2.11295 38.301)" fill="#69b7cf" stroke-width=".471333" aria-label="CODE">
		<path d="m61.3101 3.13431h-1.28635q-.029458-.451694-.235667-.815013-.206208-.363319-.549888-.618624-.333861-.255305-.795374-.392777-.451694-.137472-.972124-.137472-.716819 0-1.29616.255305-.579347.245486-.991763.736458-.402597.481152-.628444 1.19797-.216027.716819-.216027 1.63985t.216027 1.63985q.225847.706999.628444 1.19797t.972124.746277q.579346.255305 1.28635.255305 1.11942 0 1.80678-.540069t.775735-1.56129h1.28635q-.06874.756096-.382958 1.34526-.304403.589166-.815013 1.00158-.500791.402597-1.17833.618624-.677541.216028-1.47292.216028-1.02122 0-1.83624-.34368-.815013-.3535-1.39436-.991763-.569527-.638263-.883749-1.55147-.304403-.913207-.304403-2.03262t.314222-2.03262.883749-1.55147q.579347-.638263 1.39436-.981943.815013-.3535 1.82642-.3535.756096 0 1.42382.216028.677541.216028 1.18815.618624.52043.402597.844471.972124.324042.559708.392778 1.24707z"/>
		<path d="m67.1723.0902833q.981943 0 1.8166.3535.834652.3535 1.43364 1.00158.608805.638263.942665 1.55147.343681.903388.343681 2.00316 0 1.08996-.333861 1.99335-.333861.903388-.942666 1.56129-.598985.648083-1.43364 1.0114-.824833.3535-1.82642.3535t-1.83623-.3535q-.834652-.3535-1.44346-1.00158-.598985-.648083-.932846-1.55147-.333861-.913207-.333861-2.01298 0-1.1096.333861-2.01298.34368-.913207.952485-1.55147.608805-.648083 1.43364-.991763.834652-.3535 1.82642-.3535zm-.0098 8.74912q.706999 0 1.30598-.255305.598986-.265125 1.03104-.756096.432055-.500791.667721-1.20779.245486-.716819.245486-1.62021 0-.913207-.245486-1.62021-.245485-.706999-.67754-1.19797-.422236-.490972-1.02122-.746277-.589166-.255305-1.27653-.255305-.706999 0-1.3158.265125-.598986.255305-1.03104.746277t-.677541 1.19797q-.245486.706999-.245486 1.61039 0 .903388.235667 1.62021.245486.706999.677541 1.20779.432055.490972 1.02122.756096.598985.255305 1.30598.255305z"/>
		<path d="m81.2436 4.9509q0 4.8017-4.84098 4.8017h-3.01457v-9.49539h3.01457q4.84098 0 4.84098 4.69369zm-1.29616 0q0-.834652-.16693-1.49255-.166931-.657902-.569528-1.11942-.402596-.461513-1.09978-.706999-.687361-.245486-1.72822-.245486h-1.73804v7.23692h1.73804q1.04086 0 1.72822-.245486.68736-.255305 1.08996-.726638.412416-.471333.579347-1.14887.16693-.68736.16693-1.55147z"/>
		<path d="m90.0614 9.75261h-7.08963v-9.49539h6.8736v1.12923h-5.61672v2.88691h5.2534v1.12923h-5.2534v3.22077h5.83274z"/>
	</g>
</svg>
