<?xml version="1.0" encoding="UTF-8"?>
<svg height="50px" version="1.1" viewBox="-55 -18 306 100" xmlns="http://www.w3.org/2000/svg">
 <g transform="matrix(1.2483 0 0 1.2483 13.164 -55.438)">
  <g transform="matrix(.78972 0 0 .70018 -9.8275 49.74)">
   <path d="m-20.8 73.9-31.2-89.8h8.5l31.1 89.8z" fill="#d9d9d9"/>
   <g transform="matrix(.99982 0 0 .99982 2.7096 .010709)">
    <path d="m-3.6 66.1-25.2-72.8h13.5l25.1 72.8z" fill="#69b7cf"/>
    <path d="m26.3 12.6-15.2 46.9-5.7-18.6 15.2-47.6h12.6l17.1 51 18.1-51h13.4l-25.3 72.8h-12.6z" fill="#69b7cf"/>
   </g>
   <g transform="translate(148.1)">
    <path d="m94.4-15.9h8.5l-30.7 89.8h-8.5z" fill="#d9d9d9"/>
   </g>
  </g>
  <g transform="matrix(.84861 0 0 .84861 -2.0683 15.828)">
   <g transform="matrix(.93774 0 0 .93774 8.3188 5.5414)">
    <path d="m145.28 94.696h-28.462v-45.948h6.082v40.484h22.38z" fill="#69b7cf" stroke-width="4.8656"/>
   </g>
   <g transform="matrix(.92112 0 0 .92112 8.1634 5.4759)">
    <path d="m90.863 49.307q4.7516 0 8.7902 1.7106 4.0387 1.7106 6.9374 4.8466 2.946 3.0886 4.5615 7.5077 1.6631 4.3715 1.6631 9.6933 0 5.2743-1.6155 9.6456-1.6155 4.3715-4.5615 7.5549-2.8984 3.136-6.9374 4.8943-3.9913 1.7106-8.8379 1.7106t-8.8856-1.7106q-4.0389-1.7106-6.9846-4.8466-2.8984-3.136-4.514-7.5077-1.6155-4.419-1.6155-9.741 0-5.3692 1.6155-9.741 1.6631-4.419 4.6091-7.5077 2.946-3.136 6.9374-4.7991 4.0389-1.7106 8.8379-1.7106zm-0.04768 42.337q3.4211 0 6.3195-1.2354 2.8984-1.2829 4.9892-3.6587 2.0907-2.4233 3.2311-5.8446 1.1879-3.4687 1.1879-7.84 0-4.419-1.1879-7.84-1.1879-3.4211-3.2786-5.7969-2.0432-2.3758-4.9415-3.6112-2.851-1.2354-6.1769-1.2354-3.4211 0-6.3672 1.2829-2.8984 1.2354-4.9892 3.6112-2.0907 2.3758-3.2786 5.7969t-1.1879 7.7928 1.1404 7.84q1.1879 3.4211 3.2786 5.8446 2.0907 2.3758 4.9415 3.6587 2.8984 1.2354 6.3195 1.2354z" fill="#69b7cf" stroke-width="4.8656"/>
   </g>
   <g transform="translate(77.204 -.28956)">
    <path d="m87.864 51.183q4.3768 0 8.0968 1.5756t6.3902 4.4643q2.7136 2.8449 4.2017 6.9154 1.5319 4.0266 1.5319 8.9287 0 4.8583-1.4881 8.8847-1.4881 4.0266-4.2017 6.9589-2.6698 2.8887-6.3902 4.5082-3.6765 1.5756-8.1408 1.5756-4.4643 0-8.1847-1.5756-3.7203-1.5756-6.4336-4.4643-2.6698-2.8887-4.1579-6.9154-1.4881-4.0704-1.4881-8.9726 0-4.9457 1.4881-8.9726 1.5319-4.0704 4.2455-6.9154 2.7136-2.8887 6.3902-4.4205 3.7203-1.5756 8.1408-1.5756zm-0.04392 38.997q3.1512 0 5.821-1.138 2.6698-1.1817 4.5956-3.3701 1.9258-2.2322 2.9762-5.3836 1.0942-3.195 1.0942-7.2215 0-4.0704-1.0942-7.2215-1.0942-3.1512-3.02-5.3396-1.882-2.1884-4.5517-3.3264-2.6261-1.138-5.6897-1.138-3.1512 0-5.8649 1.1817-2.6698 1.138-4.5956 3.3264-1.9258 2.1884-3.02 5.3396t-1.0942 7.1781 1.0504 7.2215q1.0942 3.1512 3.02 5.3836 1.9258 2.1884 4.5517 3.3701 2.6698 1.138 5.821 1.138z" fill="#69b7cf" stroke-width="4.4818"/>
   </g>
  </g>
 </g>
</svg>
