<svg version="1.1" width="152px" height="24px" viewBox="0 0 152 10" xmlns="http://www.w3.org/2000/svg">
	<g style="fill:#69b7cf;stroke-width:.471333" aria-label="CODE">
		<path d="m61.3101 3.13431h-1.28635q-.029458-.451694-.235667-.815013-.206208-.363319-.549888-.618624-.333861-.255305-.795374-.392777-.451694-.137472-.972124-.137472-.716819 0-1.29616.255305-.579347.245486-.991763.736458-.402597.481152-.628444 1.19797-.216027.716819-.216027 1.63985t.216027 1.63985q.225847.706999.628444 1.19797t.972124.746277q.579346.255305 1.28635.255305 1.11942 0 1.80678-.540069.68736-.540069.775735-1.56129h1.28635q-.06874.756096-.382958 1.34526-.304403.589166-.815013 1.00158-.500791.402597-1.17833.618624-.677541.216028-1.47292.216028-1.02122 0-1.83624-.34368-.815013-.3535-1.39436-.991763-.569527-.638263-.883749-1.55147-.304403-.913207-.304403-2.03262t.314222-2.03262q.314222-.913207.883749-1.55147.579347-.638263 1.39436-.981943.815013-.3535 1.82642-.3535.756096 0 1.42382.216028.677541.216028 1.18815.618624.52043.402597.844471.972124.324042.559708.392778 1.24707z" style="fill:#69b7cf;stroke-width:.471333"/>
		<path d="m67.1723.0902833q.981943 0 1.8166.3535.834652.3535 1.43364 1.00158.608805.638263.942665 1.55147.343681.903388.343681 2.00316 0 1.08996-.333861 1.99335-.333861.903388-.942666 1.56129-.598985.648083-1.43364 1.0114-.824833.3535-1.82642.3535t-1.83623-.3535q-.834652-.3535-1.44346-1.00158-.598985-.648083-.932846-1.55147-.333861-.913207-.333861-2.01298 0-1.1096.333861-2.01298.34368-.913207.952485-1.55147.608805-.648083 1.43364-.991763.834652-.3535 1.82642-.3535zm-.0098 8.74912q.706999 0 1.30598-.255305.598986-.265125 1.03104-.756096.432055-.500791.667721-1.20779.245486-.716819.245486-1.62021 0-.913207-.245486-1.62021-.245485-.706999-.67754-1.19797-.422236-.490972-1.02122-.746277-.589166-.255305-1.27653-.255305-.706999 0-1.3158.265125-.598986.255305-1.03104.746277t-.677541 1.19797q-.245486.706999-.245486 1.61039 0 .903388.235667 1.62021.245486.706999.677541 1.20779.432055.490972 1.02122.756096.598985.255305 1.30598.255305z" style="fill:#69b7cf;stroke-width:.471333"/>
		<path d="m81.2436 4.9509q0 4.8017-4.84098 4.8017h-3.01457v-9.49539h3.01457q4.84098 0 4.84098 4.69369zm-1.29616 0q0-.834652-.16693-1.49255-.166931-.657902-.569528-1.11942-.402596-.461513-1.09978-.706999-.687361-.245486-1.72822-.245486h-1.73804v7.23692h1.73804q1.04086 0 1.72822-.245486.68736-.255305 1.08996-.726638.412416-.471333.579347-1.14887.16693-.68736.16693-1.55147z" style="fill:#69b7cf;stroke-width:.471333"/>
		<path d="m90.0614 9.75261h-7.08963v-9.49539h6.8736v1.12923h-5.61672v2.88691h5.2534v1.12923h-5.2534v3.22077h5.83274z" style="fill:#69b7cf;stroke-width:.471333"/>
	</g>
</svg>
