<svg version='1.1' xmlns='http://www.w3.org/2000/svg' x='0px' y='0px'
	 viewBox="-9 1.4 200 200">
	<path fill='none' d="M91,108.6" />
	<path fill='none' d="M91,86.4" />
	<g id='menu_dash_1'>
		<path fill='#D9D9D9' d="M163,51c0,3.9-3.1,7-7,7H26c-3.9,0-7-3.1-7-7v0c0-3.9,3.1-7,7-7h130C159.9,44,163,47.1,163,51L163,51z"/>
	</g>
	<g id='menu_dash_2'>
		<path fill='#D9D9D9' d="M163,101c0,3.9-3.1,7-7,7H26c-3.9,0-7-3.1-7-7v0c0-3.9,3.1-7,7-7h130C159.9,94,163,97.1,163,101L163,101z" />
	</g>
	<g id='menu_dash_3'>
		<path fill='#D9D9D9' d="M163,151c0,3.9-3.1,7-7,7H26c-3.9,0-7-3.1-7-7l0,0c0-3.9,3.1-7,7-7h130C159.9,144,163,147.1,163,151
			L163,151z" />
	</g>
</svg>
