<svg version="1.1" viewBox="-399 226 160 110" xmlns="http://www.w3.org/2000/svg">
	<rect x="-399" y="226" width="160" height="110" fill="#F8F8F8" stroke-width="0"/>
	<path d="m-374.24 282.89-14.794-37.752h4.0346l14.746 37.752z" fill="#d9d9d9"/>
	<path d="m-366.15 279.62-11.96-30.596h6.4361l11.864 30.596z" fill="#69b7cf"/>
	<path d="m-351.98 257.14-7.2046 19.693-2.6897-7.829 7.2046-19.981h5.9558l8.1172 21.422 8.5975-21.422h6.3401l-12.008 30.596h-5.9558z" fill="#69b7cf"/>
	<path d="m-255.62 245.03h4.0346l-14.553 37.752h-4.0346z" fill="#d9d9d9"/>
	<g transform="translate(.52945)" fill="#69b7cf" stroke-width=".81595">
		<path d="m-290.53 278.7h-13.129v-21.202h2.7825v18.694h10.346z"/>
		<path d="m-315.69 257.31c1.4501 0 2.7826 0.27433 3.9975 0.78381s2.273 1.2541 3.1352 2.1947c0.90138 0.94059 1.5676 2.0771 2.0771 3.4096 0.50947 1.3325 0.74462 2.7825 0.74462 4.3894 0 1.6068-0.23515 3.0569-0.74462 4.3894-0.47029 1.3325-1.1757 2.469-2.0379 3.4096-0.90139 0.94058-1.9595 1.6852-3.1744 2.2339-1.1757 0.50949-2.5474 0.78382-3.9975 0.78382-1.45 0-2.8217-0.27433-4.0366-0.78382-1.2149-0.50947-2.2731-1.2541-3.1744-2.1947-0.8622-0.94057-1.5676-2.0771-2.0379-3.4096-0.47028-1.3325-0.74461-2.8217-0.74461-4.4285s0.27433-3.0961 0.74461-4.4285c0.50949-1.3325 1.2149-2.469 2.0771-3.4096 0.90139-0.94057 1.9595-1.646 3.1744-2.1555 1.2149-0.50948 2.5474-0.78381 3.9974-0.78381zm-0.0392 19.203c1.0582 0 1.9987-0.19594 2.9001-0.54866 0.86218-0.39191 1.6068-0.94058 2.2339-1.646 0.66624-0.74463 1.1365-1.646 1.4892-2.665 0.35271-1.0582 0.54866-2.2339 0.54866-3.5664 0-1.3325-0.19595-2.5082-0.54866-3.5663-0.35272-1.019-0.86219-1.8812-1.4892-2.6258-0.62705-0.70543-1.3717-1.2541-2.2339-1.646-0.8622-0.35272-1.8028-0.54867-2.8217-0.54867s-1.9987 0.19595-2.9001 0.58785c-0.8622 0.39192-1.6068 0.9014-2.2339 1.646-0.62705 0.70544-1.1365 1.6068-1.4892 2.6258-0.35271 1.019-0.54867 2.1947-0.54867 3.5272 0 1.3325 0.15677 2.5082 0.50948 3.5664 0.35272 1.019 0.86219 1.9203 1.4892 2.665 0.62706 0.70543 1.3717 1.2541 2.2339 1.646 0.90138 0.35272 1.842 0.54866 2.8609 0.54866z"/>
		<path d="m-281.2 257.31c1.45 0 2.7433 0.27433 3.9974 0.78381 1.2149 0.50948 2.2731 1.2541 3.1353 2.1947 0.90139 0.94059 1.5676 2.0771 2.0771 3.4096 0.50948 1.3325 0.74463 2.7825 0.74463 4.3894 0 1.6068-0.23515 3.0569-0.74463 4.3894-0.47029 1.3325-1.1757 2.469-2.0771 3.4096-0.86219 0.94058-1.9203 1.6852-3.1353 2.2339-1.2149 0.50949-2.5474 0.78382-3.9974 0.78382-1.4892 0-2.8217-0.27433-4.0366-0.78382-1.2149-0.50947-2.2731-1.2541-3.1744-2.1947-0.86218-0.94057-1.5676-2.0771-2.0379-3.4096-0.50947-1.3325-0.7446-2.8217-0.7446-4.4285s0.23513-3.0961 0.7446-4.4285c0.50949-1.3325 1.1757-2.469 2.0771-3.4096 0.90139-0.94057 1.9595-1.646 3.1744-2.1555 1.2149-0.50948 2.5474-0.78381 3.9974-0.78381zm-0.0392 19.203c1.0582 0 1.9987-0.19594 2.8609-0.54866 0.90139-0.39191 1.646-0.94058 2.2731-1.646 0.62705-0.74463 1.1365-1.646 1.4892-2.665 0.35271-1.0582 0.50948-2.2339 0.50948-3.5664 0-1.3325-0.15677-2.5082-0.50948-3.5663-0.39192-1.019-0.8622-1.8812-1.4892-2.6258-0.62705-0.70543-1.3717-1.2541-2.2731-1.646-0.8622-0.35272-1.7636-0.54867-2.7825-0.54867-1.019 0-1.9987 0.19595-2.9001 0.58785-0.86219 0.39192-1.6068 0.9014-2.2731 1.646-0.62704 0.70544-1.0973 1.6068-1.4501 2.6258-0.3919 1.019-0.54867 2.1947-0.54867 3.5272 0 1.3325 0.15677 2.5082 0.50949 3.5664 0.35272 1.019 0.8622 1.9203 1.4892 2.665 0.62705 0.70543 1.3717 1.2541 2.2339 1.646 0.90137 0.35272 1.842 0.54866 2.8609 0.54866z"/>
	</g>
	<g transform="matrix(.56568 0 0 .56568 -135.19 125.86)" fill="#69b7cf">
		<path d="m-341.72 309.77h-2.1134c0-0.4803-0.1441-0.96061-0.38424-1.3449-0.19213-0.38425-0.52834-0.72046-0.86456-1.0086-0.38425-0.28818-0.81652-0.48031-1.2968-0.62439-0.52834-0.1441-1.0567-0.24016-1.633-0.24016-0.76848 0-1.4889 0.14409-2.1134 0.43227-0.6244 0.24016-1.1527 0.67244-1.585 1.2008-0.4803 0.52834-0.81652 1.1527-1.0567 1.9693-0.24015 0.76849-0.3362 1.6811-0.3362 2.6897 0 1.0086 0.096 1.8732 0.3362 2.6417 0.24016 0.7685 0.57638 1.4409 1.0567 1.9693 0.43228 0.52834 0.96062 0.96062 1.585 1.2488 0.62441 0.24016 1.2968 0.38425 2.0653 0.38425 1.2488 0 2.2094-0.28819 2.9779-0.86456s1.1527-1.4409 1.2488-2.5456h2.1134c-0.048 0.81652-0.28819 1.537-0.6244 2.2094-0.33622 0.62441-0.7685 1.1527-1.3449 1.633-0.52834 0.43229-1.1527 0.7685-1.9212 1.0086-0.72045 0.24015-1.537 0.33622-2.4015 0.33622-1.1047 0-2.1134-0.19213-2.9779-0.57637-0.91258-0.38425-1.6811-0.91258-2.3055-1.585-0.62441-0.72046-1.1047-1.537-1.4409-2.5456-0.33621-1.0086-0.48032-2.1134-0.48032-3.3141 0-1.2488 0.14411-2.3535 0.48032-3.3622 0.33622-0.96062 0.81652-1.8252 1.4409-2.5456 0.67243-0.67243 1.3929-1.2008 2.3055-1.585 0.86456-0.38425 1.8732-0.57637 2.9779-0.57637 0.81653 0 1.585 0.0961 2.3535 0.33622 0.72046 0.24016 1.3929 0.57638 1.9212 1.0087 0.57637 0.4803 1.0567 1.0086 1.3929 1.633 0.33621 0.57637 0.57637 1.2488 0.6244 2.0173z"/>
		<path d="m-332.11 304.78c1.0567 0 2.0653 0.19213 2.9779 0.57638 0.91259 0.38424 1.6811 0.96061 2.3535 1.633 0.67243 0.72047 1.1527 1.585 1.537 2.5456 0.38424 1.0086 0.57637 2.1134 0.57637 3.3141 0 1.1527-0.19213 2.2574-0.57637 3.2181-0.33622 1.0086-0.86456 1.8732-1.537 2.5937-0.67243 0.67244-1.4409 1.2488-2.3535 1.633-0.9126 0.38424-1.8732 0.57637-2.9779 0.57637s-2.1134-0.19213-3.0259-0.57637c-0.9126-0.38425-1.6811-0.91258-2.3535-1.633-0.6244-0.72047-1.1527-1.537-1.537-2.5456-0.33621-1.0086-0.52834-2.0653-0.52834-3.2661 0-1.2488 0.19213-2.3055 0.52834-3.3141 0.38425-1.0086 0.91259-1.8252 1.585-2.5456 0.67243-0.72046 1.4409-1.2488 2.3535-1.633 0.91258-0.38425 1.8732-0.57638 2.9779-0.57638zm0 14.313c0.7685 0 1.489-0.14409 2.1134-0.38425 0.67244-0.28818 1.2008-0.72046 1.6811-1.2488s0.86456-1.2008 1.1047-1.9693c0.28819-0.81652 0.38425-1.6811 0.38425-2.6417 0-1.0086-0.0961-1.9212-0.38425-2.6897-0.28818-0.7685-0.6244-1.3929-1.1047-1.9212-0.48031-0.57636-1.0086-0.96061-1.6811-1.2488-0.6244-0.28818-1.3449-0.43227-2.0653-0.43227-0.7685 0-1.489 0.14409-2.1614 0.43227-0.67243 0.28819-1.2008 0.72047-1.6811 1.2488-0.48031 0.52835-0.86455 1.2008-1.1047 1.9693-0.28819 0.76849-0.43228 1.633-0.43228 2.6417 0 0.96062 0.14409 1.8252 0.38425 2.6417 0.28819 0.7685 0.67243 1.4409 1.1047 1.9693 0.48031 0.52834 1.0567 0.96062 1.6811 1.2488 0.67244 0.24016 1.3929 0.38425 2.1614 0.38425z"/>
		<path d="m-309.11 312.75c0 5.2354-2.6417 7.829-7.9251 7.829h-4.8992v-15.514h4.8992c5.2834 0 7.9251 2.5456 7.9251 7.6849zm-2.1134 0c0-0.91259-0.0961-1.7291-0.28819-2.4496-0.14408-0.72046-0.4803-1.3449-0.91259-1.8252-0.43227-0.52832-1.0567-0.91259-1.7771-1.1527-0.76848-0.28818-1.7291-0.43227-2.8338-0.43227h-2.8338v11.864h2.8338c1.1047 0 2.0653-0.14409 2.8338-0.38425 0.72047-0.28818 1.3449-0.67243 1.7771-1.2008 0.43229-0.52834 0.76851-1.1527 0.91259-1.8732 0.19213-0.7685 0.28819-1.585 0.28819-2.5456z"/>
		<path d="m-294.65 320.58h-11.624v-15.514h11.239v1.8252h-9.1739v4.7551h8.5975v1.8252h-8.5975v5.2834h9.5581z"/>
	</g>
</svg>
