<svg version="1.1" viewBox="-399 226 160 110" xmlns="http://www.w3.org/2000/svg">
	<rect x="-399" y="226" width="160" height="110" fill="#F8F8F8" stroke-width="0"/>
	<g>
		<path d="m-374.235 282.887-14.7935-37.7522h4.03459l14.7455 37.7522z" fill="#d9d9d9"/>
		<path d="m-366.358 279.621-11.9597-30.5956h6.43613l11.8636 30.5956z" fill="#69b7cf"/>
		<path d="m-352.189 257.142-7.20464 19.6926-2.68971-7.82903 7.20462-19.9808h5.95583l8.11721 21.4218 8.59751-21.4218h6.34006l-12.0077 30.5956h-5.95583z" fill="#69b7cf"/>
		<path d="m-319.624 245.134h4.0346l-14.5534 37.7522h-4.03459z" fill="#d9d9d9"/>
		<path d="m-272.602 278.66h-16.0903v-25.9847h3.41018v22.9107h12.6802z" fill="#69b7cf"/>
		<path d="m-303.438 252.435c1.77714 0 3.4102.33622 4.89915.96062 1.48897.6244 2.78579 1.53698 3.84247 2.68972 1.10471 1.15275 1.92124 2.54563 2.54563 4.17868.6244 1.63306.91259 3.4102.91259 5.37946s-.28819 3.7464-.91259 5.37945c-.57637 1.63306-1.44092 3.02595-2.49759 4.17869-1.10472 1.15274-2.40154 2.06532-3.89051 2.73775-1.44092.62442-3.12201.96063-4.89915.96063s-3.45821-.33621-4.94717-.96063c-1.48896-.62439-2.78579-1.53699-3.8905-2.68973-1.05668-1.15273-1.92124-2.54561-2.49761-4.17867-.57636-1.63304-.91257-3.45822-.91257-5.42748 0-1.96927.33621-3.79444.91257-5.42749.62441-1.63304 1.48897-3.02593 2.54564-4.17869 1.10472-1.15274 2.40154-2.01729 3.8905-2.64169s3.122-.96062 4.89914-.96062zm-.048 23.5351c1.29684 0 2.44958-.24015 3.55429-.67243 1.05668-.48031 1.96927-1.15275 2.73776-2.01729.81652-.9126 1.39289-2.0173 1.82516-3.2661.43227-1.29684.67243-2.73775.67243-4.37081 0-1.63305-.24016-3.07397-.67243-4.3708-.43228-1.2488-1.05667-2.30548-1.82516-3.21807-.76849-.86455-1.68108-1.53698-2.73776-2.0173-1.05668-.43228-2.20942-.67243-3.45822-.67243s-2.44957.24015-3.55428.72046c-1.05669.48032-1.96927 1.10472-2.73776 2.0173-.7685.86456-1.3929 1.96927-1.82518 3.21806-.43227 1.24881-.67243 2.68973-.67243 4.32278 0 1.63306.19213 3.07397.6244 4.37081.43228 1.2488 1.05668 2.3535 1.82517 3.2661.7685.86454 1.68109 1.53698 2.73777 2.01729 1.1047.43228 2.25745.67243 3.50624.67243z" fill="#69b7cf"/>
		<path d="m-261.171 252.435c1.77714 0 3.36216.33622 4.89914.96062 1.48896.6244 2.7858 1.53698 3.84247 2.68972 1.10471 1.15275 1.92123 2.54563 2.54563 4.17868.62441 1.63306.91259 3.4102.91259 5.37946s-.28818 3.7464-.91259 5.37945c-.57637 1.63306-1.44092 3.02595-2.54563 4.17869-1.05667 1.15274-2.35351 2.06532-3.84247 2.73775-1.48895.62442-3.122.96063-4.89914.96063-1.82517 0-3.45822-.33621-4.94718-.96063-1.48895-.62439-2.78579-1.53699-3.8905-2.68973-1.05668-1.15273-1.92123-2.54561-2.49761-4.17867-.62439-1.63304-.91258-3.45822-.91258-5.42748 0-1.96927.28819-3.79444.91258-5.42749.62441-1.63304 1.44093-3.02593 2.54564-4.17869 1.10471-1.15274 2.40154-2.01729 3.89051-2.64169 1.48894-.6244 3.122-.96062 4.89914-.96062zm-.048 23.5351c1.29684 0 2.44957-.24015 3.50625-.67243 1.10471-.48031 2.01729-1.15275 2.78579-2.01729.76849-.9126 1.39289-2.0173 1.82517-3.2661.43228-1.29684.6244-2.73775.6244-4.37081 0-1.63305-.19212-3.07397-.6244-4.3708-.48031-1.2488-1.05668-2.30548-1.82517-3.21807-.7685-.86455-1.68108-1.53698-2.78579-2.0173-1.05668-.43228-2.16138-.67243-3.41019-.67243-1.2488 0-2.44958.24015-3.55428.72046-1.05668.48032-1.96927 1.10472-2.78579 2.0173-.76849.86456-1.34486 1.96927-1.77714 3.21806-.48031 1.24881-.67244 2.68973-.67244 4.32278 0 1.63306.19213 3.07397.62441 4.37081.43228 1.2488 1.05668 2.3535 1.82517 3.2661.76849.86454 1.68108 1.53698 2.73776 2.01729 1.1047.43228 2.25744.67243 3.50625.67243z" fill="#69b7cf"/>
	</g>
	<g transform="translate(0,-4)" fill="#69b7cf">
		<path d="m-341.719 309.77h-2.11336c0-.4803-.1441-.96061-.38424-1.34486-.19213-.38425-.52834-.72046-.86456-1.00865-.38425-.28818-.81652-.48031-1.29684-.62439-.52834-.1441-1.05667-.24016-1.63305-.24016-.76848 0-1.48894.14409-2.11335.43227-.6244.24016-1.15274.67244-1.58502 1.20077-.4803.52834-.81652 1.15274-1.05668 1.96927-.24015.76849-.3362 1.68108-.3362 2.68973 0 1.00864.096 1.8732.3362 2.64169.24016.7685.57638 1.44093 1.05668 1.96927.43228.52834.96062.96062 1.58502 1.2488.62441.24016 1.29684.38425 2.06533.38425 1.2488 0 2.20941-.28819 2.97791-.86456s1.15273-1.44092 1.2488-2.54563h2.11336c-.048.81652-.28819 1.53698-.6244 2.20941-.33622.62441-.7685 1.15274-1.34486 1.63305-.52834.43229-1.15274.7685-1.92125 1.00865-.72045.24015-1.53698.33622-2.40154.33622-1.1047 0-2.11335-.19213-2.97791-.57637-.91258-.38425-1.68107-.91258-2.30547-1.58502-.62441-.72046-1.10471-1.53699-1.44093-2.54564-.33621-1.00864-.48032-2.11335-.48032-3.31412 0-1.2488.14411-2.35352.48032-3.36216.33622-.96062.81652-1.82517 1.44093-2.54564.67243-.67243 1.39289-1.20076 2.30547-1.58501.86456-.38425 1.87321-.57637 2.97791-.57637.81653 0 1.58503.0961 2.35352.33622.72046.24016 1.39289.57638 1.92123 1.00866.57637.4803 1.05668 1.00864 1.3929 1.63304.33621.57637.57637 1.2488.6244 2.01728z"/>
		<path d="m-332.112 304.775c1.05669 0 2.06533.19213 2.97792.57638.91259.38424 1.68108.96061 2.35351 1.63304.67243.72047 1.15274 1.58503 1.53699 2.54564.38424 1.00864.57637 2.11336.57637 3.31413 0 1.15274-.19213 2.25745-.57637 3.21806-.33622 1.00865-.86456 1.8732-1.53699 2.59367-.67243.67244-1.44092 1.2488-2.35351 1.63305-.9126.38424-1.87321.57637-2.97792.57637s-2.11335-.19213-3.02593-.57637c-.9126-.38425-1.68109-.91258-2.35352-1.63305-.6244-.72047-1.15274-1.53699-1.53699-2.54564-.33621-1.00864-.52834-2.06532-.52834-3.26609 0-1.2488.19213-2.30549.52834-3.31413.38425-1.00865.91259-1.82517 1.58502-2.54564.67243-.72046 1.44092-1.2488 2.35351-1.63304.91258-.38425 1.8732-.57638 2.97791-.57638zm0 14.3132c.7685 0 1.48896-.14409 2.11336-.38425.67244-.28818 1.20077-.72046 1.68108-1.2488s.86456-1.20077 1.10471-1.96927c.28819-.81652.38425-1.68107.38425-2.64169 0-1.00865-.0961-1.92124-.38425-2.68973-.28818-.7685-.6244-1.39289-1.10471-1.92124-.48031-.57636-1.00864-.96061-1.68108-1.2488-.6244-.28818-1.34486-.43227-2.06532-.43227-.7685 0-1.48895.14409-2.16139.43227-.67243.28819-1.20077.72047-1.68108 1.2488-.48031.52835-.86455 1.20078-1.10471 1.96928-.28819.76849-.43228 1.63304-.43228 2.64169 0 .96062.14409 1.82517.38425 2.64169.28819.7685.67243 1.44093 1.1047 1.96927.48031.52834 1.05669.96062 1.68108 1.2488.67244.24016 1.39291.38425 2.16139.38425z"/>
		<path d="m-309.106 312.748c0 5.23536-2.6417 7.82902-7.92509 7.82902h-4.89916v-15.514h4.89916c5.28339 0 7.92509 2.54564 7.92509 7.68494zm-2.11336 0c0-.91259-.0961-1.72911-.28819-2.44957-.14408-.72046-.4803-1.34488-.91259-1.82518-.43227-.52832-1.05667-.91259-1.77714-1.15274-.76848-.28818-1.7291-.43227-2.83381-.43227h-2.83382v11.8636h2.83382c1.10471 0 2.06533-.14409 2.83381-.38425.72047-.28818 1.34487-.67243 1.77714-1.20077.43229-.52834.76851-1.15273.91259-1.8732.19213-.7685.28819-1.58502.28819-2.54564z"/>
		<path d="m-294.648 320.577h-11.6235v-15.514h11.2392v1.82517h-9.17388v4.75506h8.59751v1.82517h-8.59751v5.28339h9.55814z"/>
		<path d="m-285.859 320.866c-1.10471 0-2.06534-.14409-2.88185-.38424-.81653-.24016-1.48897-.62441-2.06533-1.05669-.52835-.4803-.96062-1.05668-1.2488-1.68108-.28818-.67243-.43228-1.39289-.43228-2.16138h1.96927c.048.6244.19211 1.10471.48031 1.53699.24015.43229.57636.81652.9606 1.10471.43228.24016.9126.4803 1.44093.62439.4803.0961 1.05667.19212 1.68107.19212.57637 0 1.10471-.0961 1.53699-.19212.48031-.14409.91258-.28818 1.2488-.52834.33622-.24015.57637-.52834.7685-.81652.19212-.33622.28818-.72046.28818-1.15274 0-.38425-.0961-.76849-.24016-1.05668-.19212-.28818-.43227-.57637-.81652-.7685-.43227-.24015-.91258-.43228-1.53698-.57636-.6244-.19213-1.34487-.38425-2.25745-.57637-.86456-.19213-1.63306-.43229-2.25745-.67243-.6244-.24016-1.15275-.57638-1.53699-.91259-.43228-.33622-.72046-.72046-.91258-1.15274-.19213-.43227-.2882-.96062-.2882-1.53699 0-.6244.1441-1.20076.38425-1.72911.28819-.52833.67243-.96062 1.15274-1.34486.48032-.38425 1.05669-.72047 1.72912-.91259s1.44091-.33622 2.25745-.33622c.86455 0 1.68107.1441 2.35351.33622.76849.19212 1.3929.52834 1.8732.91259.52834.43227.96061.91258 1.24881 1.48896.28817.57636.43227 1.20076.4803 1.96926h-2.01729c-.19212-1.87321-1.48896-2.83382-3.84247-2.83382-1.15274 0-2.06533.24015-2.68973.6244-.62441.43228-.91258 1.00864-.91258 1.77714 0 .28818.048.57637.19211.81652.0961.24016.28819.43229.57638.6244.28818.19213.62439.33623 1.05668.48032.48031.14409 1.05667.28818 1.72911.43227.72046.1441 1.34487.28818 1.8732.43228.52834.19212 1.00864.33622 1.44092.4803.38426.1441.76849.33623 1.10471.57638.38426.19212.67244.48031.96063.81652.28818.28819.4803.67244.67243 1.05667.1441.43229.24016.9126.24016 1.44094 0 .67244-.1441 1.29683-.43228 1.8732-.28819.57637-.72047 1.05668-1.20077 1.48895-.52834.43228-1.10471.72047-1.82517.96062-.72047.24015-1.48896.33622-2.30548.33622z"/>
	</g>
</svg>
