<?xml version="1.0" encoding="UTF-8" standalone="no"?>
<svg
   xmlns:svg="http://www.w3.org/2000/svg"
   xmlns="http://www.w3.org/2000/svg"
   xmlns:sodipodi="http://sodipodi.sourceforge.net/DTD/sodipodi-0.dtd"
   xmlns:inkscape="http://www.inkscape.org/namespaces/inkscape"
   inkscape:version="1.1-dev (dc178fd, 2020-06-01)"
   sodipodi:docname="Root.svg"
   id="svg32"
   viewBox="-399 226 160 110"
   version="1.1">
  <defs
     id="defs36" />
  <sodipodi:namedview
     inkscape:current-layer="svg32"
     inkscape:window-maximized="1"
     inkscape:window-y="-11"
     inkscape:window-x="-11"
     inkscape:cy="55"
     inkscape:cx="80"
     inkscape:zoom="9.44375"
     showgrid="false"
     id="namedview34"
     inkscape:window-height="2080"
     inkscape:window-width="3840"
     inkscape:pageshadow="2"
     inkscape:pageopacity="0"
     guidetolerance="10"
     gridtolerance="10"
     objecttolerance="10"
     borderopacity="1"
     bordercolor="#666666"
     pagecolor="#ffffff" />
  <rect
     id="rect2"
     stroke-width="0"
     fill="#F8F8F8"
     height="110"
     width="160"
     y="226"
     x="-399" />
  <g
     id="g18">
    <path
       id="path4"
       fill="#d9d9d9"
       d="m-374.235 282.887-14.7935-37.7522h4.03459l14.7455 37.7522z" />
    <path
       id="path6"
       fill="#69b7cf"
       d="m -366.14622,279.621 -11.9597,-30.5956 h 6.43613 l 11.8636,30.5956 z" />
    <path
       id="path8"
       fill="#69b7cf"
       d="m -351.97722,257.142 -7.20464,19.6926 -2.68971,-7.82903 7.20462,-19.9808 h 5.95583 l 8.11721,21.4218 8.59751,-21.4218 h 6.34006 l -12.0077,30.5956 h -5.95583 z" />
    <path
       id="path10"
       fill="#d9d9d9"
       d="m -255.624,245.02811 h 4.0346 l -14.5534,37.7522 h -4.03459 z" />
    <g
       transform="translate(0.5294507)"
       id="g856">
      <path
         d="m -290.53168,278.70417 h -13.12885 v -21.20215 h 2.78253 v 18.69393 h 10.34638 z"
         fill="#69b7cf"
         id="path12"
         style="stroke-width:0.815948" />
      <path
         d="m -315.69225,257.30595 c 1.45006,0 2.78255,0.27433 3.99746,0.78381 1.21491,0.50948 2.27305,1.2541 3.13525,2.19467 0.90138,0.94059 1.56763,2.0771 2.0771,3.40959 0.50947,1.33248 0.74462,2.78254 0.74462,4.38935 0,1.60682 -0.23515,3.05687 -0.74462,4.38936 -0.47029,1.33248 -1.17572,2.46901 -2.03791,3.40958 -0.90139,0.94058 -1.95953,1.6852 -3.17444,2.23387 -1.17572,0.50949 -2.5474,0.78382 -3.99746,0.78382 -1.45005,0 -2.82172,-0.27433 -4.03662,-0.78382 -1.21492,-0.50947 -2.27306,-1.25411 -3.17445,-2.19468 -0.8622,-0.94057 -1.56764,-2.07709 -2.03792,-3.40958 -0.47028,-1.33247 -0.74461,-2.82172 -0.74461,-4.42854 0,-1.60682 0.27433,-3.09606 0.74461,-4.42854 0.50949,-1.33248 1.21492,-2.46901 2.07711,-3.4096 0.90139,-0.94057 1.95952,-1.646 3.17444,-2.15548 1.21491,-0.50948 2.54739,-0.78381 3.99744,-0.78381 z m -0.0392,19.2034 c 1.05815,0 1.99873,-0.19594 2.90012,-0.54866 0.86218,-0.39191 1.60681,-0.94058 2.23386,-1.64601 0.66624,-0.74463 1.13653,-1.64601 1.48924,-2.66496 0.35271,-1.05815 0.54866,-2.23386 0.54866,-3.56636 0,-1.33248 -0.19595,-2.50819 -0.54866,-3.56634 -0.35272,-1.01896 -0.86219,-1.88115 -1.48924,-2.62577 -0.62705,-0.70543 -1.37168,-1.2541 -2.23386,-1.64601 -0.8622,-0.35272 -1.80277,-0.54867 -2.82173,-0.54867 -1.01896,0 -1.99872,0.19595 -2.90011,0.58785 -0.8622,0.39192 -1.60682,0.9014 -2.23387,1.64601 -0.62705,0.70544 -1.13653,1.60683 -1.48925,2.62578 -0.35271,1.01896 -0.54867,2.19467 -0.54867,3.52715 0,1.3325 0.15677,2.50821 0.50948,3.56636 0.35272,1.01895 0.86219,1.92033 1.48924,2.66496 0.62706,0.70543 1.37169,1.2541 2.23388,1.64601 0.90138,0.35272 1.84196,0.54866 2.86091,0.54866 z"
         fill="#69b7cf"
         id="path14"
         style="stroke-width:0.815948" />
      <path
         d="m -281.20459,257.30595 c 1.45005,0 2.74334,0.27433 3.99744,0.78381 1.21492,0.50948 2.27307,1.2541 3.13526,2.19467 0.90139,0.94059 1.56762,2.0771 2.0771,3.40959 0.50948,1.33248 0.74463,2.78254 0.74463,4.38935 0,1.60682 -0.23515,3.05687 -0.74463,4.38936 -0.47029,1.33248 -1.17571,2.46901 -2.0771,3.40958 -0.86219,0.94058 -1.92034,1.6852 -3.13526,2.23387 -1.2149,0.50949 -2.54739,0.78382 -3.99744,0.78382 -1.48924,0 -2.82172,-0.27433 -4.03664,-0.78382 -1.2149,-0.50947 -2.27306,-1.25411 -3.17445,-2.19468 -0.86218,-0.94057 -1.56762,-2.07709 -2.03792,-3.40958 -0.50947,-1.33247 -0.7446,-2.82172 -0.7446,-4.42854 0,-1.60682 0.23513,-3.09606 0.7446,-4.42854 0.50949,-1.33248 1.17574,-2.46901 2.07712,-3.4096 0.90139,-0.94057 1.95953,-1.646 3.17445,-2.15548 1.2149,-0.50948 2.54739,-0.78381 3.99744,-0.78381 z m -0.0392,19.2034 c 1.05815,0 1.99871,-0.19594 2.86091,-0.54866 0.90139,-0.39191 1.64601,-0.94058 2.27306,-1.64601 0.62705,-0.74463 1.13653,-1.64601 1.48925,-2.66496 0.35271,-1.05815 0.50948,-2.23386 0.50948,-3.56636 0,-1.33248 -0.15677,-2.50819 -0.50948,-3.56634 -0.39192,-1.01896 -0.8622,-1.88115 -1.48925,-2.62577 -0.62705,-0.70543 -1.37167,-1.2541 -2.27306,-1.64601 -0.8622,-0.35272 -1.76357,-0.54867 -2.78254,-0.54867 -1.01895,0 -1.99872,0.19595 -2.9001,0.58785 -0.86219,0.39192 -1.60682,0.9014 -2.27306,1.64601 -0.62704,0.70544 -1.09734,1.60683 -1.45006,2.62578 -0.3919,1.01896 -0.54867,2.19467 -0.54867,3.52715 0,1.3325 0.15677,2.50821 0.50949,3.56636 0.35272,1.01895 0.8622,1.92033 1.48924,2.66496 0.62705,0.70543 1.37168,1.2541 2.23387,1.64601 0.90137,0.35272 1.84196,0.54866 2.86092,0.54866 z"
         fill="#69b7cf"
         id="path16"
         style="stroke-width:0.815948" />
    </g>
  </g>
  <g
     id="g30"
     fill="#69b7cf"
     transform="matrix(0.56567881,0,0,0.56567881,-137.9645,125.86453)">
    <path
       id="path20"
       d="m -341.719,309.77 h -2.11336 c 0,-0.4803 -0.1441,-0.96061 -0.38424,-1.34486 -0.19213,-0.38425 -0.52834,-0.72046 -0.86456,-1.00865 -0.38425,-0.28818 -0.81652,-0.48031 -1.29684,-0.62439 -0.52834,-0.1441 -1.05667,-0.24016 -1.63305,-0.24016 -0.76848,0 -1.48894,0.14409 -2.11335,0.43227 -0.6244,0.24016 -1.15274,0.67244 -1.58502,1.20077 -0.4803,0.52834 -0.81652,1.15274 -1.05668,1.96927 -0.24015,0.76849 -0.3362,1.68108 -0.3362,2.68973 0,1.00864 0.096,1.8732 0.3362,2.64169 0.24016,0.7685 0.57638,1.44093 1.05668,1.96927 0.43228,0.52834 0.96062,0.96062 1.58502,1.2488 0.62441,0.24016 1.29684,0.38425 2.06533,0.38425 1.2488,0 2.20941,-0.28819 2.97791,-0.86456 0.7685,-0.57637 1.15273,-1.44092 1.2488,-2.54563 h 2.11336 c -0.048,0.81652 -0.28819,1.53698 -0.6244,2.20941 -0.33622,0.62441 -0.7685,1.15274 -1.34486,1.63305 -0.52834,0.43229 -1.15274,0.7685 -1.92125,1.00865 -0.72045,0.24015 -1.53698,0.33622 -2.40154,0.33622 -1.1047,0 -2.11335,-0.19213 -2.97791,-0.57637 -0.91258,-0.38425 -1.68107,-0.91258 -2.30547,-1.58502 -0.62441,-0.72046 -1.10471,-1.53699 -1.44093,-2.54564 -0.33621,-1.00864 -0.48032,-2.11335 -0.48032,-3.31412 0,-1.2488 0.14411,-2.35352 0.48032,-3.36216 0.33622,-0.96062 0.81652,-1.82517 1.44093,-2.54564 0.67243,-0.67243 1.39289,-1.20076 2.30547,-1.58501 0.86456,-0.38425 1.87321,-0.57637 2.97791,-0.57637 0.81653,0 1.58503,0.0961 2.35352,0.33622 0.72046,0.24016 1.39289,0.57638 1.92123,1.00866 0.57637,0.4803 1.05668,1.00864 1.3929,1.63304 0.33621,0.57637 0.57637,1.2488 0.6244,2.01728 z" />
    <path
       id="path22"
       d="m -332.112,304.775 c 1.05669,0 2.06533,0.19213 2.97792,0.57638 0.91259,0.38424 1.68108,0.96061 2.35351,1.63304 0.67243,0.72047 1.15274,1.58503 1.53699,2.54564 0.38424,1.00864 0.57637,2.11336 0.57637,3.31413 0,1.15274 -0.19213,2.25745 -0.57637,3.21806 -0.33622,1.00865 -0.86456,1.8732 -1.53699,2.59367 -0.67243,0.67244 -1.44092,1.2488 -2.35351,1.63305 -0.9126,0.38424 -1.87321,0.57637 -2.97792,0.57637 -1.10471,0 -2.11335,-0.19213 -3.02593,-0.57637 -0.9126,-0.38425 -1.68109,-0.91258 -2.35352,-1.63305 -0.6244,-0.72047 -1.15274,-1.53699 -1.53699,-2.54564 -0.33621,-1.00864 -0.52834,-2.06532 -0.52834,-3.26609 0,-1.2488 0.19213,-2.30549 0.52834,-3.31413 0.38425,-1.00865 0.91259,-1.82517 1.58502,-2.54564 0.67243,-0.72046 1.44092,-1.2488 2.35351,-1.63304 0.91258,-0.38425 1.8732,-0.57638 2.97791,-0.57638 z m 0,14.3132 c 0.7685,0 1.48896,-0.14409 2.11336,-0.38425 0.67244,-0.28818 1.20077,-0.72046 1.68108,-1.2488 0.48031,-0.52834 0.86456,-1.20077 1.10471,-1.96927 0.28819,-0.81652 0.38425,-1.68107 0.38425,-2.64169 0,-1.00865 -0.0961,-1.92124 -0.38425,-2.68973 -0.28818,-0.7685 -0.6244,-1.39289 -1.10471,-1.92124 -0.48031,-0.57636 -1.00864,-0.96061 -1.68108,-1.2488 -0.6244,-0.28818 -1.34486,-0.43227 -2.06532,-0.43227 -0.7685,0 -1.48895,0.14409 -2.16139,0.43227 -0.67243,0.28819 -1.20077,0.72047 -1.68108,1.2488 -0.48031,0.52835 -0.86455,1.20078 -1.10471,1.96928 -0.28819,0.76849 -0.43228,1.63304 -0.43228,2.64169 0,0.96062 0.14409,1.82517 0.38425,2.64169 0.28819,0.7685 0.67243,1.44093 1.1047,1.96927 0.48031,0.52834 1.05669,0.96062 1.68108,1.2488 0.67244,0.24016 1.39291,0.38425 2.16139,0.38425 z" />
    <path
       id="path24"
       d="m -309.106,312.748 c 0,5.23536 -2.6417,7.82902 -7.92509,7.82902 h -4.89916 v -15.514 h 4.89916 c 5.28339,0 7.92509,2.54564 7.92509,7.68494 z m -2.11336,0 c 0,-0.91259 -0.0961,-1.72911 -0.28819,-2.44957 -0.14408,-0.72046 -0.4803,-1.34488 -0.91259,-1.82518 -0.43227,-0.52832 -1.05667,-0.91259 -1.77714,-1.15274 -0.76848,-0.28818 -1.7291,-0.43227 -2.83381,-0.43227 h -2.83382 v 11.8636 h 2.83382 c 1.10471,0 2.06533,-0.14409 2.83381,-0.38425 0.72047,-0.28818 1.34487,-0.67243 1.77714,-1.20077 0.43229,-0.52834 0.76851,-1.15273 0.91259,-1.8732 0.19213,-0.7685 0.28819,-1.58502 0.28819,-2.54564 z" />
    <path
       id="path26"
       d="m -294.648,320.577 h -11.6235 v -15.514 h 11.2392 v 1.82517 h -9.17388 v 4.75506 h 8.59751 v 1.82517 h -8.59751 v 5.28339 h 9.55814 z" />
    <path
       id="path28"
       d="m -285.859,320.866 c -1.10471,0 -2.06534,-0.14409 -2.88185,-0.38424 -0.81653,-0.24016 -1.48897,-0.62441 -2.06533,-1.05669 -0.52835,-0.4803 -0.96062,-1.05668 -1.2488,-1.68108 -0.28818,-0.67243 -0.43228,-1.39289 -0.43228,-2.16138 h 1.96927 c 0.048,0.6244 0.19211,1.10471 0.48031,1.53699 0.24015,0.43229 0.57636,0.81652 0.9606,1.10471 0.43228,0.24016 0.9126,0.4803 1.44093,0.62439 0.4803,0.0961 1.05667,0.19212 1.68107,0.19212 0.57637,0 1.10471,-0.0961 1.53699,-0.19212 0.48031,-0.14409 0.91258,-0.28818 1.2488,-0.52834 0.33622,-0.24015 0.57637,-0.52834 0.7685,-0.81652 0.19212,-0.33622 0.28818,-0.72046 0.28818,-1.15274 0,-0.38425 -0.0961,-0.76849 -0.24016,-1.05668 -0.19212,-0.28818 -0.43227,-0.57637 -0.81652,-0.7685 -0.43227,-0.24015 -0.91258,-0.43228 -1.53698,-0.57636 -0.6244,-0.19213 -1.34487,-0.38425 -2.25745,-0.57637 -0.86456,-0.19213 -1.63306,-0.43229 -2.25745,-0.67243 -0.6244,-0.24016 -1.15275,-0.57638 -1.53699,-0.91259 -0.43228,-0.33622 -0.72046,-0.72046 -0.91258,-1.15274 -0.19213,-0.43227 -0.2882,-0.96062 -0.2882,-1.53699 0,-0.6244 0.1441,-1.20076 0.38425,-1.72911 0.28819,-0.52833 0.67243,-0.96062 1.15274,-1.34486 0.48032,-0.38425 1.05669,-0.72047 1.72912,-0.91259 0.67243,-0.19212 1.44091,-0.33622 2.25745,-0.33622 0.86455,0 1.68107,0.1441 2.35351,0.33622 0.76849,0.19212 1.3929,0.52834 1.8732,0.91259 0.52834,0.43227 0.96061,0.91258 1.24881,1.48896 0.28817,0.57636 0.43227,1.20076 0.4803,1.96926 h -2.01729 c -0.19212,-1.87321 -1.48896,-2.83382 -3.84247,-2.83382 -1.15274,0 -2.06533,0.24015 -2.68973,0.6244 -0.62441,0.43228 -0.91258,1.00864 -0.91258,1.77714 0,0.28818 0.048,0.57637 0.19211,0.81652 0.0961,0.24016 0.28819,0.43229 0.57638,0.6244 0.28818,0.19213 0.62439,0.33623 1.05668,0.48032 0.48031,0.14409 1.05667,0.28818 1.72911,0.43227 0.72046,0.1441 1.34487,0.28818 1.8732,0.43228 0.52834,0.19212 1.00864,0.33622 1.44092,0.4803 0.38426,0.1441 0.76849,0.33623 1.10471,0.57638 0.38426,0.19212 0.67244,0.48031 0.96063,0.81652 0.28818,0.28819 0.4803,0.67244 0.67243,1.05667 0.1441,0.43229 0.24016,0.9126 0.24016,1.44094 0,0.67244 -0.1441,1.29683 -0.43228,1.8732 -0.28819,0.57637 -0.72047,1.05668 -1.20077,1.48895 -0.52834,0.43228 -1.10471,0.72047 -1.82517,0.96062 -0.72047,0.24015 -1.48896,0.33622 -2.30548,0.33622 z" />
  </g>
</svg>
