<svg xmlns='http://www.w3.org/2000/svg' x='0px' y='0px'
	 viewBox="0 0 76 76">
	<path fill='#D9D9D9' d="M76,14.4c-2.8,1.2-5.8,2.1-9,2.5c3.2-1.9,5.7-5,6.9-8.6c-3,1.8-6.3,3.1-9.9,3.8c-2.8-3-6.9-4.9-11.4-4.9
		C44,7.1,37,14.1,37,22.7c0,1.2,0.1,2.4,0.4,3.6C24.5,25.6,13,19.4,5.3,10c-1.3,2.3-2.1,5-2.1,7.8c0,5.4,2.8,10.2,6.9,13
		c-2.6-0.1-5-0.8-7.1-2c0,0.1,0,0.1,0,0.2c0,7.6,5.4,13.9,12.5,15.3c-1.3,0.4-2.7,0.5-4.1,0.5c-1,0-2-0.1-2.9-0.3
		c2,6.2,7.7,10.7,14.6,10.8c-5.3,4.2-12.1,6.7-19.4,6.7c-1.3,0-2.5-0.1-3.7-0.2c6.9,4.4,15.1,7,23.9,7c28.7,0,44.4-23.8,44.4-44.4
		c0-0.7,0-1.3,0-2C71.3,20.3,73.9,17.6,76,14.4z" />
</svg>
